<svg width="315" height="184" viewBox="0 0 315 184" fill="none" xmlns="http://www.w3.org/2000/svg">
<g clip-path="url(#clip0_1137_21823)">
<g clip-path="url(#clip1_1137_21823)">
<circle cx="121.631" cy="119.434" r="104.899" fill="#FFE8D7"/>
<path d="M15.4245 79.2118H103.654M57.5811 125.286H145.81M57.5814 167.441V79.2122M103.653 125.285V37.0566" stroke="#FCC49B" stroke-width="1.39556" stroke-linecap="round" stroke-linejoin="round"/>
<path d="M80.618 171.358C118.786 171.358 149.727 140.417 149.727 102.249C149.727 64.0818 118.786 33.1406 80.618 33.1406C42.4506 33.1406 11.5094 64.0818 11.5094 102.249C11.5094 140.417 42.4506 171.358 80.618 171.358Z" stroke="#FCC49B" stroke-width="1.39556" stroke-linecap="round" stroke-linejoin="round"/>
<path d="M310.892 136.84C312.466 165.859 255.733 224.865 185.804 203.025C153.281 192.867 156.036 176.006 131.305 153.784C116.564 140.54 95.3845 130.525 89.4939 111.274C84.4049 94.6569 87.5258 76.7966 96.3484 65.1791C116.19 39.053 156.246 21.1626 195.714 62.3269C235.182 103.491 306.822 61.9986 310.892 136.84Z" fill="url(#paint0_linear_1137_21823)"/>
<path d="M225.329 126.026H103.317C99.7032 126.026 96.9874 123.585 96.9874 120.818V56.5711C96.9874 53.8041 99.7032 51.3633 103.317 51.3633H225.329C228.943 51.3633 231.659 53.8041 231.659 56.5711V120.818C231.659 123.585 228.943 126.026 225.329 126.026Z" fill="white" stroke="#E1E4E5" stroke-width="1.39556"/>
<path fill-rule="evenodd" clip-rule="evenodd" d="M108.006 72.9875V96.9192C108.006 98.2185 109.046 99.2704 110.331 99.2704H124.418L130.567 90.5049C130.861 90.0869 131.594 90.0869 131.887 90.5049L134.04 93.5744L134.056 93.5981L134.071 93.5772L138.688 86.873C139.008 86.4089 139.808 86.4089 140.127 86.873L146.242 95.7529V72.9875C146.242 71.6886 145.199 70.6367 143.917 70.6367H110.331C109.046 70.6367 108.006 71.6886 108.006 72.9875Z" fill="#F08519"/>
<path d="M118.79 86.9373C116.547 86.9373 114.728 85.1189 114.728 82.8759C114.728 80.6329 116.547 78.8145 118.79 78.8145C121.033 78.8145 122.851 80.6329 122.851 82.8759C122.851 85.1189 121.033 86.9373 118.79 86.9373Z" fill="white"/>
<path d="M231.659 59.4718H96.9874V57.6143C96.9874 54.1195 99.8218 51.2852 103.317 51.2852H225.329C228.824 51.2852 231.659 54.1195 231.659 57.6143V59.4718Z" fill="white" stroke="#E1E4E5" stroke-width="1.39556"/>
<path d="M103.327 57.1917C103.728 57.1917 104.111 57.0327 104.394 56.7498C104.677 56.4668 104.836 56.083 104.836 55.6828C104.836 55.2826 104.677 54.8988 104.394 54.6158C104.111 54.3328 103.728 54.1738 103.327 54.1738C102.927 54.1738 102.543 54.3328 102.26 54.6158C101.977 54.8988 101.818 55.2826 101.818 55.6828C101.818 56.083 101.977 56.4668 102.26 56.7498C102.543 57.0327 102.927 57.1917 103.327 57.1917ZM109.615 57.1917C110.016 57.1917 110.399 57.0327 110.682 56.7498C110.965 56.4668 111.124 56.083 111.124 55.6828C111.124 55.2826 110.965 54.8988 110.682 54.6158C110.399 54.3328 110.016 54.1738 109.615 54.1738C109.215 54.1738 108.831 54.3328 108.548 54.6158C108.265 54.8988 108.107 55.2826 108.107 55.6828C108.107 56.083 108.265 56.4668 108.548 56.7498C108.831 57.0327 109.215 57.1917 109.615 57.1917ZM115.652 57.1917C116.052 57.1917 116.436 57.0327 116.719 56.7498C117.002 56.4668 117.161 56.083 117.161 55.6828C117.161 55.2826 117.002 54.8988 116.719 54.6158C116.436 54.3328 116.052 54.1738 115.652 54.1738C115.252 54.1738 114.868 54.3328 114.585 54.6158C114.302 54.8988 114.143 55.2826 114.143 55.6828C114.143 56.083 114.302 56.4668 114.585 56.7498C114.868 57.0327 115.252 57.1917 115.652 57.1917Z" fill="#E1E4E5"/>
<path d="M218.296 70.6367H154.752C153.386 70.6367 152.278 71.7444 152.278 73.1107C152.278 74.477 153.386 75.5847 154.752 75.5847H218.296C219.662 75.5847 220.77 74.477 220.77 73.1107C220.77 71.7444 219.662 70.6367 218.296 70.6367Z" fill="#E1E4E5"/>
<path d="M218.296 82.0977H154.752C153.386 82.0977 152.278 83.2053 152.278 84.5716C152.278 85.938 153.386 87.0456 154.752 87.0456H218.296C219.662 87.0456 220.77 85.938 220.77 84.5716C220.77 83.2053 219.662 82.0977 218.296 82.0977Z" fill="#E1E4E5"/>
<path d="M214.562 93.498H154.553C153.204 93.498 152.111 94.5915 152.111 95.9403C152.111 97.2891 153.204 98.3825 154.553 98.3825H214.562C215.911 98.3825 217.004 97.2891 217.004 95.9403C217.004 94.5915 215.911 93.498 214.562 93.498Z" fill="#E1E4E5"/>
<path d="M218.296 105.016H154.752C153.386 105.016 152.278 106.123 152.278 107.49C152.278 108.856 153.386 109.964 154.752 109.964H218.296C219.662 109.964 220.77 108.856 220.77 107.49C220.77 106.123 219.662 105.016 218.296 105.016Z" fill="#E1E4E5"/>
<path d="M66.92 66.0736C66.6866 67.0072 66.9964 67.9778 67.5072 68.7935C67.8683 69.3695 68.3731 68.7335 69.1093 68.6316C70.248 68.4718 70.9688 67.2668 71.2151 64.3302C71.3292 62.1856 71.2755 61.1155 71.1562 60.9282C70.7309 60.258 69.6368 60.034 68.7743 60.0985" fill="#31446C"/>
<path fill-rule="evenodd" clip-rule="evenodd" d="M61.9753 198.562L61.7144 205.716H65.4405L65.6959 204.794C65.6959 204.794 67.0984 204.737 67.9092 205.135C68.7661 205.556 68.8809 205.76 68.8809 205.76L80.6995 205.785C80.6995 205.785 81.2825 203.473 77.6799 201.801C74.0772 200.128 71.4543 197.754 70.9561 197.511C70.454 197.266 69.4415 197.128 68.7284 197.703C68.0153 198.277 67.4515 199.79 65.8354 199.837C63.7557 199.898 62.5611 197.352 61.9753 198.562ZM57.3693 121.734C57.3693 121.734 61.7475 158.884 61.8836 161.467C62.0196 164.049 60.4775 168.506 60.5075 173.336C60.5376 178.167 61.0707 195.192 61.0707 195.192L70.7286 195.35C70.7286 195.35 74.7876 164.584 74.8315 159.971C74.8751 155.357 75.2474 122.178 75.2474 122.178L57.3693 121.734Z" fill="#31446C"/>
<path fill-rule="evenodd" clip-rule="evenodd" d="M44.3874 197.964C44.1788 198.009 43.9914 198.123 43.8547 198.287C43.7181 198.451 43.6401 198.656 43.6331 198.869L43.5626 201.006C42.5673 202.113 42.1046 205.339 42.0666 205.613C42.0648 205.626 42.0642 205.64 42.0649 205.653C42.1566 207.224 52.4809 207.194 53.2736 205.699C53.295 205.656 53.3013 205.607 53.2914 205.559C53.2063 205.032 52.6418 201.775 51.5299 200.903L51.5218 198.79C51.5211 198.58 51.4512 198.376 51.323 198.209C51.1949 198.043 51.0155 197.923 50.8125 197.869L49.3573 197.477C48.3431 195.994 46.9608 196.046 45.7763 197.662L44.3874 197.964ZM48.9652 122.084C48.9652 122.084 45.873 147.43 45.9152 152.284C45.9571 157.138 46.8666 159.27 45.5722 162.752C44.2775 166.234 43.1733 194.026 43.1733 194.026L52.7468 194.824C52.7468 194.824 58.8628 165.084 59.5278 160.961C60.1931 156.837 68.4129 121.734 68.4129 121.734L48.9652 122.084Z" fill="#31446C"/>
<path fill-rule="evenodd" clip-rule="evenodd" d="M96.7005 76.5113C96.7005 76.5113 95.9012 72.0567 96.1886 71.1548C96.4339 70.375 98.7544 69.2509 98.7544 69.2509C98.7544 69.2509 102.79 62.8757 103.673 63.5249C104.392 64.0511 101.571 68.7513 101.571 68.7513C101.571 68.7513 104.143 71.4493 104.107 72.6554C104.071 73.8615 99.9099 77.6371 99.9099 77.6371L96.7005 76.5113ZM55.2228 77.558C55.2228 77.558 57.8807 76.9338 57.9728 72.579C58.0652 68.2238 58.0003 66.7372 58.0003 66.7372L64.3016 66.6314C64.3016 66.6314 64.3651 71.4852 64.3661 73.2408C64.3686 77.0629 67.2071 78.0956 67.2071 78.0956C67.2071 78.0956 66.9713 82.2746 61.6664 82.5729C57.5244 82.8059 55.2228 77.558 55.2228 77.558Z" fill="#F8AE9D"/>
<path fill-rule="evenodd" clip-rule="evenodd" d="M57.4216 64.533C54.8099 64.4318 55.2358 68.255 57.9488 68.2501C57.9488 68.2501 60.8648 74.1124 65.4422 74.1278C67.6472 74.1351 68.3673 72.1709 69.0281 70.7921C69.6893 69.4133 70.1742 67.351 70.2147 66.088C70.258 64.7416 70.2635 60.3184 70.2635 60.3184L57.3198 60.3125L57.4216 64.533Z" fill="#F8AE9D"/>
<path fill-rule="evenodd" clip-rule="evenodd" d="M67.3081 77.8363C67.3081 77.8363 74.0979 79.9558 75.7327 82.4877C81.002 87.1167 87.5918 93.4738 87.5918 93.4738C87.5918 93.4738 93.869 77.7198 95.9208 75.9233C97.3251 74.6946 100.123 76.2143 100.644 77.7759C101.313 79.7817 97.0143 91.5476 94.9837 97.1044C94.5905 98.1811 94.2821 99.0243 94.1119 99.5187C92.8737 103.111 89.861 105.171 86.1952 102.888C84.7177 101.968 80.3203 98.9521 76.5683 96.2186C76.5097 99.0906 76.411 102.117 76.3171 104.991C76.089 111.974 75.8901 118.059 76.3677 118.85C78.7342 122.769 75.588 125.46 65.1712 126.448C54.7544 127.437 45.513 126.627 47.1898 121.397C47.5394 120.307 47.5352 117.961 47.3608 114.914C46.3402 114.859 45.3203 114.792 44.3013 114.712C39.9538 114.369 36.7388 112.502 36.2905 107.65C35.9762 104.253 42.4487 88.3037 44.8756 83.0592C45.4433 81.8321 46.3214 81.0681 47.3157 80.6871C47.5474 80.4289 47.808 80.2475 48.1011 80.1508C49.8839 79.5633 56.2759 76.8779 56.2759 76.8779L63.8796 81.8527L67.3081 77.8363ZM46.6563 105.911L46.6392 105.956L46.6605 105.958C46.6591 105.943 46.6577 105.927 46.6563 105.911Z" fill="#F08519"/>
<path fill-rule="evenodd" clip-rule="evenodd" d="M63.5281 110.122C63.5281 110.122 65.8472 109.656 66.7965 108.91C67.7455 108.165 70.62 107.639 70.62 107.639L69.7003 109.575C69.7003 109.575 76.7454 108.914 76.9122 109.609C77.0793 110.304 75.0415 111.06 75.0415 111.06C75.0415 111.06 74.0367 112.936 73.064 114.024C72.1436 115.054 67.5707 114.931 65.9676 114.289C64.5825 113.734 63.0763 114.011 63.0763 114.011L63.5281 110.122Z" fill="#F8AE9D"/>
<path d="M58.1315 60.4959C58.5132 60.9952 59.1859 61.1054 59.7402 61.2042C60.4855 61.3368 60.8539 61.6134 61.2408 62.3555C61.4857 62.83 61.7307 63.3492 62.1689 63.6059C62.5258 63.816 62.515 63.2843 62.568 62.8736C62.573 62.8352 62.5805 62.7971 62.5903 62.7595C62.6754 62.4309 63.0243 62.486 63.1252 62.8101C63.2183 63.1035 63.4168 63.3519 63.6694 63.4901C63.7106 63.5128 63.7546 63.5327 63.7982 63.5243C63.8575 63.5156 63.9039 63.4591 63.9426 63.4085C64.0229 63.3028 64.1031 63.1688 64.1854 63.0268C64.4583 62.5579 64.9785 62.7225 65.283 63.1712C65.4739 63.4507 65.701 63.7385 66.0129 63.8034C66.1134 63.8261 66.2397 63.8093 66.2861 63.7103C66.3454 63.5892 66.2526 63.4678 66.268 63.3436C66.2809 63.2277 66.3301 63.1771 66.3841 63.0781C66.5952 62.6971 67.0847 62.6831 67.383 63.001C67.5905 63.2217 67.8068 63.4339 68.0316 63.637C68.1268 63.7218 68.266 63.8065 68.3616 63.7218C68.4129 63.6764 68.4258 63.6004 68.4363 63.5271C68.4904 63.1684 68.542 62.8101 68.5961 62.4518C68.6271 62.2512 68.7329 61.9888 68.9132 62.0394C69.0008 62.0649 69.0524 62.158 69.1013 62.2428C69.1606 62.3499 70.2202 63.5721 70.2411 63.4789C70.4058 62.7847 70.7435 62.1525 70.9085 61.4582C71.9761 56.9903 67.24 53.3974 63.623 53.3779C62.8185 53.3723 62.0837 53.3856 61.3026 53.5747C60.4698 53.7777 59.5906 54.1005 58.8352 54.5547C57.7757 55.1897 56.9739 56.3442 57.1801 57.7216" fill="#31446C"/>
<path d="M61.0753 59.0515C61.5854 59.6349 61.7204 60.4558 61.7679 61.231C61.838 62.4002 61.7431 63.615 61.2079 64.6529C61.0554 64.9484 60.9427 66.4106 60.7079 66.33C60.6329 66.3046 60.6455 65.1707 60.448 64.5594C60.1427 63.6125 58.7378 63.2514 58.1052 63.8498C57.0948 64.8019 57.6876 65.9585 58.0225 66.6782C58.2224 67.1126 58.5403 67.6003 58.5951 68.0598C58.6628 68.6481 58.6826 70.7923 58.3027 71.2923C57.9852 71.7117 57.6475 69.6863 57.36 69.2872C55.2325 66.3147 53.1922 58.7459 56.8251 57.1044C57.3774 56.8546 59.0828 56.7258 59.6002 57.044" fill="#31446C"/>
<path fill-rule="evenodd" clip-rule="evenodd" d="M155.752 141.789H156.904C157.183 141.789 157.407 142.016 157.407 142.292V143.444C157.407 143.723 157.181 143.947 156.904 143.947H155.752C155.619 143.946 155.491 143.893 155.397 143.799C155.303 143.705 155.25 143.577 155.249 143.444V142.292C155.249 142.226 155.262 142.16 155.287 142.099C155.312 142.038 155.349 141.983 155.396 141.936C155.443 141.889 155.498 141.852 155.56 141.827C155.621 141.802 155.686 141.789 155.752 141.789ZM159.747 141.789H160.899C161.175 141.789 161.402 142.016 161.402 142.292V143.444C161.402 143.723 161.175 143.947 160.899 143.947H159.747C159.613 143.946 159.486 143.893 159.392 143.799C159.298 143.705 159.244 143.577 159.244 143.444V142.292C159.244 142.016 159.471 141.789 159.747 141.789ZM163.744 141.789H164.896C165.173 141.789 165.399 142.016 165.399 142.292V143.444C165.399 143.723 165.173 143.947 164.896 143.947H163.744C163.611 143.946 163.483 143.893 163.389 143.799C163.295 143.705 163.242 143.577 163.241 143.444V142.292C163.241 142.226 163.254 142.16 163.279 142.099C163.305 142.038 163.342 141.983 163.388 141.936C163.435 141.889 163.491 141.852 163.552 141.827C163.613 141.802 163.678 141.789 163.744 141.789ZM167.739 141.789H168.891C169.167 141.789 169.394 142.016 169.394 142.292V143.444C169.394 143.723 169.167 143.947 168.891 143.947H167.739C167.605 143.947 167.477 143.894 167.382 143.8C167.288 143.706 167.234 143.578 167.233 143.444V142.292C167.235 142.158 167.289 142.031 167.383 141.937C167.478 141.843 167.606 141.79 167.739 141.789ZM171.734 141.789H172.886C173.165 141.789 173.391 142.015 173.391 142.292V143.444C173.391 143.723 173.165 143.947 172.886 143.947H171.734C171.458 143.947 171.231 143.72 171.231 143.444V142.292C171.231 142.015 171.458 141.789 171.734 141.789ZM159.893 146.145H161.046C161.322 146.145 161.548 146.372 161.548 146.648V147.802C161.548 148.079 161.322 148.306 161.046 148.306H159.893C159.615 148.306 159.39 148.079 159.39 147.802V146.65C159.39 146.584 159.403 146.519 159.428 146.457C159.453 146.396 159.49 146.34 159.537 146.293C159.583 146.246 159.639 146.209 159.7 146.184C159.761 146.158 159.827 146.145 159.893 146.145ZM163.888 146.145H165.04C165.316 146.145 165.543 146.372 165.543 146.648V147.802C165.543 148.079 165.316 148.306 165.04 148.306H163.888C163.612 148.306 163.385 148.079 163.385 147.802V146.65C163.385 146.584 163.398 146.519 163.423 146.457C163.448 146.396 163.485 146.34 163.532 146.293C163.578 146.246 163.634 146.209 163.695 146.184C163.756 146.158 163.822 146.145 163.888 146.145ZM167.883 146.145H169.035C169.314 146.145 169.541 146.372 169.541 146.648V147.802C169.54 147.936 169.486 148.064 169.392 148.158C169.297 148.253 169.169 148.305 169.035 148.306H167.883C167.607 148.306 167.38 148.079 167.38 147.802V146.65C167.38 146.372 167.607 146.145 167.883 146.145ZM163.744 137.109H164.896C165.173 137.109 165.399 137.336 165.399 137.612V138.765C165.399 139.043 165.173 139.267 164.896 139.267H163.744C163.611 139.267 163.483 139.214 163.389 139.12C163.295 139.025 163.242 138.898 163.241 138.765V137.612C163.241 137.546 163.254 137.481 163.279 137.42C163.305 137.359 163.342 137.303 163.388 137.256C163.435 137.21 163.491 137.173 163.552 137.147C163.613 137.122 163.678 137.109 163.744 137.109ZM167.739 137.109H168.891C169.167 137.109 169.394 137.336 169.394 137.612V138.765C169.394 139.043 169.167 139.267 168.891 139.267H167.739C167.605 139.267 167.477 139.215 167.382 139.12C167.288 139.026 167.234 138.898 167.233 138.765V137.612C167.235 137.479 167.289 137.351 167.383 137.257C167.478 137.163 167.606 137.11 167.739 137.109Z" fill="white"/>
<path d="M172.467 177.799C175.138 175.97 175.402 171.707 175.402 171.707C175.402 171.707 171.335 170.414 168.665 172.245C165.994 174.074 165.729 178.334 165.729 178.334C165.729 178.334 169.796 179.628 172.467 177.799Z" fill="#FCC49B"/>
<path d="M118.674 136.412C117.294 136.412 116.174 137.531 116.174 138.912C116.174 140.293 117.294 141.412 118.674 141.412C120.055 141.412 121.174 140.293 121.174 138.912C121.174 137.531 120.055 136.412 118.674 136.412Z" fill="#F08519"/>
<path d="M25.6657 111.599C24.0566 111.599 22.7521 110.294 22.7521 108.685C22.7521 107.076 24.0566 105.771 25.6657 105.771C27.2748 105.771 28.5793 107.076 28.5793 108.685C28.5793 110.294 27.2748 111.599 25.6657 111.599Z" fill="white"/>
<path d="M212.73 44.1289C210.273 44.1289 208.282 42.1378 208.282 39.6817C208.282 37.2255 210.273 35.2344 212.73 35.2344C215.186 35.2344 217.177 37.2255 217.177 39.6817C217.177 42.1378 215.186 44.1289 212.73 44.1289Z" fill="#E1E4E5"/>
<path d="M98.0643 151.48C95.9271 151.48 94.1945 149.747 94.1945 147.61C94.1945 145.473 95.9271 143.74 98.0643 143.74C100.202 143.74 101.934 145.473 101.934 147.61C101.934 149.747 100.202 151.48 98.0643 151.48Z" fill="#FCC49B"/>
<path d="M203.232 156.175C201.588 156.175 200.256 155.109 200.256 153.794C200.256 152.478 201.588 151.412 203.232 151.412C204.876 151.412 206.209 152.478 206.209 153.794C206.209 155.109 204.876 156.175 203.232 156.175Z" fill="white"/>
<path d="M139.929 163.203C137.524 164.377 134.823 163.788 133.897 161.89C132.971 159.991 134.169 157.501 136.574 156.327C138.979 155.154 141.68 155.742 142.606 157.641C143.532 159.54 142.334 162.03 139.929 163.203Z" fill="#FCC49B"/>
<path d="M149.798 37.8848C150.604 40.8901 148.82 43.9792 145.815 44.7844C142.81 45.5897 139.72 43.8062 138.915 40.8009C138.11 37.7956 139.893 34.7066 142.899 33.9013C145.904 33.0961 148.993 34.8795 149.798 37.8848Z" fill="#FCC49B"/>
<path d="M95.72 178.309H95.7978C96.259 184.842 101.118 184.943 101.118 184.943C101.118 184.943 95.7597 185.048 95.7597 192.597C95.7597 185.048 90.4015 184.943 90.4015 184.943C90.4015 184.943 95.2587 184.842 95.72 178.309Z" fill="white"/>
<path d="M286.367 75.4315C284.461 75.4315 282.916 73.8864 282.916 71.9804C282.916 70.0744 284.461 68.5293 286.367 68.5293C288.273 68.5293 289.819 70.0744 289.819 71.9804C289.819 73.8864 288.273 75.4315 286.367 75.4315Z" fill="url(#paint1_linear_1137_21823)"/>
<path d="M137.397 185.485C134.538 185.485 132.22 183.168 132.22 180.309C132.22 177.45 134.538 175.132 137.397 175.132C140.256 175.132 142.573 177.45 142.573 180.309C142.573 183.168 140.256 185.485 137.397 185.485Z" fill="url(#paint2_linear_1137_21823)"/>
<path fill-rule="evenodd" clip-rule="evenodd" d="M262.746 170.212C262.529 170.181 262.308 170.194 262.096 170.25C261.884 170.305 261.685 170.402 261.511 170.535C261.337 170.668 261.191 170.835 261.082 171.024C260.972 171.214 260.902 171.424 260.874 171.641L255.069 217.453C255.015 217.88 255.133 218.311 255.396 218.652C255.66 218.992 256.048 219.214 256.475 219.268C256.902 219.323 257.334 219.205 257.674 218.942C258.015 218.678 258.236 218.29 258.291 217.863L264.155 172.059C264.21 171.628 264.093 171.192 263.829 170.846C263.565 170.501 263.176 170.273 262.746 170.212Z" fill="white" stroke="#E1E4E5" stroke-width="1.53383" stroke-linecap="round" stroke-linejoin="round"/>
<path fill-rule="evenodd" clip-rule="evenodd" d="M262.082 170.212C262.299 170.181 262.52 170.194 262.732 170.25C262.943 170.305 263.142 170.402 263.316 170.535C263.49 170.668 263.636 170.835 263.746 171.024C263.855 171.214 263.925 171.424 263.953 171.641L269.758 217.453C269.812 217.88 269.695 218.311 269.431 218.652C269.168 218.992 268.779 219.214 268.352 219.268C267.925 219.323 267.494 219.205 267.153 218.942C266.813 218.678 266.591 218.29 266.536 217.863L260.673 172.059C260.617 171.628 260.734 171.192 260.998 170.846C261.262 170.501 261.651 170.273 262.082 170.212ZM244.557 170.212C244.34 170.181 244.12 170.194 243.908 170.25C243.696 170.305 243.497 170.402 243.323 170.535C243.149 170.668 243.003 170.835 242.894 171.024C242.784 171.214 242.714 171.424 242.686 171.641L236.882 217.453C236.852 217.683 236.873 217.917 236.942 218.139C237.011 218.361 237.127 218.565 237.281 218.738C237.436 218.912 237.626 219.05 237.839 219.143C238.052 219.237 238.282 219.283 238.514 219.28C238.905 219.275 239.281 219.129 239.573 218.869C239.865 218.608 240.053 218.251 240.103 217.863L245.967 172.059C246.022 171.628 245.905 171.192 245.641 170.846C245.377 170.501 244.988 170.273 244.557 170.212ZM281.137 170.212C281.354 170.181 281.574 170.194 281.786 170.25C281.998 170.305 282.197 170.402 282.371 170.535C282.545 170.668 282.691 170.835 282.8 171.024C282.91 171.214 282.98 171.424 283.008 171.641L288.813 217.453C288.867 217.88 288.75 218.311 288.486 218.652C288.222 218.992 287.834 219.214 287.407 219.268C286.98 219.323 286.549 219.205 286.208 218.942C285.867 218.678 285.646 218.29 285.591 217.863L279.727 172.059C279.672 171.628 279.789 171.192 280.053 170.846C280.317 170.501 280.706 170.273 281.137 170.212Z" fill="white" stroke="#E1E4E5" stroke-width="1.53383" stroke-linecap="round" stroke-linejoin="round"/>
<path fill-rule="evenodd" clip-rule="evenodd" d="M240.502 177.733C237.656 177.733 235.348 175.425 235.348 172.579C235.348 169.733 237.656 167.426 240.502 167.426H251.733C260.187 167.426 267.253 160.994 268.045 152.577L269.906 132.819C270.514 126.366 275.931 121.435 282.412 121.435C289.729 121.435 295.497 127.664 294.936 134.96L293.008 160.03C292.239 170.019 283.91 177.733 273.891 177.733H240.502Z" fill="white" stroke="#E1E4E5" stroke-width="1.53383" stroke-linecap="round" stroke-linejoin="round"/>
<path fill-rule="evenodd" clip-rule="evenodd" d="M235.348 172.455C235.349 172.5 235.385 172.536 235.429 172.536H268.698C278.716 172.536 287.044 164.825 287.815 154.837L289.739 129.89C289.778 129.378 289.787 128.864 289.764 128.351C289.6 124.651 286.527 121.597 282.827 121.446C282.653 121.439 282.479 121.435 282.305 121.435C275.841 121.435 270.437 126.352 269.83 132.788L267.97 152.485C267.177 160.88 260.128 167.295 251.695 167.295H240.489C237.65 167.295 235.348 169.596 235.348 172.435V172.455Z" fill="white"/>
<path d="M268.697 171.766H235.428V173.299H268.697V171.766ZM287.049 154.775C286.309 164.363 278.314 171.766 268.697 171.766V173.299C279.115 173.299 287.777 165.28 288.578 154.893L287.049 154.775ZM288.973 129.828L287.049 154.775L288.578 154.893L290.502 129.946L288.973 129.828ZM288.997 128.381C289.018 128.863 289.01 129.347 288.973 129.828L290.502 129.946C290.544 129.402 290.553 128.857 290.529 128.313L288.997 128.381ZM282.304 122.199C282.468 122.199 282.631 122.202 282.794 122.209L282.856 120.676C282.672 120.669 282.488 120.665 282.304 120.665V122.199ZM270.592 132.857C271.163 126.815 276.235 122.199 282.304 122.199V120.665C275.444 120.665 269.71 125.883 269.065 132.712L270.592 132.857ZM268.732 152.554L270.592 132.857L269.065 132.712L267.205 152.409L268.732 152.554ZM251.694 168.058C260.522 168.058 267.902 161.343 268.732 152.554L267.205 152.409C266.45 160.411 259.731 166.524 251.694 166.524V168.058ZM240.488 168.058H251.694V166.524H240.488V168.058ZM236.114 172.432C236.114 170.016 238.072 168.058 240.488 168.058V166.524C237.225 166.524 234.58 169.169 234.58 172.432H236.114ZM236.114 172.449V172.432H234.58V172.455L236.114 172.449ZM290.529 128.313C290.347 124.214 286.954 120.843 282.856 120.676L282.794 122.209C286.098 122.343 288.85 125.08 288.997 128.381L290.529 128.313ZM235.428 171.766C235.609 171.766 235.784 171.838 235.912 171.966C236.041 172.094 236.113 172.268 236.114 172.449L234.58 172.455C234.581 172.679 234.671 172.894 234.83 173.052C234.988 173.211 235.204 173.299 235.428 173.299V171.766Z" fill="#E1E4E5"/>
<path fill-rule="evenodd" clip-rule="evenodd" d="M238.606 206.984C238.087 207.232 238.941 209.561 237.115 209.398C235.289 209.234 234.143 206.826 232.796 206.983C231.45 207.139 230.595 209.564 228.032 211.253C225.469 212.942 221.668 214.957 221.923 216.655C222.177 218.353 228.158 218.808 231.188 218.245C234.217 217.684 235.632 216.466 237.597 216.563C239.563 216.66 240.798 216.419 241.415 215.157C242.03 213.895 239.205 206.698 238.606 206.984ZM256.657 150.637C251.664 150.86 223.873 157.006 218.824 158.051C213.775 159.095 209.507 164.746 213.357 171.289C217.681 178.634 228.839 199.493 231.547 204.196C232.888 206.523 239.653 205.218 238.064 201.312C235.102 194.029 233.726 175.736 226.174 169.066C226.174 169.066 251.57 173.486 262.54 168.423C270.513 164.742 268.709 150.098 256.657 150.637Z" fill="#5F4225"/>
<path fill-rule="evenodd" clip-rule="evenodd" d="M221.823 119.466C221.823 119.466 221.879 116.498 220.458 114.375C219.037 112.251 218.98 109.996 217.905 110.07C216.829 110.144 217.894 115.386 217.894 115.386C217.894 115.386 216.53 114.864 215.549 114.205C214.569 113.546 211.596 110.295 210.901 110.871C209.724 111.852 211.621 117.389 212.654 118.496C213.691 119.603 218.807 122.698 218.807 122.698L233.874 137.877L236.127 129.819L221.823 119.466Z" fill="#F8AE9D"/>
<path fill-rule="evenodd" clip-rule="evenodd" d="M251.96 118.128C249.637 123.515 245.384 133.411 243.631 136.364C241.434 140.062 237.969 141.691 233.912 138.947C233.064 138.373 230.626 136.365 230.626 136.365C230.987 132.851 232.3 129.914 234.563 127.552L236.1 128.824C236.1 128.824 240.459 117.65 243.965 111.177C247.002 105.577 255.495 109.938 251.96 118.128ZM261.998 97.2167V101.983L265.499 99.165C265.499 99.165 266.575 94.5977 267.45 91.2056C267.998 89.0786 269.336 81.8795 263.953 82.2166C259.544 74.4443 246.703 79.2548 246.601 88.7503C246.478 100.171 246.578 104.618 246.578 104.618C253.839 105.035 257.927 103.985 261.998 97.2167Z" fill="#5F4225"/>
<path fill-rule="evenodd" clip-rule="evenodd" d="M265.573 106.293C265.573 106.293 262.317 105.528 262.204 100.192C262.091 94.8564 262.17 93.035 262.17 93.035L254.997 92.9058C254.997 92.9058 254.919 98.8524 254.918 101.003C254.915 106.233 251.069 106.662 251.069 106.662C251.069 106.662 251.726 110.977 258.226 111.342C263.301 111.628 265.573 106.293 265.573 106.293Z" fill="#F8AE9D"/>
<path fill-rule="evenodd" clip-rule="evenodd" d="M263.844 90.3712C267.043 90.2473 266.522 94.9317 263.198 94.9251C263.198 94.9251 261.267 101.58 254.564 101.58C249.121 101.58 248.766 93.8238 248.717 92.2766C248.664 90.6269 248.657 85.2075 248.657 85.2075L263.969 85.2003L263.844 90.3712Z" fill="#F8AE9D"/>
<path fill-rule="evenodd" clip-rule="evenodd" d="M264.09 90.3403C262.764 90.5589 262.925 91.437 262.564 91.3603C260.733 90.9707 253.322 91.4845 252.368 87.4088C251.18 89.9549 250.89 90.5811 248.275 91.2644V83.8031L264.813 82.2167C264.813 82.2167 264.556 90.2628 264.09 90.3403Z" fill="#5F4225"/>
<path fill-rule="evenodd" clip-rule="evenodd" d="M264.848 105.747C260.761 108.25 256.037 109.168 251.639 106.45C244.462 120.601 242.673 137.487 244.399 156.149C254.865 160.292 263.661 159.478 271.149 154.741L264.848 105.747Z" fill="#F08519"/>
<path fill-rule="evenodd" clip-rule="evenodd" d="M218.002 211.607C217.14 210.987 216.416 214.563 214.075 213.569C211.734 212.575 213.58 209.288 212.107 208.682C210.634 208.076 207.79 211.335 204.012 212.127C200.234 212.918 197.166 213.612 196.295 215.082C195.544 216.346 196.295 216.75 196.295 216.75C196.295 216.75 199.932 218.566 202.192 218.966C205.474 219.546 214.963 219.933 216.003 218.875C216.641 218.225 218.433 211.918 218.002 211.607ZM272.298 148.527C272.298 148.527 279.557 163.858 269.356 169.122C259.49 174.213 229.956 168.192 229.956 168.192C229.956 168.192 230.484 172.441 229.956 176.23C228.577 186.128 222.022 202.618 220.635 204.689C218.717 207.555 212.875 205.394 212.765 203.008C212.655 200.622 217.169 170.151 217.856 164.341C218.539 158.53 220.695 157.686 226.993 156.098C228.439 155.733 245.549 151.48 247.116 151.605C260.584 152.67 272.298 148.527 272.298 148.527Z" fill="#5F4225"/>
<path fill-rule="evenodd" clip-rule="evenodd" d="M264.67 105.759C257.902 127.931 253.843 159.363 274.981 153.895C263.752 133.221 279.017 123.916 275.557 113.232C274.374 109.579 264.758 105.473 264.67 105.759ZM251.997 106.295C249.415 112.773 248.173 117.856 247.015 127.365C246.049 135.284 246.532 151.626 246.532 151.626L243.34 152.254C243.34 152.254 241.059 127.006 241.822 123.755C243.102 118.3 243.969 115.113 245.66 110.126C246.591 107.389 251.997 106.295 251.997 106.295Z" fill="#5F4225"/>
<path fill-rule="evenodd" clip-rule="evenodd" d="M263.248 130.929C263.248 130.929 259.081 126.756 257.638 126.272C256.194 125.788 248.289 125.206 248.342 126.3C248.403 127.472 253.49 127.405 253.96 127.982C254.431 128.558 255.085 133.047 256.863 133.49C258.638 133.932 262.317 135.242 262.317 135.242L278.692 143.703L276.947 135.243L263.248 130.929Z" fill="#F8AE9D"/>
<path fill-rule="evenodd" clip-rule="evenodd" d="M275.79 113.261C280.757 120.271 284.998 130.949 286.626 135.112C288.254 139.275 286.612 145.555 279.454 144.322C278.601 144.175 277.215 143.636 277.215 143.636C274.583 140.028 274.122 136.93 275.104 134.173L276.029 134.563C276.029 134.563 268.916 121.953 267.178 118.573C264.276 112.927 271.415 107.084 275.79 113.261Z" fill="#5F4225"/>
<path d="M255.216 218.572C254.621 218.572 254.043 218.369 253.578 217.996C253.113 217.624 252.79 217.104 252.66 216.523L238.542 153.195C238.177 151.558 239.423 150.003 241.101 150.003C241.697 150.003 242.275 150.207 242.74 150.58C243.205 150.952 243.529 151.473 243.659 152.055L257.773 215.383C258.138 217.019 256.893 218.572 255.216 218.572ZM145.68 218.572C146.276 218.572 146.854 218.369 147.318 217.996C147.783 217.624 148.107 217.104 148.236 216.523L162.355 153.192C162.72 151.556 161.475 150.003 159.799 150.003C159.203 150.004 158.625 150.207 158.161 150.579C157.696 150.952 157.372 151.471 157.243 152.053L143.124 215.383C142.759 217.019 144.004 218.572 145.68 218.572Z" fill="white" stroke="#E1E4E5" stroke-width="1.53383" stroke-linecap="round" stroke-linejoin="round"/>
<path fill-rule="evenodd" clip-rule="evenodd" d="M145.303 150.117V147.736C145.303 146.368 146.001 145.261 146.859 145.254H255.007C255.87 145.254 256.564 146.368 256.564 147.736V150.117C256.564 151.491 255.865 152.599 255.007 152.599H251.571C250.881 152.599 250.219 152.873 249.732 153.361C249.244 153.849 248.97 154.51 248.97 155.2C248.969 155.304 248.949 155.406 248.909 155.502C248.869 155.597 248.811 155.684 248.737 155.757C248.664 155.83 248.576 155.888 248.481 155.927C248.385 155.966 248.282 155.986 248.179 155.986H150.832C150.624 155.986 150.424 155.903 150.276 155.756C150.129 155.609 150.046 155.409 150.046 155.2C150.046 154.859 149.978 154.52 149.848 154.205C149.717 153.889 149.525 153.602 149.284 153.361C149.042 153.119 148.755 152.928 148.44 152.797C148.124 152.666 147.786 152.599 147.444 152.599H146.859C145.996 152.599 145.303 151.491 145.303 150.117Z" fill="white"/>
<path d="M146.863 145.256L146.856 144.489H146.863V145.256ZM146.073 147.738V150.119H144.539V147.738H146.073ZM146.868 146.023C146.794 146.024 146.613 146.075 146.412 146.395C146.218 146.703 146.073 147.176 146.073 147.738H144.539C144.539 146.932 144.744 146.167 145.113 145.579C145.476 145.001 146.073 144.495 146.856 144.489L146.868 146.023ZM255.011 146.023H146.863V144.489H255.011V146.023ZM255.8 147.738C255.8 147.175 255.656 146.7 255.462 146.391C255.262 146.071 255.083 146.023 255.011 146.023V144.489C255.801 144.489 256.4 144.998 256.762 145.578C257.131 146.167 257.334 146.933 257.334 147.738H255.8ZM255.8 150.119V147.738H257.334V150.119H255.8ZM255.011 151.834C255.082 151.834 255.261 151.786 255.461 151.467C255.655 151.159 255.8 150.685 255.8 150.119H257.334C257.334 150.927 257.13 151.694 256.76 152.283C256.397 152.862 255.798 153.368 255.011 153.368V151.834ZM251.575 151.834H255.011V153.368H251.575V151.834ZM248.182 155.221C248.186 155.221 248.19 155.22 248.194 155.219C248.197 155.218 248.199 155.216 248.201 155.214C248.203 155.212 248.204 155.211 248.205 155.209C248.206 155.208 248.206 155.206 248.206 155.202H249.74C249.74 156.067 249.037 156.755 248.182 156.755V155.221ZM150.836 155.221H248.182V156.755H150.836V155.221ZM150.816 155.202C150.816 155.206 150.816 155.208 150.817 155.209C150.818 155.21 150.819 155.213 150.821 155.215C150.823 155.217 150.825 155.218 150.828 155.219C150.83 155.22 150.833 155.221 150.836 155.221V156.755C150.424 156.755 150.029 156.591 149.738 156.3C149.446 156.009 149.282 155.614 149.282 155.202H150.816ZM146.863 151.834H147.447V153.368H146.863V151.834ZM146.073 150.119C146.073 150.686 146.218 151.16 146.411 151.468C146.61 151.785 146.789 151.834 146.863 151.834V153.368C146.074 153.368 145.474 152.863 145.111 152.282C144.742 151.693 144.539 150.926 144.539 150.119H146.073ZM149.282 155.202C149.282 154.961 149.235 154.723 149.143 154.5C149.05 154.278 148.915 154.075 148.745 153.905C148.574 153.735 148.372 153.6 148.15 153.507C147.927 153.415 147.688 153.368 147.447 153.368V151.834C147.89 151.834 148.328 151.921 148.736 152.09C149.145 152.26 149.517 152.508 149.829 152.82C150.142 153.133 150.39 153.505 150.56 153.913C150.729 154.322 150.816 154.76 150.816 155.202H149.282ZM251.575 153.368C251.088 153.368 250.621 153.561 250.277 153.905C249.933 154.249 249.74 154.716 249.74 155.202H248.206C248.206 154.309 248.561 153.452 249.193 152.821C249.825 152.189 250.681 151.834 251.575 151.834V153.368Z" fill="#E1E4E5"/>
</g>
</g>
<defs>
<linearGradient id="paint0_linear_1137_21823" x1="243.082" y1="310.784" x2="136.958" y2="-168.012" gradientUnits="userSpaceOnUse">
<stop stop-color="white"/>
<stop offset="1" stop-color="#EEEEEE"/>
</linearGradient>
<linearGradient id="paint1_linear_1137_21823" x1="282.769" y1="82.7525" x2="282.982" y2="64.4719" gradientUnits="userSpaceOnUse">
<stop stop-color="white"/>
<stop offset="1" stop-color="#EEEEEE"/>
</linearGradient>
<linearGradient id="paint2_linear_1137_21823" x1="131.999" y1="196.467" x2="132.318" y2="169.046" gradientUnits="userSpaceOnUse">
<stop stop-color="white"/>
<stop offset="1" stop-color="#EEEEEE"/>
</linearGradient>
<clipPath id="clip0_1137_21823">
<rect width="314" height="184" fill="white" transform="translate(0.666656)"/>
</clipPath>
<clipPath id="clip1_1137_21823">
<rect width="321" height="209" fill="white" transform="translate(0.756989 15)"/>
</clipPath>
</defs>
</svg>
