<svg width="315" height="184" viewBox="0 0 315 184" fill="none" xmlns="http://www.w3.org/2000/svg">
<g clip-path="url(#clip0_8_9059)">
<g clip-path="url(#clip1_8_9059)">
<path fill-rule="evenodd" clip-rule="evenodd" d="M12.9594 187.488C8.51927 187.488 4.92411 183.881 4.93895 179.441L5.036 149.699C5.04001 148.376 5.37165 147.074 6.00085 145.911L49.229 65.9412C51.6869 61.3949 57.7395 60.3253 61.6061 63.7545L104.112 101.449C105.223 102.434 106.585 103.092 108.047 103.348C109.51 103.605 111.014 103.451 112.394 102.903L152.866 86.8337C154.626 86.1348 156.577 86.0812 158.373 86.6825L187.755 96.5232C189.065 96.962 190.466 97.0548 191.823 96.7926L217.056 91.9182C218.648 91.6104 220.11 90.8272 221.248 89.6719C222.386 88.5165 223.147 87.0433 223.431 85.4465L227.524 62.4147C227.806 60.8306 228.557 59.3679 229.681 58.2165C230.805 57.065 232.249 56.278 233.825 55.9578L270.082 48.5959C275.051 47.5869 279.698 51.385 279.698 56.4559V179.468C279.698 183.897 276.107 187.488 271.678 187.488H12.9594Z" fill="white" stroke="#E1E4E5" stroke-width="1.60409" stroke-linecap="round" stroke-linejoin="round"/>
<path fill-rule="evenodd" clip-rule="evenodd" d="M37.1936 170.263H38.3922C38.6817 170.263 38.9151 170.499 38.9151 170.786V171.985C38.9151 172.275 38.6793 172.508 38.3922 172.508H37.1936C37.055 172.507 36.9222 172.452 36.8242 172.354C36.7262 172.256 36.6709 172.123 36.6702 171.985V170.786C36.6701 170.717 36.6836 170.649 36.7099 170.586C36.7361 170.522 36.7747 170.464 36.8233 170.416C36.8719 170.367 36.9297 170.329 36.9932 170.303C37.0567 170.276 37.1248 170.263 37.1936 170.263ZM41.3485 170.263H42.5472C42.6858 170.264 42.8185 170.319 42.9165 170.417C43.0145 170.515 43.0699 170.647 43.0705 170.786V171.985C43.0705 172.275 42.8347 172.508 42.5472 172.508H41.3485C41.21 172.507 41.0774 172.452 40.9795 172.354C40.8815 172.256 40.8262 172.123 40.8256 171.985V170.786C40.8262 170.647 40.8815 170.515 40.9795 170.417C41.0774 170.319 41.21 170.264 41.3485 170.263ZM45.5067 170.263H46.7054C46.9929 170.263 47.2283 170.499 47.2283 170.786V171.985C47.2283 172.275 46.9929 172.508 46.7054 172.508H45.5067C45.3682 172.507 45.2356 172.452 45.1377 172.354C45.0397 172.256 44.9844 172.123 44.9838 171.985V170.786C44.9837 170.717 44.9972 170.649 45.0234 170.586C45.0496 170.522 45.0882 170.465 45.1367 170.416C45.1853 170.367 45.243 170.329 45.3065 170.303C45.37 170.276 45.438 170.263 45.5067 170.263ZM49.6621 170.263H50.8604C50.9989 170.264 51.1317 170.319 51.2297 170.417C51.3277 170.515 51.3831 170.647 51.3837 170.786V171.985C51.3837 172.275 51.1479 172.508 50.8604 172.508H49.6621C49.5231 172.508 49.3898 172.453 49.2912 172.355C49.1927 172.257 49.137 172.124 49.1364 171.985V170.786C49.138 170.647 49.1939 170.515 49.2923 170.417C49.3906 170.319 49.5234 170.264 49.6621 170.263ZM53.8175 170.263H55.0162C55.1551 170.263 55.2885 170.318 55.387 170.416C55.4856 170.514 55.5413 170.647 55.5419 170.786V171.985C55.5419 172.275 55.3061 172.508 55.0162 172.508H53.8175C53.679 172.507 53.5464 172.452 53.4484 172.354C53.3505 172.256 53.2952 172.123 53.2946 171.985V170.786C53.2952 170.647 53.3505 170.515 53.4484 170.417C53.5464 170.319 53.679 170.264 53.8175 170.263ZM41.5013 174.794H42.6996C42.8381 174.795 42.9709 174.85 43.0689 174.948C43.1669 175.046 43.2223 175.179 43.2229 175.317V176.518C43.2224 176.657 43.1671 176.79 43.0691 176.888C42.971 176.986 42.8382 177.041 42.6996 177.042H41.5013C41.3626 177.041 41.2295 176.986 41.1314 176.888C41.0333 176.79 40.9781 176.657 40.978 176.518V175.32C40.9776 175.251 40.9908 175.183 41.0169 175.119C41.043 175.055 41.0815 174.997 41.1302 174.948C41.1788 174.899 41.2367 174.86 41.3004 174.834C41.3641 174.808 41.4324 174.794 41.5013 174.794ZM45.6563 174.794H46.855C47.1425 174.794 47.3779 175.03 47.3779 175.317V176.518C47.3779 176.806 47.1425 177.042 46.855 177.042H45.6563C45.5178 177.041 45.3851 176.986 45.2871 176.887C45.1892 176.789 45.1339 176.657 45.1334 176.518V175.32C45.133 175.251 45.1462 175.183 45.1723 175.119C45.1984 175.055 45.2368 174.997 45.2854 174.948C45.334 174.899 45.3918 174.861 45.4555 174.834C45.5191 174.808 45.5874 174.794 45.6563 174.794ZM49.8121 174.794H51.0108C51.3003 174.794 51.5361 175.03 51.5361 175.317V176.518C51.5356 176.657 51.48 176.79 51.3815 176.888C51.2831 176.986 51.1497 177.042 51.0108 177.042H49.8121C49.6735 177.041 49.5407 176.986 49.4426 176.888C49.3446 176.79 49.2893 176.657 49.2888 176.518V175.32C49.2888 175.03 49.5246 174.794 49.8121 174.794ZM45.5067 165.395H46.7054C46.9929 165.395 47.2283 165.631 47.2283 165.918V167.117C47.2283 167.407 46.9929 167.64 46.7054 167.64H45.5067C45.3682 167.639 45.2355 167.584 45.1375 167.486C45.0396 167.388 44.9843 167.255 44.9838 167.117V165.918C44.9836 165.85 44.9971 165.782 45.0233 165.718C45.0495 165.654 45.088 165.597 45.1366 165.548C45.1852 165.499 45.2429 165.461 45.3064 165.435C45.3699 165.408 45.438 165.395 45.5067 165.395ZM41.353 165.395H42.5512C42.6898 165.396 42.8227 165.451 42.9207 165.549C43.0187 165.647 43.074 165.78 43.0745 165.918V167.117C43.0745 167.407 42.8387 167.64 42.5512 167.64H41.353C41.2143 167.639 41.0815 167.584 40.9835 167.486C40.8855 167.388 40.8302 167.255 40.8296 167.117V165.918C40.8295 165.85 40.8429 165.781 40.8691 165.718C40.8954 165.654 40.9339 165.597 40.9826 165.548C41.0312 165.499 41.0889 165.461 41.1525 165.435C41.2161 165.408 41.2842 165.395 41.353 165.395ZM49.6621 165.395H50.8604C50.999 165.396 51.1318 165.451 51.2298 165.549C51.3279 165.647 51.3832 165.78 51.3837 165.918V167.117C51.3837 167.407 51.1479 167.64 50.8604 167.64H49.6621C49.5231 167.64 49.3897 167.585 49.2912 167.487C49.1927 167.389 49.137 167.256 49.1364 167.117V165.918C49.1379 165.78 49.1938 165.647 49.2921 165.549C49.3905 165.451 49.5234 165.396 49.6621 165.395ZM67.1118 170.263H68.31C68.6 170.263 68.8334 170.499 68.8334 170.786V171.985C68.8334 172.275 68.5976 172.508 68.31 172.508H67.1118C66.9732 172.507 66.8405 172.452 66.7425 172.354C66.6444 172.256 66.5891 172.123 66.5885 171.985V170.786C66.5883 170.717 66.6018 170.649 66.6281 170.586C66.6543 170.522 66.6929 170.464 66.7415 170.416C66.7901 170.367 66.8479 170.329 66.9114 170.303C66.975 170.276 67.043 170.263 67.1118 170.263ZM71.2668 170.263H72.4654C72.6039 170.264 72.7366 170.319 72.8345 170.417C72.9324 170.515 72.9877 170.647 72.9884 170.786V171.985C72.9884 172.275 72.7526 172.508 72.4654 172.508H71.2668C71.1283 172.507 70.9956 172.452 70.8977 172.354C70.7998 172.256 70.7445 172.123 70.7438 171.985V170.786C70.7445 170.647 70.7998 170.515 70.8977 170.417C70.9956 170.319 71.1283 170.264 71.2668 170.263ZM75.425 170.263H76.6236C76.7621 170.264 76.8948 170.319 76.9927 170.417C77.0906 170.515 77.1459 170.647 77.1466 170.786V171.985C77.1466 172.275 76.9108 172.508 76.6236 172.508H75.425C75.2865 172.507 75.1538 172.452 75.0559 172.354C74.958 172.256 74.9027 172.123 74.902 171.985V170.786C74.9019 170.717 74.9153 170.649 74.9415 170.586C74.9677 170.522 75.0062 170.464 75.0548 170.416C75.1034 170.367 75.1611 170.329 75.2247 170.303C75.2882 170.276 75.3562 170.263 75.425 170.263ZM79.58 170.263H80.7786C80.9172 170.264 81.0499 170.319 81.1479 170.417C81.2459 170.515 81.3013 170.647 81.3019 170.786V171.985C81.3019 172.275 81.0661 172.508 80.7786 172.508H79.58C79.441 172.508 79.3078 172.453 79.2093 172.355C79.1109 172.257 79.0552 172.124 79.0546 171.985V170.786C79.0561 170.647 79.112 170.515 79.2103 170.417C79.3085 170.319 79.4413 170.264 79.58 170.263ZM83.7357 170.263H84.9344C85.2239 170.263 85.4597 170.499 85.4597 170.786V171.985C85.4597 172.275 85.2239 172.508 84.9344 172.508H83.7357C83.5972 172.507 83.4646 172.452 83.3667 172.354C83.2687 172.256 83.2134 172.123 83.2128 171.985V170.786C83.2134 170.647 83.2687 170.515 83.3667 170.417C83.4646 170.319 83.5972 170.264 83.7357 170.263ZM71.4192 174.794H72.6178C72.7563 174.795 72.889 174.85 72.9869 174.948C73.0848 175.046 73.1401 175.179 73.1407 175.317V176.518C73.1402 176.657 73.085 176.789 72.987 176.887C72.8891 176.986 72.7564 177.041 72.6178 177.042H71.4192C71.2805 177.041 71.1475 176.986 71.0495 176.888C70.9514 176.79 70.8963 176.657 70.8962 176.518V175.32C70.8958 175.251 70.909 175.183 70.9351 175.119C70.9612 175.055 70.9997 174.997 71.0483 174.948C71.0969 174.899 71.1547 174.861 71.2183 174.834C71.282 174.808 71.3502 174.794 71.4192 174.794ZM75.5745 174.794H76.7732C76.9117 174.795 77.0443 174.85 77.1423 174.948C77.2402 175.046 77.2955 175.179 77.2961 175.317V176.518C77.2956 176.657 77.2404 176.789 77.1424 176.887C77.0445 176.986 76.9118 177.041 76.7732 177.042H75.5745C75.436 177.041 75.3033 176.986 75.2053 176.887C75.1074 176.789 75.0521 176.657 75.0516 176.518V175.32C75.0512 175.251 75.0644 175.183 75.0905 175.119C75.1166 175.055 75.1551 174.997 75.2037 174.948C75.2523 174.899 75.3101 174.861 75.3737 174.834C75.4374 174.808 75.5056 174.794 75.5745 174.794ZM79.7303 174.794H80.9286C81.0676 174.794 81.2009 174.849 81.2995 174.947C81.398 175.045 81.4537 175.178 81.4543 175.317V176.518C81.4543 176.806 81.2185 177.042 80.9286 177.042H79.7303C79.5917 177.041 79.4589 176.986 79.3609 176.888C79.2628 176.79 79.2075 176.657 79.207 176.518V175.32C79.207 175.03 79.4428 174.794 79.7303 174.794ZM75.425 165.395H76.6236C76.7622 165.396 76.8949 165.451 76.9928 165.549C77.0908 165.647 77.146 165.78 77.1466 165.918V167.117C77.1466 167.407 76.9108 167.64 76.6236 167.64H75.425C75.2864 167.639 75.1537 167.584 75.0558 167.486C74.9578 167.388 74.9026 167.255 74.902 167.117V165.918C74.9018 165.85 74.9152 165.781 74.9414 165.718C74.9676 165.654 75.0061 165.597 75.0547 165.548C75.1033 165.499 75.161 165.461 75.2246 165.435C75.2881 165.408 75.3562 165.395 75.425 165.395ZM71.2708 165.395H72.4694C72.6081 165.396 72.7409 165.451 72.8389 165.549C72.9369 165.647 72.9922 165.78 72.9928 165.918V167.117C72.9928 167.407 72.757 167.64 72.4694 167.64H71.2708C71.1322 167.639 70.9995 167.584 70.9016 167.486C70.8036 167.388 70.7484 167.255 70.7478 167.117V165.918C70.7477 165.85 70.7611 165.782 70.7873 165.718C70.8135 165.654 70.852 165.597 70.9006 165.548C70.9492 165.499 71.0069 165.461 71.0704 165.435C71.134 165.408 71.202 165.395 71.2708 165.395ZM79.58 165.395H80.7786C80.9172 165.396 81.05 165.451 81.1481 165.549C81.2461 165.647 81.3014 165.78 81.3019 165.918V167.117C81.3019 167.407 81.0661 167.64 80.7786 167.64H79.58C79.441 167.64 79.3076 167.585 79.2092 167.487C79.1107 167.389 79.0551 167.256 79.0546 167.117V165.918C79.0561 165.78 79.112 165.647 79.2102 165.549C79.3085 165.451 79.4413 165.396 79.58 165.395ZM97.0296 170.263H98.2283C98.5178 170.263 98.7512 170.499 98.7512 170.786V171.985C98.7512 172.275 98.5154 172.508 98.2283 172.508H97.0296C96.8911 172.507 96.7585 172.452 96.6605 172.354C96.5626 172.256 96.5073 172.123 96.5067 171.985V170.786C96.5065 170.717 96.5199 170.649 96.5462 170.586C96.5724 170.522 96.6109 170.464 96.6595 170.416C96.7081 170.367 96.7658 170.329 96.8293 170.303C96.8928 170.276 96.9609 170.263 97.0296 170.263ZM101.185 170.263H102.383C102.522 170.264 102.655 170.319 102.753 170.417C102.851 170.515 102.906 170.647 102.907 170.786V171.985C102.907 172.275 102.671 172.508 102.383 172.508H101.185C101.046 172.507 100.914 172.452 100.816 172.354C100.718 172.256 100.662 172.123 100.662 171.985V170.786C100.662 170.647 100.718 170.515 100.816 170.417C100.914 170.319 101.046 170.264 101.185 170.263ZM105.343 170.263H106.541C106.68 170.264 106.813 170.319 106.911 170.417C107.009 170.515 107.064 170.647 107.065 170.786V171.985C107.065 172.275 106.829 172.508 106.541 172.508H105.343C105.205 172.507 105.072 172.452 104.974 172.354C104.876 172.256 104.82 172.123 104.82 171.985V170.786C104.82 170.717 104.833 170.649 104.859 170.586C104.886 170.522 104.924 170.464 104.973 170.416C105.022 170.367 105.079 170.329 105.143 170.303C105.206 170.276 105.274 170.263 105.343 170.263ZM109.498 170.263H110.697C110.835 170.264 110.968 170.319 111.066 170.417C111.164 170.515 111.219 170.647 111.22 170.786V171.985C111.22 172.275 110.984 172.508 110.697 172.508H109.498C109.359 172.508 109.226 172.453 109.127 172.355C109.029 172.257 108.973 172.124 108.972 171.985V170.786C108.974 170.647 109.03 170.515 109.128 170.417C109.227 170.319 109.359 170.264 109.498 170.263ZM113.654 170.263H114.852C114.991 170.263 115.125 170.318 115.223 170.416C115.322 170.514 115.377 170.647 115.378 170.786V171.985C115.378 172.275 115.142 172.508 114.852 172.508H113.654C113.515 172.507 113.383 172.452 113.285 172.354C113.187 172.256 113.131 172.123 113.131 171.985V170.786C113.131 170.647 113.187 170.515 113.285 170.417C113.383 170.319 113.515 170.264 113.654 170.263ZM101.337 174.794H102.536C102.674 174.795 102.807 174.85 102.905 174.948C103.003 175.046 103.058 175.179 103.059 175.317V176.518C103.058 176.657 103.003 176.79 102.905 176.888C102.807 176.986 102.674 177.041 102.536 177.042H101.337C101.199 177.041 101.066 176.986 100.967 176.888C100.869 176.79 100.814 176.657 100.814 176.518V175.32C100.814 175.251 100.827 175.183 100.853 175.119C100.879 175.055 100.918 174.997 100.966 174.948C101.015 174.899 101.073 174.86 101.136 174.834C101.2 174.808 101.268 174.794 101.337 174.794ZM105.493 174.794H106.691C106.83 174.795 106.962 174.85 107.06 174.948C107.158 175.046 107.214 175.179 107.214 175.317V176.518C107.214 176.657 107.159 176.79 107.06 176.888C106.962 176.986 106.83 177.041 106.691 177.042H105.493C105.354 177.041 105.221 176.986 105.123 176.888C105.025 176.79 104.97 176.657 104.969 176.518V175.32C104.969 175.251 104.982 175.183 105.008 175.119C105.034 175.055 105.073 174.997 105.122 174.948C105.17 174.899 105.228 174.86 105.292 174.834C105.356 174.808 105.424 174.794 105.493 174.794ZM109.648 174.794H110.847C111.136 174.794 111.372 175.03 111.372 175.317V176.518C111.372 176.657 111.316 176.79 111.218 176.888C111.119 176.986 110.986 177.042 110.847 177.042H109.648C109.51 177.041 109.377 176.986 109.279 176.887C109.181 176.789 109.126 176.657 109.125 176.518V175.32C109.125 175.181 109.18 175.048 109.278 174.949C109.376 174.85 109.509 174.795 109.648 174.794ZM105.343 165.395H106.541C106.68 165.396 106.813 165.451 106.911 165.549C107.009 165.647 107.064 165.78 107.065 165.918V167.117C107.065 167.407 106.829 167.64 106.541 167.64H105.343C105.205 167.639 105.072 167.584 104.974 167.486C104.876 167.388 104.82 167.255 104.82 167.117V165.918C104.82 165.85 104.833 165.781 104.859 165.718C104.886 165.654 104.924 165.597 104.973 165.548C105.021 165.499 105.079 165.461 105.143 165.435C105.206 165.408 105.274 165.395 105.343 165.395ZM101.189 165.395H102.388C102.526 165.396 102.659 165.451 102.757 165.549C102.855 165.647 102.91 165.78 102.911 165.918V167.117C102.911 167.407 102.675 167.64 102.388 167.64H101.189C101.05 167.639 100.918 167.584 100.82 167.486C100.722 167.388 100.666 167.255 100.666 167.117V165.918C100.666 165.85 100.679 165.781 100.705 165.718C100.731 165.654 100.77 165.597 100.819 165.548C100.867 165.499 100.925 165.461 100.989 165.435C101.052 165.408 101.12 165.395 101.189 165.395ZM109.498 165.395H110.697C110.835 165.396 110.968 165.451 111.066 165.549C111.164 165.647 111.219 165.78 111.22 165.918V167.117C111.22 167.407 110.984 167.64 110.697 167.64H109.498C109.359 167.64 109.226 167.585 109.127 167.487C109.029 167.389 108.973 167.256 108.972 167.117V165.918C108.974 165.78 109.03 165.647 109.128 165.549C109.227 165.451 109.359 165.396 109.498 165.395ZM126.948 170.263H128.146C128.436 170.263 128.669 170.499 128.669 170.786V171.985C128.669 172.275 128.434 172.508 128.146 172.508H126.948C126.809 172.507 126.677 172.452 126.579 172.354C126.48 172.256 126.425 172.123 126.424 171.985V170.786C126.424 170.717 126.438 170.649 126.464 170.586C126.49 170.522 126.529 170.464 126.578 170.416C126.626 170.367 126.684 170.329 126.747 170.303C126.811 170.276 126.879 170.263 126.948 170.263ZM131.103 170.263H132.301C132.44 170.264 132.573 170.319 132.671 170.417C132.768 170.515 132.824 170.647 132.824 170.786V171.985C132.824 172.275 132.589 172.508 132.301 172.508H131.103C130.964 172.507 130.832 172.452 130.734 172.354C130.636 172.256 130.581 172.123 130.58 171.985V170.786C130.581 170.647 130.636 170.515 130.734 170.417C130.832 170.319 130.964 170.264 131.103 170.263ZM135.261 170.263H136.46C136.598 170.264 136.731 170.319 136.829 170.417C136.927 170.515 136.982 170.647 136.983 170.786V171.985C136.983 172.275 136.747 172.508 136.46 172.508H135.261C135.123 172.507 134.99 172.452 134.892 172.354C134.794 172.256 134.739 172.123 134.738 171.985V170.786C134.738 170.717 134.751 170.649 134.777 170.586C134.804 170.522 134.842 170.464 134.891 170.416C134.939 170.367 134.997 170.329 135.061 170.302C135.124 170.276 135.192 170.263 135.261 170.263ZM139.416 170.263H140.615C140.902 170.263 141.138 170.499 141.138 170.786V171.985C141.138 172.275 140.902 172.508 140.615 172.508H139.416C139.277 172.508 139.144 172.453 139.045 172.355C138.947 172.257 138.891 172.124 138.891 171.985V170.786C138.892 170.647 138.948 170.515 139.046 170.417C139.145 170.319 139.277 170.264 139.416 170.263ZM143.572 170.263H144.77C145.06 170.263 145.296 170.499 145.296 170.786V171.985C145.296 172.275 145.06 172.508 144.77 172.508H143.572C143.433 172.507 143.301 172.452 143.203 172.354C143.105 172.256 143.049 172.123 143.049 171.985V170.786C143.049 170.647 143.105 170.515 143.203 170.417C143.301 170.319 143.433 170.264 143.572 170.263ZM131.255 174.794H132.454C132.592 174.795 132.725 174.85 132.823 174.948C132.921 175.046 132.976 175.179 132.977 175.317V176.518C132.976 176.657 132.921 176.789 132.823 176.887C132.725 176.986 132.592 177.041 132.454 177.042H131.255C131.117 177.041 130.984 176.986 130.886 176.888C130.787 176.79 130.732 176.657 130.732 176.518V175.32C130.732 175.251 130.745 175.183 130.771 175.119C130.797 175.055 130.836 174.997 130.884 174.948C130.933 174.899 130.991 174.861 131.054 174.834C131.118 174.808 131.186 174.794 131.255 174.794ZM135.411 174.794H136.609C136.748 174.795 136.88 174.85 136.978 174.948C137.076 175.046 137.132 175.179 137.132 175.317V176.518C137.132 176.657 137.076 176.789 136.978 176.887C136.881 176.986 136.748 177.041 136.609 177.042H135.411C135.272 177.041 135.139 176.986 135.041 176.887C134.943 176.789 134.888 176.657 134.888 176.518V175.32C134.887 175.251 134.9 175.183 134.927 175.119C134.953 175.055 134.991 174.997 135.04 174.948C135.088 174.899 135.146 174.861 135.21 174.834C135.273 174.808 135.342 174.794 135.411 174.794ZM139.566 174.794H140.765C140.904 174.794 141.037 174.849 141.136 174.947C141.234 175.045 141.29 175.178 141.29 175.317V176.518C141.29 176.806 141.055 177.042 140.765 177.042H139.566C139.428 177.041 139.295 176.986 139.197 176.888C139.099 176.79 139.044 176.657 139.043 176.518V175.32C139.043 175.03 139.279 174.794 139.566 174.794ZM135.261 165.395H136.46C136.598 165.396 136.731 165.451 136.829 165.549C136.927 165.647 136.982 165.78 136.983 165.918V167.117C136.983 167.407 136.747 167.64 136.46 167.64H135.261C135.122 167.639 134.99 167.584 134.892 167.486C134.794 167.388 134.739 167.255 134.738 167.117V165.918C134.738 165.85 134.751 165.781 134.777 165.718C134.804 165.654 134.842 165.597 134.891 165.548C134.939 165.499 134.997 165.461 135.061 165.434C135.124 165.408 135.192 165.395 135.261 165.395ZM131.107 165.395H132.305C132.444 165.396 132.577 165.451 132.675 165.549C132.773 165.647 132.828 165.78 132.829 165.918V167.117C132.829 167.407 132.593 167.64 132.305 167.64H131.107C130.968 167.639 130.836 167.584 130.738 167.486C130.64 167.388 130.584 167.255 130.584 167.117V165.918C130.584 165.85 130.597 165.782 130.623 165.718C130.65 165.654 130.688 165.597 130.737 165.548C130.785 165.499 130.843 165.461 130.906 165.435C130.97 165.408 131.038 165.395 131.107 165.395ZM139.416 165.395H140.615C140.902 165.395 141.138 165.631 141.138 165.918V167.117C141.138 167.407 140.902 167.64 140.615 167.64H139.416C139.277 167.64 139.144 167.585 139.045 167.487C138.947 167.389 138.891 167.256 138.891 167.117V165.918C138.892 165.78 138.948 165.647 139.046 165.549C139.145 165.451 139.277 165.396 139.416 165.395ZM156.866 170.263H158.064C158.354 170.263 158.587 170.499 158.587 170.786V171.985C158.587 172.275 158.351 172.508 158.064 172.508H156.866C156.727 172.507 156.595 172.452 156.497 172.354C156.399 172.256 156.343 172.123 156.343 171.985V170.786C156.343 170.717 156.356 170.649 156.382 170.586C156.408 170.522 156.447 170.464 156.496 170.416C156.544 170.367 156.602 170.329 156.665 170.303C156.729 170.276 156.797 170.263 156.866 170.263ZM161.021 170.263H162.219C162.358 170.264 162.491 170.319 162.589 170.417C162.687 170.515 162.742 170.647 162.743 170.786V171.985C162.743 172.275 162.507 172.508 162.219 172.508H161.021C160.882 172.507 160.75 172.452 160.652 172.354C160.554 172.256 160.498 172.123 160.498 171.985V170.786C160.498 170.647 160.554 170.515 160.652 170.417C160.75 170.319 160.882 170.264 161.021 170.263ZM165.179 170.263H166.377C166.516 170.264 166.649 170.319 166.747 170.417C166.845 170.515 166.9 170.647 166.901 170.786V171.985C166.901 172.275 166.665 172.508 166.377 172.508H165.179C165.041 172.507 164.908 172.452 164.81 172.354C164.712 172.256 164.657 172.123 164.656 171.985V170.786C164.656 170.717 164.669 170.649 164.696 170.586C164.722 170.522 164.76 170.464 164.809 170.416C164.858 170.367 164.915 170.329 164.979 170.303C165.042 170.276 165.111 170.263 165.179 170.263ZM169.334 170.263H170.533C170.671 170.264 170.804 170.319 170.902 170.417C171 170.515 171.055 170.647 171.056 170.786V171.985C171.056 172.275 170.82 172.508 170.533 172.508H169.334C169.195 172.508 169.062 172.453 168.963 172.355C168.865 172.257 168.809 172.124 168.808 171.985V170.786C168.81 170.647 168.866 170.515 168.964 170.417C169.063 170.319 169.196 170.264 169.334 170.263ZM173.49 170.263H174.688C174.827 170.263 174.961 170.318 175.059 170.416C175.158 170.514 175.213 170.647 175.214 170.786V171.985C175.214 172.275 174.978 172.508 174.688 172.508H173.49C173.351 172.507 173.219 172.452 173.121 172.354C173.023 172.256 172.967 172.123 172.967 171.985V170.786C172.967 170.647 173.023 170.515 173.121 170.417C173.219 170.319 173.351 170.264 173.49 170.263ZM161.173 174.794H162.372C162.51 174.795 162.643 174.85 162.741 174.948C162.839 175.046 162.894 175.179 162.895 175.317V176.518C162.894 176.657 162.839 176.79 162.741 176.888C162.643 176.986 162.51 177.041 162.372 177.042H161.173C161.035 177.041 160.902 176.986 160.803 176.888C160.705 176.79 160.65 176.657 160.65 176.518V175.32C160.65 175.251 160.663 175.183 160.689 175.119C160.715 175.055 160.754 174.997 160.802 174.948C160.851 174.899 160.909 174.86 160.972 174.834C161.036 174.808 161.104 174.794 161.173 174.794ZM165.329 174.794H166.527C166.666 174.795 166.798 174.85 166.896 174.948C166.994 175.046 167.05 175.179 167.05 175.317V176.518C167.05 176.657 166.995 176.79 166.897 176.888C166.799 176.986 166.666 177.041 166.527 177.042H165.329C165.19 177.041 165.057 176.986 164.959 176.888C164.861 176.79 164.806 176.657 164.805 176.518V175.32C164.805 175.251 164.818 175.183 164.844 175.119C164.871 175.055 164.909 174.997 164.958 174.948C165.006 174.899 165.064 174.86 165.128 174.834C165.192 174.808 165.26 174.794 165.329 174.794ZM169.484 174.794H170.683C170.972 174.794 171.208 175.03 171.208 175.317V176.518C171.208 176.657 171.152 176.79 171.054 176.888C170.955 176.986 170.822 177.042 170.683 177.042H169.484C169.346 177.041 169.213 176.986 169.115 176.887C169.017 176.789 168.962 176.657 168.961 176.518V175.32C168.961 175.181 169.016 175.048 169.114 174.949C169.212 174.85 169.345 174.795 169.484 174.794ZM165.179 165.395H166.377C166.516 165.396 166.649 165.451 166.747 165.549C166.845 165.647 166.9 165.78 166.901 165.918V167.117C166.901 167.407 166.665 167.64 166.377 167.64H165.179C165.041 167.639 164.908 167.584 164.81 167.486C164.712 167.388 164.656 167.255 164.656 167.117V165.918C164.656 165.85 164.669 165.781 164.695 165.718C164.722 165.654 164.76 165.597 164.809 165.548C164.857 165.499 164.915 165.461 164.979 165.435C165.042 165.408 165.11 165.395 165.179 165.395ZM161.025 165.395H162.224C162.362 165.396 162.495 165.451 162.593 165.549C162.691 165.647 162.746 165.78 162.747 165.918V167.117C162.747 167.407 162.511 167.64 162.224 167.64H161.025C160.886 167.639 160.754 167.584 160.656 167.486C160.558 167.388 160.502 167.255 160.502 167.117V165.918C160.502 165.85 160.515 165.781 160.541 165.718C160.567 165.654 160.606 165.597 160.655 165.548C160.703 165.499 160.761 165.461 160.825 165.435C160.888 165.408 160.956 165.395 161.025 165.395ZM169.334 165.395H170.533C170.671 165.396 170.804 165.451 170.902 165.549C171 165.647 171.055 165.78 171.056 165.918V167.117C171.056 167.407 170.82 167.64 170.533 167.64H169.334C169.195 167.64 169.062 167.585 168.963 167.487C168.865 167.389 168.809 167.256 168.808 167.117V165.918C168.81 165.78 168.866 165.647 168.964 165.549C169.063 165.451 169.195 165.396 169.334 165.395Z" fill="#E1E4E5"/>
<path d="M254.557 108.659C254.557 108.659 245.181 114.794 237.253 114.166C229.326 113.538 224.38 105.661 221.726 102.801C219.073 99.9421 212.387 93.0329 214.393 90.1355C216.399 87.2381 218.182 90.3585 218.85 92.3644C219.519 94.3699 218.862 90.3717 219.86 90.5879C220.856 90.804 220.46 93.2314 221.438 94.0246C222.417 94.8158 236.904 102.394 240.024 101.948C243.144 101.502 244.51 100.646 245.388 99.7368C246.264 98.8252 255.719 106.677 254.557 108.659Z" fill="#F8AE9D"/>
<path d="M223.897 183.291L223.872 187.492L214.273 192.665V194.927H233.472V191.049L234.477 183.291H223.897Z" fill="#E1E4E5"/>
<path d="M272.054 132.041C272.054 132.041 245.552 122.983 233.311 124.456C221.256 126.908 221.164 141.448 221.209 150.002C221.254 158.556 222.673 183.296 222.673 183.296H236.149C236.149 183.296 240.969 161.046 242.579 150.551C242.579 150.551 243.24 145.852 246.786 147.635C261.304 154.937 270.424 151.647 272.08 144.738C273.736 137.829 272.054 132.041 272.054 132.041Z" fill="#31446C"/>
<path d="M261.096 93.2671C261.096 93.2671 252.424 97.5352 245.372 98.6027C238.017 99.7171 248.269 109.301 256.293 109.301C264.317 109.301 261.096 93.2671 261.096 93.2671Z" fill="#F08519"/>
<path d="M296.882 188.452L302.026 188.477L306.824 194.941H309.224V176.838H305.11L296.882 178.479V188.452Z" fill="#E1E4E5"/>
<path d="M296.9 188.867V177.724C286.025 176.609 281.773 176.478 270.353 176.424C262.151 176.386 266.406 174.158 266.406 174.158C275.387 167.917 284.608 152.762 284.608 152.762C290.044 144.292 286.973 131.142 286.973 131.142C286.973 131.142 277.044 134.04 268.534 133.594C268.534 133.594 259.316 144.961 243.24 169.923C236.817 179.897 237.552 190.837 249.617 191.412C249.617 191.412 278.698 191.765 296.9 188.867Z" fill="#31446C"/>
<path d="M264.183 92.0679C264.183 92.0679 256.516 93.4763 255.578 103.403C254.878 110.812 255.455 120.859 255.455 124.091C255.455 127.322 253.808 127.05 256.07 128.02C258.332 128.989 270.334 138.718 286.809 131.202C286.809 131.202 289.381 116.31 288.61 107.292C288.124 101.62 286.604 92.3598 276.788 91.5642L264.183 92.0679Z" fill="#F08519"/>
<path d="M266.484 76.6138L262.269 76.5156C262.269 76.5156 258.788 91.7604 267.409 90.0264L267.246 91.6357C267.246 91.6357 264.61 92.0211 263.611 92.244C263.611 92.244 266.602 94.8182 270.204 94.5307C273.806 94.2431 276.317 91.8964 276.317 91.8964L274.547 91.7179L273.892 85.3172C273.892 85.3172 275.952 84.2248 276.081 82.9387C276.21 81.6531 275.921 81.2986 274.989 80.8795C274.057 80.4604 272.609 81.9406 272.609 81.9406C272.609 81.9406 271.292 78.8848 271.164 76.9214L266.484 76.6138Z" fill="#F8AE9D"/>
<path d="M225.983 84.7841L289.899 137.352C292.027 139.099 292.355 142.232 290.634 144.383C288.9 146.55 285.74 146.904 283.569 145.174L218.628 93.2532L225.983 84.7841Z" fill="#31446C"/>
<path d="M202.358 36.9774C220.146 36.9774 234.564 51.3953 234.564 69.183C234.564 86.9707 220.146 101.389 202.358 101.389C184.57 101.389 170.152 86.9707 170.152 69.183C170.152 51.3953 184.57 36.9774 202.358 36.9774ZM202.358 91.9522C214.932 91.9522 225.127 81.7578 225.127 69.183C225.127 56.6086 214.932 46.4142 202.358 46.4142C189.783 46.4142 179.589 56.6086 179.589 69.183C179.589 81.7578 189.783 91.9522 202.358 91.9522Z" fill="#E1E4E5"/>
<path d="M279.74 127.158C279.74 127.158 270.364 133.293 262.436 132.665C254.509 132.036 249.563 124.16 246.908 121.3C244.256 118.441 237.57 111.532 239.576 108.634C241.582 105.737 243.365 108.857 244.033 110.863C244.702 112.869 244.045 108.871 245.043 109.087C246.039 109.303 245.642 111.73 246.621 112.524C247.599 113.315 262.086 120.892 265.207 120.447C268.327 120.001 269.693 119.145 270.571 118.236C271.447 117.324 280.901 125.176 279.74 127.158Z" fill="#F8AE9D"/>
<path d="M287.932 102.529C287.932 102.529 288.387 116.878 285.043 122.896C281.7 128.913 281.462 129.109 278.348 125.891C275.237 122.673 269.665 119.419 270.445 116.811C271.225 114.204 272.827 109.704 273.454 105.734C274.122 101.5 275.683 92.8078 279.026 91.6934C279.026 91.6934 287.032 94.6465 287.932 102.529Z" fill="#F08519"/>
<path d="M275.825 85.2256C275.137 86.3248 273.486 86.3196 273.776 85.0552C274.106 83.6183 274.311 81.7135 273.086 81.9385C271.861 82.1634 271.697 83.105 271.27 82.4991C270.843 81.8935 271.088 79.56 267.572 79.0114C264.056 78.4652 262.487 79.5355 260.924 78.6356C259.988 78.0971 259.677 76.989 259.579 76.1866C259.551 75.9588 259.746 75.6657 259.875 75.855C259.998 76.0338 260.352 76.0619 260.272 75.8602C259.778 74.6142 259.129 71.9434 261.708 70.2868C265.161 68.0687 268.213 70.0987 270.038 70.4087C274.058 71.0928 276.645 71.619 277.677 74.4145C278.533 76.7336 277.754 82.1482 275.825 85.2256Z" fill="#31446C"/>
<path d="M79.5709 54.9282H12.9344C8.50481 54.9282 4.91394 58.5191 4.91394 62.9487V147.499C4.91394 151.928 8.50481 155.519 12.9344 155.519H79.5709C84.0005 155.519 87.5914 151.928 87.5914 147.499V62.9487C87.5914 58.5191 84.0005 54.9282 79.5709 54.9282Z" fill="white" stroke="#E1E4E5" stroke-width="1.60409" stroke-linecap="round" stroke-linejoin="round"/>
<mask id="mask0_8_9059" style="mask-type:alpha" maskUnits="userSpaceOnUse" x="4" y="54" width="85" height="103">
<path d="M4.90305 54.9282H87.5805V155.519H4.90305V54.9282Z" fill="white" stroke="white" stroke-width="1.60409" stroke-linecap="round" stroke-linejoin="round"/>
</mask>
<g mask="url(#mask0_8_9059)">
<path d="M70.0392 128.112H22.6304C20.9782 128.112 19.6388 129.452 19.6388 131.104V131.104C19.6388 132.756 20.9782 134.096 22.6304 134.096H70.0392C71.6914 134.096 73.0308 132.756 73.0308 131.104V131.104C73.0308 129.452 71.6914 128.112 70.0392 128.112Z" fill="white" stroke="#E1E4E5" stroke-width="1.60409" stroke-linecap="round" stroke-linejoin="round"/>
<path d="M69.5788 115.685H23.0908C21.1843 115.685 19.6388 117.231 19.6388 119.137C19.6388 121.044 21.1843 122.589 23.0908 122.589H69.5788C71.4853 122.589 73.0308 121.044 73.0308 119.137C73.0308 117.231 71.4853 115.685 69.5788 115.685Z" fill="white" stroke="#E1E4E5" stroke-width="1.60409" stroke-linecap="round" stroke-linejoin="round"/>
<path d="M69.5788 139.62H23.0908C21.1843 139.62 19.6388 141.165 19.6388 143.072C19.6388 144.978 21.1843 146.524 23.0908 146.524H69.5788C71.4853 146.524 73.0308 144.978 73.0308 143.072C73.0308 141.165 71.4853 139.62 69.5788 139.62Z" fill="white" stroke="#E1E4E5" stroke-width="1.60409" stroke-linecap="round" stroke-linejoin="round"/>
<path d="M29.5322 61.8325H15.2639C13.8657 61.8325 12.7322 62.9659 12.7322 64.364C12.7322 65.7621 13.8657 66.8954 15.2639 66.8954H29.5322C30.9304 66.8954 32.0639 65.7621 32.0639 64.364C32.0639 62.9659 30.9304 61.8325 29.5322 61.8325Z" fill="white" stroke="#E1E4E5" stroke-width="1.60409" stroke-linecap="round" stroke-linejoin="round"/>
</g>
<path d="M69.9299 19.8669L65.5812 24.2115L63.4682 22.105M79.3527 17.788H92.2058M79.4529 24.1646H100.708M100.708 39.0433H79.3527M100.708 32.6667H79.4529" stroke="#E1E4E5" stroke-width="2.20562" stroke-linecap="round" stroke-linejoin="round"/>
<path d="M66.6953 41.1685C69.0429 41.1685 70.9462 39.2653 70.9462 36.9177C70.9462 34.5697 69.0429 32.6664 66.6953 32.6664C64.3473 32.6664 62.4441 34.5697 62.4441 36.9177C62.4441 39.2653 64.3473 41.1685 66.6953 41.1685Z" stroke="#E1E4E5" stroke-width="2.20562" stroke-linecap="round" stroke-linejoin="round"/>
<path d="M121.94 19.8668L117.591 24.2115L115.478 22.1049M131.362 17.7879H144.216M131.463 24.1645H152.718M152.718 39.0433H131.362M152.718 32.6666H131.463" stroke="#E1E4E5" stroke-width="2.20562" stroke-linecap="round" stroke-linejoin="round"/>
<path d="M118.709 41.1687C121.057 41.1687 122.96 39.2654 122.96 36.9179C122.96 34.5699 121.057 32.6666 118.709 32.6666C116.361 32.6666 114.458 34.5699 114.458 36.9179C114.458 39.2654 116.361 41.1687 118.709 41.1687Z" stroke="#E1E4E5" stroke-width="2.20562" stroke-linecap="round" stroke-linejoin="round"/>
<path d="M121.94 58.0698L117.591 62.4145L115.478 60.3083M131.362 55.9909H144.216M131.463 62.3676H152.718M152.718 77.2463H131.362M152.718 70.8696H131.463" stroke="#E1E4E5" stroke-width="2.20562" stroke-linecap="round" stroke-linejoin="round"/>
<path d="M118.709 79.3721C121.057 79.3721 122.96 77.4688 122.96 75.1209C122.96 72.7729 121.057 70.8696 118.709 70.8696C116.361 70.8696 114.458 72.7729 114.458 75.1209C114.458 77.4688 116.361 79.3721 118.709 79.3721Z" stroke="#E1E4E5" stroke-width="2.20562" stroke-linecap="round" stroke-linejoin="round"/>
<path d="M12.3956 19.8669L8.04688 24.2115L5.9339 22.105M21.8184 17.788H34.6715M21.9182 24.1646H43.1736M43.1736 39.0433H21.8184M43.1736 32.6667H21.9182" stroke="#E1E4E5" stroke-width="2.20562" stroke-linecap="round" stroke-linejoin="round"/>
<path d="M9.16477 41.1685C11.5128 41.1685 13.416 39.2653 13.416 36.9177C13.416 34.5697 11.5128 32.6664 9.16517 32.6664C6.81719 32.6664 4.91394 34.5697 4.91394 36.9177C4.91394 39.2653 6.81719 41.1685 9.16477 41.1685Z" stroke="#E1E4E5" stroke-width="2.20562" stroke-linecap="round" stroke-linejoin="round"/>
<path d="M218.055 35.7967C219.884 34.7408 221.959 34.1849 224.071 34.1849C226.183 34.1849 228.257 34.7408 230.086 35.7967L236.983 39.7789C238.812 40.8348 240.331 42.3535 241.386 44.1824C242.442 46.0114 242.998 48.086 242.998 50.1978V58.1613C242.998 60.2732 242.442 62.3478 241.386 64.1767C240.331 66.0056 238.812 67.5243 236.983 68.5803L230.086 72.5624C228.257 73.6183 226.183 74.1742 224.071 74.1742C221.959 74.1742 219.884 73.6183 218.055 72.5624L211.159 68.5803C209.33 67.5243 207.811 66.0056 206.755 64.1767C205.699 62.3478 205.143 60.2732 205.143 58.1613V50.1978C205.143 48.086 205.699 46.0114 206.755 44.1824C207.811 42.3535 209.33 40.8348 211.159 39.7789L218.055 35.7967Z" fill="#F08519"/>
<path d="M230.83 50.0966L222.852 58.0103L218.066 53.2622" stroke="white" stroke-width="3.38863" stroke-linecap="round" stroke-linejoin="round"/>
<path d="M257.882 25.4701C254.676 25.4701 252.078 28.0685 252.078 31.2737C252.078 34.4789 254.676 37.0773 257.882 37.0773C261.087 37.0773 263.685 34.4789 263.685 31.2737C263.685 28.0685 261.087 25.4701 257.882 25.4701Z" fill="#F08519"/>
<path d="M102.895 79.3228C101.147 79.3228 99.7298 80.7401 99.7298 82.4884C99.7298 84.2368 101.147 85.6541 102.895 85.6541C104.644 85.6541 106.061 84.2368 106.061 82.4884C106.061 80.7401 104.644 79.3228 102.895 79.3228Z" fill="#F08519"/>
<path d="M150.118 126.249C145.167 126.249 141.154 122.235 141.154 117.285C141.154 112.334 145.167 108.32 150.118 108.32C155.069 108.32 159.083 112.334 159.083 117.285C159.083 122.235 155.069 126.249 150.118 126.249Z" fill="#F08519"/>
<path d="M283.923 126.922C281.612 126.922 279.739 125.049 279.739 122.738C279.739 120.428 281.612 118.555 283.923 118.555C286.233 118.555 288.106 120.428 288.106 122.738C288.106 125.049 286.233 126.922 283.923 126.922Z" fill="#F08519"/>
<path d="M112.931 143.472C109.96 143.472 107.552 141.064 107.552 138.094C107.552 135.123 109.96 132.715 112.931 132.715C115.901 132.715 118.309 135.123 118.309 138.094C118.309 141.064 115.901 143.472 112.931 143.472Z" fill="#E1E4E5"/>
<path d="M198.632 169.426C194.341 169.426 190.863 165.947 190.863 161.657C190.863 157.366 194.341 153.888 198.632 153.888C202.922 153.888 206.401 157.366 206.401 161.657C206.401 165.947 202.922 169.426 198.632 169.426Z" fill="#E1E4E5"/>
<path d="M171.92 143.16C168.655 143.16 166.007 140.513 166.007 137.247C166.007 133.981 168.655 131.334 171.92 131.334C175.186 131.334 177.833 133.981 177.833 137.247C177.833 140.513 175.186 143.16 171.92 143.16Z" fill="#E1E4E5"/>
<path d="M292.992 65.009C291.243 65.009 289.826 63.4736 289.826 61.5795C289.826 59.6854 291.243 58.15 292.992 58.15C294.74 58.15 296.157 59.6854 296.157 61.5795C296.157 63.4736 294.74 65.009 292.992 65.009Z" fill="#E1E4E5"/>
<path d="M98.0421 57.5406C96.6851 57.5406 95.585 56.4406 95.585 55.0836C95.585 53.7266 96.6851 52.6265 98.0421 52.6265C99.3991 52.6265 100.499 53.7266 100.499 55.0836C100.499 56.4406 99.3991 57.5406 98.0421 57.5406Z" fill="#E1E4E5"/>
<path d="M297.417 162.633C295.002 162.633 293.045 161.087 293.045 159.181C293.045 157.275 295.002 155.729 297.417 155.729C299.832 155.729 301.79 157.275 301.79 159.181C301.79 161.087 299.832 162.633 297.417 162.633Z" fill="#E1E4E5"/>
<path d="M198.843 11.1875C199.454 13.4671 198.101 15.8103 195.821 16.4211C193.542 17.032 191.199 15.6791 190.588 13.3995C189.977 11.1198 191.33 8.77661 193.609 8.16578C195.889 7.55495 198.232 8.9078 198.843 11.1875Z" fill="#E1E4E5"/>
<path d="M77.6719 77.0573V97.6041C77.6719 98.9519 76.5788 100.045 75.2305 100.045H47.5724C46.2241 100.045 45.131 98.9519 45.131 97.6041V77.0573C45.131 75.7094 46.2241 74.6168 47.5724 74.6168H75.2305C76.5788 74.6168 77.6719 75.7094 77.6719 77.0573Z" fill="#B26110"/>
<path d="M63.0657 91.0787H66.7044V82.7263H63.0657V91.0787ZM62.1201 81.7952H67.6933V93.0128H66.7044V92.0097H63.0657V93.1271H62.1201V81.7952ZM58.1375 81.9529C57.2493 82.1533 56.3182 82.3396 55.444 82.4826C55.4012 82.2676 55.2723 81.9529 55.1434 81.7379C57.149 81.3794 59.4412 80.835 60.6588 80.2192L61.547 80.9639C61.4896 81.0072 61.461 81.0072 61.2605 81.0072C60.6734 81.265 59.914 81.5087 59.0686 81.7233V84.5315H61.5329V85.4339H59.0686V86.2935C59.6703 86.8378 61.1457 88.3424 61.5042 88.7432L60.9025 89.5313C60.5586 89.0443 59.7131 88.07 59.0686 87.3393V93.5139H58.1375V86.8665C57.421 88.6002 56.4471 90.3334 55.5014 91.3506C55.3867 91.0787 55.1434 90.706 54.9571 90.4769C56.0458 89.345 57.2206 87.2965 57.8797 85.4339H55.1434V84.5315H58.1375V81.9529Z" fill="white"/>
<path d="M14.8115 80.3131V100.86C14.8115 102.208 15.9046 103.301 17.2529 103.301H44.9111C46.2593 103.301 47.3524 102.208 47.3524 100.86V80.3131C47.3524 78.9657 46.2593 77.8726 44.9111 77.8726H17.2529C15.9046 77.8726 14.8115 78.9657 14.8115 80.3131Z" fill="#5D3004"/>
<path d="M32.2173 90.7302L30.9803 87.095C30.6995 86.2708 30.5119 85.5212 30.3247 84.7905H30.2872C30.0996 85.5397 29.8938 86.3079 29.6501 87.0765L28.4131 90.7302H32.2173ZM28.0758 92.0043L26.7642 95.9767H25.0778L29.3689 83.3473H31.3366L35.6463 95.9767H33.9038L32.5546 92.0043H28.0758Z" fill="white"/>
</g>
</g>
<defs>
<clipPath id="clip0_8_9059">
<rect width="314" height="184" fill="white" transform="translate(0.666656)"/>
</clipPath>
<clipPath id="clip1_8_9059">
<rect width="314" height="196.1" fill="white" transform="translate(0.500641 3.4502)"/>
</clipPath>
</defs>
</svg>
