<svg width="315" height="184" viewBox="0 0 315 184" fill="none" xmlns="http://www.w3.org/2000/svg">
<g clip-path="url(#clip0_8_22116)">
<g clip-path="url(#clip1_8_22116)">
<path fill-rule="evenodd" clip-rule="evenodd" d="M58.6031 174.156C75.9011 188.921 101.927 188.125 118.284 171.768C134.641 155.411 135.437 129.385 120.671 112.087L58.6031 174.156Z" fill="url(#paint0_linear_8_22116)"/>
<path d="M139.421 124.186H198.943V183.274H139.421V124.186ZM112.318 57.2776L135.052 80.0121L112.625 102.439L89.8908 79.7042L112.318 57.2776Z" fill="#5F4225"/>
<path d="M169.614 124.186C185.811 124.186 198.941 111.056 198.941 94.8589C198.941 78.6623 185.811 65.5323 169.614 65.5323C153.417 65.5323 140.287 78.6623 140.287 94.8589C140.287 111.056 153.417 124.186 169.614 124.186Z" fill="#F08519"/>
<path d="M122.253 50.3259C132.451 50.3259 140.718 42.0589 140.718 31.8611C140.718 21.6632 132.451 13.3962 122.253 13.3962C112.055 13.3962 103.788 21.6632 103.788 31.8611C103.788 42.0589 112.055 50.3259 122.253 50.3259Z" fill="#F08519"/>
<path d="M79.4572 73.3523C87.3755 73.3523 93.7947 66.9332 93.7947 59.0148C93.7947 51.0964 87.3755 44.6773 79.4572 44.6773C71.5388 44.6773 65.1197 51.0964 65.1197 59.0148C65.1197 66.9332 71.5388 73.3523 79.4572 73.3523Z" fill="#F8AE9D"/>
<path d="M75.9815 110.718C81.9803 110.718 86.8433 105.855 86.8433 99.8561C86.8433 93.8573 81.9803 88.9943 75.9815 88.9943C69.9827 88.9943 65.1197 93.8573 65.1197 99.8561C65.1197 105.855 69.9827 110.718 75.9815 110.718Z" fill="url(#paint1_linear_8_22116)"/>
<path d="M195.497 1.53735L215.592 76.5329L140.596 56.4381L195.497 1.53735Z" fill="#F8AE9D"/>
<path d="M24.6963 107.652L67.8165 119.206L36.2502 150.773L24.6963 107.652Z" fill="#F08519"/>
<path d="M257.47 35.8033C257.718 36.796 257.389 37.8283 256.846 38.6954C256.462 39.3078 255.925 38.6312 255.142 38.5231C253.932 38.3532 253.165 37.072 252.903 33.9498C252.782 31.6693 252.839 30.5316 252.966 30.3325C253.418 29.6198 254.581 29.3815 255.499 29.4503" fill="#5F4225"/>
<path fill-rule="evenodd" clip-rule="evenodd" d="M255.265 171.502C255.265 171.502 255.339 176.191 252.445 177.856C249.551 179.522 245.067 182.617 245.067 182.617L262.123 183.191L261.637 171.46L255.265 171.502Z" fill="#F8AE9D"/>
<path fill-rule="evenodd" clip-rule="evenodd" d="M262.72 176.668L262.997 184.275H259.036L258.764 183.295C258.764 183.295 257.273 183.234 256.411 183.657C255.5 184.105 255.378 184.322 255.378 184.322L242.812 184.348C242.812 184.348 242.192 181.89 246.022 180.112C249.853 178.333 252.642 175.809 253.172 175.551C253.705 175.29 254.782 175.143 255.54 175.755C256.298 176.366 256.898 177.973 258.616 178.024C260.827 178.089 262.097 175.382 262.72 176.668ZM267.618 94.9816C267.618 94.9816 262.963 134.481 262.818 137.227C262.673 139.973 264.313 144.711 264.281 149.847C264.249 154.983 263.682 173.085 263.682 173.085L253.413 173.253C253.413 173.253 249.098 140.541 249.051 135.636C249.005 130.731 248.609 95.4536 248.609 95.4536L267.618 94.9816Z" fill="#5F4225"/>
<path fill-rule="evenodd" clip-rule="evenodd" d="M280.174 170.678L282.176 182.831L274.798 182.794L274.565 170.487L280.174 170.678Z" fill="#F8AE9D"/>
<path fill-rule="evenodd" clip-rule="evenodd" d="M281.312 176.008C281.565 176.063 281.793 176.202 281.96 176.401C282.126 176.601 282.221 176.85 282.23 177.11L282.301 179.267C283.355 180.44 283.848 183.851 283.891 184.163C283.893 184.179 283.894 184.195 283.893 184.211C283.782 185.875 272.865 185.846 271.981 184.268C271.954 184.215 271.946 184.154 271.959 184.096C272.056 183.498 272.656 180.078 273.83 179.158L273.838 177.024C273.839 176.768 273.924 176.519 274.08 176.317C274.236 176.114 274.454 175.968 274.701 175.902L276.139 175.515C277.218 173.938 278.688 173.993 279.947 175.712L281.312 176.008ZM276.556 95.3537C276.556 95.3537 279.844 122.303 279.799 127.464C279.754 132.624 278.787 134.891 280.164 138.593C281.54 142.296 282.714 171.846 282.714 171.846L272.535 172.694C272.535 172.694 266.032 141.073 265.325 136.689C264.618 132.305 255.878 94.9816 255.878 94.9816L276.556 95.3537Z" fill="#5F4225"/>
<path fill-rule="evenodd" clip-rule="evenodd" d="M225.8 46.8992C225.8 46.8992 226.65 42.1629 226.344 41.2041C226.084 40.3751 223.616 39.1798 223.616 39.1798C223.616 39.1798 219.325 32.4015 218.386 33.0916C217.623 33.6512 220.621 38.6483 220.621 38.6483C220.621 38.6483 217.887 41.5171 217.925 42.7994C217.963 44.0817 222.388 48.0963 222.388 48.0963L225.8 46.8992ZM269.902 48.012C269.902 48.012 267.076 47.3486 266.978 42.7181C266.88 38.0876 266.948 36.5071 266.948 36.5071L260.249 36.3947C260.249 36.3947 260.181 41.5552 260.18 43.4219C260.178 47.4855 257.159 48.5835 257.159 48.5835C257.159 48.5835 257.41 53.027 263.051 53.3443C267.455 53.592 269.902 48.012 269.902 48.012Z" fill="#F8AE9D"/>
<path fill-rule="evenodd" clip-rule="evenodd" d="M267.566 34.1663C270.343 34.059 269.89 38.1241 267.005 38.1187C267.005 38.1187 263.905 44.3519 259.038 44.3683C256.694 44.376 255.928 42.2877 255.225 40.8214C254.522 39.3555 254.007 37.1626 253.964 35.82C253.918 34.3883 253.912 29.6851 253.912 29.6851L267.674 29.6789L267.566 34.1663Z" fill="#F8AE9D"/>
<path fill-rule="evenodd" clip-rule="evenodd" d="M257.05 48.3072C257.05 48.3072 249.833 50.56 248.093 53.2515C242.491 58.1736 235.483 64.9333 235.483 64.9333C235.483 64.9333 228.809 48.1832 226.627 46.2733C225.134 44.9664 222.16 46.5824 221.606 48.2427C220.894 50.3757 225.465 62.8854 227.623 68.7935L227.624 68.7947C228.042 69.939 228.37 70.8353 228.551 71.3609C229.867 75.18 233.07 77.3706 236.968 74.9432C238.539 73.9645 243.215 70.7583 247.204 67.8514C247.266 70.9049 247.372 74.1224 247.471 77.1781V77.1793C247.714 84.6039 247.925 91.0739 247.418 91.9146C244.901 96.082 248.247 98.9426 259.322 99.9935C270.398 101.045 280.224 100.184 278.441 94.6227C278.069 93.4636 278.074 90.9697 278.259 87.7293C279.344 87.6715 280.428 87.6001 281.512 87.515C286.134 87.1507 289.553 85.1646 290.029 80.0064C290.363 76.3943 283.482 59.4361 280.901 53.86C280.298 52.5555 279.364 51.7432 278.307 51.3385C278.061 51.0636 277.783 50.8707 277.472 50.7681C275.576 50.1432 268.78 47.2881 268.78 47.2881L260.696 52.5776L257.05 48.3072ZM279.008 78.158L279.026 78.205L279.004 78.2077L279.008 78.158Z" fill="#F08519"/>
<path fill-rule="evenodd" clip-rule="evenodd" d="M261.071 82.6336C261.071 82.6336 258.605 82.1379 257.596 81.3459C256.587 80.5534 253.531 79.9935 253.531 79.9935L254.509 82.0524C254.509 82.0524 247.018 81.3494 246.841 82.0881C246.663 82.8273 248.83 83.6306 248.83 83.6306C248.83 83.6306 249.898 85.6264 250.932 86.7832C251.911 87.8777 256.773 87.7475 258.478 87.0643C259.95 86.4741 261.552 86.7692 261.552 86.7692L261.071 82.6336Z" fill="#F8AE9D"/>
<path d="M266.805 29.8711C266.399 30.4022 265.684 30.5192 265.094 30.6246C264.302 30.7653 263.91 31.0597 263.499 31.8486C263.238 32.3529 262.978 32.905 262.512 33.178C262.133 33.4016 262.144 32.8362 262.088 32.3992C262.083 32.3584 262.075 32.318 262.064 32.2783C261.974 31.9287 261.603 31.9874 261.495 32.3319C261.397 32.6441 261.185 32.9082 260.917 33.0551C260.873 33.0792 260.827 33.1002 260.78 33.0909C260.717 33.082 260.668 33.0221 260.626 32.968C260.541 32.8557 260.456 32.7134 260.368 32.5625C260.078 32.0636 259.525 32.2386 259.201 32.7161C258.998 33.0131 258.757 33.3191 258.425 33.3884C258.318 33.4121 258.184 33.3942 258.135 33.2892C258.071 33.1601 258.17 33.031 258.154 32.8992C258.14 32.776 258.088 32.7219 258.031 32.6169C257.806 32.2118 257.286 32.197 256.969 32.5345C256.748 32.7693 256.518 32.9951 256.279 33.2111C256.177 33.3013 256.029 33.3911 255.928 33.3013C255.873 33.253 255.859 33.1722 255.848 33.094C255.791 32.713 255.736 32.3319 255.679 31.9509C255.645 31.7378 255.533 31.4586 255.341 31.5127C255.248 31.5395 255.193 31.6387 255.141 31.7289C255.078 31.8428 253.951 33.1422 253.93 33.0431C253.754 32.3047 253.395 31.6328 253.22 30.8944C252.085 26.1442 257.12 22.324 260.966 22.303C261.822 22.2972 262.603 22.3112 263.433 22.5122C264.319 22.7284 265.253 23.0713 266.057 23.5546C267.183 24.2296 268.036 25.4571 267.816 26.9214" fill="#5F4225"/>
<path d="M263.682 28.3354C263.14 28.9559 262.996 29.8284 262.946 30.6528C262.872 31.8958 262.972 33.1875 263.541 34.291C263.704 34.6052 263.823 36.1601 264.073 36.0741C264.153 36.0473 264.14 34.8416 264.349 34.1918C264.674 33.1848 266.168 32.801 266.84 33.4371C267.914 34.4496 267.284 35.6795 266.928 36.4447C266.715 36.9066 266.378 37.4249 266.319 37.9133C266.248 38.5393 266.226 40.8189 266.63 41.3505C266.968 41.7961 267.327 39.6428 267.633 39.2185C269.895 36.0582 272.064 28.0107 268.202 26.2653C267.614 25.9993 265.801 25.8625 265.251 26.2007" fill="#5F4225"/>
<path d="M84.2229 132.315C85.7193 130.818 85.7193 128.392 84.2229 126.896C82.7265 125.399 80.3003 125.399 78.8038 126.896L66.5313 139.168C65.0349 140.665 65.0349 143.091 66.5313 144.587C68.0278 146.084 70.454 146.084 71.9504 144.587L84.2229 132.315Z" fill="#E1E4E5"/>
<path d="M61.6283 83.1804C62.7975 82.0112 62.7976 80.1156 61.6284 78.9465C60.4593 77.7774 58.5637 77.7774 57.3945 78.9466L49.4262 86.9149C48.257 88.0841 48.2569 89.9797 49.426 91.1489C50.5952 92.318 52.4908 92.3179 53.66 91.1487L61.6283 83.1804Z" fill="#E1E4E5"/>
<path d="M95.8935 25.15C97.0175 24.026 97.0175 22.2038 95.8937 21.0799C94.7698 19.956 92.9476 19.9561 91.8236 21.08L83.6711 29.2325C82.5471 30.3565 82.5471 32.1787 83.6709 33.3026C84.7948 34.4265 86.6171 34.4264 87.741 33.3025L95.8935 25.15Z" fill="#E1E4E5"/>
<path d="M166.55 14.7328L166.549 14.7325C165.331 13.5144 163.356 13.5144 162.138 14.7325L154.222 22.6492C153.004 23.8673 153.004 25.8422 154.222 27.0603L154.222 27.0606C155.44 28.2787 157.415 28.2787 158.633 27.0606L166.55 19.144C167.768 17.9259 167.768 15.9509 166.55 14.7328Z" fill="#E1E4E5"/>
<path d="M127.748 178.229C129.879 177.724 132.132 179.531 132.132 179.531C132.132 179.531 130.929 182.156 128.798 182.659C126.667 183.164 124.414 181.358 124.414 181.358C124.414 181.358 125.617 178.734 127.748 178.229Z" fill="url(#paint2_linear_8_22116)"/>
<path d="M139.7 66.8575C137.811 65.5569 134.926 66.4659 134.926 66.4659C134.926 66.4659 135.104 69.4844 136.995 70.7838C138.883 72.0848 141.767 71.1765 141.767 71.1765C141.767 71.1765 141.589 68.1585 139.7 66.8575Z" fill="url(#paint3_linear_8_22116)"/>
<path d="M224.292 109.189C221.44 106.286 216.106 106.898 216.106 106.898C216.106 106.898 215.4 112.218 218.255 115.119C221.107 118.022 226.439 117.412 226.439 117.412C226.439 117.412 227.145 112.093 224.292 109.189Z" fill="url(#paint4_linear_8_22116)"/>
<path d="M51.0812 73.0131C54.1252 73.0131 56.5928 70.6578 56.5928 67.7524C56.5928 64.8469 54.1252 62.4916 51.0812 62.4916C48.0373 62.4916 45.5696 64.8469 45.5696 67.7524C45.5696 70.6578 48.0373 73.0131 51.0812 73.0131Z" fill="#F08519"/>
<path d="M216.187 22.2462C219.231 22.2462 221.699 19.7786 221.699 16.7346C221.699 13.6906 219.231 11.223 216.187 11.223C213.143 11.223 210.676 13.6906 210.676 16.7346C210.676 19.7786 213.143 22.2462 216.187 22.2462Z" fill="#F08519"/>
<path d="M50.58 151.992C53.3472 151.992 55.5904 154.348 55.5904 157.253C55.5904 160.159 53.3472 162.514 50.58 162.514C47.8129 162.514 45.5696 160.159 45.5696 157.253C45.5696 154.348 47.8129 151.992 50.58 151.992Z" fill="#F08519"/>
<path d="M279.67 82.9115C282.022 82.9115 283.929 84.8182 283.929 87.1703C283.929 89.5224 282.022 91.4291 279.67 91.4291C277.318 91.4291 275.411 89.5224 275.411 87.1703C275.411 84.8182 277.318 82.9115 279.67 82.9115Z" fill="#F08519"/>
<path d="M135.013 59.0154C136.42 59.0154 137.56 60.1558 137.56 61.5626C137.56 62.9694 136.42 64.1098 135.013 64.1098C133.606 64.1098 132.466 62.9694 132.466 61.5626C132.466 60.1558 133.606 59.0154 135.013 59.0154Z" fill="white"/>
<path d="M171.644 7.31291C173.123 7.31291 174.323 8.51233 174.323 9.9919C174.323 11.4715 173.123 12.6709 171.644 12.6709C170.164 12.6709 168.965 11.4715 168.965 9.9919C168.965 8.51233 170.164 7.31291 171.644 7.31291Z" fill="#E1E4E5"/>
<path d="M101.978 107.074C102.707 107.074 103.298 107.665 103.298 108.394C103.298 109.123 102.707 109.714 101.978 109.714C101.249 109.714 100.658 109.123 100.658 108.394C100.658 107.665 101.249 107.074 101.978 107.074Z" fill="#E1E4E5"/>
<path d="M130.133 179.364C131.246 179.364 132.148 180.266 132.148 181.379C132.148 182.491 131.246 183.393 130.133 183.393C129.02 183.393 128.118 182.491 128.118 181.379C128.118 180.266 129.02 179.364 130.133 179.364Z" fill="white"/>
<path d="M204.589 90.7885C204.589 89.3171 205.782 88.1243 207.253 88.1243C208.724 88.1243 209.917 89.3171 209.917 90.7885C209.917 92.2599 208.724 93.4528 207.253 93.4528C205.782 93.4528 204.589 92.2599 204.589 90.7885Z" fill="#E1E4E5"/>
<path d="M216.465 141.13C217.987 141.13 219.22 142.364 219.22 143.886C219.22 145.408 217.987 146.642 216.465 146.642C214.943 146.642 213.709 145.408 213.709 143.886C213.709 142.364 214.943 141.13 216.465 141.13Z" fill="#E1E4E5"/>
<path d="M27.1811 90.6484C29.0243 88.774 31.7182 88.4341 33.198 89.8893C34.6779 91.3445 34.3834 94.0437 32.5402 95.9181C30.697 97.7926 28.0031 98.1325 26.5233 96.6773C25.0434 95.2221 25.3379 92.5229 27.1811 90.6484Z" fill="#E1E4E5"/>
<path d="M130.566 107.4C130.174 105.937 131.043 104.433 132.506 104.041C133.969 103.649 135.473 104.517 135.865 105.981C136.257 107.444 135.389 108.948 133.926 109.34C132.462 109.732 130.958 108.864 130.566 107.4Z" fill="white"/>
<path d="M96.3665 125.528H96.3311C96.1223 122.568 93.9208 122.522 93.9208 122.522C93.9208 122.522 96.3482 122.475 96.3482 119.055C96.3482 122.475 98.7756 122.522 98.7756 122.522C98.7756 122.522 96.5753 122.568 96.3665 125.528ZM212.689 31.8953H212.648C212.403 28.3539 209.821 28.2994 209.821 28.2994C209.821 28.2994 212.668 28.2427 212.668 24.1507C212.668 28.2427 215.515 28.2994 215.515 28.2994C215.515 28.2994 212.935 28.3539 212.689 31.8953Z" fill="#E1E4E5"/>
</g>
</g>
<defs>
<linearGradient id="paint0_linear_8_22116" x1="135.668" y1="186.505" x2="59.3827" y2="111.036" gradientUnits="userSpaceOnUse">
<stop stop-color="white"/>
<stop offset="1" stop-color="#EEEEEE"/>
</linearGradient>
<linearGradient id="paint1_linear_8_22116" x1="76.4446" y1="122.897" x2="75.7746" y2="65.3627" gradientUnits="userSpaceOnUse">
<stop stop-color="white"/>
<stop offset="1" stop-color="#EEEEEE"/>
</linearGradient>
<linearGradient id="paint2_linear_8_22116" x1="135.772" y1="176.974" x2="117.118" y2="185.786" gradientUnits="userSpaceOnUse">
<stop stop-color="white"/>
<stop offset="1" stop-color="#EEEEEE"/>
</linearGradient>
<linearGradient id="paint3_linear_8_22116" x1="132.343" y1="62.5894" x2="147.21" y2="78.2659" gradientUnits="userSpaceOnUse">
<stop stop-color="white"/>
<stop offset="1" stop-color="#EEEEEE"/>
</linearGradient>
<linearGradient id="paint4_linear_8_22116" x1="212.911" y1="99.2725" x2="233.533" y2="131.6" gradientUnits="userSpaceOnUse">
<stop stop-color="white"/>
<stop offset="1" stop-color="#EEEEEE"/>
</linearGradient>
<clipPath id="clip0_8_22116">
<rect x="0.333374" width="314" height="184" rx="8" fill="white"/>
</clipPath>
<clipPath id="clip1_8_22116">
<rect width="302.505" height="224.351" fill="white" transform="translate(6.08093 -20.1757)"/>
</clipPath>
</defs>
</svg>
