<svg width="16" height="17" viewBox="0 0 16 17" fill="none" xmlns="http://www.w3.org/2000/svg">
<g style="mix-blend-mode:luminosity">
<circle cx="8" cy="8.42871" r="8" fill="#B8282D"/>
<path d="M5.43114 9.46527H6.22914L7.13596 12.2918L8.04279 9.46527H8.84079L7.45963 13.5278H6.8123L5.43114 9.46527ZM4.94564 9.46527H5.77155L5.92501 12.5792V13.5278H4.94564V9.46527ZM8.50038 9.46527H9.32908V13.5278H8.34692V12.5792L8.50038 9.46527Z" fill="white"/>
<path d="M11.7597 13.4374C11.4459 13.4374 11.1621 13.3889 10.9085 13.2919C10.6574 13.1924 10.443 13.0543 10.2652 12.8777C10.0899 12.701 9.95527 12.4933 9.86113 12.2545C9.76698 12.0156 9.71991 11.7582 9.71991 11.482V11.3328C9.71991 11.0168 9.76829 10.7307 9.86505 10.4745C9.96181 10.2182 10.0965 9.99931 10.2691 9.8177C10.4417 9.6336 10.6457 9.49305 10.881 9.39602C11.1164 9.299 11.3714 9.25049 11.6459 9.25049C11.9493 9.25049 12.2147 9.299 12.4423 9.39602C12.6698 9.49305 12.8581 9.62987 13.0071 9.8065C13.1588 9.98065 13.2712 10.1884 13.3445 10.4297C13.4203 10.671 13.4582 10.9372 13.4582 11.2283V11.6126H10.1789V10.967H12.5246V10.8961C12.5194 10.7344 12.4854 10.5827 12.4226 10.4409C12.3625 10.2991 12.2697 10.1846 12.1441 10.0976C12.0186 10.0105 11.8512 9.96697 11.642 9.96697C11.4851 9.96697 11.3452 9.99931 11.2223 10.064C11.102 10.1262 11.0013 10.217 10.9203 10.3364C10.8392 10.4558 10.7764 10.6001 10.732 10.7693C10.6901 10.936 10.6692 11.1238 10.6692 11.3328V11.482C10.6692 11.6586 10.694 11.8228 10.7437 11.9746C10.796 12.1239 10.8719 12.2545 10.9712 12.3664C11.0706 12.4784 11.1909 12.5667 11.3321 12.6314C11.4733 12.6936 11.6342 12.7247 11.8146 12.7247C12.0421 12.7247 12.2448 12.6811 12.4226 12.5941C12.6005 12.507 12.7548 12.3838 12.8855 12.2246L13.3837 12.6836C13.2922 12.8105 13.1732 12.9324 13.0267 13.0493C12.8803 13.1637 12.7011 13.257 12.4893 13.3292C12.2801 13.4013 12.0369 13.4374 11.7597 13.4374Z" fill="white"/>
<path d="M3.5142 3.56836H2.69177V7.83004H4.93476V10.3254H5.75719V7.83004H6.50486V6.93285H5.75719V3.56836H4.93476V6.93285H3.5142V3.56836Z" fill="white"/>
</g>
</svg>
