<svg width="460" height="270" viewBox="0 0 460 270" fill="none" xmlns="http://www.w3.org/2000/svg">
<g clip-path="url(#clip0_516_22152)">
<g clip-path="url(#clip1_516_22152)">
<path fill-rule="evenodd" clip-rule="evenodd" d="M18.0076 274.664C11.5029 274.664 6.23614 269.38 6.25788 262.876L6.40005 219.304C6.40592 217.366 6.89177 215.459 7.81353 213.755L71.1414 96.6021C74.7421 89.9418 83.609 88.3749 89.2735 93.3985L151.544 148.62C153.171 150.063 155.166 151.026 157.308 151.402C159.45 151.778 161.655 151.552 163.676 150.75L222.966 127.209C225.545 126.185 228.402 126.107 231.033 126.987L274.077 141.404C275.997 142.046 278.05 142.182 280.037 141.798L317.002 134.658C319.335 134.207 321.476 133.059 323.144 131.367C324.811 129.674 325.926 127.516 326.342 125.177L332.339 91.4357C332.751 89.1152 333.852 86.9723 335.498 85.2855C337.144 83.5986 339.259 82.4458 341.569 81.9767L394.684 71.1916C401.964 69.7135 408.771 75.2776 408.771 82.7063V262.915C408.771 269.403 403.51 274.664 397.022 274.664H18.0076Z" fill="white" stroke="#E1E4E5" stroke-width="2.34994" stroke-linecap="round" stroke-linejoin="round"/>
<path fill-rule="evenodd" clip-rule="evenodd" d="M53.5089 249.43H55.2648C55.689 249.43 56.0309 249.775 56.0309 250.196V251.952C56.0309 252.377 55.6855 252.718 55.2648 252.718H53.5089C53.3059 252.717 53.1114 252.636 52.9678 252.493C52.8242 252.349 52.7431 252.155 52.7422 251.952V250.196C52.742 250.095 52.7618 249.996 52.8002 249.903C52.8387 249.81 52.8952 249.725 52.9664 249.654C53.0377 249.583 53.1222 249.526 53.2153 249.488C53.3084 249.449 53.4082 249.43 53.5089 249.43ZM59.5958 249.43H61.3518C61.5548 249.431 61.7492 249.512 61.8928 249.655C62.0364 249.799 62.1175 249.993 62.1184 250.196V251.952C62.1184 252.377 61.773 252.718 61.3518 252.718H59.5958C59.3929 252.717 59.1986 252.636 59.0551 252.493C58.9116 252.349 58.8306 252.155 58.8297 251.952V250.196C58.8306 249.993 58.9116 249.799 59.0551 249.655C59.1986 249.512 59.3929 249.431 59.5958 249.43ZM65.6874 249.43H67.4434C67.8646 249.43 68.2095 249.775 68.2095 250.196V251.952C68.2095 252.377 67.8646 252.718 67.4434 252.718H65.6874C65.4845 252.717 65.2902 252.636 65.1467 252.493C65.0033 252.349 64.9222 252.155 64.9213 251.952V250.196C64.9212 250.095 64.9409 249.996 64.9793 249.903C65.0178 249.81 65.0742 249.725 65.1453 249.654C65.2165 249.583 65.301 249.526 65.394 249.488C65.4871 249.45 65.5867 249.43 65.6874 249.43ZM71.7749 249.43H73.5303C73.7333 249.431 73.9278 249.512 74.0714 249.655C74.215 249.799 74.296 249.993 74.297 250.196V251.952C74.297 252.377 73.9515 252.718 73.5303 252.718H71.7749C71.5713 252.718 71.3759 252.638 71.2316 252.494C71.0872 252.351 71.0056 252.156 71.0047 251.952V250.196C71.007 249.993 71.089 249.799 71.2331 249.655C71.3771 249.512 71.5717 249.431 71.7749 249.43ZM77.8624 249.43H79.6184C79.822 249.43 80.0174 249.51 80.1617 249.654C80.3061 249.798 80.3877 249.992 80.3886 250.196V251.952C80.3886 252.377 80.0432 252.718 79.6184 252.718H77.8624C77.6595 252.717 77.4652 252.636 77.3217 252.493C77.1783 252.349 77.0973 252.155 77.0963 251.952V250.196C77.0973 249.993 77.1783 249.799 77.3217 249.655C77.4652 249.512 77.6595 249.431 77.8624 249.43ZM59.8196 256.068H61.575C61.778 256.069 61.9725 256.15 62.1161 256.293C62.2597 256.437 62.3407 256.631 62.3417 256.834V258.594C62.3409 258.797 62.2599 258.991 62.1163 259.135C61.9727 259.278 61.7781 259.359 61.575 259.36H59.8196C59.6163 259.36 59.4214 259.279 59.2777 259.136C59.1339 258.992 59.0531 258.797 59.0529 258.594V256.838C59.0523 256.737 59.0717 256.637 59.11 256.544C59.1482 256.45 59.2046 256.365 59.2759 256.293C59.3472 256.222 59.4319 256.165 59.5252 256.126C59.6185 256.088 59.7186 256.068 59.8196 256.068ZM65.9065 256.068H67.6625C68.0837 256.068 68.4286 256.413 68.4286 256.834V258.594C68.4286 259.015 68.0837 259.36 67.6625 259.36H65.9065C65.7035 259.359 65.5091 259.278 65.3656 259.135C65.2222 258.991 65.1412 258.797 65.1404 258.594V256.838C65.1398 256.737 65.1592 256.637 65.1974 256.544C65.2357 256.45 65.292 256.365 65.3632 256.294C65.4344 256.222 65.5191 256.165 65.6123 256.127C65.7056 256.088 65.8056 256.068 65.9065 256.068ZM71.9946 256.068H73.7506C74.1748 256.068 74.5202 256.413 74.5202 256.834V258.594C74.5194 258.797 74.438 258.992 74.2938 259.136C74.1495 259.28 73.9542 259.36 73.7506 259.36H71.9946C71.7915 259.359 71.597 259.278 71.4534 259.135C71.3098 258.991 71.2287 258.797 71.228 258.594V256.838C71.228 256.413 71.5734 256.068 71.9946 256.068ZM65.6874 242.299H67.4434C67.8646 242.299 68.2095 242.644 68.2095 243.065V244.821C68.2095 245.245 67.8646 245.587 67.4434 245.587H65.6874C65.4844 245.586 65.29 245.505 65.1465 245.362C65.003 245.218 64.9221 245.024 64.9213 244.821V243.065C64.9211 242.965 64.9407 242.865 64.9791 242.772C65.0176 242.679 65.074 242.594 65.1451 242.523C65.2163 242.452 65.3009 242.395 65.3939 242.357C65.487 242.318 65.5867 242.298 65.6874 242.299ZM59.6022 242.299H61.3576C61.5607 242.299 61.7553 242.38 61.8989 242.524C62.0425 242.668 62.1235 242.862 62.1243 243.065V244.821C62.1243 245.245 61.7789 245.587 61.3576 245.587H59.6022C59.3991 245.587 59.2046 245.505 59.061 245.362C58.9174 245.218 58.8363 245.024 58.8356 244.821V243.065C58.8353 242.964 58.855 242.865 58.8935 242.772C58.9319 242.678 58.9884 242.594 59.0596 242.523C59.1308 242.451 59.2154 242.395 59.3086 242.356C59.4017 242.318 59.5015 242.298 59.6022 242.299ZM71.7749 242.299H73.5303C73.7334 242.299 73.928 242.38 74.0716 242.524C74.2152 242.668 74.2962 242.862 74.297 243.065V244.821C74.297 245.245 73.9515 245.587 73.5303 245.587H71.7749C71.5712 245.587 71.3759 245.507 71.2315 245.363C71.0872 245.219 71.0056 245.024 71.0047 244.821V243.065C71.0069 242.862 71.0888 242.668 71.2329 242.524C71.377 242.381 71.5716 242.3 71.7749 242.299ZM97.3381 249.43H99.0935C99.5183 249.43 99.8602 249.775 99.8602 250.196V251.952C99.8602 252.377 99.5147 252.718 99.0935 252.718H97.3381C97.1351 252.717 96.9406 252.636 96.797 252.493C96.6535 252.349 96.5724 252.155 96.5714 251.952V250.196C96.5713 250.095 96.591 249.996 96.6295 249.903C96.668 249.81 96.7244 249.725 96.7957 249.654C96.8669 249.583 96.9515 249.526 97.0446 249.488C97.1377 249.449 97.2374 249.43 97.3381 249.43ZM103.425 249.43H105.181C105.384 249.431 105.578 249.512 105.722 249.655C105.865 249.799 105.946 249.993 105.947 250.196V251.952C105.947 252.377 105.602 252.718 105.181 252.718H103.425C103.222 252.717 103.028 252.636 102.884 252.493C102.741 252.349 102.66 252.155 102.659 251.952V250.196C102.66 249.993 102.741 249.799 102.884 249.655C103.028 249.512 103.222 249.431 103.425 249.43ZM109.517 249.43H111.273C111.476 249.431 111.67 249.512 111.813 249.655C111.957 249.799 112.038 249.993 112.039 250.196V251.952C112.039 252.377 111.693 252.718 111.273 252.718H109.517C109.314 252.717 109.119 252.636 108.976 252.493C108.832 252.349 108.751 252.155 108.751 251.952V250.196C108.75 250.095 108.77 249.996 108.808 249.903C108.847 249.81 108.903 249.725 108.974 249.654C109.046 249.583 109.13 249.526 109.223 249.488C109.316 249.449 109.416 249.43 109.517 249.43ZM115.604 249.43H117.36C117.563 249.431 117.757 249.512 117.901 249.655C118.044 249.799 118.125 249.993 118.126 250.196V251.952C118.126 252.377 117.781 252.718 117.36 252.718H115.604C115.4 252.718 115.205 252.638 115.061 252.494C114.916 252.35 114.835 252.156 114.834 251.952V250.196C114.836 249.993 114.918 249.799 115.062 249.656C115.206 249.512 115.4 249.431 115.604 249.43ZM121.692 249.43H123.448C123.872 249.43 124.217 249.775 124.217 250.196V251.952C124.217 252.377 123.872 252.718 123.448 252.718H121.692C121.489 252.717 121.294 252.636 121.151 252.493C121.008 252.349 120.927 252.155 120.926 251.952V250.196C120.927 249.993 121.008 249.799 121.151 249.655C121.294 249.512 121.489 249.431 121.692 249.43ZM103.648 256.068H105.404C105.607 256.069 105.801 256.15 105.945 256.293C106.088 256.437 106.169 256.631 106.17 256.834V258.594C106.17 258.797 106.089 258.991 105.945 259.135C105.802 259.278 105.607 259.359 105.404 259.36H103.648C103.445 259.36 103.25 259.279 103.107 259.135C102.963 258.992 102.882 258.797 102.882 258.594V256.838C102.882 256.737 102.901 256.637 102.939 256.544C102.977 256.45 103.034 256.365 103.105 256.294C103.176 256.222 103.261 256.165 103.354 256.127C103.447 256.088 103.547 256.068 103.648 256.068ZM109.736 256.068H111.492C111.695 256.069 111.889 256.15 112.032 256.293C112.176 256.437 112.257 256.631 112.258 256.834V258.594C112.257 258.797 112.176 258.991 112.033 259.135C111.889 259.278 111.695 259.359 111.492 259.36H109.736C109.533 259.359 109.338 259.278 109.195 259.135C109.051 258.991 108.97 258.797 108.97 258.594V256.838C108.969 256.737 108.988 256.637 109.027 256.544C109.065 256.45 109.121 256.365 109.192 256.294C109.264 256.222 109.348 256.165 109.442 256.127C109.535 256.088 109.635 256.068 109.736 256.068ZM115.824 256.068H117.579C117.783 256.068 117.978 256.148 118.123 256.292C118.267 256.436 118.349 256.63 118.349 256.834V258.594C118.349 259.015 118.004 259.36 117.579 259.36H115.824C115.621 259.359 115.426 259.278 115.283 259.135C115.139 258.991 115.058 258.797 115.057 258.594V256.838C115.057 256.413 115.403 256.068 115.824 256.068ZM109.517 242.299H111.273C111.476 242.299 111.67 242.381 111.814 242.524C111.957 242.668 112.038 242.862 112.039 243.065V244.821C112.039 245.245 111.693 245.587 111.273 245.587H109.517C109.314 245.586 109.119 245.505 108.976 245.362C108.832 245.218 108.751 245.024 108.751 244.821V243.065C108.75 242.964 108.77 242.865 108.808 242.772C108.847 242.678 108.903 242.594 108.974 242.523C109.045 242.451 109.13 242.395 109.223 242.356C109.316 242.318 109.416 242.298 109.517 242.299ZM103.431 242.299H105.187C105.39 242.299 105.585 242.38 105.728 242.524C105.872 242.668 105.953 242.862 105.954 243.065V244.821C105.954 245.245 105.608 245.587 105.187 245.587H103.431C103.228 245.586 103.034 245.505 102.89 245.362C102.747 245.218 102.666 245.024 102.665 244.821V243.065C102.665 242.965 102.684 242.865 102.723 242.772C102.761 242.679 102.817 242.594 102.889 242.523C102.96 242.452 103.044 242.395 103.137 242.357C103.23 242.318 103.33 242.298 103.431 242.299ZM115.604 242.299H117.36C117.563 242.299 117.757 242.38 117.901 242.524C118.044 242.668 118.125 242.862 118.126 243.065V244.821C118.126 245.245 117.781 245.587 117.36 245.587H115.604C115.4 245.587 115.205 245.507 115.06 245.363C114.916 245.219 114.835 245.024 114.834 244.821V243.065C114.836 242.862 114.918 242.668 115.062 242.524C115.206 242.381 115.4 242.3 115.604 242.299ZM141.167 249.43H142.923C143.347 249.43 143.689 249.775 143.689 250.196V251.952C143.689 252.377 143.343 252.718 142.923 252.718H141.167C140.964 252.717 140.77 252.636 140.626 252.493C140.483 252.349 140.402 252.155 140.401 251.952V250.196C140.4 250.095 140.42 249.996 140.459 249.903C140.497 249.81 140.553 249.725 140.625 249.654C140.696 249.583 140.78 249.526 140.873 249.488C140.966 249.449 141.066 249.43 141.167 249.43ZM147.254 249.43H149.01C149.213 249.431 149.407 249.512 149.551 249.655C149.694 249.799 149.775 249.993 149.776 250.196V251.952C149.776 252.377 149.431 252.718 149.01 252.718H147.254C147.051 252.717 146.857 252.636 146.713 252.493C146.57 252.349 146.489 252.155 146.488 251.952V250.196C146.489 249.993 146.57 249.799 146.713 249.655C146.857 249.512 147.051 249.431 147.254 249.43ZM153.346 249.43H155.101C155.304 249.431 155.499 249.512 155.642 249.655C155.786 249.799 155.867 249.993 155.868 250.196V251.952C155.868 252.377 155.523 252.718 155.101 252.718H153.346C153.143 252.717 152.948 252.636 152.805 252.493C152.661 252.349 152.58 252.155 152.579 251.952V250.196C152.579 250.095 152.599 249.996 152.637 249.903C152.676 249.81 152.732 249.725 152.803 249.654C152.875 249.583 152.959 249.526 153.052 249.488C153.145 249.449 153.245 249.43 153.346 249.43ZM159.433 249.43H161.189C161.392 249.431 161.586 249.512 161.729 249.655C161.873 249.799 161.954 249.993 161.955 250.196V251.952C161.955 252.377 161.609 252.718 161.189 252.718H159.433C159.229 252.718 159.034 252.638 158.889 252.494C158.745 252.351 158.664 252.156 158.663 251.952V250.196C158.665 249.993 158.747 249.799 158.891 249.655C159.035 249.512 159.23 249.431 159.433 249.43ZM165.521 249.43H167.276C167.48 249.43 167.675 249.51 167.82 249.654C167.964 249.798 168.046 249.992 168.047 250.196V251.952C168.047 252.377 167.701 252.718 167.276 252.718H165.521C165.318 252.717 165.123 252.636 164.98 252.493C164.836 252.349 164.755 252.155 164.754 251.952V250.196C164.755 249.993 164.836 249.799 164.98 249.655C165.123 249.512 165.318 249.431 165.521 249.43ZM147.478 256.068H149.233C149.436 256.069 149.63 256.15 149.774 256.293C149.918 256.437 149.999 256.631 150 256.834V258.594C149.999 258.797 149.918 258.991 149.774 259.135C149.631 259.278 149.436 259.359 149.233 259.36H147.478C147.274 259.36 147.079 259.279 146.936 259.136C146.792 258.992 146.711 258.797 146.711 258.594V256.838C146.71 256.737 146.73 256.637 146.768 256.544C146.806 256.45 146.863 256.365 146.934 256.293C147.005 256.222 147.09 256.165 147.183 256.126C147.276 256.088 147.376 256.068 147.478 256.068ZM153.565 256.068H155.32C155.523 256.069 155.718 256.15 155.861 256.293C156.005 256.437 156.086 256.631 156.087 256.834V258.594C156.086 258.797 156.005 258.991 155.862 259.135C155.718 259.278 155.524 259.359 155.32 259.36H153.565C153.362 259.359 153.167 259.278 153.024 259.135C152.88 258.991 152.799 258.797 152.798 258.594V256.838C152.798 256.737 152.817 256.637 152.855 256.544C152.894 256.45 152.95 256.365 153.021 256.293C153.093 256.222 153.177 256.165 153.271 256.126C153.364 256.088 153.464 256.068 153.565 256.068ZM159.653 256.068H161.409C161.833 256.068 162.178 256.413 162.178 256.834V258.594C162.177 258.797 162.096 258.992 161.952 259.136C161.807 259.28 161.612 259.36 161.409 259.36H159.653C159.45 259.359 159.255 259.278 159.112 259.135C158.968 258.991 158.887 258.797 158.886 258.594V256.838C158.886 256.635 158.967 256.439 159.11 256.295C159.254 256.15 159.449 256.069 159.653 256.068ZM153.346 242.299H155.101C155.304 242.299 155.499 242.38 155.643 242.524C155.786 242.668 155.867 242.862 155.868 243.065V244.821C155.868 245.245 155.523 245.587 155.101 245.587H153.346C153.143 245.587 152.948 245.505 152.805 245.362C152.661 245.218 152.58 245.024 152.579 244.821V243.065C152.579 242.964 152.599 242.865 152.637 242.772C152.676 242.678 152.732 242.594 152.803 242.523C152.875 242.451 152.959 242.395 153.052 242.356C153.145 242.318 153.245 242.298 153.346 242.299ZM147.26 242.299H149.016C149.219 242.299 149.414 242.381 149.557 242.524C149.7 242.668 149.781 242.862 149.782 243.065V244.821C149.782 245.245 149.437 245.587 149.016 245.587H147.26C147.057 245.587 146.862 245.505 146.719 245.362C146.575 245.218 146.494 245.024 146.493 244.821V243.065C146.493 242.964 146.513 242.865 146.551 242.772C146.59 242.678 146.646 242.594 146.718 242.523C146.789 242.451 146.873 242.395 146.966 242.356C147.06 242.318 147.159 242.298 147.26 242.299ZM159.433 242.299H161.189C161.392 242.299 161.586 242.381 161.73 242.524C161.873 242.668 161.954 242.862 161.955 243.065V244.821C161.955 245.245 161.609 245.587 161.189 245.587H159.433C159.229 245.587 159.034 245.507 158.889 245.363C158.745 245.219 158.664 245.024 158.663 244.821V243.065C158.665 242.862 158.747 242.668 158.891 242.524C159.035 242.381 159.23 242.3 159.433 242.299ZM184.996 249.43H186.751C187.176 249.43 187.518 249.775 187.518 250.196V251.952C187.518 252.377 187.173 252.718 186.751 252.718H184.996C184.793 252.717 184.599 252.636 184.455 252.493C184.311 252.349 184.23 252.155 184.229 251.952V250.196C184.229 250.095 184.249 249.996 184.287 249.903C184.326 249.81 184.382 249.725 184.454 249.654C184.525 249.583 184.609 249.526 184.702 249.488C184.796 249.449 184.895 249.43 184.996 249.43ZM191.083 249.43H192.839C193.042 249.431 193.236 249.512 193.38 249.655C193.523 249.799 193.604 249.993 193.605 250.196V251.952C193.605 252.377 193.26 252.718 192.839 252.718H191.083C190.88 252.717 190.686 252.636 190.542 252.493C190.399 252.349 190.318 252.155 190.317 251.952V250.196C190.318 249.993 190.399 249.799 190.542 249.655C190.686 249.512 190.88 249.431 191.083 249.43ZM197.175 249.43H198.931C199.133 249.431 199.328 249.512 199.471 249.655C199.615 249.799 199.696 249.993 199.697 250.196V251.952C199.697 252.377 199.351 252.718 198.931 252.718H197.175C196.972 252.717 196.777 252.636 196.634 252.493C196.49 252.349 196.409 252.155 196.408 251.952V250.196C196.408 250.095 196.428 249.996 196.466 249.903C196.505 249.809 196.561 249.725 196.632 249.654C196.703 249.582 196.788 249.526 196.881 249.488C196.974 249.449 197.074 249.43 197.175 249.43ZM203.261 249.43H205.017C205.439 249.43 205.784 249.775 205.784 250.196V251.952C205.784 252.377 205.439 252.718 205.017 252.718H203.261C203.058 252.718 202.863 252.638 202.719 252.494C202.574 252.35 202.493 252.156 202.492 251.952V250.196C202.494 249.993 202.576 249.799 202.72 249.656C202.864 249.512 203.058 249.431 203.261 249.43ZM209.35 249.43H211.106C211.53 249.43 211.875 249.775 211.875 250.196V251.952C211.875 252.377 211.53 252.718 211.106 252.718H209.35C209.147 252.717 208.952 252.636 208.809 252.493C208.665 252.349 208.584 252.155 208.583 251.952V250.196C208.584 249.993 208.665 249.799 208.809 249.655C208.952 249.512 209.147 249.431 209.35 249.43ZM191.306 256.068H193.062C193.265 256.069 193.459 256.15 193.603 256.293C193.746 256.437 193.827 256.631 193.828 256.834V258.594C193.827 258.797 193.747 258.991 193.603 259.135C193.46 259.278 193.265 259.359 193.062 259.36H191.306C191.103 259.36 190.908 259.279 190.765 259.135C190.621 258.992 190.54 258.797 190.54 258.594V256.838C190.539 256.737 190.559 256.637 190.597 256.544C190.635 256.45 190.692 256.365 190.763 256.294C190.834 256.222 190.919 256.165 191.012 256.127C191.105 256.088 191.205 256.068 191.306 256.068ZM197.394 256.068H199.15C199.353 256.069 199.547 256.15 199.69 256.293C199.834 256.437 199.915 256.631 199.916 256.834V258.594C199.915 258.797 199.834 258.991 199.691 259.135C199.547 259.278 199.353 259.359 199.15 259.36H197.394C197.191 259.359 196.996 259.278 196.853 259.135C196.709 258.991 196.628 258.797 196.628 258.594V256.838C196.627 256.737 196.646 256.637 196.685 256.544C196.723 256.45 196.779 256.365 196.85 256.294C196.922 256.222 197.006 256.165 197.099 256.127C197.193 256.088 197.293 256.068 197.394 256.068ZM203.482 256.068H205.237C205.441 256.068 205.636 256.148 205.781 256.292C205.925 256.436 206.006 256.63 206.007 256.834V258.594C206.007 259.015 205.662 259.36 205.237 259.36H203.482C203.279 259.359 203.084 259.278 202.941 259.135C202.797 258.991 202.716 258.797 202.715 258.594V256.838C202.715 256.413 203.061 256.068 203.482 256.068ZM197.175 242.299H198.931C199.134 242.299 199.328 242.381 199.471 242.524C199.615 242.668 199.696 242.862 199.697 243.065V244.821C199.697 245.245 199.351 245.587 198.931 245.587H197.175C196.972 245.586 196.777 245.505 196.634 245.362C196.49 245.218 196.409 245.024 196.408 244.821V243.065C196.408 242.964 196.428 242.865 196.466 242.771C196.504 242.678 196.561 242.594 196.632 242.522C196.703 242.451 196.788 242.395 196.881 242.356C196.974 242.318 197.074 242.298 197.175 242.299ZM191.089 242.299H192.845C193.048 242.299 193.242 242.38 193.386 242.524C193.53 242.668 193.611 242.862 193.611 243.065V244.821C193.611 245.245 193.266 245.587 192.845 245.587H191.089C190.886 245.586 190.691 245.505 190.548 245.362C190.404 245.218 190.324 245.024 190.323 244.821V243.065C190.322 242.965 190.342 242.865 190.381 242.772C190.419 242.679 190.475 242.594 190.547 242.523C190.618 242.452 190.702 242.395 190.795 242.357C190.888 242.318 190.988 242.298 191.089 242.299ZM203.261 242.299H205.017C205.439 242.299 205.784 242.644 205.784 243.065V244.821C205.784 245.245 205.439 245.587 205.017 245.587H203.261C203.058 245.587 202.863 245.507 202.718 245.363C202.574 245.219 202.493 245.024 202.492 244.821V243.065C202.494 242.862 202.576 242.668 202.72 242.524C202.864 242.381 203.058 242.3 203.261 242.299ZM228.825 249.43H230.581C231.005 249.43 231.347 249.775 231.347 250.196V251.952C231.347 252.377 231.001 252.718 230.581 252.718H228.825C228.622 252.717 228.427 252.636 228.284 252.493C228.141 252.349 228.06 252.155 228.059 251.952V250.196C228.058 250.095 228.078 249.996 228.116 249.903C228.155 249.81 228.211 249.725 228.282 249.654C228.354 249.583 228.438 249.526 228.531 249.488C228.624 249.449 228.724 249.43 228.825 249.43ZM234.912 249.43H236.668C236.871 249.431 237.065 249.512 237.209 249.655C237.352 249.799 237.433 249.993 237.434 250.196V251.952C237.434 252.377 237.089 252.718 236.668 252.718H234.912C234.709 252.717 234.515 252.636 234.371 252.493C234.228 252.349 234.146 252.155 234.146 251.952V250.196C234.146 249.993 234.228 249.799 234.371 249.655C234.515 249.512 234.709 249.431 234.912 249.43ZM241.004 249.43H242.759C242.962 249.431 243.157 249.512 243.3 249.655C243.444 249.799 243.525 249.993 243.526 250.196V251.952C243.526 252.377 243.18 252.718 242.759 252.718H241.004C240.801 252.717 240.606 252.636 240.463 252.493C240.319 252.349 240.238 252.155 240.237 251.952V250.196C240.237 250.095 240.257 249.996 240.295 249.903C240.334 249.81 240.39 249.725 240.461 249.654C240.533 249.583 240.617 249.526 240.71 249.488C240.803 249.449 240.903 249.43 241.004 249.43ZM247.091 249.43H248.847C249.05 249.431 249.244 249.512 249.387 249.655C249.531 249.799 249.612 249.993 249.613 250.196V251.952C249.613 252.377 249.267 252.718 248.847 252.718H247.091C246.887 252.718 246.692 252.638 246.547 252.494C246.403 252.351 246.321 252.156 246.321 251.952V250.196C246.323 249.993 246.405 249.799 246.549 249.655C246.693 249.512 246.888 249.431 247.091 249.43ZM253.179 249.43H254.934C255.138 249.43 255.333 249.51 255.478 249.654C255.622 249.798 255.703 249.992 255.704 250.196V251.952C255.704 252.377 255.359 252.718 254.934 252.718H253.179C252.976 252.717 252.781 252.636 252.638 252.493C252.494 252.349 252.413 252.155 252.412 251.952V250.196C252.413 249.993 252.494 249.799 252.638 249.655C252.781 249.512 252.976 249.431 253.179 249.43ZM235.135 256.068H236.891C237.094 256.069 237.288 256.15 237.432 256.293C237.575 256.437 237.657 256.631 237.657 256.834V258.594C237.657 258.797 237.576 258.991 237.432 259.135C237.288 259.278 237.094 259.359 236.891 259.36H235.135C234.932 259.36 234.737 259.279 234.593 259.136C234.45 258.992 234.369 258.797 234.369 258.594V256.838C234.368 256.737 234.388 256.637 234.426 256.544C234.464 256.45 234.52 256.365 234.592 256.293C234.663 256.222 234.748 256.165 234.841 256.126C234.934 256.088 235.034 256.068 235.135 256.068ZM241.223 256.068H242.978C243.181 256.069 243.376 256.15 243.519 256.293C243.663 256.437 243.744 256.631 243.745 256.834V258.594C243.744 258.797 243.663 258.991 243.52 259.135C243.376 259.278 243.181 259.359 242.978 259.36H241.223C241.02 259.359 240.825 259.278 240.682 259.135C240.538 258.991 240.457 258.797 240.456 258.594V256.838C240.456 256.737 240.475 256.637 240.513 256.544C240.552 256.45 240.608 256.365 240.679 256.293C240.75 256.222 240.835 256.165 240.929 256.126C241.022 256.088 241.122 256.068 241.223 256.068ZM247.31 256.068H249.066C249.491 256.068 249.836 256.413 249.836 256.834V258.594C249.835 258.797 249.754 258.992 249.61 259.136C249.465 259.28 249.27 259.36 249.066 259.36H247.31C247.107 259.359 246.913 259.278 246.77 259.135C246.626 258.991 246.545 258.797 246.544 258.594V256.838C246.544 256.635 246.625 256.439 246.768 256.295C246.912 256.15 247.107 256.069 247.31 256.068ZM241.004 242.299H242.759C242.962 242.299 243.157 242.38 243.3 242.524C243.444 242.668 243.525 242.862 243.526 243.065V244.821C243.526 245.245 243.18 245.587 242.759 245.587H241.004C240.801 245.587 240.606 245.505 240.463 245.362C240.319 245.218 240.238 245.024 240.237 244.821V243.065C240.237 242.964 240.257 242.865 240.295 242.772C240.333 242.678 240.39 242.594 240.461 242.523C240.532 242.451 240.617 242.395 240.71 242.356C240.803 242.318 240.903 242.298 241.004 242.299ZM234.918 242.299H236.674C236.877 242.299 237.071 242.381 237.215 242.524C237.358 242.668 237.439 242.862 237.44 243.065V244.821C237.44 245.245 237.095 245.587 236.674 245.587H234.918C234.715 245.587 234.52 245.505 234.377 245.362C234.233 245.218 234.152 245.024 234.151 244.821V243.065C234.151 242.964 234.171 242.865 234.209 242.772C234.248 242.678 234.304 242.594 234.375 242.523C234.447 242.451 234.531 242.395 234.624 242.356C234.718 242.318 234.817 242.298 234.918 242.299ZM247.091 242.299H248.847C249.05 242.299 249.244 242.381 249.388 242.524C249.531 242.668 249.612 242.862 249.613 243.065V244.821C249.613 245.245 249.267 245.587 248.847 245.587H247.091C246.887 245.587 246.692 245.507 246.547 245.363C246.403 245.219 246.321 245.024 246.321 244.821V243.065C246.323 242.862 246.405 242.668 246.549 242.524C246.693 242.381 246.887 242.3 247.091 242.299Z" fill="#E1E4E5"/>
<path d="M371.944 159.182C371.944 159.182 358.208 168.17 346.594 167.25C334.98 166.329 327.735 154.79 323.846 150.601C319.961 146.412 310.166 136.29 313.104 132.046C316.043 127.801 318.655 132.372 319.634 135.311C320.614 138.249 319.65 132.392 321.113 132.708C322.573 133.025 321.992 136.581 323.425 137.743C324.859 138.902 346.081 150.003 350.653 149.351C355.223 148.697 357.225 147.444 358.511 146.111C359.794 144.776 373.645 156.279 371.944 159.182Z" fill="#F8AE9D"/>
<path d="M327.028 268.515L326.992 274.67L312.93 282.248V285.562H341.055V279.881L342.527 268.515H327.028Z" fill="#E1E4E5"/>
<path d="M397.574 193.435C397.574 193.435 358.75 180.166 340.818 182.324C323.157 185.916 323.023 207.217 323.088 219.749C323.154 232.28 325.234 268.522 325.234 268.522H344.974C344.974 268.522 352.036 235.927 354.394 220.552C354.394 220.552 355.363 213.669 360.558 216.281C381.827 226.977 395.187 222.158 397.613 212.036C400.039 201.915 397.574 193.435 397.574 193.435Z" fill="#31446C"/>
<path d="M381.523 136.633C381.523 136.633 368.818 142.886 358.488 144.45C347.713 146.082 362.732 160.122 374.487 160.122C386.241 160.122 381.523 136.633 381.523 136.633Z" fill="#F08519"/>
<path d="M433.949 276.077L441.485 276.113L448.515 285.582H452.031V259.063H446.004L433.949 261.466V276.077Z" fill="#E1E4E5"/>
<path d="M433.973 276.685V260.359C418.042 258.727 411.813 258.534 395.082 258.456C383.067 258.4 389.3 255.136 389.3 255.136C402.458 245.993 415.966 223.791 415.966 223.791C423.929 211.383 419.43 192.12 419.43 192.12C419.43 192.12 404.884 196.364 392.418 195.711C392.418 195.711 378.914 212.363 355.363 248.932C345.953 263.543 347.031 279.571 364.705 280.413C364.705 280.413 407.307 280.929 433.973 276.685Z" fill="#31446C"/>
<path d="M386.044 134.877C386.044 134.877 374.813 136.94 373.438 151.482C372.413 162.336 373.258 177.054 373.258 181.789C373.258 186.523 370.845 186.125 374.159 187.545C377.473 188.965 395.056 203.217 419.191 192.207C419.191 192.207 422.959 170.391 421.829 157.18C421.118 148.87 418.89 135.304 404.511 134.139L386.044 134.877Z" fill="#F08519"/>
<path d="M389.415 112.237L383.241 112.093C383.241 112.093 378.141 134.426 390.77 131.886L390.531 134.243C390.531 134.243 386.669 134.808 385.206 135.135C385.206 135.135 389.588 138.906 394.864 138.484C400.141 138.063 403.82 134.625 403.82 134.625L401.228 134.364L400.268 124.987C400.268 124.987 403.285 123.387 403.474 121.503C403.663 119.619 403.239 119.1 401.875 118.486C400.51 117.872 398.387 120.04 398.387 120.04C398.387 120.04 396.458 115.564 396.272 112.687L389.415 112.237Z" fill="#F8AE9D"/>
<path d="M330.084 124.206L423.719 201.216C426.837 203.776 427.317 208.366 424.796 211.517C422.256 214.691 417.626 215.21 414.446 212.676L319.309 136.613L330.084 124.206Z" fill="#31446C"/>
<path d="M295.473 54.1707C321.532 54.1707 342.653 75.2925 342.653 101.351C342.653 127.409 321.532 148.531 295.473 148.531C269.415 148.531 248.293 127.409 248.293 101.351C248.293 75.2925 269.415 54.1707 295.473 54.1707ZM295.473 134.707C313.894 134.707 328.829 119.773 328.829 101.351C328.829 82.9298 313.894 67.9954 295.473 67.9954C277.051 67.9954 262.117 82.9298 262.117 101.351C262.117 119.773 277.051 134.707 295.473 134.707Z" fill="#E1E4E5"/>
<path d="M408.839 186.282C408.839 186.282 395.102 195.271 383.489 194.35C371.875 193.429 364.629 181.89 360.741 177.701C356.855 173.512 347.06 163.391 349.999 159.146C352.937 154.902 355.549 159.472 356.529 162.411C357.508 165.349 356.546 159.492 358.008 159.809C359.468 160.126 358.886 163.681 360.32 164.844C361.753 166.003 382.976 177.104 387.547 176.451C392.118 175.798 394.119 174.544 395.406 173.212C396.689 171.876 410.539 183.379 408.839 186.282Z" fill="#F8AE9D"/>
<path d="M420.836 150.202C420.836 150.202 421.502 171.223 416.604 180.039C411.707 188.854 411.357 189.141 406.796 184.427C402.238 179.712 394.075 174.945 395.218 171.125C396.36 167.305 398.708 160.713 399.626 154.898C400.605 148.694 402.891 135.961 407.788 134.328C407.788 134.328 419.517 138.654 420.836 150.202Z" fill="#F08519"/>
<path d="M403.097 124.853C402.088 126.463 399.671 126.456 400.096 124.603C400.579 122.498 400.879 119.708 399.084 120.037C397.289 120.367 397.05 121.746 396.424 120.859C395.798 119.972 396.157 116.553 391.007 115.749C385.856 114.949 383.557 116.517 381.268 115.199C379.896 114.41 379.441 112.787 379.297 111.611C379.256 111.277 379.541 110.848 379.731 111.125C379.911 111.387 380.43 111.428 380.313 111.133C379.589 109.308 378.637 105.395 382.416 102.968C387.475 99.7187 391.946 102.693 394.619 103.147C400.508 104.149 404.298 104.92 405.81 109.015C407.064 112.412 405.922 120.345 403.097 124.853Z" fill="#31446C"/>
<path d="M115.597 80.4682H17.9762C11.4871 80.4682 6.22656 85.7287 6.22656 92.2179V216.081C6.22656 222.57 11.4871 227.831 17.9762 227.831H115.597C122.086 227.831 127.346 222.57 127.346 216.081V92.2179C127.346 85.7287 122.086 80.4682 115.597 80.4682Z" fill="white" stroke="#E1E4E5" stroke-width="2.34994" stroke-linecap="round" stroke-linejoin="round"/>
<mask id="mask0_516_22152" style="mask-type:alpha" maskUnits="userSpaceOnUse" x="5" y="79" width="124" height="151">
<path d="M6.21094 80.4682H127.331V227.831H6.21094V80.4682Z" fill="white" stroke="white" stroke-width="2.34994" stroke-linecap="round" stroke-linejoin="round"/>
</mask>
<g mask="url(#mask0_516_22152)">
<path d="M101.632 187.68H32.1795C29.759 187.68 27.7969 189.643 27.7969 192.063V192.064C27.7969 194.484 29.759 196.446 32.1795 196.446H101.632C104.052 196.446 106.015 194.484 106.015 192.064V192.063C106.015 189.643 104.052 187.68 101.632 187.68Z" fill="white" stroke="#E1E4E5" stroke-width="2.34994" stroke-linecap="round" stroke-linejoin="round"/>
<path d="M100.957 169.475H32.8539C30.061 169.475 27.7969 171.74 27.7969 174.532C27.7969 177.325 30.061 179.59 32.8539 179.59H100.957C103.75 179.59 106.015 177.325 106.015 174.532C106.015 171.74 103.75 169.475 100.957 169.475Z" fill="white" stroke="#E1E4E5" stroke-width="2.34994" stroke-linecap="round" stroke-linejoin="round"/>
<path d="M100.957 204.538H32.8539C30.061 204.538 27.7969 206.803 27.7969 209.596C27.7969 212.388 30.061 214.653 32.8539 214.653H100.957C103.75 214.653 106.015 212.388 106.015 209.596C106.015 206.803 103.75 204.538 100.957 204.538Z" fill="white" stroke="#E1E4E5" stroke-width="2.34994" stroke-linecap="round" stroke-linejoin="round"/>
<path d="M42.2912 90.5829H21.3885C19.3402 90.5829 17.6797 92.2432 17.6797 94.2913C17.6797 96.3395 19.3402 97.9998 21.3885 97.9998H42.2912C44.3395 97.9998 45.9999 96.3395 45.9999 94.2913C45.9999 92.2432 44.3395 90.5829 42.2912 90.5829Z" fill="white" stroke="#E1E4E5" stroke-width="2.34994" stroke-linecap="round" stroke-linejoin="round"/>
</g>
<path d="M101.47 29.1044L95.0994 35.4692L92.0039 32.3832M115.274 26.0589H134.104M115.421 35.4005H146.559M146.559 57.1973H115.274M146.559 47.8557H115.421" stroke="#E1E4E5" stroke-width="3.23116" stroke-linecap="round" stroke-linejoin="round"/>
<path d="M96.7357 60.3108C100.175 60.3108 102.963 57.5226 102.963 54.0834C102.963 50.6437 100.175 47.8555 96.7357 47.8555C93.296 47.8555 90.5078 50.6437 90.5078 54.0834C90.5078 57.5226 93.296 60.3108 96.7357 60.3108Z" stroke="#E1E4E5" stroke-width="3.23116" stroke-linecap="round" stroke-linejoin="round"/>
<path d="M177.661 29.1042L171.291 35.469L168.195 32.383M191.466 26.0587H210.295M191.612 35.4003H222.751M222.75 57.1971H191.466M222.751 47.8555H191.612" stroke="#E1E4E5" stroke-width="3.23116" stroke-linecap="round" stroke-linejoin="round"/>
<path d="M172.931 60.3109C176.37 60.3109 179.158 57.5227 179.158 54.0836C179.158 50.6438 176.37 47.8557 172.931 47.8557C169.491 47.8557 166.703 50.6438 166.703 54.0836C166.703 57.5227 169.491 60.3109 172.931 60.3109Z" stroke="#E1E4E5" stroke-width="3.23116" stroke-linecap="round" stroke-linejoin="round"/>
<path d="M177.661 85.0704L171.291 91.4352L168.195 88.3497M191.466 82.0249H210.295M191.612 91.3665H222.751M222.75 113.163H191.466M222.751 103.822H191.612" stroke="#E1E4E5" stroke-width="3.23116" stroke-linecap="round" stroke-linejoin="round"/>
<path d="M172.931 116.278C176.37 116.278 179.158 113.489 179.158 110.05C179.158 106.61 176.37 103.822 172.931 103.822C169.491 103.822 166.703 106.61 166.703 110.05C166.703 113.489 169.491 116.278 172.931 116.278Z" stroke="#E1E4E5" stroke-width="3.23116" stroke-linecap="round" stroke-linejoin="round"/>
<path d="M17.1849 29.1044L10.8142 35.4692L7.71875 32.3832M30.989 26.0589H49.8184M31.1353 35.4005H62.2737M62.2737 57.1973H30.989M62.2737 47.8557H31.1353" stroke="#E1E4E5" stroke-width="3.23116" stroke-linecap="round" stroke-linejoin="round"/>
<path d="M12.4539 60.3108C15.8936 60.3108 18.6818 57.5226 18.6818 54.0834C18.6818 50.6437 15.8936 47.8555 12.4545 47.8555C9.01476 47.8555 6.22656 50.6437 6.22656 54.0834C6.22656 57.5226 9.01476 60.3108 12.4539 60.3108Z" stroke="#E1E4E5" stroke-width="3.23116" stroke-linecap="round" stroke-linejoin="round"/>
<path d="M318.47 52.4411C321.15 50.8943 324.189 50.0799 327.283 50.0799C330.377 50.0799 333.416 50.8943 336.095 52.4411L346.199 58.2748C348.878 59.8217 351.103 62.0466 352.65 64.7259C354.197 67.4052 355.011 70.4445 355.011 73.5383V85.2045C355.011 88.2983 354.197 91.3376 352.65 94.0169C351.103 96.6962 348.878 98.9211 346.199 100.468L336.095 106.302C333.416 107.849 330.377 108.663 327.283 108.663C324.189 108.663 321.15 107.849 318.47 106.302L308.367 100.468C305.688 98.9211 303.463 96.6962 301.916 94.0169C300.369 91.3376 299.555 88.2983 299.555 85.2045V73.5383C299.555 70.4445 300.369 67.4052 301.916 64.7259C303.463 62.0466 305.688 59.8217 308.367 58.2748L318.47 52.4411Z" fill="#F08519"/>
<path d="M337.184 73.39L325.497 84.9834L318.484 78.0276" stroke="white" stroke-width="4.96424" stroke-linecap="round" stroke-linejoin="round"/>
<path d="M376.81 37.3129C372.115 37.3129 368.308 41.1194 368.308 45.815C368.308 50.5106 372.115 54.3171 376.81 54.3171C381.506 54.3171 385.312 50.5106 385.312 45.815C385.312 41.1194 381.506 37.3129 376.81 37.3129Z" fill="#F08519"/>
<path d="M149.761 116.206C147.2 116.206 145.123 118.282 145.123 120.843C145.123 123.404 147.2 125.481 149.761 125.481C152.322 125.481 154.398 123.404 154.398 120.843C154.398 118.282 152.322 116.206 149.761 116.206Z" fill="#F08519"/>
<path d="M218.942 184.951C211.689 184.951 205.809 179.071 205.809 171.818C205.809 164.565 211.689 158.686 218.942 158.686C226.195 158.686 232.074 164.565 232.074 171.818C232.074 179.071 226.195 184.951 218.942 184.951Z" fill="#F08519"/>
<path d="M414.961 185.936C411.576 185.936 408.833 183.192 408.833 179.808C408.833 176.423 411.576 173.679 414.961 173.679C418.346 173.679 421.09 176.423 421.09 179.808C421.09 183.192 418.346 185.936 414.961 185.936Z" fill="#F08519"/>
<path d="M164.464 210.182C160.113 210.182 156.585 206.654 156.585 202.303C156.585 197.951 160.113 194.424 164.464 194.424C168.816 194.424 172.344 197.951 172.344 202.303C172.344 206.654 168.816 210.182 164.464 210.182Z" fill="#E1E4E5"/>
<path d="M290.013 248.203C283.727 248.203 278.632 243.108 278.632 236.822C278.632 230.536 283.727 225.441 290.013 225.441C296.299 225.441 301.395 230.536 301.395 236.822C301.395 243.108 296.299 248.203 290.013 248.203Z" fill="#E1E4E5"/>
<path d="M250.881 209.725C246.096 209.725 242.218 205.847 242.218 201.063C242.218 196.279 246.096 192.4 250.881 192.4C255.665 192.4 259.543 196.279 259.543 201.063C259.543 205.847 255.665 209.725 250.881 209.725Z" fill="#E1E4E5"/>
<path d="M428.249 95.2361C425.688 95.2361 423.612 92.9867 423.612 90.212C423.612 87.4372 425.688 85.1878 428.249 85.1878C430.81 85.1878 432.887 87.4372 432.887 90.212C432.887 92.9867 430.81 95.2361 428.249 95.2361Z" fill="#E1E4E5"/>
<path d="M142.654 84.2954C140.666 84.2954 139.055 82.6838 139.055 80.6959C139.055 78.7079 140.666 77.0964 142.654 77.0964C144.642 77.0964 146.254 78.7079 146.254 80.6959C146.254 82.6838 144.642 84.2954 142.654 84.2954Z" fill="#E1E4E5"/>
<path d="M434.731 238.252C431.193 238.252 428.325 235.988 428.325 233.195C428.325 230.402 431.193 228.138 434.731 228.138C438.269 228.138 441.137 230.402 441.137 233.195C441.137 235.988 438.269 238.252 434.731 238.252Z" fill="#E1E4E5"/>
<path d="M290.323 16.3895C291.218 19.7291 289.236 23.1618 285.897 24.0566C282.557 24.9515 279.124 22.9696 278.23 19.63C277.335 16.2904 279.317 12.8577 282.656 11.9628C285.996 11.068 289.429 13.0498 290.323 16.3895Z" fill="#E1E4E5"/>
<path d="M112.816 112.887V142.987C112.816 144.962 111.215 146.563 109.239 146.563H68.7211C66.7459 146.563 65.1445 144.962 65.1445 142.987V112.887C65.1445 110.912 66.7459 109.311 68.7211 109.311H109.239C111.215 109.311 112.816 110.912 112.816 112.887Z" fill="#B26110"/>
<path d="M91.414 133.428H96.7446V121.192H91.414V133.428ZM90.0287 119.828H98.1933V136.261H96.7446V134.792H91.414V136.429H90.0287V119.828ZM84.1944 120.059C82.8931 120.352 81.5291 120.625 80.2485 120.835C80.1858 120.52 79.9969 120.059 79.8081 119.744C82.7463 119.218 86.1042 118.421 87.888 117.519L89.1892 118.61C89.1051 118.673 89.0631 118.673 88.7695 118.673C87.9093 119.051 86.7969 119.408 85.5584 119.722V123.836H89.1685V125.158H85.5584V126.417C86.4399 127.215 88.6013 129.419 89.1265 130.006L88.245 131.161C87.7411 130.447 86.5026 129.02 85.5584 127.95V136.995H84.1944V127.257C83.1447 129.797 81.7179 132.336 80.3326 133.826C80.1645 133.428 79.8081 132.882 79.5352 132.546C81.13 130.888 82.8511 127.887 83.8167 125.158H79.8081V123.836H84.1944V120.059Z" fill="white"/>
<path d="M20.7266 117.656V147.757C20.7266 149.731 22.3279 151.333 24.3031 151.333H64.8215C66.7966 151.333 68.398 149.731 68.398 147.757V117.656C68.398 115.682 66.7966 114.081 64.8215 114.081H24.3031C22.3279 114.081 20.7266 115.682 20.7266 117.656Z" fill="#5D3004"/>
<path d="M46.2249 132.917L44.4127 127.592C44.0014 126.384 43.7265 125.286 43.4523 124.216H43.3973C43.1224 125.313 42.821 126.438 42.464 127.564L40.6518 132.917H46.2249ZM40.1577 134.784L38.2362 140.603H35.7656L42.0521 122.101H44.9346L51.2482 140.603H48.6955L46.719 134.784H40.1577Z" fill="white"/>
</g>
</g>
<defs>
<clipPath id="clip0_516_22152">
<rect width="460" height="269.554" fill="white"/>
</clipPath>
<clipPath id="clip1_516_22152">
<rect width="460" height="287.28" fill="white" transform="translate(-0.242188 5.05447)"/>
</clipPath>
</defs>
</svg>
