<svg width="16" height="17" viewBox="0 0 16 17" fill="none" xmlns="http://www.w3.org/2000/svg">
<path d="M8.00007 16.4287C3.58178 16.4287 5.21306e-05 12.847 6.10352e-05 8.42869C6.99397e-05 4.01042 3.5818 0.428711 8.00007 0.428711C12.4183 0.428711 16.0001 4.01043 16.0001 8.42871C16.0001 12.847 12.4183 16.4287 8.00007 16.4287Z" fill="url(#paint0_radial_24_23469)"/>
<path d="M6.33362 8.42871C6.33362 7.50827 7.07958 6.76191 8.00002 6.76191C8.92046 6.76191 9.66682 7.50827 9.66682 8.42871C9.66682 9.34915 8.92046 10.0955 8.00002 10.0955C7.07958 10.0955 6.33362 9.34915 6.33362 8.42871ZM5.43258 8.42871C5.43258 9.84671 6.58202 10.9961 8.00002 10.9961C9.41802 10.9961 10.5675 9.84671 10.5675 8.42871C10.5675 7.01071 9.41802 5.86127 8.00002 5.86127C6.58202 5.86127 5.43258 7.01063 5.43258 8.42871ZM10.0691 5.75947C10.0691 5.87814 10.1042 5.99415 10.1701 6.09285C10.236 6.19155 10.3297 6.26849 10.4393 6.31394C10.5489 6.3594 10.6696 6.37133 10.786 6.34822C10.9024 6.32512 11.0093 6.26802 11.0932 6.18414C11.1772 6.10026 11.2344 5.99338 11.2576 5.877C11.2808 5.76062 11.2689 5.63997 11.2236 5.53032C11.1782 5.42066 11.1013 5.32693 11.0027 5.26096C10.904 5.19499 10.7881 5.15975 10.6694 5.15971C10.5103 5.15978 10.3575 5.22299 10.245 5.33544C10.1325 5.44789 10.0693 5.6004 10.0691 5.75947ZM5.98002 12.4986C5.49254 12.4764 5.22758 12.3952 5.0515 12.3266C4.81806 12.2357 4.6515 12.1275 4.47638 11.9526C4.30126 11.7777 4.19286 11.6113 4.10238 11.3779C4.03374 11.2019 3.95254 10.9369 3.93038 10.4494C3.90614 9.92235 3.9013 9.76403 3.9013 8.42879C3.9013 7.09355 3.90654 6.93567 3.93038 6.40819C3.95258 5.92071 4.03438 5.65619 4.10238 5.47967C4.19326 5.24623 4.3015 5.07967 4.47638 4.90455C4.65126 4.72943 4.81766 4.62103 5.0515 4.53055C5.2275 4.46191 5.49254 4.38071 5.98002 4.35855C6.50706 4.33431 6.66538 4.32947 8.00002 4.32947C9.33466 4.32947 9.49314 4.33463 10.0206 4.35863C10.5081 4.38083 10.7726 4.46263 10.9491 4.53063C11.1826 4.62111 11.3491 4.72975 11.5243 4.90463C11.6994 5.07951 11.8074 5.24631 11.8983 5.47975C11.9669 5.65575 12.0481 5.92079 12.0703 6.40827C12.0945 6.93575 12.0993 7.09363 12.0993 8.42887C12.0993 9.76411 12.0945 9.92199 12.0703 10.4495C12.0481 10.9369 11.9665 11.2019 11.8983 11.378C11.8074 11.6114 11.6991 11.778 11.5243 11.9527C11.3494 12.1274 11.1826 12.2358 10.9491 12.3267C10.7731 12.3953 10.5081 12.4765 10.0206 12.4987C9.49358 12.5229 9.33526 12.5278 8.00002 12.5278C6.66478 12.5278 6.5069 12.5229 5.98002 12.4986ZM5.93862 3.45899C5.40634 3.48323 5.04262 3.56763 4.72498 3.69123C4.39622 3.81887 4.11754 3.99011 3.83926 4.26795C3.56098 4.54579 3.39018 4.82451 3.26254 5.15367C3.13894 5.47151 3.05454 5.83503 3.0303 6.36731C3.00566 6.90043 3.00002 7.07087 3.00002 8.42871C3.00002 9.78655 3.00566 9.95699 3.0303 10.4901C3.05454 11.0224 3.13894 11.3859 3.26254 11.7037C3.39018 12.0325 3.56102 12.3117 3.83926 12.5895C4.1175 12.8672 4.39582 13.0382 4.72498 13.1662C5.04322 13.2898 5.40634 13.3742 5.93862 13.3984C6.47202 13.4227 6.64218 13.4287 8.00002 13.4287C9.35786 13.4287 9.5283 13.4231 10.0614 13.3984C10.5937 13.3742 10.9572 13.2898 11.2751 13.1662C11.6038 13.0382 11.8825 12.8673 12.1608 12.5895C12.4391 12.3116 12.6095 12.0325 12.7375 11.7037C12.8611 11.3859 12.9459 11.0224 12.9697 10.4901C12.994 9.95659 12.9996 9.78655 12.9996 8.42871C12.9996 7.07087 12.994 6.90043 12.9697 6.36731C12.9455 5.83499 12.8611 5.47131 12.7375 5.15367C12.6095 4.82491 12.4386 4.54623 12.1608 4.26795C11.8829 3.98967 11.6038 3.81887 11.2755 3.69123C10.9572 3.56763 10.5937 3.48283 10.0618 3.45899C9.52862 3.43463 9.35826 3.42871 8.00062 3.42871C6.64298 3.42871 6.47202 3.43435 5.93862 3.45899Z" fill="white"/>
<defs>
<radialGradient id="paint0_radial_24_23469" cx="0" cy="0" r="1" gradientUnits="userSpaceOnUse" gradientTransform="translate(1.03557 16.0782) scale(20.3141 20.3141)">
<stop offset="0.09" stop-color="#FA8F21"/>
<stop offset="0.78" stop-color="#D82D7E"/>
</radialGradient>
</defs>
</svg>
