<svg width="20" height="20" viewBox="0 0 20 20" fill="none" xmlns="http://www.w3.org/2000/svg">
<g clip-path="url(#clip0_516_42469)">
<path d="M20 10C20 15.5228 15.5228 20 10 20C4.47715 20 0 15.5228 0 10C0 4.47715 4.47715 0 10 0C15.5228 0 20 4.47715 20 10Z" fill="#020202"/>
<path d="M9.07061 8.74968V8.2734C8.89389 8.25002 8.71586 8.23793 8.5376 8.23718C6.35747 8.23718 4.58343 9.89744 4.58343 11.9381C4.58343 13.1897 5.25202 14.2981 6.27157 14.9679C5.58888 14.2846 5.20907 13.384 5.20971 12.4484C5.20971 10.4369 6.93311 8.79647 9.07061 8.74968Z" fill="#00F2EA"/>
<path d="M9.17554 14.0064C10.0973 14.0064 10.8489 13.2779 10.8832 12.3696L10.8864 4.26315H12.3768C12.3449 4.09396 12.3287 3.92219 12.3284 3.75001H10.2932L10.2896 11.8567C10.2557 12.7644 9.50343 13.493 8.58196 13.493C8.3055 13.493 8.03318 13.4259 7.78837 13.2974C7.947 13.5169 8.15547 13.6957 8.39662 13.8189C8.63777 13.9422 8.90472 14.0064 9.17554 14.0064ZM15.1602 7.01476V6.56411C14.613 6.56472 14.0775 6.40651 13.6185 6.10867C14.0213 6.56908 14.5619 6.88691 15.1602 7.01476Z" fill="#00F2EA"/>
<path d="M13.5579 6.22372C13.1104 5.71812 12.8632 5.06626 12.8631 4.39103H12.3191C12.3903 4.76463 12.5369 5.11982 12.7499 5.43491C12.9628 5.75001 13.2378 6.0184 13.5579 6.22372ZM8.53389 10.1811C7.59158 10.1824 6.82812 10.9378 6.82716 11.8702C6.82814 12.1793 6.91397 12.4822 7.07527 12.7458C7.23657 13.0095 7.46716 13.2238 7.7419 13.3654C7.53226 13.0798 7.41909 12.7348 7.41883 12.3805C7.41979 11.4478 8.18325 10.692 9.12556 10.691C9.30184 10.691 9.47011 10.7199 9.6294 10.7692V8.71795C9.46247 8.69448 9.29414 8.68227 9.12556 8.68141C9.09607 8.68141 9.0669 8.68334 9.03774 8.68366V10.2593C8.8747 10.208 8.70482 10.1816 8.53389 10.1811Z" fill="#FF004F"/>
<path d="M14.8888 7.27568V8.84106C13.8763 8.84257 12.8887 8.52756 12.0641 7.9401V12.0321C12.0641 14.076 10.3878 15.7388 8.32757 15.7388C7.53109 15.7388 6.79263 15.4895 6.1859 15.0667C6.53616 15.4406 6.95951 15.7386 7.4297 15.9422C7.89988 16.1457 8.40687 16.2505 8.91923 16.25C10.9798 16.25 12.6561 14.5872 12.6561 12.5436V8.45132C13.4807 9.03867 14.4683 9.35356 15.4808 9.35196V7.33818C15.2818 7.33812 15.0834 7.31717 14.8888 7.27568Z" fill="#FF004F"/>
<path d="M12.2692 11.8974V7.79872C13.1178 8.38861 14.1271 8.70367 15.1606 8.70129V7.13398C14.5529 7.0082 14.0013 6.69152 13.5862 6.23013C12.9221 5.81122 12.4638 5.1468 12.3183 4.39103H10.7968L10.7936 12.4728C10.7583 13.3779 9.99072 14.1042 9.05001 14.1042C8.48783 14.1035 7.96091 13.8407 7.63335 13.3978C7.05835 13.1051 6.69777 12.5272 6.69745 11.8971C6.69841 10.9612 7.4795 10.2032 8.44424 10.2019C8.62373 10.2019 8.79617 10.2308 8.95963 10.2805V8.69936C6.892 8.74648 5.22469 10.3917 5.22469 12.409C5.22469 13.3849 5.6154 14.2731 6.25194 14.9362C6.89831 15.3761 7.66241 15.6105 8.44424 15.609C10.5532 15.609 12.2692 13.9439 12.2692 11.8974Z" fill="white"/>
</g>
<defs>
<clipPath id="clip0_516_42469">
<rect width="20" height="20" fill="white"/>
</clipPath>
</defs>
</svg>
