<svg width="16" height="17" viewBox="0 0 16 17" fill="none" xmlns="http://www.w3.org/2000/svg">
<path d="M16 8.42871C16 12.847 12.4183 16.4287 8 16.4287C3.58172 16.4287 0 12.847 0 8.42871C0 4.01043 3.58172 0.428711 8 0.428711C12.4183 0.428711 16 4.01043 16 8.42871Z" fill="#1DA1F2"/>
<path d="M6.2465 12.0954C9.7422 12.0954 11.6539 9.27432 11.6539 6.82799C11.6539 6.74787 11.6522 6.66812 11.6485 6.5887C12.0205 6.32652 12.3415 6.0019 12.5965 5.63005C12.256 5.77753 11.8895 5.87678 11.5051 5.92154C11.8975 5.69235 12.1987 5.32977 12.3408 4.89758C11.9678 5.11316 11.5596 5.26514 11.134 5.34695C10.7872 4.9871 10.2935 4.76204 9.74677 4.76204C8.69725 4.76204 7.84617 5.59111 7.84617 6.61307C7.84617 6.75836 7.86287 6.89964 7.89548 7.03519C6.31594 6.95777 4.91532 6.2211 3.97795 5.10095C3.80912 5.38348 3.72032 5.70457 3.72062 6.03144C3.72062 6.67373 4.05612 7.24073 4.56635 7.57245C4.26454 7.56347 3.96936 7.48406 3.70563 7.3409C3.70535 7.34868 3.70535 7.35625 3.70535 7.36455C3.70535 8.26111 4.36043 9.00968 5.23004 9.1793C5.06672 9.22262 4.89818 9.24453 4.72891 9.24443C4.60666 9.24443 4.48752 9.23272 4.37173 9.21107C4.61368 9.94664 5.31527 10.4819 6.14709 10.4969C5.49662 10.9935 4.67723 11.2893 3.78666 11.2893C3.63517 11.2894 3.4838 11.2809 3.33333 11.2637C4.17444 11.7888 5.17307 12.0954 6.2465 12.0954Z" fill="white"/>
</svg>
