<svg width="16" height="17" viewBox="0 0 16 17" fill="none" xmlns="http://www.w3.org/2000/svg">
<path d="M8 16.4287C12.4183 16.4287 16 12.847 16 8.42871C16 4.01043 12.4183 0.428711 8 0.428711C3.58172 0.428711 0 4.01043 0 8.42871C0 12.847 3.58172 16.4287 8 16.4287Z" fill="#FF0000"/>
<path d="M8.36564 11.7533L6.38838 11.7171C5.74819 11.7045 5.1064 11.7297 4.47876 11.5992C3.52398 11.4041 3.45634 10.4477 3.38556 9.6455C3.28803 8.51768 3.32579 7.36939 3.50983 6.25098C3.61373 5.62344 4.02261 5.24898 4.65494 5.20823C6.78949 5.06035 8.93824 5.07788 11.0681 5.14687C11.293 5.15319 11.5195 5.18776 11.7413 5.22711C12.8361 5.41902 12.8628 6.50281 12.9338 7.41516C13.0046 8.33692 12.9747 9.26342 12.8394 10.1789C12.7309 10.9369 12.5232 11.5725 11.6469 11.6339C10.5489 11.7142 9.47613 11.7788 8.37506 11.7582C8.3751 11.7533 8.36878 11.7533 8.36564 11.7533ZM7.2032 9.83428C8.03063 9.3592 8.84226 8.89205 9.66495 8.42016C8.83598 7.94508 8.02589 7.47792 7.2032 7.00604V9.83428Z" fill="white"/>
</svg>
