<svg width="326" height="240" viewBox="0 0 326 240" fill="none" xmlns="http://www.w3.org/2000/svg">
<g clip-path="url(#clip0_560_31811)">
<path d="M269.369 178.066C264.631 204.995 200.069 246.987 140.635 212.077C112.994 195.84 119.11 180.974 101.179 155.342C90.4906 140.065 73.214 126.375 71.9162 107.478C70.7918 91.1652 77.4562 75.4617 88.0161 66.6943C111.764 46.9773 152.285 39.114 179.687 85.2453C207.089 131.377 281.58 108.611 269.369 178.066Z" fill="white"/>
<path d="M274.632 89.5602C269.047 99.5269 256.816 100.896 237.222 99.0023C222.485 97.5751 209.047 96.4711 194.309 88.4358C183.993 82.8155 175.828 75.212 169.869 67.8267C163.41 59.8259 154.396 50.6955 158.815 41.624C164.888 29.1628 200.006 18.6681 234.107 35.8308C271.567 54.6894 280.095 79.8187 274.632 89.5602Z" fill="url(#paint0_linear_560_31811)"/>
<path d="M312.387 110.398C301.866 115.617 287.902 108.906 287.902 108.906C287.902 108.906 291.006 93.7373 301.532 88.5254C312.053 83.3069 326.011 90.0098 326.011 90.0098C326.011 90.0098 322.908 105.179 312.387 110.398Z" fill="url(#paint1_linear_560_31811)"/>
<path d="M12.9107 147.826C24.1277 154.549 40.2205 148.334 40.2205 148.334C40.2205 148.334 38.1163 131.223 26.8926 124.507C15.6756 117.785 -0.410156 123.992 -0.410156 123.992C-0.410156 123.992 1.69411 141.104 12.9107 147.826Z" fill="url(#paint2_linear_560_31811)"/>
<path d="M291.685 69.6823C288.513 69.6823 285.941 72.2541 285.941 75.4267C285.941 78.5992 288.513 81.1711 291.685 81.1711C294.858 81.1711 297.43 78.5992 297.43 75.4267C297.43 72.2541 294.858 69.6823 291.685 69.6823Z" fill="#F08519"/>
<path d="M116.056 87.8408C113.444 87.8408 111.327 89.958 111.327 92.5698C111.327 95.1816 113.444 97.2989 116.056 97.2989C118.668 97.2989 120.785 95.1816 120.785 92.5698C120.785 89.958 118.668 87.8408 116.056 87.8408Z" fill="#F08519"/>
<path d="M103.285 197.172C101.212 197.172 99.5318 195.492 99.5318 193.419C99.5318 191.346 101.212 189.665 103.285 189.665C105.359 189.665 107.039 191.346 107.039 193.419C107.039 195.492 105.359 197.172 103.285 197.172Z" fill="#F08519"/>
<path d="M280.194 107.753C278.806 107.753 277.681 106.628 277.681 105.24C277.681 103.852 278.806 102.727 280.194 102.727C281.582 102.727 282.707 103.852 282.707 105.24C282.707 106.628 281.582 107.753 280.194 107.753Z" fill="#F08519"/>
<path d="M278.745 202.973C276.961 202.973 275.514 201.526 275.514 199.741C275.514 197.957 276.961 196.51 278.745 196.51C280.53 196.51 281.977 197.957 281.977 199.741C281.977 201.526 280.53 202.973 278.745 202.973Z" fill="#E1E4E5"/>
<path d="M31.063 181.244C28.4853 181.244 26.3956 179.154 26.3956 176.577C26.3956 173.999 28.4853 171.909 31.063 171.909C33.6408 171.909 35.7305 173.999 35.7305 176.577C35.7305 179.154 33.6408 181.244 31.063 181.244Z" fill="#E1E4E5"/>
<path d="M295.202 171.346C293.24 171.346 291.649 169.756 291.649 167.794C291.649 165.832 293.24 164.241 295.202 164.241C297.163 164.241 298.754 165.832 298.754 167.794C298.754 169.756 297.163 171.346 295.202 171.346Z" fill="#E1E4E5"/>
<path d="M257.504 61.9271C255.322 61.9271 253.554 60.1588 253.554 57.9775C253.554 55.7962 255.322 54.0279 257.504 54.0279C259.685 54.0279 261.453 55.7962 261.453 57.9775C261.453 60.1588 259.685 61.9271 257.504 61.9271Z" fill="#E1E4E5"/>
<path d="M45.1834 101.878C45.6904 103.77 44.5676 105.714 42.6756 106.221C40.7837 106.728 38.8389 105.606 38.332 103.714C37.825 101.822 38.9478 99.8769 40.8398 99.3699C42.7318 98.863 44.6765 99.9858 45.1834 101.878Z" fill="#E1E4E5"/>
<path d="M133.403 38.1009C130.797 38.1009 128.685 35.9886 128.685 33.3829C128.685 30.7772 130.797 28.6649 133.403 28.6649C136.009 28.6649 138.121 30.7772 138.121 33.3829C138.121 35.9886 136.009 38.1009 133.403 38.1009Z" fill="#E1E4E5"/>
<path d="M282.273 151.02C280.269 151.02 278.644 149.72 278.644 148.117C278.644 146.513 280.269 145.213 282.273 145.213C284.278 145.213 285.902 146.513 285.902 148.117C285.902 149.72 284.278 151.02 282.273 151.02Z" fill="#E1E4E5"/>
<path d="M220.95 25.3888C222.005 29.3263 219.669 33.3735 215.731 34.4285C211.794 35.4836 207.747 33.1469 206.692 29.2095C205.637 25.272 207.973 21.2248 211.911 20.1697C215.848 19.1147 219.895 21.4514 220.95 25.3888Z" fill="#E1E4E5"/>
<path d="M57.9159 78.3503H57.9674C58.2737 82.6878 61.4993 82.7548 61.4993 82.7548C61.4993 82.7548 57.9421 82.8239 57.9421 87.8363C57.9421 82.8239 54.3849 82.7548 54.3849 82.7548C54.3849 82.7548 57.6096 82.6878 57.9159 78.3503ZM52.5112 191.896H52.5608C52.8548 196.221 55.9518 196.287 55.9518 196.287C55.9518 196.287 52.5364 196.357 52.5364 201.354C52.5364 196.357 49.1211 196.287 49.1211 196.287C49.1211 196.287 52.2172 196.221 52.5112 191.896Z" fill="#E1E4E5"/>
<path d="M176.36 213.422V165.456C176.36 160.294 172.176 156.11 167.014 156.11C161.853 156.11 157.668 160.294 157.668 165.456V213.422C157.668 218.583 161.853 222.768 167.014 222.768C172.176 222.768 176.36 218.583 176.36 213.422Z" fill="white" stroke="#E1E4E5" stroke-width="2.3264"/>
<path d="M107.132 76.3378H220.134C239.35 76.3378 254.926 91.9145 254.926 111.13V167.631C254.926 172.659 250.845 176.741 245.817 176.741H81.4495C76.4216 176.741 72.3398 172.659 72.3398 167.631V111.13C72.3398 91.9145 87.917 76.3378 107.132 76.3378Z" fill="white" stroke="#E1E4E5" stroke-width="2.3264"/>
<path d="M184.18 44.3556V116.266" stroke="#E1E4E5" stroke-width="4.24224"/>
<path d="M184.17 112.413C183.149 112.418 182.172 112.827 181.452 113.551C180.731 114.275 180.328 115.255 180.328 116.276C180.328 118.402 182.054 120.128 184.181 120.118C185.202 120.118 186.182 119.712 186.904 118.989C187.627 118.267 188.032 117.287 188.033 116.266C188.033 114.139 186.307 112.413 184.17 112.413Z" stroke="#E1E4E5" stroke-width="8.61704" stroke-linecap="round" stroke-linejoin="round"/>
<path fill-rule="evenodd" clip-rule="evenodd" d="M107.137 75.1744C126.994 75.1744 143.092 91.2721 143.092 111.13V177.904" fill="white"/>
<mask id="mask0_560_31811" style="mask-type:luminance" maskUnits="userSpaceOnUse" x="107" y="75" width="37" height="103">
<path fill-rule="evenodd" clip-rule="evenodd" d="M107.129 75.1743C126.986 75.1743 143.084 91.272 143.084 111.13V177.904" fill="white"/>
</mask>
<g mask="url(#mask0_560_31811)">
<path d="M107.129 77.5007C125.702 77.5007 140.758 92.5569 140.758 111.13H145.411C145.411 89.9871 128.271 72.8479 107.129 72.8479V77.5007ZM140.758 111.13V177.904H145.411V111.13H140.758Z" fill="#E1E4E5"/>
</g>
<path d="M256.498 79.0282C257.339 80.4594 256.307 82.2626 254.647 82.2626H181.885C181.315 82.2625 180.769 82.0363 180.367 81.6337C179.964 81.2311 179.738 80.6851 179.738 80.1158V43.7832C179.738 40.9261 182.048 38.6165 184.905 38.6165H254.699C256.361 38.6165 257.392 40.4233 256.547 41.8545L246.215 59.3506C246.02 59.6806 245.917 60.0567 245.917 60.4399C245.917 60.8231 246.019 61.1995 246.213 61.5298L256.498 79.0282Z" fill="#F08519"/>
<path d="M122.681 163.56H59.7657C55.4423 163.56 51.9414 160.059 51.9414 155.736V119.785C51.9414 115.461 55.4423 111.96 59.7657 111.96H122.681C127.004 111.96 130.505 115.461 130.505 119.785V155.736C130.505 160.059 127.004 163.56 122.681 163.56Z" fill="white" stroke="#E1E4E5" stroke-width="2.3264"/>
<path d="M109.194 125.441H113.688C114.571 125.441 115.418 125.792 116.042 126.417C116.667 127.042 117.018 127.888 117.018 128.772V133.266C117.018 134.149 116.667 134.996 116.042 135.62C115.418 136.245 114.571 136.596 113.688 136.596H109.194C108.311 136.596 107.464 136.245 106.839 135.62C106.215 134.996 105.864 134.149 105.863 133.266V128.772C105.864 127.888 106.215 127.042 106.839 126.417C107.464 125.792 108.311 125.441 109.194 125.441Z" fill="white" stroke="#E1E4E5" stroke-width="2.3264"/>
<path d="M176.521 32.9225L169.988 28.2652C169.239 27.7318 168.2 27.906 167.667 28.6543C167.133 29.4026 167.308 30.4417 168.056 30.9752L174.589 35.6324C175.338 36.1659 176.377 35.9917 176.91 35.2433C177.444 34.495 177.269 33.4559 176.521 32.9225Z" fill="#E1E4E5"/>
<path d="M182.926 32.5578V27.1495C182.926 26.2366 182.186 25.4966 181.273 25.4966C180.36 25.4966 179.62 26.2366 179.62 27.1495V32.5578C179.62 33.4707 180.36 34.2107 181.273 34.2107C182.186 34.2107 182.926 33.4707 182.926 32.5578Z" fill="#E1E4E5"/>
<path d="M173.76 38.4174H167.751C166.838 38.4174 166.098 39.1574 166.098 40.0701C166.098 40.9829 166.838 41.7228 167.751 41.7228H173.76C174.673 41.7228 175.413 40.9829 175.413 40.0701C175.413 39.1574 174.673 38.4174 173.76 38.4174Z" fill="#E1E4E5"/>
</g>
<defs>
<linearGradient id="paint0_linear_560_31811" x1="237.01" y1="154.155" x2="187.234" y2="-69.522" gradientUnits="userSpaceOnUse">
<stop stop-color="white"/>
<stop offset="1" stop-color="#EEEEEE"/>
</linearGradient>
<linearGradient id="paint1_linear_560_31811" x1="271.986" y1="126.677" x2="358.762" y2="58.037" gradientUnits="userSpaceOnUse">
<stop stop-color="white"/>
<stop offset="1" stop-color="#EEEEEE"/>
</linearGradient>
<linearGradient id="paint2_linear_560_31811" x1="56.3174" y1="169.467" x2="-33.9379" y2="85.6074" gradientUnits="userSpaceOnUse">
<stop stop-color="white"/>
<stop offset="1" stop-color="#EEEEEE"/>
</linearGradient>
<clipPath id="clip0_560_31811">
<rect width="325.605" height="239.701" fill="white" transform="translate(0 0.29895)"/>
</clipPath>
</defs>
</svg>
