<svg width="480" height="320" viewBox="0 0 480 320" fill="none" xmlns="http://www.w3.org/2000/svg">
<g clip-path="url(#clip0_948_30126)">
<path opacity="0.76" fill-rule="evenodd" clip-rule="evenodd" d="M371.2 113.333C371.2 66.0577 332.876 27.7334 285.6 27.7334C238.324 27.7334 200 66.0577 200 113.333C200 160.609 238.324 198.933 285.6 198.933C332.876 198.933 371.2 160.609 371.2 113.333ZM232 113.333C232 83.7307 255.997 59.7334 285.6 59.7334C315.203 59.7334 339.2 83.7307 339.2 113.333C339.2 142.936 315.203 166.933 285.6 166.933C255.997 166.933 232 142.936 232 113.333Z" fill="url(#paint0_linear_948_30126)"/>
<path opacity="0.76" fill-rule="evenodd" clip-rule="evenodd" d="M311.463 178.4C311.463 164.998 300.598 154.133 287.196 154.133C273.794 154.133 262.93 164.998 262.93 178.4C262.93 191.802 273.794 202.667 287.196 202.667C300.598 202.667 311.463 191.802 311.463 178.4ZM278.93 178.4C278.93 173.835 282.631 170.133 287.196 170.133C291.762 170.133 295.463 173.835 295.463 178.4C295.463 182.965 291.762 186.667 287.196 186.667C282.631 186.667 278.93 182.965 278.93 178.4Z" fill="url(#paint1_linear_948_30126)"/>
<path d="M103.731 118.933C112.126 118.933 118.931 112.128 118.931 103.733C118.931 95.3387 112.126 88.5334 103.731 88.5334C95.3365 88.5334 88.5312 95.3387 88.5312 103.733C88.5312 112.128 95.3365 118.933 103.731 118.933Z" fill="url(#paint2_linear_948_30126)"/>
<path d="M153.598 76.8001C163.024 76.8001 170.665 69.1591 170.665 59.7334C170.665 50.3078 163.024 42.6668 153.598 42.6668C144.172 42.6668 136.531 50.3078 136.531 59.7334C136.531 69.1591 144.172 76.8001 153.598 76.8001Z" fill="url(#paint3_linear_948_30126)"/>
<g filter="url(#filter0_f_948_30126)">
<path d="M354.668 244.8C364.094 244.8 371.735 237.159 371.735 227.734C371.735 218.308 364.094 210.667 354.668 210.667C345.243 210.667 337.602 218.308 337.602 227.734C337.602 237.159 345.243 244.8 354.668 244.8Z" fill="url(#paint4_linear_948_30126)"/>
</g>
<path d="M376.988 167.589H190.472C184.948 167.589 180.797 163.858 180.797 159.629V61.4171C180.797 57.1873 184.948 53.4561 190.472 53.4561H376.988C382.512 53.4561 386.664 57.1873 386.664 61.4171V159.629C386.664 163.858 382.512 167.589 376.988 167.589Z" fill="white" stroke="#E1E4E5" stroke-width="2.13333"/>
<path fill-rule="evenodd" clip-rule="evenodd" d="M197.648 86.5145V123.098C197.648 125.084 199.238 126.692 201.202 126.692H222.737L232.137 113.293C232.586 112.654 233.706 112.654 234.154 113.293L237.445 117.985L237.471 118.021L237.493 117.989L244.551 107.741C245.039 107.031 246.263 107.031 246.751 107.741L256.099 121.315V86.5145C256.099 84.5289 254.504 82.9209 252.545 82.9209H201.202C199.238 82.9209 197.648 84.5289 197.648 86.5145Z" fill="#F08519"/>
<path d="M214.13 107.837C210.702 107.837 207.922 105.058 207.922 101.629C207.922 98.2001 210.702 95.4204 214.13 95.4204C217.559 95.4204 220.338 98.2001 220.338 101.629C220.338 105.058 217.559 107.837 214.13 107.837Z" fill="white"/>
<path d="M386.664 65.8482H180.797V63.0087C180.797 57.6663 185.13 53.3335 190.472 53.3335H376.988C382.331 53.3335 386.664 57.6663 386.664 63.0087V65.8482Z" fill="white" stroke="#E1E4E5" stroke-width="2.13333"/>
<path d="M190.495 62.3688C191.107 62.3688 191.693 62.1257 192.126 61.693C192.559 61.2603 192.802 60.6735 192.802 60.0616C192.802 59.4497 192.559 58.8628 192.126 58.4302C191.693 57.9975 191.107 57.7544 190.495 57.7544C189.883 57.7544 189.296 57.9975 188.863 58.4302C188.431 58.8628 188.188 59.4497 188.188 60.0616C188.188 60.6735 188.431 61.2603 188.863 61.693C189.296 62.1257 189.883 62.3688 190.495 62.3688ZM200.107 62.3688C200.719 62.3688 201.305 62.1258 201.738 61.6932C202.171 61.2606 202.414 60.6739 202.414 60.0621C202.414 59.4504 202.171 58.8637 201.738 58.4311C201.305 57.9985 200.719 57.7555 200.107 57.7555C199.495 57.7555 198.908 57.9985 198.476 58.4311C198.043 58.8637 197.8 59.4504 197.8 60.0621C197.8 60.6739 198.043 61.2606 198.476 61.6932C198.908 62.1258 199.495 62.3688 200.107 62.3688ZM209.335 62.3688C209.947 62.3688 210.533 62.1257 210.966 61.693C211.399 61.2603 211.642 60.6735 211.642 60.0616C211.642 59.4497 211.399 58.8628 210.966 58.4302C210.533 57.9975 209.947 57.7544 209.335 57.7544C208.723 57.7544 208.136 57.9975 207.703 58.4302C207.271 58.8628 207.028 59.4497 207.028 60.0616C207.028 60.6735 207.271 61.2603 207.703 61.693C208.136 62.1257 208.723 62.3688 209.335 62.3688Z" fill="#E1E4E5"/>
<path d="M366.239 82.9209H269.102C267.014 82.9209 265.32 84.6141 265.32 86.7028C265.32 88.7914 267.014 90.4846 269.102 90.4846H366.239C368.328 90.4846 370.021 88.7914 370.021 86.7028C370.021 84.6141 368.328 82.9209 366.239 82.9209Z" fill="#E1E4E5"/>
<path d="M366.239 100.438H269.102C267.014 100.438 265.32 102.131 265.32 104.219C265.32 106.308 267.014 108.001 269.102 108.001H366.239C368.328 108.001 370.021 106.308 370.021 104.219C370.021 102.131 368.328 100.438 366.239 100.438Z" fill="#E1E4E5"/>
<path d="M360.529 117.867H268.796C266.734 117.867 265.062 119.538 265.062 121.6C265.062 123.662 266.734 125.333 268.796 125.333H360.529C362.591 125.333 364.262 123.662 364.262 121.6C364.262 119.538 362.591 117.867 360.529 117.867Z" fill="#E1E4E5"/>
<path d="M366.239 135.47H269.102C267.014 135.47 265.32 137.163 265.32 139.252C265.32 141.34 267.014 143.033 269.102 143.033H366.239C368.328 143.033 370.021 141.34 370.021 139.252C370.021 137.163 368.328 135.47 366.239 135.47Z" fill="#E1E4E5"/>
<path fill-rule="evenodd" clip-rule="evenodd" d="M152.565 221.379C152.878 221.335 153.197 221.354 153.504 221.434C153.81 221.514 154.097 221.654 154.349 221.847C154.601 222.039 154.812 222.279 154.97 222.554C155.128 222.828 155.229 223.131 155.269 223.446L163.661 289.671C163.739 290.289 163.569 290.912 163.188 291.404C162.807 291.897 162.246 292.217 161.629 292.296C161.011 292.375 160.388 292.205 159.896 291.824C159.403 291.443 159.083 290.882 159.004 290.264L150.527 224.05C150.447 223.426 150.616 222.796 150.998 222.296C151.379 221.797 151.942 221.467 152.565 221.379Z" fill="white" stroke="#E1E4E5" stroke-width="2.13333" stroke-linecap="round" stroke-linejoin="round"/>
<path fill-rule="evenodd" clip-rule="evenodd" d="M153.528 221.379C153.214 221.335 152.895 221.354 152.588 221.434C152.282 221.514 151.995 221.655 151.743 221.847C151.491 222.039 151.28 222.279 151.122 222.554C150.964 222.828 150.862 223.131 150.823 223.446L142.431 289.671C142.352 290.289 142.522 290.912 142.903 291.405C143.284 291.897 143.845 292.218 144.463 292.296C145.081 292.375 145.704 292.205 146.196 291.824C146.689 291.443 147.009 290.882 147.088 290.264L155.565 224.05C155.645 223.426 155.476 222.796 155.094 222.297C154.713 221.797 154.15 221.467 153.528 221.379ZM178.861 221.379C179.175 221.335 179.494 221.354 179.8 221.434C180.107 221.514 180.394 221.655 180.646 221.847C180.897 222.039 181.108 222.279 181.266 222.554C181.424 222.828 181.526 223.131 181.566 223.446L189.957 289.671C190.036 290.289 189.866 290.912 189.485 291.405C189.104 291.897 188.543 292.218 187.925 292.296C187.308 292.375 186.684 292.205 186.192 291.824C185.7 291.443 185.379 290.882 185.3 290.264L176.824 224.05C176.744 223.426 176.913 222.796 177.294 222.297C177.676 221.797 178.238 221.467 178.861 221.379ZM125.983 221.379C125.669 221.335 125.35 221.354 125.043 221.434C124.737 221.514 124.449 221.654 124.198 221.847C123.946 222.039 123.735 222.279 123.577 222.554C123.419 222.828 123.317 223.131 123.277 223.446L114.886 289.671C114.807 290.289 114.977 290.912 115.358 291.404C115.739 291.897 116.3 292.217 116.918 292.296C117.223 292.335 117.534 292.313 117.831 292.232C118.129 292.151 118.407 292.012 118.651 291.824C119.143 291.443 119.464 290.882 119.543 290.264L128.02 224.05C128.1 223.426 127.931 222.796 127.549 222.297C127.168 221.797 126.605 221.467 125.983 221.379Z" fill="white" stroke="#E1E4E5" stroke-width="2.13333" stroke-linecap="round" stroke-linejoin="round"/>
<path fill-rule="evenodd" clip-rule="evenodd" d="M184.73 232.25C188.844 232.25 192.179 228.914 192.179 224.8C192.179 220.685 188.844 217.35 184.73 217.35H168.493C156.273 217.35 146.058 208.052 144.912 195.885L142.222 167.322C141.344 157.994 133.513 150.866 124.144 150.866C113.566 150.866 105.228 159.871 106.039 170.417L108.901 207.628C109.97 221.522 121.555 232.25 135.49 232.25H184.73Z" fill="white" stroke="#E1E4E5" stroke-width="2.13333" stroke-linecap="round" stroke-linejoin="round"/>
<path fill-rule="evenodd" clip-rule="evenodd" d="M192.174 224.621C192.174 224.652 192.161 224.682 192.139 224.703C192.118 224.725 192.088 224.738 192.057 224.738H142.991C129.059 224.738 117.475 214.012 116.403 200.122L113.547 163.089C113.482 162.245 113.475 161.397 113.527 160.553C113.843 155.411 118.087 151.194 123.229 150.897C123.581 150.876 123.936 150.866 124.294 150.866C133.639 150.866 141.449 157.974 142.328 167.277L145.017 195.752C146.163 207.889 156.353 217.161 168.543 217.161H184.744C188.847 217.161 192.174 220.488 192.174 224.592V224.621Z" fill="white"/>
<path d="M142.995 223.671H192.061V225.805H142.995V223.671ZM117.471 200.04C118.5 213.375 129.62 223.671 142.995 223.671V225.805C128.506 225.805 116.459 214.65 115.344 200.204L117.471 200.04ZM114.614 163.007L117.471 200.04L115.344 200.204L112.487 163.171L114.614 163.007ZM114.595 160.618C114.547 161.414 114.553 162.212 114.614 163.007L112.487 163.171C112.418 162.278 112.411 161.381 112.466 160.487L114.595 160.618ZM124.298 151.933C123.961 151.933 123.626 151.943 123.294 151.962L123.172 149.832C123.544 149.81 123.92 149.8 124.298 149.8V151.933ZM141.27 167.378C140.443 158.623 133.092 151.933 124.298 151.933V149.8C134.193 149.8 142.463 157.326 143.394 167.177L141.27 167.378ZM143.959 195.853L141.27 167.378L143.394 167.177L146.083 195.652L143.959 195.853ZM168.547 218.228C155.806 218.228 145.157 208.537 143.959 195.853L146.083 195.652C147.177 207.24 156.907 216.095 168.547 216.095V218.228ZM184.748 218.228H168.547V216.095H184.748V218.228ZM191.112 224.592C191.112 221.077 188.262 218.228 184.748 218.228V216.095C189.441 216.095 193.245 219.899 193.245 224.592H191.112ZM191.112 224.617V224.592H193.245V224.626L191.112 224.617ZM112.466 160.487C112.816 154.806 117.491 150.16 123.172 149.832L123.294 151.962C118.69 152.228 114.879 156.017 114.595 160.618L112.466 160.487ZM192.061 223.671C191.538 223.671 191.114 224.094 191.112 224.617L193.245 224.626C193.244 224.939 193.118 225.239 192.897 225.46C192.675 225.681 192.374 225.805 192.061 225.805V223.671Z" fill="#E1E4E5"/>
<path d="M360.663 190.619C361.169 190.619 361.574 190.213 361.582 189.715C361.758 180.115 354.065 175.958 353.735 175.782C353.518 175.669 353.264 175.646 353.03 175.719C352.797 175.792 352.601 175.955 352.487 176.173C352.374 176.389 352.351 176.641 352.423 176.875C352.494 177.109 352.655 177.305 352.87 177.421C352.885 177.428 354.669 178.385 356.391 180.383C358.673 183.024 359.798 186.155 359.73 189.685C359.726 189.929 359.819 190.165 359.988 190.341C360.157 190.518 360.389 190.62 360.633 190.626C360.648 190.619 360.656 190.619 360.663 190.619ZM363.634 166.787C363.634 166.787 374.344 146.584 335.92 132.421C333.938 131.694 331.932 133.439 332.406 135.498C334.833 146.017 342.787 170.607 363.634 166.787Z" fill="#F08519"/>
<path d="M374.171 188.789C374.217 188.789 374.263 188.789 374.301 188.781C374.422 188.764 374.537 188.723 374.641 188.661C374.746 188.598 374.837 188.516 374.909 188.419C374.982 188.321 375.034 188.211 375.064 188.093C375.094 187.975 375.1 187.853 375.082 187.732C372.418 169.352 358.722 160.808 357.176 159.889C356.739 159.629 356.165 159.767 355.905 160.203C355.779 160.412 355.742 160.663 355.801 160.899C355.859 161.136 356.01 161.34 356.219 161.466L356.242 161.474C356.892 161.857 360.307 163.97 363.981 168.088C369.05 173.784 372.173 180.475 373.26 187.985C373.329 188.46 373.72 188.789 374.171 188.789Z" fill="#F08519"/>
<path d="M368.536 188.789H368.582C368.826 188.776 369.056 188.668 369.22 188.488C369.385 188.307 369.472 188.069 369.463 187.824C369.095 179.962 374.087 172.789 374.132 172.712C374.272 172.512 374.327 172.264 374.286 172.023C374.244 171.783 374.109 171.568 373.911 171.426C373.71 171.286 373.463 171.231 373.222 171.273C372.981 171.314 372.766 171.449 372.624 171.648C372.402 171.962 367.219 179.419 367.618 187.908C367.628 188.145 367.729 188.369 367.9 188.533C368.071 188.697 368.299 188.789 368.536 188.789ZM365.887 190.144H365.91C366.031 190.141 366.151 190.114 366.262 190.065C366.372 190.015 366.472 189.944 366.556 189.856C366.639 189.768 366.704 189.664 366.747 189.55C366.79 189.437 366.81 189.316 366.805 189.195L366.017 159.284C366.014 159.163 365.987 159.043 365.938 158.932C365.888 158.822 365.818 158.722 365.729 158.638C365.641 158.555 365.537 158.49 365.424 158.447C365.31 158.404 365.189 158.384 365.068 158.388C364.947 158.391 364.827 158.418 364.716 158.468C364.605 158.517 364.505 158.588 364.422 158.676C364.339 158.764 364.274 158.868 364.231 158.982C364.188 159.095 364.168 159.216 364.172 159.338L364.961 189.24C364.968 189.482 365.068 189.711 365.241 189.88C365.414 190.048 365.646 190.143 365.887 190.144Z" fill="#F08519"/>
<path d="M372.3 173.225C372.3 173.225 394.096 180.154 401.162 139.808C401.529 137.726 399.447 136.073 397.503 136.907C387.588 141.171 364.813 153.397 372.3 173.225ZM358.183 180.988C358.183 180.988 338.593 192.785 322.355 155.181C321.521 153.244 323.159 151.146 325.241 151.506C335.875 153.359 360.863 159.965 358.183 180.988Z" fill="#F08519"/>
<path d="M361.777 169.627C363.293 172.766 367.871 172.421 368.912 169.091C373.559 154.255 381.345 122.805 365.222 119.192C347.139 115.142 353.195 151.881 361.777 169.627Z" fill="#F08519"/>
<path d="M365.492 171.641H365.515C365.648 171.635 365.773 171.577 365.863 171.48C365.953 171.382 366.002 171.253 365.997 171.12L364.298 129.068C364.296 129.002 364.28 128.937 364.253 128.877C364.225 128.817 364.186 128.763 364.138 128.718C364.09 128.673 364.033 128.638 363.971 128.616C363.909 128.593 363.843 128.583 363.777 128.585C363.644 128.591 363.519 128.649 363.429 128.746C363.338 128.844 363.29 128.973 363.295 129.106L364.987 171.158C364.994 171.426 365.216 171.641 365.492 171.641ZM357.637 181.049C357.712 181.05 357.786 181.034 357.853 181.002C357.921 180.97 357.981 180.924 358.028 180.866C358.204 180.652 358.173 180.33 357.959 180.161L334.671 161.099C334.456 160.923 334.135 160.953 333.966 161.168C333.924 161.219 333.893 161.277 333.873 161.34C333.854 161.403 333.848 161.469 333.854 161.534C333.86 161.6 333.88 161.663 333.911 161.721C333.942 161.779 333.984 161.831 334.035 161.872L357.323 180.935C357.412 181.008 357.523 181.049 357.637 181.049Z" fill="#5D3004"/>
<path d="M347.706 186.814C344.572 186.814 342.239 189.708 342.905 192.77L343.333 194.707L344.229 198.818L344.65 200.762L344.797 201.434C346.915 211.121 355.492 218.026 365.408 218.026C375.324 218.026 383.902 211.121 386.02 201.434L386.167 200.762L386.587 198.818L387.483 194.707L387.904 192.77C388.573 189.709 386.242 186.814 383.109 186.814H347.706ZM391.7 262.379H338.058C337.976 262.379 337.895 262.363 337.82 262.332C337.745 262.301 337.676 262.256 337.618 262.198C337.561 262.141 337.515 262.072 337.484 261.997C337.453 261.921 337.437 261.841 337.438 261.759V258.651C337.438 258.306 337.713 258.031 338.058 258.031H391.708C392.052 258.031 392.328 258.306 392.328 258.651V261.759C392.326 261.924 392.259 262.082 392.141 262.198C392.024 262.314 391.865 262.379 391.7 262.379Z" fill="white" stroke="#E1E4E5" stroke-width="2.13333" stroke-linecap="round" stroke-linejoin="round"/>
<path d="M352.4 219.048C354.959 219.048 356.784 221.528 356.024 223.971L335.221 291.032C335.058 291.551 334.703 291.987 334.229 292.252C333.754 292.517 333.196 292.589 332.67 292.455C332.143 292.321 331.688 291.99 331.398 291.531C331.108 291.071 331.005 290.518 331.111 289.985L344.089 225.372L344.456 223.545C344.711 222.277 345.398 221.136 346.399 220.316C347.4 219.496 348.654 219.048 349.948 219.048H352.4ZM398.883 289.985C398.991 290.519 398.89 291.074 398.601 291.536C398.311 291.998 397.855 292.33 397.327 292.465C396.799 292.599 396.239 292.526 395.764 292.259C395.288 291.992 394.934 291.553 394.773 291.032L373.334 221.942C372.889 220.505 373.964 219.048 375.468 219.048H383.063C383.973 219.048 384.757 219.688 384.94 220.579L398.883 289.985Z" fill="white" stroke="#E1E4E5" stroke-width="2.13333" stroke-linecap="round" stroke-linejoin="round"/>
<path d="M340.201 218.283H390.028C390.858 218.283 391.527 219.181 391.527 220.295V228.519C391.527 229.633 390.858 230.532 390.028 230.532H340.201C339.372 230.532 338.703 229.633 338.703 228.519V220.295C338.703 219.181 339.372 218.283 340.201 218.283Z" fill="white" stroke="#E1E4E5" stroke-width="2.13333" stroke-linecap="round" stroke-linejoin="round"/>
<path fill-rule="evenodd" clip-rule="evenodd" d="M197.293 266.951C197.293 266.951 193.144 275.333 196.545 277.974C199.952 280.615 208.951 285.566 208.951 285.566L185.109 284.068L190.409 265.788L197.293 266.951Z" fill="#F8AE9D"/>
<path fill-rule="evenodd" clip-rule="evenodd" d="M187.47 274.535C188.221 274.893 186.987 278.261 189.627 278.024C192.266 277.788 193.923 274.307 195.869 274.533C197.816 274.759 199.052 278.264 202.757 280.706C206.462 283.148 211.956 286.06 211.588 288.515C211.22 290.97 202.575 291.628 198.194 290.815C193.815 290.003 191.77 288.242 188.929 288.382C186.087 288.523 184.302 288.175 183.41 286.35C182.52 284.525 186.605 274.122 187.47 274.535ZM161.376 193.08C168.594 193.402 208.768 202.288 216.067 203.797C223.366 205.307 229.537 213.475 223.971 222.934C217.72 233.552 201.591 263.706 197.674 270.504C195.736 273.868 185.958 271.982 188.255 266.335C192.536 255.808 194.525 229.362 205.441 219.72C205.441 219.72 168.729 226.109 152.871 218.79C141.345 213.47 143.953 192.3 161.376 193.08Z" fill="#5D3004"/>
<path fill-rule="evenodd" clip-rule="evenodd" d="M211.733 148.024C211.733 148.024 211.651 143.732 213.706 140.663C215.76 137.594 215.842 134.333 217.397 134.44C218.952 134.547 217.412 142.125 217.412 142.125C217.412 142.125 219.385 141.371 220.802 140.418C222.219 139.465 226.517 134.765 227.521 135.597C229.224 137.017 226.481 145.021 224.987 146.621C223.489 148.222 216.093 152.695 216.093 152.695L194.311 174.638L191.055 162.989L211.733 148.024Z" fill="#F8AE9D"/>
<path fill-rule="evenodd" clip-rule="evenodd" d="M168.158 146.086C171.516 153.874 177.663 168.181 180.198 172.449C183.374 177.794 188.383 180.149 194.247 176.183C195.474 175.353 198.998 172.451 198.998 172.451C198.477 167.371 196.579 163.125 193.307 159.711L191.085 161.549C191.085 161.549 184.783 145.395 179.715 136.038C175.324 127.943 163.047 134.247 168.158 146.086ZM153.646 115.857V122.748L148.586 118.673C148.586 118.673 147.03 112.071 145.765 107.168C144.972 104.093 143.039 93.6856 150.82 94.1731C157.194 82.9373 175.757 89.8915 175.905 103.618C176.083 120.128 175.938 126.557 175.938 126.557C165.441 127.159 159.532 125.641 153.646 115.857Z" fill="#5D3004"/>
<path fill-rule="evenodd" clip-rule="evenodd" d="M148.484 128.977C148.484 128.977 153.192 127.872 153.355 120.158C153.519 112.445 153.404 109.812 153.404 109.812L163.773 109.625C163.773 109.625 163.886 118.222 163.888 121.331C163.892 128.891 169.452 129.511 169.452 129.511C169.452 129.511 168.501 135.749 159.106 136.277C151.77 136.69 148.484 128.977 148.484 128.977Z" fill="#F8AE9D"/>
<path fill-rule="evenodd" clip-rule="evenodd" d="M150.981 105.961C146.355 105.781 147.109 112.553 151.915 112.544C151.915 112.544 154.705 122.163 164.395 122.163C172.264 122.163 172.776 110.952 172.848 108.715C172.925 106.331 172.934 98.496 172.934 98.496L150.8 98.4858L150.981 105.961Z" fill="#F8AE9D"/>
<path fill-rule="evenodd" clip-rule="evenodd" d="M150.623 105.916C152.54 106.232 152.307 107.501 152.828 107.39C155.475 106.828 166.189 107.57 167.569 101.678C169.285 105.359 169.705 106.264 173.485 107.252V96.4662L149.578 94.1729C149.578 94.1729 149.949 105.804 150.623 105.916Z" fill="#5D3004"/>
<path fill-rule="evenodd" clip-rule="evenodd" d="M149.531 128.188C155.439 131.807 162.269 133.133 168.626 129.204C179.002 149.662 181.587 174.071 179.092 201.049C163.963 207.039 151.247 205.861 140.422 199.015L149.531 128.188Z" fill="#F08519"/>
<path fill-rule="evenodd" clip-rule="evenodd" d="M223.154 267.288C223.154 267.288 223.028 277.152 231.157 280.841C239.281 284.529 245.068 284.306 244.332 287.158C243.595 290.009 222.45 289.893 220.476 287.664C218.793 285.767 215.133 268.104 214.125 269.454L223.154 267.288Z" fill="#F8AE9D"/>
<path fill-rule="evenodd" clip-rule="evenodd" d="M217.251 281.219C218.496 280.323 219.543 285.492 222.927 284.054C226.311 282.617 223.643 277.867 225.772 276.99C227.902 276.113 232.014 280.825 237.475 281.97C242.936 283.115 247.371 284.117 248.631 286.242C249.716 288.069 248.631 288.653 248.631 288.653C248.631 288.653 243.373 291.279 240.107 291.856C235.36 292.696 221.644 293.255 220.141 291.725C219.218 290.785 216.628 281.668 217.251 281.219ZM138.76 190.03C138.76 190.03 128.267 212.192 143.014 219.802C157.275 227.161 199.97 218.457 199.97 218.457C199.97 218.457 199.207 224.599 199.97 230.078C201.963 244.385 211.439 268.223 213.444 271.219C216.216 275.36 224.663 272.237 224.822 268.788C224.981 265.339 218.455 221.29 217.462 212.891C216.475 204.49 213.358 203.27 204.254 200.974C202.162 200.446 177.429 194.3 175.163 194.478C155.694 196.018 138.76 190.03 138.76 190.03Z" fill="#5D3004"/>
<path fill-rule="evenodd" clip-rule="evenodd" d="M149.791 128.205C159.575 160.256 165.443 205.695 134.886 197.79C151.118 167.904 129.051 154.453 134.053 139.007C135.763 133.726 149.663 127.791 149.791 128.205ZM168.11 128.98C171.844 138.344 173.638 145.692 175.313 159.438C176.709 170.886 176.01 194.51 176.01 194.51L180.625 195.417C180.625 195.417 183.923 158.919 182.82 154.22C180.97 146.334 179.716 141.726 177.272 134.517C175.926 130.56 168.11 128.98 168.11 128.98Z" fill="#5D3004"/>
<path fill-rule="evenodd" clip-rule="evenodd" d="M151.848 164.59C151.848 164.59 157.873 158.558 159.959 157.858C162.046 157.158 173.474 156.317 173.397 157.899C173.309 159.593 165.955 159.496 165.275 160.33C164.595 161.163 163.649 167.652 161.079 168.292C158.513 168.932 153.195 170.826 153.195 170.826L129.523 183.057L132.046 170.826L151.848 164.59Z" fill="#F8AE9D"/>
<path fill-rule="evenodd" clip-rule="evenodd" d="M133.717 139.051C126.536 149.185 120.406 164.621 118.053 170.639C115.7 176.658 118.074 185.735 128.421 183.953C129.653 183.741 131.657 182.961 131.657 182.961C135.461 177.746 136.129 173.268 134.709 169.281L133.371 169.846C133.371 169.846 143.655 151.617 146.166 146.73C150.361 138.569 140.042 130.122 133.717 139.051Z" fill="#5D3004"/>
<path d="M163.46 291.288C164.321 291.288 165.156 290.994 165.828 290.456C166.5 289.917 166.968 289.166 167.155 288.326L187.565 196.779C188.092 194.411 186.291 192.165 183.866 192.165C183.004 192.165 182.168 192.459 181.496 192.998C180.823 193.537 180.355 194.289 180.167 195.13L159.764 286.678C159.237 289.043 161.037 291.288 163.46 291.288ZM321.806 291.288C320.945 291.288 320.11 290.994 319.438 290.456C318.766 289.917 318.298 289.166 318.111 288.326L297.701 196.775C297.173 194.41 298.973 192.165 301.396 192.165C302.257 192.165 303.092 192.459 303.764 192.997C304.436 193.536 304.904 194.287 305.091 195.127L325.502 286.678C326.029 289.043 324.229 291.288 321.806 291.288Z" fill="white" stroke="#E1E4E5" stroke-width="2.13333" stroke-linecap="round" stroke-linejoin="round"/>
<path fill-rule="evenodd" clip-rule="evenodd" d="M322.347 192.334V188.891C322.347 186.915 321.337 185.313 320.097 185.304H163.757C162.51 185.304 161.508 186.915 161.508 188.891V192.334C161.508 194.32 162.517 195.921 163.757 195.921H168.724C169.218 195.921 169.707 196.018 170.164 196.207C170.62 196.396 171.035 196.673 171.384 197.023C171.733 197.372 172.01 197.786 172.199 198.243C172.388 198.699 172.485 199.188 172.485 199.682C172.485 200.311 172.997 200.818 173.629 200.818H314.353C314.979 200.818 315.49 200.311 315.49 199.682C315.49 199.188 315.587 198.699 315.777 198.243C315.966 197.786 316.243 197.372 316.592 197.023C316.941 196.673 317.356 196.396 317.812 196.207C318.268 196.018 318.757 195.921 319.251 195.921H320.097C321.344 195.921 322.347 194.32 322.347 192.334Z" fill="white"/>
<path d="M320.093 185.303L320.102 184.237H320.093V185.303ZM321.276 188.891V192.334H323.41V188.891H321.276ZM320.085 186.37C320.212 186.371 320.485 186.458 320.78 186.927C321.065 187.381 321.276 188.073 321.276 188.891H323.41C323.41 187.733 323.116 186.635 322.587 185.792C322.066 184.964 321.215 184.245 320.102 184.237L320.085 186.37ZM163.754 186.37H320.093V184.237H163.754V186.37ZM162.571 188.891C162.571 188.071 162.781 187.377 163.066 186.922C163.359 186.452 163.63 186.37 163.754 186.37V184.237C162.631 184.237 161.777 184.96 161.257 185.79C160.729 186.635 160.438 187.734 160.438 188.891H162.571ZM162.571 192.334V188.891H160.438V192.334H162.571ZM163.754 194.854C163.632 194.854 163.361 194.773 163.067 194.305C162.782 193.851 162.571 193.158 162.571 192.334H160.438C160.438 193.495 160.73 194.595 161.26 195.439C161.781 196.268 162.635 196.988 163.754 196.988V194.854ZM168.721 194.854H163.754V196.988H168.721V194.854ZM173.625 199.751C173.575 199.751 173.548 199.714 173.548 199.682H171.415C171.415 200.908 172.412 201.884 173.625 201.884V199.751ZM314.349 199.751H173.625V201.884H314.349V199.751ZM314.42 199.682C314.42 199.718 314.39 199.751 314.349 199.751V201.884C314.934 201.884 315.494 201.652 315.907 201.239C316.321 200.826 316.553 200.266 316.553 199.682H314.42ZM320.093 194.854H319.248V196.988H320.093V194.854ZM321.276 192.334C321.276 193.159 321.066 193.853 320.782 194.306C320.49 194.771 320.22 194.854 320.093 194.854V196.988C321.214 196.988 322.068 196.27 322.589 195.438C323.119 194.594 323.41 193.494 323.41 192.334H321.276ZM316.553 199.682C316.553 199.328 316.623 198.977 316.758 198.651C316.894 198.324 317.092 198.027 317.342 197.777C317.593 197.526 317.89 197.328 318.217 197.193C318.543 197.057 318.894 196.988 319.248 196.988V194.854C317.967 194.854 316.739 195.363 315.834 196.268C314.929 197.174 314.42 198.401 314.42 199.682H316.553ZM168.721 196.988C169.075 196.988 169.425 197.057 169.752 197.193C170.079 197.328 170.376 197.526 170.626 197.777C170.876 198.027 171.075 198.324 171.21 198.651C171.345 198.977 171.415 199.328 171.415 199.682H173.548C173.548 198.401 173.04 197.174 172.134 196.268C171.229 195.363 170.001 194.854 168.721 194.854V196.988Z" fill="#E1E4E5"/>
<path d="M89.403 140.407C87.7444 140.407 86.3998 139.062 86.3998 137.403C86.3998 135.745 87.7444 134.4 89.403 134.4C91.0617 134.4 92.4062 135.745 92.4062 137.403C92.4062 139.062 91.0617 140.407 89.403 140.407Z" fill="#F08519"/>
<path d="M90.6422 200.444C91.0236 201.867 90.1788 203.33 88.7554 203.712C87.332 204.093 85.8689 203.248 85.4875 201.825C85.1061 200.401 85.9508 198.938 87.3742 198.557C88.7977 198.176 90.2608 199.02 90.6422 200.444Z" fill="#E1E4E5"/>
<path d="M129.412 83.899C127.451 83.899 125.862 82.3099 125.862 80.3496C125.862 78.3894 127.451 76.8003 129.412 76.8003C131.372 76.8003 132.961 78.3894 132.961 80.3496C132.961 82.3099 131.372 83.899 129.412 83.899Z" fill="#E1E4E5"/>
<path d="M407.856 123.739C407.856 125.425 406.489 126.792 404.803 126.792C403.117 126.792 401.75 125.425 401.75 123.739C401.75 122.053 403.117 120.687 404.803 120.687C406.489 120.687 407.856 122.053 407.856 123.739Z" fill="#E1E4E5"/>
<path d="M112.224 63.4668H112.298C112.734 69.5639 117.329 69.6577 117.329 69.6577C117.329 69.6577 112.262 69.7553 112.262 76.8001C112.262 69.7553 107.195 69.6577 107.195 69.6577C107.195 69.6577 111.788 69.5639 112.224 63.4668Z" fill="#E1E4E5"/>
</g>
<defs>
<filter id="filter0_f_948_30126" x="333.253" y="206.318" width="42.8304" height="42.8309" filterUnits="userSpaceOnUse" color-interpolation-filters="sRGB">
<feFlood flood-opacity="0" result="BackgroundImageFix"/>
<feBlend mode="normal" in="SourceGraphic" in2="BackgroundImageFix" result="shape"/>
<feGaussianBlur stdDeviation="2.1744" result="effect1_foregroundBlur_948_30126"/>
</filter>
<linearGradient id="paint0_linear_948_30126" x1="289.25" y1="294.918" x2="283.971" y2="-158.503" gradientUnits="userSpaceOnUse">
<stop stop-color="white"/>
<stop offset="1" stop-color="#EEEEEE"/>
</linearGradient>
<linearGradient id="paint1_linear_948_30126" x1="288.231" y1="229.877" x2="286.734" y2="101.337" gradientUnits="userSpaceOnUse">
<stop stop-color="white"/>
<stop offset="1" stop-color="#EEEEEE"/>
</linearGradient>
<linearGradient id="paint2_linear_948_30126" x1="104.379" y1="135.977" x2="103.442" y2="55.4636" gradientUnits="userSpaceOnUse">
<stop stop-color="white"/>
<stop offset="1" stop-color="#EEEEEE"/>
</linearGradient>
<linearGradient id="paint3_linear_948_30126" x1="154.326" y1="95.9372" x2="153.273" y2="5.53556" gradientUnits="userSpaceOnUse">
<stop stop-color="white"/>
<stop offset="1" stop-color="#EEEEEE"/>
</linearGradient>
<linearGradient id="paint4_linear_948_30126" x1="355.396" y1="263.937" x2="354.343" y2="173.536" gradientUnits="userSpaceOnUse">
<stop stop-color="white"/>
<stop offset="1" stop-color="#EEEEEE"/>
</linearGradient>
<clipPath id="clip0_948_30126">
<rect width="480" height="320" fill="white"/>
</clipPath>
</defs>
</svg>
