<svg width="539" height="345" viewBox="0 0 539 345" fill="none" xmlns="http://www.w3.org/2000/svg">
<g clip-path="url(#clip0_486_13149)">
<path d="M269.72 290.604C189.494 290.604 124.457 225.568 124.457 145.341C124.457 65.1148 189.494 0.078279 269.72 0.078279C349.947 0.078279 414.983 65.1148 414.983 145.341C414.983 225.568 349.947 290.604 269.72 290.604Z" fill="url(#paint0_linear_486_13149)"/>
<path d="M170.725 304.849C163.583 302.436 157.393 297.296 153.779 290.705C152.758 288.887 151.924 286.798 152.199 284.732C152.269 284.311 152.375 283.812 152.754 283.616C153.095 283.419 153.556 283.527 153.939 283.636C165.868 286.854 178.479 292.278 191 291.705C191.573 291.697 192.145 291.65 192.645 291.872C193.26 292.129 193.651 292.697 193.927 293.304C194.874 295.276 195.695 299.007 195.385 301.226C195.005 303.868 192.451 304.251 190.206 304.82C183.813 306.445 177.099 307.005 170.725 304.849Z" fill="#D17314"/>
<path d="M169.622 290.044C168.661 289.638 167.662 289.233 166.63 289.211C165.599 289.188 164.46 289.74 164.132 290.738C163.914 291.429 164.115 292.152 164.393 292.797C165.144 294.467 166.463 295.822 167.857 297.022C173.197 301.526 180.037 304.249 187.034 304.677C190.131 304.859 193.374 304.58 196.102 303.126C194.74 301.465 195.009 299.093 194.863 296.995C194.425 290.851 189.189 293.185 184.988 293.171C179.715 293.061 174.465 292.033 169.622 290.044Z" fill="#FDE0DA"/>
<path d="M329.445 244.604L329.684 245.288C331.363 250.152 332.662 255.175 333.198 260.323C334.182 269.782 332.326 280.85 325.21 287.719C315.724 296.878 300.504 298.293 288.133 296.113C283.069 295.228 278.3 293.109 274.249 289.945C270.217 293.597 265.885 297.596 262.279 301.662C255.038 299.129 248.145 295.692 241.764 291.432C226.666 298.345 211.266 303.01 195.007 306.39C193.148 301.767 191.844 296.94 191.121 292.01C190.994 291.209 201.128 284.37 202.297 283.398C205.805 280.442 213.113 273.684 213.113 273.684C213.113 273.684 203.902 265.84 199.874 262.158C195.611 258.33 191.523 254.314 187.62 250.12C184.397 246.655 181.247 242.997 179.272 238.673C177.296 234.387 176.57 229.317 178.221 224.861C183.435 210.992 204.48 215.867 214.255 220.646C222.337 224.61 229.415 230.386 236.227 236.242C238.975 238.568 241.685 240.971 244.357 243.338C246.463 241.166 248.789 238.343 250.778 236.059C252.918 233.581 255.366 231.253 258.323 229.794C261.431 228.219 264.299 228.443 267.616 227.972C269.102 227.758 270.547 227.317 271.995 227.065C276.337 226.274 280.934 227.121 284.75 229.354C288.373 231.476 291.314 233.992 295.566 234.805C300.394 235.725 306.001 235.181 310.842 234.535C315.188 233.934 319.604 232.951 323.933 233.801C325.734 234.156 326.422 236.667 327.017 238.109C327.812 240.198 328.647 242.363 329.445 244.604ZM291.087 84.6343C291.087 84.6343 302.775 82.7749 305.914 103.408C309.401 126.347 318.714 122.573 333.503 141.199C342.146 152.082 333.05 171.303 314.567 170.921C296.083 170.55 279.39 165.206 268.758 167.492C258.126 169.779 257.542 142.546 268.033 134.144C278.523 125.742 256.156 101.615 269.785 90.8704C283.415 80.126 291.087 84.6343 291.087 84.6343Z" fill="#31446C"/>
<path d="M360.95 175.617C362.015 173.427 361.951 170.882 361.566 168.507C359.9 158.315 352.758 149.798 344.571 143.557C336.357 137.3 326.955 132.832 318.313 127.225C316.07 125.764 313.822 124.192 311.247 123.402C308.672 122.614 305.679 122.699 303.553 124.359C302.051 125.524 301.183 127.325 300.679 129.128C299.572 133.073 299.996 137.251 300.671 141.253C301.515 146.301 302.754 151.297 304.788 155.936C306.419 159.679 309.073 163.531 313.062 164.264C314.216 168.736 316.593 172.928 319.926 176.136C323.738 179.813 328.572 182.218 333.589 183.897C338.211 185.448 343.266 186.46 347.915 185.013C350.675 184.17 353.106 182.548 355.482 180.893C357.603 179.483 359.804 177.941 360.95 175.617ZM319.177 168.82L316.449 164.489C317.03 164.549 317.579 164.662 318.133 164.887C319.632 165.535 320.534 167.895 319.177 168.82Z" fill="#31446C"/>
<path d="M268.616 102.779C268.475 103.545 268.449 104.348 268.501 105.264C268.81 110.614 269.96 115.881 271.909 120.874C273.1 123.835 274.558 126.754 276.619 129.206C277.475 130.224 278.444 131.164 279.71 131.527C281.014 131.889 282.658 131.941 283.952 131.615C285.093 136.335 284.617 145.242 280.542 148.589C279.297 149.602 277.817 150.235 276.336 150.792C273.45 151.906 270.444 152.754 267.437 153.41C264.01 154.15 260.275 154.703 257.869 157.223C257.568 157.533 257.269 157.958 257.39 158.376C257.47 158.642 257.664 158.83 257.895 158.98C259.791 160.517 262.133 161.36 264.476 162.165C268.584 163.554 272.803 164.712 277.094 165.488C281.575 166.298 286.203 166.686 290.741 166.197C294.25 165.8 297.712 164.907 300.897 163.33C304.233 161.675 307.651 160.325 311.103 158.745C314.024 157.402 316.904 155.868 320.066 155.323C318.572 152.481 315.453 150.886 312.347 150.13C309.242 149.414 305.995 149.349 302.853 148.747C301.818 148.533 300.783 148.282 299.895 147.646C297.462 145.887 298.128 141.981 298.089 139.422L297.966 131.326C298.328 127.463 299.921 124.23 301.319 120.694C303.453 115.276 303.893 109.119 302.014 103.571C300.135 98.0601 295.86 93.2737 290.368 91.333C284.876 89.3916 278.284 90.4847 274.068 94.5215C271.395 97.1217 269.215 99.4467 268.616 102.779Z" fill="#FDE0DA"/>
<path d="M285.504 85.5629C280.031 84.952 275.043 87.6321 271.345 91.7874C268.233 95.2708 266.405 99.8684 266.498 104.488C266.511 105.147 266.585 105.866 266.957 106.459C267.945 107.88 270.096 107.357 271.703 106.724C274.324 105.712 276.274 104.232 278.65 102.984C281.026 101.736 283.91 101.919 286.037 100.196C288.044 98.5356 294.936 95.0369 295.122 92.3328C295.356 89.0274 289.3 86.3277 286.769 85.7779C286.407 85.6653 285.985 85.6137 285.504 85.5629Z" fill="#31446C"/>
<path d="M301.275 93.0452C305.903 96.0303 308.076 101.26 308.317 106.817C308.528 111.482 307.039 116.201 304.049 119.723C303.622 120.226 303.111 120.737 302.448 120.961C300.784 121.438 299.448 119.673 298.601 118.167C297.21 115.727 296.633 113.347 295.58 110.879C294.526 108.411 292.175 106.73 291.616 104.051C291.11 101.495 287.979 94.4288 289.543 92.215C291.45 89.5051 297.85 91.2388 300.159 92.4125C300.511 92.5542 300.87 92.78 301.275 93.0452Z" fill="#31446C"/>
<path d="M260.104 156.043C259.374 155.71 258.498 155.953 258.012 156.609C252.551 164.256 250.443 173.837 248.597 183.072C246.503 193.57 244.638 204.103 242.85 214.635C242.743 215.171 242.676 215.745 242.912 216.238C243.149 216.731 243.687 216.991 244.188 217.212C247.343 218.73 250.536 220.21 253.692 221.728C257.096 213.981 259.551 205.85 261.001 197.513C263.028 202.639 266.686 207.091 271.352 210C267.875 214.98 263.596 224.939 259.422 229.319C258.783 230.016 254.832 228.93 253.949 228.638C253.4 230.213 255.972 228.531 255.958 230.136C258.332 230.481 261.366 229.06 263.806 228.756C266.742 228.405 269.721 228.398 272.667 228.697C277.565 229.234 282.325 230.766 286.676 233.068C288.839 234.22 290.915 235.529 292.886 236.985C294.586 238.258 298.795 241.25 298.795 241.25C299.104 241.475 300.551 241.147 300.893 241.065C301.892 240.896 302.897 240.766 303.905 240.676C306.437 240.479 308.957 240.147 311.453 239.682C316.444 238.766 321.35 237.355 326.057 235.412C326.51 235.061 324.893 231.724 324.807 231.076C324.892 231.686 334.164 230.934 335.077 230.767C338.734 230.024 342.433 229.624 346.088 228.843C344.451 214.122 339.957 199.905 335.541 185.8C333.814 180.249 332.049 174.699 329.601 169.465C326.995 163.889 323.631 158.668 319.587 154.031C319.471 153.919 319.279 153.846 319.127 153.886C317.186 154.374 305.352 157.418 299.465 159.609C296.465 160.762 293.425 161.802 290.347 162.841C289.13 163.242 287.876 163.643 286.615 163.624C285.774 163.599 284.931 163.42 284.126 163.241C275.923 161.418 267.719 159.442 260.104 156.043Z" fill="#F08519"/>
<path d="M313.494 185.371C313.832 187.466 314.284 189.598 314.736 191.692C315.836 196.444 317.247 201.119 318.96 205.686C319.835 207.964 320.747 210.204 321.774 212.442C322.285 213.549 322.811 214.649 323.352 215.741C323.628 216.272 323.904 216.841 324.18 217.371C324.416 217.826 324.689 218.242 324.925 218.659C323.281 218.608 315.171 219.075 313.493 219.215" stroke="white" stroke-width="0.99941" stroke-miterlimit="10" stroke-linecap="round"/>
<path d="M313.228 220.861C313.398 221.935 313.606 223.002 313.85 224.061L314.586 227.258C314.829 228.171 315.381 229.308 315.395 230.264C315.392 230.072 308.89 229.522 308.278 229.455C301.508 228.793 294.702 228.401 287.934 227.968C283.537 227.692 279.222 227.795 274.83 227.824C273.531 227.843 272.001 227.714 271.298 226.655C270.711 225.747 271.19 224.594 270.719 223.761C270.415 223.841 266.875 224.736 266.912 224.659C266.772 225.463 266.492 227.148 265.657 227.543C265.365 227.653 265.056 227.71 264.744 227.71C264.285 227.716 263.826 227.647 263.367 227.578C263.296 227.578 263.227 227.552 263.174 227.504C263.096 227.429 263.171 227.313 263.246 227.198C264.287 225.658 264.833 223.837 264.809 221.979C265.906 221.236 267 220.379 267.942 219.448C268.693 218.673 269.251 217.671 270.081 217.009C270.949 216.27 271.796 216.716 272.755 216.968C273.866 217.219 274.979 217.508 276.053 217.836C278.164 218.491 280.277 219.299 282.055 220.609C282.672 221.058 283.252 221.546 283.982 221.764C284.673 221.983 285.436 221.971 286.162 221.96C290.629 221.854 295.096 221.633 299.52 221.146C304.058 220.657 307.152 220.724 313.098 219.832C313.099 219.87 313.104 220.213 313.228 220.861Z" fill="#FDE0DA"/>
<path d="M264.027 184.946C262.96 189.564 262.189 194.226 261.667 198.984" stroke="white" stroke-width="0.99941" stroke-miterlimit="10" stroke-linecap="round"/>
<path d="M173.946 177.329L187.058 235.804L286.62 234.291C286.567 230.854 283.736 228.07 280.261 228.123L256.469 228.485L244.612 174.69C244.241 172.939 242.657 171.702 240.9 171.729L177.581 172.69C175.175 172.765 173.413 174.969 173.946 177.329Z" fill="#FCC49B"/>
<path d="M304.007 320.204C303.547 317.537 302.245 314.807 301.024 312.419C295.986 302.64 286.981 295.749 277.283 291.006C276.282 290.525 275.282 290.043 274.245 289.677C274.323 289.791 274.401 289.904 274.48 290.056L274.48 290.093H274.519C274.403 290.019 274.326 289.943 274.21 289.868C270.291 293.404 266.11 297.288 262.54 301.2C264.9 303.113 268.323 304.665 270.023 305.937C274.04 308.894 277.908 312.044 282.076 314.808C287.672 318.581 293.634 321.317 300.299 322.515C302.865 322.972 304.209 323.448 304.18 321.462C304.137 321.157 304.092 320.738 304.007 320.204Z" fill="#D17314"/>
<path d="M297.508 312.51C294.912 307.622 290.883 303.901 286.478 300.607C283.387 298.285 280.108 296.196 276.982 294.066C276.095 293.468 274.351 291.852 272.849 291.073C269.722 293.909 266.52 296.899 263.626 299.999C273.188 305.813 281.707 313.399 292.198 317.518C293.158 317.886 294.157 318.252 295.189 318.275C296.22 318.297 297.322 317.861 297.92 317.011C298.855 315.699 298.255 313.912 297.508 312.51Z" fill="#FDE0DA"/>
<path d="M113.295 299.627C113.996 299.281 114.437 298.521 114.377 297.763C114.348 297.361 114.198 296.977 113.945 296.663C113.693 296.35 113.35 296.12 112.964 296.006C112.746 295.943 112.515 295.921 112.288 295.896C110.926 295.741 109.562 295.612 108.224 295.293C107.936 295.221 107.637 295.209 107.344 295.258C107.051 295.308 106.772 295.417 106.524 295.58C105.829 296.024 105.521 296.675 105.606 297.477C105.695 298.283 106.166 298.835 106.927 299.122C107.07 299.176 107.218 299.214 107.37 299.235C108.932 299.466 110.492 299.721 112.07 299.839C112.501 299.872 112.909 299.819 113.295 299.627ZM106.999 305.194C107.291 305.796 107.79 306.202 108.413 306.358C109.944 306.738 111.491 307.09 113.074 307.152C114.52 307.208 115.483 305.852 115.01 304.503C114.738 303.732 114.143 303.295 113.346 303.211C112.319 303.105 111.322 302.877 110.308 302.712C109.985 302.659 109.685 302.546 109.378 302.447C109.004 302.324 108.602 302.317 108.224 302.425C107.846 302.534 107.509 302.753 107.256 303.055C106.749 303.652 106.649 304.485 106.999 305.194ZM102.525 301.157C102.267 300.632 101.851 300.297 101.296 300.13C100.458 299.881 99.6082 299.673 98.7498 299.509C98.3585 299.439 97.9787 299.316 97.6211 299.143C97.3614 299.012 97.0776 298.937 96.7875 298.921C96.4974 298.905 96.2071 298.949 95.9348 299.051C95.6625 299.152 95.4139 299.308 95.2047 299.51C94.9955 299.712 94.8301 299.954 94.7187 300.223C94.2648 301.319 94.8088 302.521 95.9607 302.953C96.1204 303.015 96.2852 303.064 96.4532 303.097C97.7257 303.321 98.9858 303.607 100.242 303.904C101.022 304.087 101.715 303.908 102.257 303.293C102.786 302.689 102.883 301.882 102.525 301.157ZM100.323 306.481C99.4848 306.924 99.1551 307.6 99.1434 308.437C99.1326 309.263 99.5088 309.901 100.237 310.305C100.504 310.451 100.79 310.56 101.086 310.63C102.124 310.88 103.155 311.137 104.191 311.387C104.852 311.544 105.484 311.471 106.03 311.035C106.63 310.554 106.887 309.914 106.748 309.158C106.603 308.362 106.11 307.825 105.332 307.588C104.729 307.411 104.12 307.254 103.506 307.118C103.043 307.011 102.609 306.879 102.202 306.591C101.598 306.157 100.923 306.19 100.323 306.481ZM87.9938 308.654C88.2 309.076 88.5095 309.408 88.9387 309.608C89.1777 309.724 89.4272 309.817 89.6839 309.885C90.5511 310.1 91.4104 310.339 92.2696 310.577C93.5719 310.937 94.7637 310.103 94.8335 308.812C94.8778 308.002 94.4231 307.274 93.6285 306.908C93.038 306.635 92.4098 306.477 91.7815 306.328C91.4452 306.248 91.1344 306.141 90.8344 305.962C90.0224 305.475 89.108 305.594 88.4187 306.239C87.7657 306.852 87.5921 307.832 87.9938 308.654ZM124.68 298.17C124.451 297.75 124.143 297.45 123.735 297.264C123.46 297.131 123.164 297.047 122.86 297.014C122.049 296.937 121.233 296.834 120.417 296.799C118.939 296.736 117.933 298.046 118.4 299.427C118.643 300.151 119.185 300.576 119.928 300.725C120.167 300.772 120.419 300.77 120.663 300.801C121.322 300.877 121.987 300.908 122.646 301.012C123.424 301.138 124.072 300.848 124.526 300.2C124.986 299.554 124.995 298.858 124.68 298.17ZM101.682 290.215C100.907 290.613 100.498 291.324 100.558 292.11C100.623 292.957 101.068 293.522 101.848 293.829C102.023 293.903 102.21 293.947 102.4 293.958C103.121 293.995 103.843 294.016 104.565 294.021C104.969 294.02 105.362 293.89 105.688 293.65C106.356 293.163 106.655 292.368 106.46 291.587C106.26 290.795 105.635 290.186 104.833 290.109C104.04 290.034 103.238 290.034 102.442 290.017C102.152 290.009 101.877 290.099 101.682 290.215Z" fill="#E1E4E5"/>
<path d="M485.173 133.904C485.173 133.904 490.654 112.876 482.191 103.376C473.101 93.1572 466.31 103.241 473.459 117.632C478.361 127.512 485.173 133.904 485.173 133.904ZM488.698 157.197C488.698 157.197 507.645 146.504 508.541 133.85C509.513 120.256 497.514 122.409 492.169 137.526C488.521 147.892 488.698 157.197 488.698 157.197ZM488.668 171.015C488.668 171.015 468.119 163.667 465.001 151.363C461.643 138.13 473.853 138.236 481.771 152.221C487.19 161.812 488.668 171.015 488.668 171.015ZM487.653 181.005C487.653 181.005 509.387 179.257 515.533 168.181C522.144 156.262 510.32 153.197 499.104 164.647C491.418 172.484 487.653 181.005 487.653 181.005Z" fill="#FAB887"/>
<path d="M480.853 115.186C485.092 128.363 488.306 141.901 489.336 155.713C490.346 169.31 489.176 182.947 486.499 196.288C485.803 199.788 484.997 203.275 484.121 206.727L482.8 206.043C485.105 196.853 486.881 187.522 487.72 178.07C488.896 164.933 488.121 151.706 485.581 138.766C484.04 130.933 481.92 123.225 479.478 115.629C479.191 114.735 480.573 114.309 480.853 115.186Z" fill="#31446C"/>
<path d="M148.3 214.075C148.3 214.075 151.602 197.977 144.833 191.14C137.562 183.785 132.834 191.669 138.806 202.253C142.902 209.519 148.3 214.075 148.3 214.075ZM151.89 231.525C151.89 231.525 165.773 222.695 165.946 213.104C166.138 202.799 157.162 204.902 153.728 216.532C151.386 224.505 151.89 231.525 151.89 231.525ZM152.417 241.962C152.417 241.962 136.607 237.23 133.762 228.062C130.699 218.203 139.924 217.797 146.461 228.043C150.935 235.07 152.417 241.962 152.417 241.962ZM152.049 249.545C152.049 249.545 168.392 247.36 172.592 238.751C177.11 229.487 168.058 227.643 160.045 236.736C154.553 242.96 152.049 249.545 152.049 249.545Z" fill="#FAB887"/>
<path d="M144.289 200.111C148.015 209.893 150.982 219.989 152.309 230.379C153.614 240.606 153.273 250.952 151.783 261.133C151.392 263.803 150.932 266.464 150.403 269.11L149.378 268.646C150.753 261.615 151.723 254.497 151.98 247.326C152.344 237.358 151.232 227.401 148.799 217.729C147.323 211.876 145.415 206.14 143.269 200.5C143.017 199.837 144.043 199.46 144.289 200.111Z" fill="#31446C"/>
<path d="M74.3254 154.981C74.3254 154.981 77.6273 138.883 70.858 132.046C63.5869 124.691 58.8593 132.576 64.8318 143.16C68.9275 150.425 74.3254 154.981 74.3254 154.981ZM77.9157 172.431C77.9157 172.431 91.7977 163.602 91.9706 154.01C92.163 143.705 83.1879 145.808 79.7539 157.438C77.4116 165.412 77.9157 172.431 77.9157 172.431ZM78.4429 182.868C78.4429 182.868 62.6318 178.137 59.7868 168.968C56.7247 159.109 65.9496 158.703 72.4857 168.95C76.9605 175.977 78.4429 182.868 78.4429 182.868ZM78.074 190.451C78.074 190.451 94.4168 188.266 98.6171 179.657C103.135 170.394 94.0842 168.549 86.07 177.642C80.5783 183.867 78.074 190.451 78.074 190.451Z" fill="#FAB887"/>
<path d="M70.3168 141.018C74.0421 150.8 77.0084 160.896 78.3368 171.286C79.6405 181.513 79.2999 191.858 77.8102 202.039C77.4238 204.711 76.9532 207.376 76.4295 210.017L75.4047 209.553C76.7796 202.522 77.7492 195.404 78.0064 188.233C78.3717 178.265 77.2589 168.308 74.8265 158.636C73.3499 152.783 71.4426 147.047 69.2956 141.407C69.0436 140.743 70.0699 140.367 70.3168 141.018Z" fill="#31446C"/>
<path d="M238.239 326.753C238.939 326.407 239.38 325.647 239.321 324.889C239.292 324.487 239.141 324.104 238.889 323.79C238.636 323.476 238.294 323.246 237.907 323.132C237.69 323.07 237.458 323.046 237.232 323.022C235.87 322.868 234.507 322.738 233.167 322.42C232.879 322.347 232.58 322.336 232.287 322.385C231.995 322.434 231.716 322.544 231.468 322.707C230.773 323.15 230.464 323.801 230.55 324.603C230.638 325.409 231.109 325.96 231.87 326.249C232.013 326.302 232.162 326.34 232.313 326.361C233.875 326.592 235.435 326.847 237.013 326.965C237.444 326.998 237.853 326.946 238.239 326.753ZM231.943 332.319C232.235 332.923 232.734 333.327 233.356 333.484C234.888 333.863 236.434 334.216 238.017 334.279C239.463 334.334 240.427 332.977 239.953 331.629C239.681 330.858 239.086 330.421 238.289 330.337C237.262 330.23 236.265 330.004 235.251 329.837C234.928 329.784 234.629 329.672 234.321 329.572C233.947 329.45 233.545 329.443 233.167 329.551C232.789 329.659 232.452 329.879 232.2 330.18C231.692 330.778 231.592 331.611 231.943 332.319ZM227.468 328.284C227.211 327.759 226.794 327.423 226.239 327.257C225.401 327.007 224.552 326.799 223.693 326.634C223.302 326.565 222.922 326.442 222.564 326.268C222.305 326.138 222.021 326.063 221.731 326.047C221.441 326.031 221.15 326.075 220.878 326.176C220.606 326.278 220.357 326.434 220.148 326.636C219.939 326.837 219.773 327.08 219.662 327.348C219.208 328.444 219.752 329.647 220.904 330.079C221.064 330.141 221.228 330.19 221.396 330.224C222.668 330.447 223.929 330.733 225.186 331.03C225.965 331.213 226.658 331.034 227.2 330.419C227.729 329.815 227.826 329.007 227.468 328.284ZM225.267 333.606C224.429 334.049 224.098 334.726 224.087 335.562C224.076 336.389 224.453 337.027 225.181 337.431C225.448 337.577 225.734 337.686 226.03 337.756C227.067 338.006 228.098 338.263 229.135 338.513C229.796 338.669 230.428 338.597 230.974 338.161C231.574 337.68 231.831 337.04 231.692 336.284C231.547 335.487 231.054 334.951 230.276 334.715C229.675 334.533 229.066 334.384 228.45 334.243C227.986 334.137 227.553 334.005 227.146 333.717C226.542 333.283 225.866 333.316 225.267 333.606ZM212.936 335.779C213.143 336.201 213.453 336.533 213.882 336.734C214.121 336.85 214.371 336.943 214.627 337.011C215.494 337.226 216.354 337.465 217.213 337.703C218.515 338.064 219.707 337.228 219.777 335.938C219.821 335.128 219.366 334.401 218.572 334.034C217.981 333.762 217.353 333.603 216.725 333.455C216.389 333.374 216.078 333.267 215.778 333.088C214.966 332.601 214.051 332.72 213.362 333.365C212.709 333.979 212.535 334.959 212.936 335.779ZM249.623 325.297C249.395 324.876 249.087 324.577 248.678 324.389C248.403 324.257 248.107 324.173 247.803 324.14C246.992 324.063 246.176 323.961 245.361 323.925C243.883 323.862 242.877 325.172 243.344 326.553C243.586 327.276 244.129 327.702 244.871 327.851C245.11 327.898 245.362 327.897 245.607 327.927C246.266 328.004 246.93 328.033 247.589 328.139C248.368 328.264 249.015 327.974 249.469 327.327C249.93 326.681 249.939 325.984 249.623 325.297ZM226.626 317.342C225.85 317.739 225.442 318.45 225.502 319.236C225.566 320.082 226.011 320.647 226.791 320.955C226.966 321.029 227.153 321.073 227.343 321.085C228.066 321.119 228.787 321.145 229.509 321.147C229.913 321.146 230.306 321.016 230.631 320.776C231.299 320.289 231.599 319.495 231.404 318.713C231.203 317.921 230.579 317.312 229.777 317.236C228.984 317.16 228.182 317.16 227.386 317.143C227.095 317.136 226.821 317.225 226.626 317.342ZM357.43 314.423C358.13 314.077 358.571 313.317 358.512 312.559C358.483 312.157 358.332 311.774 358.079 311.46C357.827 311.146 357.484 310.916 357.098 310.802C356.88 310.74 356.649 310.717 356.422 310.692C355.06 310.538 353.697 310.408 352.358 310.09C352.07 310.017 351.771 310.005 351.478 310.055C351.186 310.104 350.907 310.214 350.659 310.377C349.964 310.82 349.654 311.471 349.741 312.273C349.829 313.078 350.301 313.63 351.06 313.919C351.204 313.972 351.352 314.01 351.504 314.031C353.066 314.262 354.626 314.517 356.204 314.635C356.635 314.668 357.044 314.616 357.43 314.423ZM351.133 319.989C351.425 320.593 351.924 320.998 352.547 321.154C354.078 321.534 355.625 321.887 357.208 321.949C358.653 322.003 359.618 320.647 359.144 319.299C358.872 318.528 358.276 318.091 357.48 318.007C356.453 317.9 355.455 317.674 354.441 317.508C354.119 317.455 353.819 317.342 353.512 317.242C353.138 317.12 352.736 317.113 352.358 317.221C351.98 317.329 351.643 317.549 351.39 317.85C350.883 318.448 350.783 319.281 351.133 319.989ZM346.659 315.953C346.401 315.429 345.985 315.093 345.429 314.926C344.592 314.677 343.742 314.469 342.884 314.305C342.492 314.235 342.113 314.112 341.755 313.938C341.495 313.808 341.211 313.733 340.921 313.717C340.631 313.701 340.341 313.745 340.069 313.847C339.796 313.948 339.548 314.104 339.339 314.306C339.129 314.507 338.964 314.75 338.853 315.018C338.399 316.114 338.943 317.317 340.095 317.749C340.254 317.811 340.419 317.86 340.587 317.894C341.859 318.117 343.12 318.403 344.376 318.7C345.156 318.883 345.848 318.704 346.391 318.089C346.92 317.485 347.016 316.677 346.659 315.953ZM344.458 321.276C343.619 321.719 343.289 322.396 343.278 323.232C343.266 324.059 343.643 324.697 344.371 325.101C344.639 325.247 344.924 325.356 345.221 325.426C346.257 325.676 347.289 325.933 348.326 326.183C348.987 326.34 349.619 326.267 350.165 325.831C350.764 325.35 351.022 324.71 350.883 323.954C350.737 323.158 350.244 322.621 349.467 322.385C348.866 322.203 348.256 322.054 347.641 321.913C347.177 321.807 346.743 321.675 346.337 321.387C345.733 320.953 345.057 320.986 344.458 321.276ZM332.128 323.45C332.334 323.872 332.643 324.203 333.073 324.404C333.312 324.52 333.561 324.612 333.818 324.681C334.685 324.896 335.544 325.135 336.403 325.373C337.706 325.734 338.898 324.899 338.967 323.608C339.012 322.798 338.557 322.071 337.762 321.704C337.172 321.431 336.544 321.273 335.915 321.125C335.579 321.044 335.268 320.937 334.968 320.758C334.156 320.271 333.242 320.39 332.553 321.035C331.9 321.649 331.726 322.628 332.128 323.45ZM368.814 312.967C368.585 312.546 368.277 312.247 367.869 312.059C367.593 311.927 367.297 311.843 366.994 311.81C366.182 311.733 365.367 311.631 364.552 311.595C363.074 311.532 362.067 312.842 362.534 314.222C362.777 314.947 363.319 315.372 364.062 315.521C364.301 315.568 364.553 315.567 364.797 315.597C365.456 315.674 366.121 315.703 366.779 315.809C367.559 315.934 368.206 315.644 368.66 314.997C369.12 314.351 369.13 313.654 368.814 312.967ZM345.817 305.012C345.041 305.409 344.633 306.12 344.692 306.906C344.757 307.752 345.202 308.317 345.981 308.625C346.157 308.699 346.343 308.743 346.533 308.755C347.257 308.789 347.977 308.815 348.699 308.817C349.106 308.819 349.484 308.686 349.821 308.446C350.49 307.959 350.79 307.164 350.594 306.383C350.394 305.591 349.769 304.982 348.967 304.906C348.175 304.83 347.372 304.83 346.576 304.813C346.286 304.806 346.011 304.895 345.817 305.012ZM436.342 289.763C437.042 289.417 437.483 288.657 437.424 287.899C437.395 287.497 437.244 287.113 436.992 286.799C436.739 286.486 436.397 286.256 436.01 286.142C435.792 286.079 435.561 286.057 435.334 286.032C433.972 285.877 432.609 285.748 431.27 285.429C430.983 285.357 430.683 285.345 430.391 285.394C430.098 285.444 429.819 285.553 429.571 285.716C428.876 286.16 428.566 286.811 428.653 287.613C428.741 288.419 429.213 288.971 429.973 289.258C430.116 289.312 430.265 289.35 430.416 289.371C431.978 289.602 433.538 289.857 435.116 289.975C435.547 290.007 435.956 289.956 436.342 289.763ZM430.045 295.33C430.338 295.932 430.836 296.338 431.459 296.494C432.99 296.873 434.537 297.226 436.121 297.288C437.566 297.344 438.53 295.988 438.056 294.64C437.785 293.868 437.188 293.431 436.392 293.347C435.365 293.241 434.368 293.013 433.354 292.848C433.031 292.794 432.731 292.681 432.424 292.583C432.05 292.46 431.648 292.453 431.27 292.561C430.892 292.67 430.555 292.889 430.302 293.191C429.795 293.788 429.696 294.621 430.045 295.33ZM425.572 291.293C425.314 290.768 424.897 290.433 424.341 290.266C423.504 290.017 422.654 289.809 421.796 289.645C421.404 289.575 421.025 289.452 420.667 289.279C420.407 289.148 420.124 289.073 419.833 289.057C419.543 289.041 419.253 289.085 418.981 289.186C418.708 289.288 418.46 289.444 418.251 289.645C418.041 289.847 417.876 290.09 417.765 290.358C417.311 291.455 417.855 292.657 419.007 293.088C419.166 293.151 419.331 293.2 419.5 293.233C420.772 293.456 422.032 293.743 423.288 294.04C424.068 294.223 424.761 294.043 425.303 293.429C425.832 292.825 425.929 292.017 425.572 291.293ZM423.37 296.617C422.531 297.06 422.202 297.736 422.19 298.572C422.179 299.399 422.555 300.037 423.283 300.441C423.551 300.587 423.836 300.696 424.133 300.766C425.17 301.016 426.201 301.273 427.239 301.523C427.899 301.679 428.531 301.606 429.077 301.171C429.677 300.69 429.934 300.05 429.795 299.294C429.649 298.498 429.156 297.961 428.379 297.724C427.776 297.547 427.167 297.39 426.554 297.253C426.09 297.146 425.656 297.015 425.249 296.726C424.646 296.293 423.969 296.326 423.37 296.617ZM411.04 298.789C411.246 299.211 411.555 299.544 411.985 299.744C412.224 299.86 412.473 299.953 412.73 300.021C413.597 300.236 414.456 300.475 415.316 300.713C416.618 301.073 417.81 300.239 417.88 298.948C417.924 298.138 417.469 297.41 416.674 297.044C416.085 296.771 415.456 296.613 414.827 296.464C414.492 296.384 414.18 296.277 413.88 296.098C413.069 295.611 412.154 295.73 411.465 296.375C410.812 296.988 410.639 297.968 411.04 298.789ZM447.727 288.306C447.497 287.886 447.19 287.586 446.781 287.4C446.506 287.267 446.21 287.183 445.906 287.15C445.094 287.073 444.279 286.97 443.464 286.935C441.986 286.872 440.98 288.182 441.446 289.563C441.689 290.286 442.231 290.712 442.974 290.86C443.213 290.908 443.465 290.906 443.709 290.937C444.368 291.013 445.033 291.044 445.691 291.148C446.471 291.274 447.118 290.984 447.573 290.336C448.032 289.69 448.042 288.994 447.727 288.306ZM424.729 280.351C423.954 280.749 423.545 281.46 423.604 282.246C423.67 283.093 424.115 283.658 424.894 283.965C425.069 284.039 425.256 284.083 425.445 284.094C426.17 284.128 426.889 284.155 427.611 284.157C428.015 284.156 428.409 284.026 428.734 283.786C429.402 283.299 429.702 282.504 429.507 281.723C429.306 280.931 428.681 280.322 427.879 280.245C427.087 280.17 426.285 280.17 425.488 280.153C425.198 280.145 424.923 280.235 424.729 280.351ZM516.076 324.287C516.777 323.941 517.218 323.181 517.158 322.423C517.129 322.021 516.978 321.638 516.726 321.324C516.473 321.01 516.131 320.781 515.745 320.666C515.527 320.604 515.296 320.581 515.068 320.556C513.707 320.402 512.343 320.272 511.005 319.954C510.717 319.882 510.417 319.87 510.125 319.919C509.832 319.969 509.553 320.078 509.305 320.241C508.61 320.684 508.301 321.335 508.387 322.137C508.475 322.943 508.947 323.495 509.707 323.783C509.85 323.836 509.998 323.874 510.15 323.895C511.712 324.126 513.272 324.381 514.85 324.499C515.281 324.532 515.69 324.48 516.076 324.287ZM509.779 329.853C510.072 330.457 510.57 330.862 511.193 331.018C512.725 331.398 514.272 331.751 515.854 331.813C517.3 331.868 518.264 330.512 517.79 329.163C517.519 328.392 516.923 327.955 516.127 327.871C515.099 327.765 514.102 327.538 513.088 327.372C512.765 327.319 512.465 327.206 512.158 327.107C511.784 326.984 511.382 326.977 511.004 327.085C510.626 327.194 510.289 327.413 510.036 327.714C509.529 328.312 509.43 329.145 509.779 329.853ZM505.306 325.818C505.048 325.293 504.631 324.957 504.076 324.79C503.238 324.541 502.388 324.333 501.53 324.169C501.139 324.099 500.759 323.976 500.401 323.803C500.141 323.672 499.858 323.597 499.568 323.581C499.277 323.565 498.987 323.609 498.715 323.711C498.442 323.812 498.194 323.968 497.985 324.17C497.776 324.372 497.61 324.614 497.499 324.883C497.045 325.979 497.59 327.181 498.741 327.613C498.901 327.676 499.066 327.724 499.234 327.758C500.506 327.981 501.766 328.267 503.022 328.564C503.802 328.747 504.495 328.568 505.037 327.953C505.566 327.349 505.663 326.541 505.306 325.818ZM503.104 331.14C502.266 331.584 501.936 332.26 501.924 333.096C501.913 333.923 502.29 334.561 503.017 334.965C503.285 335.111 503.571 335.22 503.867 335.29C504.904 335.54 505.936 335.798 506.972 336.047C507.633 336.204 508.265 336.131 508.811 335.695C509.411 335.214 509.668 334.574 509.529 333.818C509.383 333.022 508.89 332.485 508.113 332.249C507.512 332.067 506.902 331.918 506.287 331.777C505.823 331.671 505.39 331.539 504.983 331.251C504.379 330.817 503.704 330.85 503.104 331.14ZM490.774 333.314C490.98 333.736 491.289 334.068 491.719 334.268C491.958 334.384 492.208 334.477 492.464 334.545C493.331 334.76 494.19 334.999 495.05 335.237C496.353 335.598 497.544 334.763 497.614 333.472C497.658 332.662 497.203 331.935 496.409 331.568C495.818 331.295 495.19 331.138 494.562 330.989C494.225 330.908 493.914 330.801 493.614 330.622C492.802 330.135 491.888 330.254 491.199 330.899C490.546 331.513 490.372 332.493 490.774 333.314ZM527.461 322.831C527.231 322.41 526.924 322.111 526.515 321.924C526.24 321.791 525.944 321.707 525.641 321.674C524.829 321.597 524.014 321.495 523.198 321.459C521.72 321.396 520.714 322.707 521.18 324.087C521.423 324.811 521.965 325.236 522.708 325.385C522.947 325.432 523.199 325.431 523.443 325.461C524.102 325.538 524.767 325.567 525.426 325.673C526.205 325.798 526.852 325.508 527.307 324.861C527.767 324.215 527.776 323.518 527.461 322.831ZM504.463 314.876C503.688 315.273 503.279 315.984 503.338 316.77C503.404 317.617 503.849 318.182 504.628 318.489C504.802 318.559 504.994 318.611 505.18 318.619C505.904 318.653 506.623 318.679 507.345 318.681C507.752 318.683 508.13 318.551 508.468 318.31C509.137 317.823 509.436 317.028 509.241 316.247C509.04 315.455 508.415 314.846 507.613 314.77C506.821 314.694 506.019 314.694 505.222 314.677C504.933 314.67 504.657 314.759 504.463 314.876ZM48.3561 333.329C49.057 332.983 49.4979 332.223 49.4384 331.464C49.4094 331.063 49.2585 330.679 49.0058 330.365C48.7531 330.051 48.4106 329.822 48.0242 329.708C47.807 329.645 47.5761 329.623 47.3487 329.598C45.9869 329.443 44.6236 329.314 43.285 328.996C42.9973 328.923 42.6977 328.911 42.4051 328.961C42.1125 329.01 41.8334 329.12 41.5854 329.283C40.8904 329.726 40.5809 330.377 40.6674 331.179C40.7552 331.984 41.2273 332.536 41.9871 332.825C42.1303 332.878 42.2789 332.916 42.4301 332.937C43.9925 333.168 45.5526 333.423 47.1301 333.541C47.5616 333.574 47.9705 333.522 48.3561 333.329ZM42.0597 338.895C42.3517 339.499 42.8507 339.904 43.4731 340.06C45.0049 340.44 46.552 340.793 48.1346 340.855C49.5807 340.91 50.5445 339.553 50.0703 338.205C49.7986 337.434 49.203 336.997 48.407 336.913C47.3793 336.806 46.3828 336.58 45.3681 336.414C45.0456 336.361 44.7456 336.248 44.4384 336.148C44.0645 336.026 43.6626 336.019 43.2844 336.127C42.9062 336.235 42.5692 336.455 42.3168 336.756C41.8091 337.354 41.7096 338.187 42.0597 338.895ZM37.5863 334.859C37.3285 334.335 36.9116 333.999 36.356 333.832C35.5183 333.582 34.6687 333.375 33.8102 333.21C33.4189 333.141 33.0392 333.018 32.6815 332.844C32.4218 332.714 32.1381 332.639 31.848 332.623C31.5578 332.607 31.2675 332.651 30.9952 332.753C30.7229 332.854 30.4743 333.01 30.2651 333.212C30.0559 333.413 29.8905 333.656 29.7792 333.924C29.3252 335.02 29.87 336.223 31.0212 336.655C31.181 336.717 31.3461 336.766 31.5143 336.8C32.7861 337.023 34.0463 337.309 35.3028 337.606C36.0821 337.789 36.7751 337.61 37.3176 336.995C37.8464 336.391 37.9437 335.583 37.5863 334.859ZM35.3841 340.182C34.546 340.625 34.2155 341.302 34.2046 342.138C34.193 342.965 34.5692 343.603 35.297 344.007C35.5645 344.153 35.8503 344.262 36.1468 344.332C37.184 344.582 38.2153 344.84 39.2525 345.089C39.9128 345.246 40.5453 345.173 41.0908 344.737C41.6908 344.256 41.9486 343.616 41.8084 342.86C41.6631 342.064 41.1707 341.527 40.3928 341.291C39.7899 341.113 39.1812 340.956 38.5676 340.819C38.1035 340.713 37.6699 340.581 37.2631 340.293C36.6595 339.859 35.9833 339.892 35.3841 340.182ZM23.0542 342.356C23.2605 342.778 23.5699 343.109 23.9999 343.31C24.2386 343.426 24.4879 343.518 24.7443 343.587C25.6116 343.802 26.4708 344.041 27.33 344.279C28.633 344.64 29.8242 343.805 29.8947 342.514C29.9382 341.704 29.4836 340.977 28.689 340.61C28.0985 340.337 27.4702 340.179 26.8419 340.031C26.5064 339.95 26.1948 339.843 25.8949 339.664C25.0828 339.177 24.1684 339.296 23.4791 339.941C22.8261 340.555 22.6526 341.535 23.0542 342.356ZM59.7404 331.873C59.5116 331.452 59.2037 331.153 58.7955 330.965C58.52 330.833 58.224 330.749 57.9203 330.716C57.1089 330.639 56.2933 330.537 55.4777 330.501C53.9996 330.438 52.9937 331.748 53.46 333.129C53.7033 333.853 54.2451 334.278 54.9881 334.427C55.2271 334.474 55.4791 334.473 55.7239 334.503C56.3827 334.58 57.0472 334.609 57.706 334.715C58.4854 334.84 59.1325 334.55 59.5864 333.903C60.0469 333.257 60.0557 332.56 59.7404 331.873ZM36.7424 323.918C35.9674 324.315 35.5592 325.026 35.6187 325.812C35.6833 326.658 36.1286 327.223 36.908 327.531C37.0834 327.605 37.27 327.649 37.46 327.661C38.1834 327.695 38.9039 327.721 39.6251 327.723C40.0293 327.722 40.4226 327.592 40.748 327.352C41.4162 326.865 41.7162 326.07 41.5208 325.289C41.3203 324.497 40.6957 323.888 39.8939 323.812C39.1007 323.736 38.2989 323.736 37.5028 323.719C37.2123 323.712 36.9377 323.801 36.7424 323.918Z" fill="#E1E4E5"/>
<path d="M443.666 161.874C443.666 161.874 452.507 127.959 438.858 112.638C424.199 96.1568 413.244 112.42 424.775 135.63C432.682 151.564 443.666 161.874 443.666 161.874ZM449.352 199.44C449.352 199.44 479.909 182.194 481.355 161.787C482.922 139.862 463.571 143.334 454.951 167.716C449.067 184.434 449.352 199.44 449.352 199.44ZM449.303 221.727C449.303 221.727 416.161 209.875 411.132 190.03C405.717 168.688 425.41 168.86 438.18 191.415C446.919 206.884 449.303 221.727 449.303 221.727ZM447.666 237.837C447.666 237.837 482.718 235.017 492.63 217.154C503.292 197.932 484.223 192.989 466.134 211.454C453.739 224.094 447.666 237.837 447.666 237.837Z" fill="#B26110"/>
<path d="M436.697 131.685C443.533 152.937 448.716 174.771 450.379 197.047C452.008 218.975 450.12 240.97 445.803 262.485C444.681 268.131 443.38 273.755 441.967 279.32L439.838 278.218C443.555 263.397 446.419 248.347 447.773 233.104C449.669 211.916 448.418 190.584 444.323 169.714C441.837 157.082 438.418 144.651 434.48 132.4C434.018 130.958 436.245 130.271 436.697 131.685Z" fill="#31446C"/>
<path d="M388.592 181.602C388.592 181.602 397.433 147.688 383.784 132.367C369.125 115.885 358.17 132.148 369.701 155.358C377.607 171.292 388.592 181.602 388.592 181.602ZM394.278 219.168C394.278 219.168 424.835 201.922 426.281 181.515C427.848 159.591 408.496 163.062 399.877 187.444C393.993 204.162 394.278 219.168 394.278 219.168ZM394.229 241.454C394.229 241.454 361.087 229.603 356.058 209.758C350.643 188.417 370.335 188.588 383.106 211.144C391.845 226.612 394.229 241.454 394.229 241.454ZM392.592 257.565C392.592 257.565 427.644 254.746 437.556 236.882C448.218 217.661 429.149 212.718 411.06 231.183C398.665 243.822 392.592 257.565 392.592 257.565Z" fill="#F08519"/>
<path d="M381.624 151.413C388.459 172.664 393.643 194.5 395.305 216.776C396.934 238.704 395.046 260.698 390.73 282.214C389.607 287.859 388.307 293.482 386.893 299.049L384.764 297.946C388.481 283.125 391.346 268.075 392.699 252.832C394.595 231.644 393.344 210.312 389.249 189.441C386.763 176.81 383.344 164.379 379.406 152.128C378.944 150.686 381.171 150 381.624 151.413Z" fill="#31446C"/>
<path d="M70.8843 235.01C70.8843 235.01 76.3658 213.983 67.9028 204.482C58.8137 194.263 52.0211 204.347 59.171 218.739C64.0736 228.618 70.8843 235.01 70.8843 235.01ZM74.4098 258.304C74.4098 258.304 93.3572 247.61 94.2528 234.956C95.2246 221.363 83.2258 223.516 77.8816 238.633C74.2333 248.999 74.4098 258.304 74.4098 258.304ZM74.3793 272.122C74.3793 272.122 53.8304 264.773 50.7116 252.469C47.3538 239.236 59.5639 239.343 67.4822 253.328C72.9012 262.919 74.3793 272.122 74.3793 272.122ZM73.3646 282.111C73.3646 282.111 95.0982 280.363 101.244 269.287C107.855 257.369 96.0315 254.303 84.8157 265.753C77.1298 273.59 73.3646 282.111 73.3646 282.111Z" fill="#F08519"/>
<path d="M66.5617 216.293C70.7997 229.47 74.0137 243.008 75.0443 256.82C76.0546 270.417 74.8838 284.054 72.2073 297.395C71.5115 300.895 70.7053 304.382 69.8294 307.833L68.5089 307.15C70.8135 297.96 72.5894 288.628 73.429 279.177C74.6049 266.039 73.8292 252.813 71.29 239.872C69.748 232.04 67.6286 224.332 65.186 216.736C64.8999 215.842 66.2806 215.416 66.5617 216.293Z" fill="#31446C"/>
<path d="M152.045 133.904C152.045 133.904 157.526 112.876 149.063 103.376C139.974 93.1572 133.181 103.241 140.33 117.632C145.234 127.512 152.045 133.904 152.045 133.904ZM155.57 157.197C155.57 157.197 174.517 146.504 175.413 133.85C176.385 120.256 164.386 122.409 159.041 137.526C155.393 147.892 155.57 157.197 155.57 157.197ZM155.54 171.015C155.54 171.015 134.99 163.667 131.872 151.363C128.514 138.13 140.724 138.236 148.642 152.221C154.061 161.812 155.54 171.015 155.54 171.015ZM154.525 181.005C154.525 181.005 176.258 179.257 182.404 168.18C189.015 156.262 177.191 153.197 165.976 164.647C158.29 172.484 154.525 181.005 154.525 181.005Z" fill="#B26110"/>
<path d="M147.724 115.186C151.962 128.363 155.176 141.901 156.206 155.713C157.216 169.31 156.046 182.947 153.369 196.288C152.668 199.788 151.875 203.269 150.991 206.727L149.67 206.043C151.975 196.853 153.751 187.522 154.591 178.07C155.767 164.932 154.991 151.706 152.452 138.766C150.91 130.933 148.79 123.225 146.348 115.629C146.062 114.735 147.442 114.309 147.724 115.186Z" fill="#31446C"/>
<path d="M118.028 180.069C118.028 180.069 125.27 152.289 114.089 139.739C102.082 126.238 93.1084 139.56 102.553 158.572C109.031 171.624 118.028 180.069 118.028 180.069ZM122.686 210.842C122.686 210.842 147.717 196.716 148.901 179.999C150.184 162.039 134.333 164.883 127.272 184.855C122.452 198.549 122.686 210.842 122.686 210.842ZM122.646 229.098C122.646 229.098 95.4987 219.389 91.379 203.133C86.9427 185.652 103.073 185.792 113.535 204.268C120.694 216.939 122.646 229.098 122.646 229.098ZM121.305 242.294C121.305 242.294 150.017 239.984 158.137 225.351C166.871 209.607 151.25 205.558 136.433 220.683C126.28 231.037 121.305 242.294 121.305 242.294Z" fill="#F08519"/>
<path d="M112.318 155.341C117.918 172.749 122.164 190.634 123.526 208.881C124.86 226.844 123.313 244.861 119.778 262.485C118.858 267.109 117.793 271.716 116.635 276.275L114.891 275.372C117.936 263.232 120.282 250.903 121.391 238.417C122.944 221.061 121.92 203.587 118.565 186.491C116.528 176.144 113.728 165.962 110.502 155.926C110.124 154.745 111.947 154.183 112.318 155.341Z" fill="#31446C"/>
<path d="M508.27 230.954C508.27 230.954 523.585 206.671 516.73 191.325C509.373 174.822 496.787 184.801 500.032 205.781C502.252 220.181 508.27 230.954 508.27 230.954ZM503.39 261.693C503.39 261.693 531.524 255.81 537.714 240.236C544.376 223.509 528.408 221.419 515.631 238.315C506.89 249.907 503.39 261.693 503.39 261.693ZM497.823 279.079C497.823 279.079 474.89 261.605 475.887 244.865C476.954 226.861 492.284 231.88 496.659 252.656C499.644 266.9 497.823 279.079 497.823 279.079ZM492.549 291.249C492.549 291.249 520.612 297.743 532.782 286.257C545.874 273.896 532.213 265.306 513.511 275.235C500.699 282.027 492.549 291.249 492.549 291.249Z" fill="#F08519"/>
<path d="M510.318 205.658C510.383 223.944 509.013 242.276 504.784 260.078C500.617 277.601 493.687 294.304 484.98 310.03C482.703 314.158 480.293 318.226 477.809 322.221L476.42 320.832C482.999 310.183 488.968 299.145 493.805 287.581C500.543 271.511 504.858 254.547 506.838 237.238C508.03 226.76 508.444 216.207 508.409 205.666C508.406 204.426 510.315 204.442 510.318 205.658Z" fill="#31446C"/>
<path d="M377.917 312.853C377.73 312.285 377.336 311.829 377.037 311.326C374.816 307.539 372.913 303.606 371.457 299.456C370.57 296.933 369.695 294.405 369.103 291.795C368.58 289.5 368.127 287.194 367.892 284.847C367.769 283.629 367.651 282.418 367.611 281.195C367.587 280.539 367.476 279.884 367.528 279.228C367.628 278.034 367.593 276.828 367.91 275.658C367.969 275.441 368.028 275.219 368.115 275.014C368.614 273.814 369.737 273.574 370.688 274.447C371.146 274.868 371.475 275.383 371.78 275.915C373.195 278.38 374.37 280.961 375.41 283.6C377.007 287.65 378.446 291.759 379.785 295.898C380.026 296.646 380.261 297.402 380.602 298.145C380.602 297.741 380.66 297.326 380.589 296.933C380.478 296.365 380.513 295.804 380.478 295.242C380.261 291.753 380.29 288.259 380.378 284.765C380.413 283.372 380.543 281.968 380.707 280.575C380.819 279.632 380.901 278.684 381.03 277.747C381.412 275.037 381.788 272.321 382.804 269.752C383.003 269.243 383.268 268.763 383.655 268.371C384.436 267.569 385.405 267.627 386.116 268.505C386.803 269.354 387.138 270.373 387.432 271.397C387.796 272.685 387.984 274.001 388.154 275.33C388.441 277.578 388.506 279.837 388.588 282.102C388.641 283.641 388.7 285.187 388.653 286.726C388.6 288.446 388.606 290.173 388.512 291.894C388.418 293.615 388.359 295.33 388.271 297.05C388.271 297.097 388.283 297.138 388.3 297.243C388.536 296.863 388.565 296.471 388.653 296.108C389.739 291.537 391.132 287.059 392.97 282.734C394.109 280.06 395.372 277.443 397.116 275.09C397.82 274.136 398.572 273.223 399.612 272.614C400.164 272.292 400.745 272.04 401.421 272.216C402.125 272.398 402.536 272.878 402.783 273.527C403.135 274.458 403.223 275.429 403.141 276.401C403.012 277.934 402.801 279.457 402.501 280.967C401.955 283.729 401.145 286.416 400.152 289.049C398.32 293.925 396.217 298.701 394.203 303.512C394.115 303.717 393.974 303.91 394.021 304.156C393.95 304.167 393.915 304.209 393.915 304.273C393.915 304.291 393.956 304.308 393.98 304.326C393.998 304.267 394.009 304.215 394.027 304.156C394.415 303.887 394.596 303.453 394.849 303.091C396.229 301.118 397.65 299.181 399.213 297.349C400.734 295.569 402.313 293.843 404.328 292.591C405.044 292.145 405.779 291.736 406.665 291.742C407.669 291.747 408.35 292.198 408.668 293.164C408.873 293.791 408.926 294.422 408.85 295.096C408.592 297.32 407.663 299.268 406.483 301.113C404.839 303.676 402.936 306.041 400.898 308.306C398.855 310.576 396.541 312.543 394.15 314.428C392.03 316.102 389.945 317.823 387.849 319.52C387.287 319.982 386.705 320.417 386.104 320.825C385.499 321.235 384.853 321.335 384.16 321.141C381.4 320.357 378.687 319.473 376.143 318.116C374.153 317.05 372.303 315.786 370.559 314.352C368.885 312.982 367.276 311.548 365.801 309.968C364.503 308.569 363.282 307.106 362.395 305.403C362.113 304.864 361.984 304.303 362.043 303.7C362.102 303.091 362.566 302.575 363.177 302.517C363.693 302.47 364.216 302.476 364.727 302.64C366.096 303.079 367.246 303.893 368.338 304.783C370.764 306.766 373.172 308.768 375.474 310.893C376.156 311.525 376.866 312.128 377.565 312.742C377.653 312.819 377.741 312.888 377.859 312.901C377.888 313.006 377.929 313.094 378.046 313.129C378.05 313.146 378.059 313.162 378.07 313.175C378.076 313.181 378.094 313.181 378.105 313.181C378.082 313.164 378.058 313.152 378.035 313.135C378.065 313.023 378.023 312.93 377.917 312.853ZM474.828 325.297C474.699 324.904 474.431 324.588 474.226 324.239C472.706 321.618 471.405 318.895 470.408 316.022C469.801 314.276 469.203 312.525 468.797 310.717C468.439 309.129 468.13 307.532 467.969 305.908C467.884 305.065 467.804 304.226 467.776 303.379C467.76 302.925 467.684 302.471 467.719 302.018C467.788 301.191 467.764 300.356 467.981 299.546C468.021 299.396 468.062 299.242 468.122 299.101C468.463 298.27 469.231 298.103 469.882 298.707C470.195 298.999 470.42 299.356 470.629 299.725C471.597 301.43 472.401 303.217 473.112 305.045C474.205 307.848 475.19 310.693 476.106 313.558C476.271 314.077 476.432 314.599 476.665 315.114C476.665 314.835 476.705 314.546 476.657 314.276C476.58 313.882 476.604 313.493 476.58 313.104C476.432 310.689 476.451 308.27 476.511 305.851C476.543 304.881 476.618 303.913 476.737 302.95C476.813 302.297 476.87 301.641 476.958 300.993C477.219 299.117 477.476 297.236 478.171 295.457C478.308 295.105 478.489 294.773 478.754 294.501C479.288 293.946 479.951 293.987 480.438 294.595C480.908 295.182 481.137 295.887 481.338 296.596C481.587 297.487 481.716 298.399 481.832 299.319C482.029 300.875 482.073 302.44 482.13 304.008C482.166 305.073 482.206 306.143 482.174 307.208C482.138 308.4 482.141 309.595 482.077 310.786C482.013 311.978 481.973 313.165 481.912 314.356C481.912 314.389 481.92 314.417 481.933 314.49C482.093 314.227 482.114 313.955 482.174 313.704C482.917 310.539 483.869 307.439 485.127 304.445C485.906 302.593 486.771 300.782 487.964 299.153C488.446 298.493 488.961 297.86 489.672 297.439C490.049 297.216 490.447 297.042 490.909 297.164C491.392 297.289 491.673 297.621 491.842 298.071C492.083 298.716 492.143 299.388 492.087 300.061C491.999 301.122 491.853 302.177 491.649 303.221C491.275 305.134 490.72 306.994 490.041 308.817C488.788 312.192 487.349 315.499 485.971 318.83C485.911 318.972 485.814 319.106 485.846 319.276C485.798 319.283 485.774 319.312 485.774 319.357C485.774 319.368 485.802 319.381 485.818 319.393C485.83 319.352 485.838 319.316 485.85 319.276C486.116 319.089 486.24 318.79 486.413 318.538C487.358 317.173 488.329 315.831 489.399 314.563C490.439 313.331 491.52 312.136 492.899 311.269C493.389 310.961 493.891 310.677 494.498 310.681C495.185 310.685 495.651 310.997 495.868 311.666C496.006 312.097 496.049 312.554 495.993 313.003C495.816 314.543 495.181 315.892 494.373 317.168C493.248 318.944 491.946 320.58 490.552 322.149C489.154 323.721 487.57 325.082 485.935 326.387C484.484 327.546 483.058 328.737 481.623 329.912C481.238 330.228 480.843 330.536 480.43 330.816C480.24 330.952 480.021 331.043 479.79 331.081C479.559 331.119 479.323 331.103 479.099 331.035C477.211 330.492 475.354 329.88 473.615 328.94C472.258 328.2 470.978 327.327 469.793 326.335C468.648 325.386 467.547 324.393 466.538 323.299C465.65 322.331 464.815 321.318 464.208 320.138C464.013 319.778 463.929 319.368 463.967 318.96C464.007 318.538 464.325 318.182 464.742 318.141C465.096 318.108 465.453 318.113 465.803 318.226C466.74 318.53 467.527 319.093 468.274 319.709C469.934 321.083 471.581 322.468 473.157 323.939C473.623 324.377 474.109 324.795 474.587 325.22C474.647 325.273 474.707 325.321 474.788 325.329C474.808 325.402 474.836 325.463 474.916 325.488C474.921 325.499 474.924 325.512 474.932 325.52C474.937 325.524 474.948 325.524 474.956 325.524C474.94 325.512 474.924 325.504 474.909 325.491C474.929 325.414 474.901 325.35 474.828 325.297ZM133.827 326.899C133.698 326.505 133.429 326.19 133.224 325.841C131.705 323.22 130.403 320.497 129.407 317.623C128.8 315.877 128.201 314.127 127.796 312.32C127.438 310.731 127.128 309.134 126.968 307.509C126.883 306.667 126.803 305.828 126.775 304.981C126.759 304.527 126.682 304.073 126.719 303.62C126.787 302.793 126.763 301.958 126.98 301.148C127.02 300.998 127.06 300.844 127.12 300.702C127.462 299.871 128.229 299.705 128.88 300.309C129.194 300.601 129.419 300.957 129.627 301.326C130.596 303.032 131.4 304.819 132.111 306.647C133.204 309.451 134.189 312.295 135.105 315.16C135.27 315.678 135.43 316.201 135.663 316.716C135.663 316.437 135.703 316.149 135.655 315.877C135.579 315.484 135.603 315.095 135.579 314.706C135.43 312.291 135.45 309.872 135.511 307.453C135.535 306.488 135.623 305.516 135.736 304.552C135.812 303.9 135.868 303.243 135.957 302.594C136.218 300.718 136.475 298.838 137.17 297.059C137.307 296.707 137.488 296.374 137.753 296.103C138.287 295.548 138.95 295.588 139.436 296.196C139.906 296.784 140.136 297.489 140.336 298.198C140.585 299.089 140.714 300.002 140.831 300.921C141.028 302.477 141.072 304.041 141.128 305.609C141.164 306.675 141.204 307.745 141.172 308.81C141.136 310.001 141.14 311.197 141.076 312.388C141.012 313.58 140.971 314.767 140.911 315.958C140.911 315.991 140.919 316.019 140.931 316.092C141.092 315.829 141.112 315.557 141.172 315.306C141.916 312.141 142.868 309.041 144.125 306.047C144.906 304.195 145.769 302.384 146.962 300.755C147.445 300.094 147.959 299.463 148.671 299.041C149.048 298.818 149.446 298.644 149.908 298.765C150.391 298.891 150.672 299.223 150.84 299.673C151.081 300.317 151.142 300.99 151.086 301.663C150.997 302.724 150.853 303.778 150.648 304.824C150.274 306.736 149.72 308.595 149.04 310.419C147.787 313.794 146.348 317.101 144.969 320.432C144.909 320.574 144.813 320.707 144.845 320.877C144.797 320.885 144.773 320.914 144.773 320.959C144.773 320.971 144.801 320.983 144.817 320.995C144.829 320.954 144.837 320.918 144.849 320.877C145.114 320.691 145.239 320.391 145.412 320.14C146.356 318.775 147.329 317.433 148.397 316.165C149.438 314.933 150.519 313.738 151.897 312.87C152.387 312.562 152.89 312.279 153.496 312.283C154.184 312.287 154.65 312.599 154.867 313.268C155.005 313.699 155.047 314.155 154.991 314.605C154.815 316.145 154.18 317.494 153.372 318.77C152.247 320.545 150.945 322.182 149.55 323.751C148.152 325.322 146.569 326.684 144.933 327.989C143.483 329.148 142.056 330.339 140.622 331.514C140.238 331.834 139.84 332.135 139.428 332.418C139.014 332.702 138.573 332.77 138.099 332.636C136.21 332.094 134.354 331.481 132.613 330.542C131.256 329.802 129.976 328.929 128.792 327.936C127.647 326.988 126.546 325.995 125.537 324.901C124.649 323.933 123.813 322.92 123.207 321.741C123.012 321.38 122.928 320.97 122.966 320.561C123.006 320.14 123.323 319.783 123.741 319.743C124.094 319.711 124.452 319.714 124.802 319.828C125.738 320.132 126.525 320.695 127.273 321.311C128.932 322.684 130.58 324.07 132.155 325.542C132.621 325.979 133.107 326.397 133.586 326.822C133.646 326.874 133.706 326.923 133.786 326.931C133.807 327.004 133.835 327.065 133.916 327.089C133.918 327.101 133.924 327.112 133.932 327.121C133.935 327.126 133.948 327.126 133.956 327.126C133.94 327.113 133.924 327.105 133.907 327.093C133.927 327.016 133.899 326.951 133.827 326.899Z" fill="#F08519"/>
</g>
<defs>
<linearGradient id="paint0_linear_486_13149" x1="263.526" y1="453.49" x2="272.484" y2="-315.965" gradientUnits="userSpaceOnUse">
<stop stop-color="white"/>
<stop offset="1" stop-color="#EEEEEE"/>
</linearGradient>
<clipPath id="clip0_486_13149">
<rect width="539" height="345" fill="white" transform="matrix(-1 0 0 1 539 0)"/>
</clipPath>
</defs>
</svg>
