<svg width="480" height="320" viewBox="0 0 480 320" fill="none" xmlns="http://www.w3.org/2000/svg">
<g clip-path="url(#clip0_948_30075)">
<path d="M360.473 84.7824C349.347 48.4667 253.18 1.59578 177.204 59.8624C141.869 86.9632 152.837 106.412 132.492 144.807C120.364 167.691 98.8832 189.511 100.318 215.784C101.553 238.463 113.419 258.974 129.472 269.258C165.575 292.387 222.775 296.313 252.68 228.043C282.583 159.772 389.158 178.446 360.473 84.7824Z" fill="url(#paint0_linear_948_30075)"/>
<path d="M396.668 169.754C385.809 158.612 369.237 161.121 344.128 170.52C325.246 177.592 307.956 183.781 291.401 199.546C279.812 210.575 271.751 223.456 266.515 235.272C260.839 248.073 252.2 263.261 261.21 273.637C273.591 287.889 323.488 289.316 362.297 254.719C404.928 216.706 407.289 180.643 396.668 169.754Z" fill="url(#paint1_linear_948_30075)"/>
<path d="M136.689 98.4257C125.989 126.955 115.28 157.1 95.6908 175.783C75.487 195.06 68.9857 188.257 63.9516 176.023C58.9169 163.787 58.1734 131.802 85.8977 106.06C113.629 80.3121 146.698 71.726 136.689 98.4257Z" fill="url(#paint2_linear_948_30075)"/>
<path d="M364.393 253.875H114.52C107.162 253.875 101.195 247.908 101.195 240.55V83.9883C101.195 76.6305 107.162 70.6641 114.52 70.6641H364.393C371.751 70.6641 377.717 76.6305 377.717 83.9883V240.55C377.717 247.908 371.751 253.875 364.393 253.875Z" fill="white" stroke="#E1E4E5" stroke-width="2.13333"/>
<path d="M377.717 88.1542H101.195V83.9883C101.195 76.6305 107.162 70.6641 114.52 70.6641H364.393C371.751 70.6641 377.717 76.6305 377.717 83.9883V88.1542Z" fill="white" stroke="#E1E4E5" stroke-width="2.13333"/>
<path d="M114.552 83.1309C114.958 83.1308 115.36 83.0508 115.735 82.8954C116.11 82.74 116.45 82.5123 116.737 82.2253C117.024 81.9382 117.252 81.5975 117.407 81.2225C117.562 80.8475 117.642 80.4455 117.642 80.0397C117.642 79.6338 117.562 79.2319 117.407 78.857C117.251 78.482 117.024 78.1413 116.737 77.8544C116.45 77.5674 116.109 77.3398 115.734 77.1846C115.359 77.0293 114.957 76.9495 114.551 76.9495C113.731 76.9497 112.945 77.2754 112.366 77.8551C111.786 78.4349 111.461 79.221 111.461 80.0407C111.461 80.8604 111.787 81.6465 112.367 82.226C112.946 82.8055 113.732 83.131 114.552 83.1309ZM127.429 83.1309C127.838 83.1362 128.245 83.0602 128.624 82.9072C129.004 82.7543 129.35 82.5274 129.641 82.2399C129.932 81.9523 130.164 81.6097 130.321 81.232C130.479 80.8543 130.561 80.449 130.56 80.0397C130.56 79.6303 130.479 79.225 130.321 78.8474C130.163 78.4697 129.932 78.1272 129.64 77.8396C129.349 77.5521 129.004 77.3253 128.624 77.1724C128.244 77.0195 127.838 76.9436 127.428 76.949C126.616 76.9597 125.84 77.2902 125.269 77.8687C124.698 78.4473 124.378 79.2274 124.378 80.0402C124.378 80.853 124.698 81.6331 125.269 82.2115C125.84 82.79 126.616 83.1203 127.429 83.1309ZM139.791 83.1309C140.2 83.1362 140.607 83.0602 140.986 82.9072C141.366 82.7543 141.712 82.5274 142.003 82.2399C142.294 81.9523 142.526 81.6097 142.684 81.232C142.841 80.8543 142.923 80.449 142.923 80.0397C142.923 79.6303 142.841 79.225 142.683 78.8474C142.525 78.4697 142.294 78.1272 142.003 77.8396C141.711 77.5521 141.366 77.3253 140.986 77.1724C140.606 77.0195 140.2 76.9436 139.791 76.949C138.978 76.9597 138.202 77.2902 137.631 77.8687C137.06 78.4473 136.74 79.2274 136.74 80.0402C136.74 80.853 137.06 81.6331 137.631 82.2115C138.202 82.79 138.978 83.1203 139.791 83.1309ZM116.192 105.525L122.306 107.681V110.684L113.071 106.769V104.238L122.306 100.323V103.326L116.192 105.525ZM125.835 113.495H123.529L129.278 96.5367H131.584L125.835 113.495ZM139.403 105.493L133.171 103.315V100.334L142.514 104.249V106.769L133.171 110.695V107.703L139.403 105.493Z" fill="#E1E4E5"/>
<path d="M220.652 102.704H152.661C151.239 102.704 150.086 103.857 150.086 105.279C150.086 106.701 151.239 107.855 152.661 107.855H220.652C222.075 107.855 223.228 106.701 223.228 105.279C223.228 103.857 222.075 102.704 220.652 102.704Z" fill="#E1E4E5"/>
<path d="M220.652 147.516H152.661C151.239 147.516 150.086 148.669 150.086 150.091C150.086 151.513 151.239 152.667 152.661 152.667H220.652C222.075 152.667 223.228 151.513 223.228 150.091C223.228 148.669 222.075 147.516 220.652 147.516Z" fill="#E1E4E5"/>
<path d="M274.23 192.328H342.221C343.644 192.328 344.797 193.481 344.797 194.904C344.797 196.326 343.644 197.479 342.221 197.479H274.23C272.808 197.479 271.655 196.326 271.655 194.904C271.655 193.481 272.808 192.328 274.23 192.328Z" fill="#E1E4E5"/>
<path d="M274.23 117.641H342.221C343.644 117.641 344.797 118.794 344.797 120.217C344.797 121.639 343.644 122.792 342.221 122.792H274.23C272.808 122.792 271.655 121.639 271.655 120.217C271.655 118.794 272.808 117.641 274.23 117.641Z" fill="#E1E4E5"/>
<path d="M274.23 162.454H342.221C343.644 162.454 344.797 163.607 344.797 165.029C344.797 166.451 343.644 167.605 342.221 167.605H274.23C272.808 167.605 271.655 166.451 271.655 165.029C271.655 163.607 272.808 162.454 274.23 162.454Z" fill="#E1E4E5"/>
<path d="M220.652 207.266H152.661C151.239 207.266 150.086 208.419 150.086 209.841C150.086 211.263 151.239 212.417 152.661 212.417H220.652C222.075 212.417 223.228 211.263 223.228 209.841C223.228 208.419 222.075 207.266 220.652 207.266Z" fill="#E1E4E5"/>
<path d="M274.23 132.579H342.221C343.644 132.579 344.797 133.732 344.797 135.154C344.797 136.576 343.644 137.73 342.221 137.73H274.23C272.808 137.73 271.655 136.576 271.655 135.154C271.655 133.732 272.808 132.579 274.23 132.579Z" fill="#E1E4E5"/>
<path d="M274.23 177.391H342.221C343.644 177.391 344.797 178.544 344.797 179.966C344.797 181.388 343.644 182.542 342.221 182.542H274.23C272.808 182.542 271.655 181.388 271.655 179.966C271.655 178.544 272.808 177.391 274.23 177.391Z" fill="#E1E4E5"/>
<path d="M220.652 222.203H152.661C151.239 222.203 150.086 223.356 150.086 224.778C150.086 226.2 151.239 227.354 152.661 227.354H220.652C222.075 227.354 223.228 226.2 223.228 224.778C223.228 223.356 222.075 222.203 220.652 222.203Z" fill="#E1E4E5"/>
<path d="M259.292 102.704H235.083C233.661 102.704 232.508 103.857 232.508 105.279C232.508 106.701 233.661 107.855 235.083 107.855H259.292C260.715 107.855 261.868 106.701 261.868 105.279C261.868 103.857 260.715 102.704 259.292 102.704Z" fill="#E1E4E5"/>
<path d="M259.292 147.516H235.083C233.661 147.516 232.508 148.669 232.508 150.091C232.508 151.513 233.661 152.667 235.083 152.667H259.292C260.715 152.667 261.868 151.513 261.868 150.091C261.868 148.669 260.715 147.516 259.292 147.516Z" fill="#E1E4E5"/>
<path d="M235.598 192.328H259.807C261.23 192.328 262.383 193.481 262.383 194.904C262.383 196.326 261.23 197.479 259.807 197.479H235.598C234.176 197.479 233.023 196.326 233.023 194.904C233.023 193.481 234.176 192.328 235.598 192.328Z" fill="#E1E4E5"/>
<path d="M235.598 117.641H259.807C261.23 117.641 262.383 118.794 262.383 120.217C262.383 121.639 261.23 122.792 259.807 122.792H235.598C234.176 122.792 233.023 121.639 233.023 120.217C233.023 118.794 234.176 117.641 235.598 117.641Z" fill="#E1E4E5"/>
<path d="M235.598 162.454H259.807C261.23 162.454 262.383 163.607 262.383 165.029C262.383 166.451 261.23 167.605 259.807 167.605H235.598C234.176 167.605 233.023 166.451 233.023 165.029C233.023 163.607 234.176 162.454 235.598 162.454Z" fill="#E1E4E5"/>
<path d="M259.292 207.266H235.083C233.661 207.266 232.508 208.419 232.508 209.841C232.508 211.263 233.661 212.417 235.083 212.417H259.292C260.715 212.417 261.868 211.263 261.868 209.841C261.868 208.419 260.715 207.266 259.292 207.266Z" fill="#E1E4E5"/>
<path d="M187.696 132.579H259.807C261.23 132.579 262.383 133.732 262.383 135.154C262.383 136.576 261.23 137.73 259.807 137.73H187.696C186.273 137.73 185.12 136.576 185.12 135.154C185.12 133.732 186.273 132.579 187.696 132.579Z" fill="#E1E4E5"/>
<path d="M187.696 177.391H259.807C261.23 177.391 262.383 178.544 262.383 179.966C262.383 181.388 261.23 182.542 259.807 182.542H187.696C186.273 182.542 185.12 181.388 185.12 179.966C185.12 178.544 186.273 177.391 187.696 177.391Z" fill="#E1E4E5"/>
<path d="M307.195 222.203H235.083C233.661 222.203 232.508 223.356 232.508 224.778C232.508 226.2 233.661 227.354 235.083 227.354H307.195C308.617 227.354 309.77 226.2 309.77 224.778C309.77 223.356 308.617 222.203 307.195 222.203Z" fill="#E1E4E5"/>
<path d="M307.188 102.704H273.708C272.286 102.704 271.133 103.857 271.133 105.279C271.133 106.701 272.286 107.855 273.708 107.855H307.188C308.611 107.855 309.764 106.701 309.764 105.279C309.764 103.857 308.611 102.704 307.188 102.704Z" fill="#E1E4E5"/>
<path d="M307.188 147.516H273.708C272.286 147.516 271.133 148.669 271.133 150.091C271.133 151.513 272.286 152.667 273.708 152.667H307.188C308.611 152.667 309.764 151.513 309.764 150.091C309.764 148.669 308.611 147.516 307.188 147.516Z" fill="#E1E4E5"/>
<path d="M187.695 192.328H221.175C222.597 192.328 223.75 193.481 223.75 194.904C223.75 196.326 222.597 197.479 221.175 197.479H187.695C186.272 197.479 185.119 196.326 185.119 194.904C185.119 193.481 186.272 192.328 187.695 192.328Z" fill="#E1E4E5"/>
<path d="M187.695 117.641H221.175C222.597 117.641 223.75 118.794 223.75 120.217C223.75 121.639 222.597 122.792 221.175 122.792H187.695C186.272 122.792 185.119 121.639 185.119 120.217C185.119 118.794 186.272 117.641 187.695 117.641Z" fill="#E1E4E5"/>
<path d="M187.695 162.454H221.175C222.597 162.454 223.75 163.607 223.75 165.029C223.75 166.451 222.597 167.605 221.175 167.605H187.695C186.272 167.605 185.119 166.451 185.119 165.029C185.119 163.607 186.272 162.454 187.695 162.454Z" fill="#E1E4E5"/>
<path d="M307.188 207.266H273.708C272.286 207.266 271.133 208.419 271.133 209.841C271.133 211.263 272.286 212.417 273.708 212.417H307.188C308.611 212.417 309.764 211.263 309.764 209.841C309.764 208.419 308.611 207.266 307.188 207.266Z" fill="#E1E4E5"/>
<path d="M342.218 102.704H321.615C320.192 102.704 319.039 103.857 319.039 105.279C319.039 106.701 320.192 107.855 321.615 107.855H342.218C343.64 107.855 344.793 106.701 344.793 105.279C344.793 103.857 343.64 102.704 342.218 102.704Z" fill="#E1E4E5"/>
<path d="M342.218 147.516H321.615C320.192 147.516 319.039 148.669 319.039 150.091C319.039 151.513 320.192 152.667 321.615 152.667H342.218C343.64 152.667 344.793 151.513 344.793 150.091C344.793 148.669 343.64 147.516 342.218 147.516Z" fill="#E1E4E5"/>
<path d="M152.665 192.328H173.268C174.691 192.328 175.844 193.481 175.844 194.904C175.844 196.326 174.691 197.479 173.268 197.479H152.665C151.243 197.479 150.09 196.326 150.09 194.904C150.09 193.481 151.243 192.328 152.665 192.328Z" fill="#E1E4E5"/>
<path d="M152.665 117.641H173.268C174.691 117.641 175.844 118.794 175.844 120.217C175.844 121.639 174.691 122.792 173.268 122.792H152.665C151.243 122.792 150.09 121.639 150.09 120.217C150.09 118.794 151.243 117.641 152.665 117.641Z" fill="#E1E4E5"/>
<path d="M152.665 162.453H173.268C174.691 162.453 175.844 163.607 175.844 165.029C175.844 166.451 174.691 167.604 173.268 167.604H152.665C151.243 167.604 150.09 166.451 150.09 165.029C150.09 163.607 151.243 162.453 152.665 162.453Z" fill="#E1E4E5"/>
<path d="M342.218 207.266H321.615C320.192 207.266 319.039 208.419 319.039 209.841C319.039 211.263 320.192 212.417 321.615 212.417H342.218C343.64 212.417 344.793 211.263 344.793 209.841C344.793 208.419 343.64 207.266 342.218 207.266Z" fill="#E1E4E5"/>
<path d="M152.665 132.579H173.268C174.691 132.579 175.844 133.732 175.844 135.154C175.844 136.577 174.691 137.73 173.268 137.73H152.665C151.243 137.73 150.09 136.577 150.09 135.154C150.09 133.732 151.243 132.579 152.665 132.579Z" fill="#E1E4E5"/>
<path d="M152.665 177.39H173.268C174.691 177.39 175.844 178.544 175.844 179.966C175.844 181.388 174.691 182.541 173.268 182.541H152.665C151.243 182.541 150.09 181.388 150.09 179.966C150.09 178.544 151.243 177.39 152.665 177.39Z" fill="#E1E4E5"/>
<path d="M342.218 222.203H321.615C320.192 222.203 319.039 223.356 319.039 224.778C319.039 226.2 320.192 227.354 321.615 227.354H342.218C343.64 227.354 344.793 226.2 344.793 224.778C344.793 223.356 343.64 222.203 342.218 222.203Z" fill="#E1E4E5"/>
<path fill-rule="evenodd" clip-rule="evenodd" d="M355.011 270.391L337.914 215.79C336.11 210.03 342.01 204.868 347.483 207.42L398.473 231.217C404.515 234.036 403.499 242.924 396.973 244.301L375.981 248.742L368.193 270.636C365.95 276.922 357.009 276.749 355.011 270.391ZM132.779 160.556C132.779 178.866 119.017 195.986 100.522 200.143C82.0272 195.986 68.2656 178.866 68.2656 160.556V146.174C68.2653 144.573 68.7418 143.008 69.6344 141.679C70.527 140.349 71.7952 139.316 73.2774 138.71L93.4379 130.461C97.9779 128.602 103.066 128.602 107.606 130.461L127.767 138.71C129.249 139.317 130.517 140.35 131.409 141.679C132.302 143.008 132.778 144.573 132.779 146.174V160.556Z" fill="#F08519"/>
<path d="M111.468 157.867L99.1344 170.133L91.7344 162.773" stroke="white" stroke-width="7.44373" stroke-linecap="round" stroke-linejoin="round"/>
<path d="M382.023 96.1123C377.199 98.8974 371.031 97.2446 368.246 92.4206C365.46 87.5966 367.113 81.4282 371.937 78.643C376.761 75.8579 382.93 77.5107 385.715 82.3347C388.5 87.1587 386.847 93.3271 382.023 96.1123Z" fill="#F08519"/>
<path d="M365.264 119.991C363.094 121.244 360.32 120.501 359.068 118.331C357.815 116.162 358.558 113.387 360.728 112.135C362.897 110.882 365.672 111.626 366.924 113.795C368.177 115.965 367.433 118.739 365.264 119.991Z" fill="#E1E4E5"/>
<path d="M398.398 165.333C392.801 165.333 388.265 169.87 388.265 175.467C388.265 181.063 392.801 185.6 398.398 185.6C403.994 185.6 408.531 181.063 408.531 175.467C408.531 169.87 403.994 165.333 398.398 165.333Z" fill="#F08519"/>
<path d="M366.713 156.743C368.155 157.575 368.649 159.42 367.817 160.862C366.984 162.304 365.14 162.798 363.697 161.966C362.255 161.133 361.761 159.289 362.594 157.847C363.426 156.404 365.271 155.91 366.713 156.743Z" fill="#E1E4E5"/>
<path d="M122.928 204.8C121.603 204.8 120.528 205.875 120.528 207.2C120.528 208.526 121.603 209.6 122.928 209.6C124.254 209.6 125.328 208.526 125.328 207.2C125.328 205.875 124.254 204.8 122.928 204.8Z" fill="#E1E4E5"/>
<path d="M94.1333 251.2C97.5207 251.2 100.267 253.946 100.267 257.333C100.267 260.721 97.5207 263.467 94.1333 263.467C90.746 263.467 88 260.721 88 257.333C88 253.946 90.746 251.2 94.1333 251.2Z" fill="#E1E4E5"/>
<path d="M122.93 235.2C120.721 235.2 118.93 233.409 118.93 231.2C118.93 228.991 120.721 227.2 122.93 227.2C125.139 227.2 126.93 228.991 126.93 231.2C126.93 233.409 125.139 235.2 122.93 235.2Z" fill="#E1E4E5"/>
<path d="M79.4667 120.533C83.5904 120.533 86.9333 117.31 86.9333 113.333C86.9333 109.357 83.5904 106.133 79.4667 106.133C75.3429 106.133 72 109.357 72 113.333C72 117.31 75.3429 120.533 79.4667 120.533Z" fill="#E1E4E5"/>
</g>
<defs>
<linearGradient id="paint0_linear_948_30075" x1="198.994" y1="-98.1354" x2="284.239" y2="537.115" gradientUnits="userSpaceOnUse">
<stop stop-color="white"/>
<stop offset="1" stop-color="#EEEEEE"/>
</linearGradient>
<linearGradient id="paint1_linear_948_30075" x1="324.41" y1="98.0424" x2="337.771" y2="409.831" gradientUnits="userSpaceOnUse">
<stop stop-color="white"/>
<stop offset="1" stop-color="#EEEEEE"/>
</linearGradient>
<linearGradient id="paint2_linear_948_30075" x1="96.5169" y1="24.9457" x2="109.944" y2="299.668" gradientUnits="userSpaceOnUse">
<stop stop-color="white"/>
<stop offset="1" stop-color="#EEEEEE"/>
</linearGradient>
<clipPath id="clip0_948_30075">
<rect width="480" height="320" fill="white"/>
</clipPath>
</defs>
</svg>
