<svg width="30" height="20" viewBox="0 0 30 20" fill="none" xmlns="http://www.w3.org/2000/svg">
<path d="M12.25 13.6787C12.25 14.762 11.9792 15.762 11.4375 16.6787C10.3125 18.512 8.70833 19.4287 6.625 19.4287C5.54167 19.4287 4.52083 19.1162 3.5625 18.4912C1.72917 17.2412 0.8125 15.3662 0.8125 12.8662C0.8125 10.4495 1.27083 8.26204 2.1875 6.30371C4.02083 2.51204 7.02083 0.616211 11.1875 0.616211C12.6042 0.657878 13.3542 1.36621 13.4375 2.74121C13.3542 3.78288 12.5833 4.59538 11.125 5.17871C10.7917 5.26204 10.4583 5.36621 10.125 5.49121C8.45833 6.07454 7.58333 6.92871 7.5 8.05371C8.16667 8.17871 8.8125 8.40788 9.4375 8.74121C11.3125 9.82454 12.25 11.4704 12.25 13.6787ZM28.3125 13.6787C28.3125 14.762 28.0417 15.762 27.5 16.6787C26.375 18.512 24.7708 19.4287 22.6875 19.4287C21.6458 19.4287 20.6875 19.1579 19.8125 18.6162C17.8542 17.4079 16.875 15.4912 16.875 12.8662C16.875 10.4912 17.3333 8.32454 18.25 6.36621C20.0417 2.53288 23.0417 0.616211 27.25 0.616211C28.6667 0.657878 29.4167 1.36621 29.5 2.74121C29.4167 3.78288 28.625 4.59538 27.125 5.17871C26.8333 5.26204 26.5417 5.34538 26.25 5.42871C24.5 6.05371 23.6042 6.92871 23.5625 8.05371C24.2292 8.17871 24.875 8.40788 25.5 8.74121C27.375 9.82454 28.3125 11.4704 28.3125 13.6787Z" fill="black"/>
</svg>
