<svg width="480" height="320" viewBox="0 0 480 320" fill="none" xmlns="http://www.w3.org/2000/svg">
<g clip-path="url(#clip0_931_30585)">
<path d="M77.4531 98.1618H212.326M141.896 168.593H276.768M141.897 233.034V98.1623M212.325 168.593V33.7207" stroke="#E1E4E5" stroke-width="2.13333" stroke-linecap="round" stroke-linejoin="round"/>
<path d="M177.112 239.021C235.458 239.021 282.757 191.723 282.757 133.377C282.757 75.0321 235.458 27.7334 177.112 27.7334C118.767 27.7334 71.4688 75.0321 71.4688 133.377C71.4688 191.723 118.767 239.021 177.112 239.021Z" stroke="#E1E4E5" stroke-width="2.13333" stroke-linecap="round" stroke-linejoin="round"/>
<path d="M398.324 169.723H211.808C206.284 169.723 202.133 165.991 202.133 161.762V63.5504C202.133 59.3206 206.284 55.5894 211.808 55.5894H398.324C403.848 55.5894 407.999 59.3206 407.999 63.5504V161.762C407.999 165.991 403.848 169.723 398.324 169.723Z" fill="white" stroke="#E1E4E5" stroke-width="2.13333"/>
<path fill-rule="evenodd" clip-rule="evenodd" d="M218.984 88.6478V125.231C218.984 127.217 220.574 128.825 222.538 128.825H244.073L253.473 115.426C253.921 114.787 255.042 114.787 255.49 115.426L258.781 120.118L258.807 120.154L258.829 120.122L265.887 109.874C266.375 109.165 267.599 109.165 268.087 109.874L277.435 123.448V88.6478C277.435 86.6622 275.84 85.0542 273.881 85.0542H222.538C220.574 85.0542 218.984 86.6622 218.984 88.6478Z" fill="#F08519"/>
<path d="M235.466 109.971C232.038 109.971 229.258 107.191 229.258 103.762C229.258 100.333 232.038 97.5537 235.466 97.5537C238.895 97.5537 241.675 100.333 241.675 103.762C241.675 107.191 238.895 109.971 235.466 109.971Z" fill="white"/>
<path d="M407.999 67.9815H202.133V65.142C202.133 59.7996 206.466 55.4668 211.808 55.4668H398.324C403.667 55.4668 407.999 59.7996 407.999 65.142V67.9815Z" fill="white" stroke="#E1E4E5" stroke-width="2.13333"/>
<path d="M211.83 64.502C212.442 64.502 213.029 64.259 213.461 63.8264C213.894 63.3938 214.137 62.8071 214.137 62.1953C214.137 61.5836 213.894 60.9969 213.461 60.5643C213.029 60.1317 212.442 59.8887 211.83 59.8887C211.218 59.8887 210.632 60.1317 210.199 60.5643C209.766 60.9969 209.523 61.5836 209.523 62.1953C209.523 62.8071 209.766 63.3938 210.199 63.8264C210.632 64.259 211.218 64.502 211.83 64.502ZM221.442 64.502C222.054 64.502 222.641 64.259 223.073 63.8264C223.506 63.3938 223.749 62.8071 223.749 62.1953C223.749 61.5836 223.506 60.9969 223.073 60.5643C222.641 60.1317 222.054 59.8887 221.442 59.8887C220.831 59.8887 220.244 60.1317 219.811 60.5643C219.379 60.9969 219.136 61.5836 219.136 62.1953C219.136 62.8071 219.379 63.3938 219.811 63.8264C220.244 64.259 220.831 64.502 221.442 64.502ZM230.67 64.502C231.282 64.502 231.869 64.259 232.301 63.8264C232.734 63.3938 232.977 62.8071 232.977 62.1953C232.977 61.5836 232.734 60.9969 232.301 60.5643C231.869 60.1317 231.282 59.8887 230.67 59.8887C230.058 59.8887 229.472 60.1317 229.039 60.5643C228.606 60.9969 228.363 61.5836 228.363 62.1953C228.363 62.8071 228.606 63.3938 229.039 63.8264C229.472 64.259 230.058 64.502 230.67 64.502Z" fill="#E1E4E5"/>
<path d="M387.575 85.0542H290.438C288.349 85.0542 286.656 86.7474 286.656 88.8361C286.656 90.9247 288.349 92.6179 290.438 92.6179H387.575C389.664 92.6179 391.357 90.9247 391.357 88.8361C391.357 86.7474 389.664 85.0542 387.575 85.0542Z" fill="#E1E4E5"/>
<path d="M387.575 102.571H290.438C288.349 102.571 286.656 104.264 286.656 106.353C286.656 108.441 288.349 110.135 290.438 110.135H387.575C389.664 110.135 391.357 108.441 391.357 106.353C391.357 104.264 389.664 102.571 387.575 102.571Z" fill="#E1E4E5"/>
<path d="M381.865 120H290.132C288.07 120 286.398 121.671 286.398 123.733C286.398 125.795 288.07 127.467 290.132 127.467H381.865C383.927 127.467 385.598 125.795 385.598 123.733C385.598 121.671 383.927 120 381.865 120Z" fill="#E1E4E5"/>
<path d="M387.575 137.603H290.438C288.349 137.603 286.656 139.296 286.656 141.385C286.656 143.474 288.349 145.167 290.438 145.167H387.575C389.664 145.167 391.357 143.474 391.357 141.385C391.357 139.296 389.664 137.603 387.575 137.603Z" fill="#E1E4E5"/>
<path d="M156.168 78.0788C155.811 79.506 156.284 80.9897 157.065 82.2367C157.617 83.1172 158.389 82.1449 159.514 81.9892C161.255 81.7449 162.357 79.9028 162.734 75.4137C162.908 72.1353 162.826 70.4996 162.643 70.2132C161.993 69.1887 160.321 68.8463 159.002 68.9449" fill="#5D3004"/>
<path fill-rule="evenodd" clip-rule="evenodd" d="M159.336 273.177C159.336 273.177 159.231 279.918 163.391 282.312C167.552 284.707 173.998 289.156 173.998 289.156L149.477 289.983L150.176 273.116L159.336 273.177Z" fill="#F8AE9D"/>
<path fill-rule="evenodd" clip-rule="evenodd" d="M148.619 280.605L148.22 291.541H153.916L154.307 290.132C154.307 290.132 156.451 290.044 157.69 290.653C159 291.297 159.175 291.609 159.175 291.609L177.242 291.646C177.242 291.646 178.133 288.112 172.626 285.556C167.119 282.998 163.109 279.37 162.348 278.998C161.58 278.624 160.033 278.412 158.942 279.292C157.852 280.17 156.99 282.482 154.52 282.554C151.341 282.647 149.515 278.756 148.619 280.605ZM141.578 163.162C141.578 163.162 148.271 219.951 148.479 223.899C148.687 227.846 146.33 234.659 146.375 242.044C146.421 249.428 147.236 275.454 147.236 275.454L162 275.694C162 275.694 168.205 228.664 168.272 221.612C168.339 214.559 168.908 163.84 168.908 163.84L141.578 163.162Z" fill="#5D3004"/>
<path fill-rule="evenodd" clip-rule="evenodd" d="M123.518 271.993L120.641 289.466L131.248 289.413L131.583 271.719L123.518 271.993Z" fill="#F8AE9D"/>
<path fill-rule="evenodd" clip-rule="evenodd" d="M121.723 279.691C121.404 279.76 121.117 279.934 120.908 280.185C120.699 280.435 120.58 280.749 120.57 281.075L120.462 284.341C118.94 286.033 118.233 290.965 118.175 291.384C118.172 291.404 118.171 291.424 118.172 291.445C118.313 293.847 134.095 293.801 135.307 291.516C135.339 291.449 135.349 291.374 135.334 291.302C135.204 290.495 134.341 285.517 132.641 284.184L132.629 280.954C132.628 280.632 132.521 280.32 132.325 280.066C132.129 279.811 131.855 279.628 131.545 279.545L129.32 278.947C127.77 276.679 125.657 276.759 123.846 279.23L121.723 279.691ZM128.721 163.697C128.721 163.697 123.994 202.442 124.058 209.862C124.122 217.282 125.513 220.541 123.534 225.863C121.555 231.186 119.867 273.671 119.867 273.671L134.501 274.891C134.501 274.891 143.851 229.429 144.867 223.126C145.884 216.822 158.45 163.162 158.45 163.162L128.721 163.697Z" fill="#5D3004"/>
<path fill-rule="evenodd" clip-rule="evenodd" d="M201.702 94.0316C201.702 94.0316 200.48 87.222 200.92 85.8433C201.295 84.6513 204.842 82.9329 204.842 82.9329C204.842 82.9329 211.011 73.1873 212.361 74.1799C213.46 74.9841 209.148 82.1692 209.148 82.1692C209.148 82.1692 213.08 86.2935 213.025 88.1372C212.97 89.9809 206.608 95.7527 206.608 95.7527L201.702 94.0316ZM138.297 95.6316C138.297 95.6316 142.36 94.6775 142.501 88.0204C142.642 81.3628 142.543 79.0903 142.543 79.0903L152.175 78.9287C152.175 78.9287 152.272 86.3484 152.274 89.0321C152.278 94.8748 156.617 96.4535 156.617 96.4535C156.617 96.4535 156.256 102.842 148.147 103.298C141.815 103.654 138.297 95.6316 138.297 95.6316Z" fill="#F8AE9D"/>
<path fill-rule="evenodd" clip-rule="evenodd" d="M141.658 75.7257C137.666 75.571 138.317 81.4153 142.464 81.4078C142.464 81.4078 146.922 90.3694 153.919 90.3929C157.29 90.4041 158.39 87.4014 159.401 85.2937C160.411 83.1859 161.153 80.0334 161.214 78.1027C161.281 76.0446 161.289 69.283 161.289 69.283L141.502 69.2739L141.658 75.7257Z" fill="#F8AE9D"/>
<path fill-rule="evenodd" clip-rule="evenodd" d="M156.761 96.0565C156.761 96.0565 167.14 99.2965 169.639 103.167C177.694 110.243 187.767 119.961 187.767 119.961C187.767 119.961 197.363 95.8784 200.5 93.1323C202.646 91.2539 206.923 93.577 207.719 95.9642C208.743 99.0304 202.171 117.017 199.067 125.511C198.466 127.157 197.995 128.446 197.734 129.202C195.842 134.693 191.236 137.842 185.633 134.352C183.374 132.945 176.652 128.335 170.916 124.157C170.827 128.547 170.676 133.173 170.532 137.567C170.183 148.242 169.879 157.544 170.61 158.753C174.227 164.744 169.418 168.857 153.494 170.368C137.57 171.879 123.443 170.642 126.006 162.646C126.541 160.98 126.534 157.394 126.268 152.735C124.708 152.652 123.148 152.549 121.591 152.427C114.945 151.903 110.03 149.048 109.345 141.631C108.864 136.438 118.759 112.058 122.469 104.041C123.337 102.165 124.679 100.997 126.199 100.414C126.553 100.02 126.951 99.7424 127.399 99.5947C130.125 98.6965 139.896 94.5914 139.896 94.5914L151.519 102.196L156.761 96.0565ZM125.191 138.973L125.165 139.042L125.197 139.046C125.195 139.022 125.193 138.998 125.191 138.973Z" fill="#F08519"/>
<path fill-rule="evenodd" clip-rule="evenodd" d="M150.988 145.409C150.988 145.409 154.533 144.696 155.984 143.557C157.434 142.418 161.829 141.613 161.829 141.613L160.423 144.573C160.423 144.573 171.192 143.562 171.447 144.625C171.703 145.687 168.588 146.842 168.588 146.842C168.588 146.842 167.052 149.711 165.565 151.374C164.158 152.948 157.167 152.761 154.717 151.779C152.599 150.93 150.297 151.354 150.297 151.354L150.988 145.409Z" fill="#F8AE9D"/>
<path d="M142.738 69.5495C143.322 70.3127 144.35 70.4812 145.198 70.6322C146.337 70.8348 146.9 71.2578 147.491 72.3922C147.866 73.1175 148.24 73.9111 148.91 74.3036C149.456 74.6247 149.439 73.8119 149.52 73.1842C149.528 73.1254 149.539 73.0672 149.554 73.0098C149.685 72.5074 150.218 72.5916 150.372 73.0871C150.514 73.5356 150.818 73.9154 151.204 74.1266C151.267 74.1612 151.334 74.1917 151.401 74.1789C151.492 74.1655 151.562 74.0791 151.622 74.0018C151.744 73.8402 151.867 73.6354 151.993 73.4183C152.41 72.7015 153.205 72.9532 153.671 73.6391C153.962 74.0663 154.31 74.5063 154.786 74.6055C154.94 74.6402 155.133 74.6146 155.204 74.4631C155.295 74.278 155.153 74.0925 155.176 73.9026C155.196 73.7255 155.271 73.6482 155.354 73.4967C155.677 72.9143 156.425 72.893 156.881 73.3789C157.198 73.7163 157.529 74.0406 157.872 74.3511C158.018 74.4807 158.231 74.6103 158.377 74.4807C158.455 74.4114 158.475 74.2951 158.491 74.1831C158.574 73.6349 158.653 73.0871 158.735 72.5394C158.783 72.2327 158.944 71.8316 159.22 71.909C159.354 71.9479 159.433 72.0903 159.507 72.2199C159.598 72.3837 161.218 74.2519 161.25 74.1095C161.502 73.0482 162.018 72.0818 162.27 71.0204C163.902 64.1906 156.662 58.6983 151.133 58.6685C149.903 58.6599 148.78 58.6802 147.586 58.9693C146.313 59.2797 144.969 59.773 143.814 60.4674C142.194 61.4381 140.969 63.2029 141.284 65.3085" fill="#5D3004"/>
<path d="M147.24 67.3414C148.02 68.2331 148.227 69.4881 148.299 70.6731C148.406 72.4603 148.261 74.3174 147.443 75.9041C147.21 76.3558 147.038 78.591 146.679 78.4678C146.564 78.4289 146.583 76.6955 146.282 75.7611C145.815 74.3137 143.667 73.7617 142.7 74.6763C141.156 76.1318 142.062 77.8998 142.574 79.0001C142.879 79.6641 143.365 80.4097 143.449 81.1121C143.552 82.0113 143.583 85.2891 143.002 86.0534C142.517 86.6945 142 83.5985 141.561 82.9883C138.309 78.4443 135.19 66.8742 140.743 64.3649C141.588 63.983 144.195 63.7862 144.986 64.2726" fill="#5D3004"/>
<path fill-rule="evenodd" clip-rule="evenodd" d="M291.972 193.821H293.733C294.159 193.821 294.502 194.167 294.502 194.589V196.351C294.502 196.776 294.156 197.119 293.733 197.119H291.972C291.769 197.119 291.573 197.037 291.429 196.893C291.285 196.749 291.204 196.554 291.203 196.351V194.589C291.203 194.488 291.223 194.388 291.261 194.295C291.3 194.201 291.356 194.116 291.428 194.045C291.499 193.974 291.584 193.917 291.678 193.879C291.771 193.84 291.871 193.82 291.972 193.821ZM298.078 193.821H299.84C300.262 193.821 300.608 194.167 300.608 194.589V196.351C300.608 196.776 300.262 197.119 299.84 197.119H298.078C297.875 197.119 297.68 197.037 297.536 196.893C297.392 196.749 297.311 196.554 297.31 196.351V194.589C297.31 194.167 297.656 193.821 298.078 193.821ZM304.189 193.821H305.95C306.373 193.821 306.719 194.167 306.719 194.589V196.351C306.719 196.776 306.373 197.119 305.95 197.119H304.189C303.986 197.119 303.79 197.037 303.646 196.893C303.502 196.749 303.421 196.554 303.42 196.351V194.589C303.42 194.488 303.44 194.388 303.479 194.295C303.517 194.201 303.574 194.117 303.645 194.045C303.717 193.974 303.802 193.917 303.895 193.879C303.988 193.84 304.088 193.82 304.189 193.821ZM310.296 193.821H312.057C312.479 193.821 312.826 194.167 312.826 194.589V196.351C312.826 196.776 312.479 197.119 312.057 197.119H310.296C310.092 197.119 309.896 197.039 309.751 196.895C309.606 196.751 309.524 196.555 309.523 196.351V194.589C309.525 194.385 309.608 194.191 309.752 194.047C309.897 193.903 310.092 193.822 310.296 193.821ZM316.403 193.821H318.164C318.59 193.821 318.936 194.167 318.936 194.589V196.35C318.936 196.776 318.59 197.119 318.164 197.119H316.403C315.981 197.119 315.634 196.773 315.634 196.35V194.589C315.634 194.167 315.981 193.821 316.403 193.821ZM298.302 200.48H300.064C300.486 200.48 300.832 200.826 300.832 201.248V203.013C300.832 203.436 300.486 203.782 300.064 203.782H298.302C297.877 203.782 297.534 203.436 297.534 203.013V201.252C297.533 201.151 297.553 201.05 297.591 200.957C297.629 200.863 297.686 200.778 297.757 200.706C297.829 200.634 297.914 200.577 298.007 200.539C298.101 200.5 298.201 200.48 298.302 200.48ZM304.409 200.48H306.171C306.592 200.48 306.939 200.826 306.939 201.248V203.013C306.939 203.436 306.592 203.782 306.171 203.782H304.409C303.987 203.782 303.64 203.436 303.64 203.013V201.252C303.64 201.151 303.659 201.05 303.698 200.957C303.736 200.863 303.793 200.778 303.864 200.706C303.935 200.634 304.02 200.577 304.114 200.539C304.207 200.5 304.308 200.48 304.409 200.48ZM310.516 200.48H312.277C312.703 200.48 313.05 200.826 313.05 201.248V203.013C313.049 203.217 312.967 203.413 312.822 203.557C312.677 203.701 312.482 203.782 312.277 203.782H310.516C310.094 203.782 309.747 203.436 309.747 203.013V201.252C309.747 200.826 310.094 200.48 310.516 200.48ZM304.189 186.667H305.95C306.373 186.667 306.719 187.014 306.719 187.436V189.197C306.719 189.623 306.373 189.966 305.95 189.966H304.189C303.986 189.965 303.79 189.884 303.646 189.74C303.502 189.596 303.421 189.401 303.42 189.197V187.436C303.42 187.335 303.44 187.235 303.479 187.141C303.517 187.048 303.574 186.963 303.645 186.892C303.717 186.82 303.802 186.764 303.895 186.725C303.988 186.687 304.088 186.667 304.189 186.667ZM310.296 186.667H312.057C312.479 186.667 312.826 187.014 312.826 187.436V189.197C312.826 189.623 312.479 189.966 312.057 189.966H310.296C310.092 189.966 309.896 189.885 309.751 189.741C309.606 189.597 309.524 189.401 309.523 189.197V187.436C309.525 187.232 309.608 187.037 309.752 186.893C309.897 186.749 310.092 186.668 310.296 186.667Z" fill="#E1E4E5"/>
<path d="M317.519 248.867C321.602 246.071 322.005 239.555 322.005 239.555C322.005 239.555 315.788 237.577 311.707 240.377C307.624 243.173 307.219 249.685 307.219 249.685C307.219 249.685 313.436 251.663 317.519 248.867Z" fill="#E1E4E5"/>
<path d="M235.288 185.6C233.177 185.6 231.466 187.311 231.466 189.422C231.466 191.533 233.177 193.244 235.288 193.244C237.398 193.244 239.109 191.533 239.109 189.422C239.109 187.311 237.398 185.6 235.288 185.6Z" fill="#F08519"/>
<path d="M342.507 195.951C338.912 195.951 335.998 193.037 335.998 189.442C335.998 185.848 338.912 182.934 342.507 182.934C346.102 182.934 349.016 185.848 349.016 189.442C349.016 193.037 346.102 195.951 342.507 195.951Z" fill="#F08519"/>
<path d="M385.484 197.09C382.605 197.09 380.272 194.757 380.272 191.879C380.272 189 382.605 186.667 385.484 186.667C388.362 186.667 390.695 189 390.695 191.879C390.695 194.757 388.362 197.09 385.484 197.09Z" fill="#E1E4E5"/>
<path d="M238.619 277.889C235.552 277.889 233.066 275.403 233.066 272.336C233.066 269.269 235.552 266.783 238.619 266.783C241.686 266.783 244.172 269.269 244.172 272.336C244.172 275.403 241.686 277.889 238.619 277.889Z" fill="#E1E4E5"/>
<path d="M93.1086 147.666C90.6488 147.666 88.6548 145.672 88.6548 143.212C88.6548 140.752 90.6488 138.758 93.1086 138.758C95.5684 138.758 97.5625 140.752 97.5625 143.212C97.5625 145.672 95.5684 147.666 93.1086 147.666Z" fill="#E1E4E5"/>
<path d="M379.061 44.5304C375.306 44.5304 372.263 41.4866 372.263 37.732C372.263 33.9773 375.306 30.9336 379.061 30.9336C382.816 30.9336 385.859 33.9773 385.859 37.732C385.859 41.4866 382.816 44.5304 379.061 44.5304Z" fill="#E1E4E5"/>
<path d="M203.787 208.632C200.52 208.632 197.872 205.983 197.872 202.716C197.872 199.449 200.52 196.8 203.787 196.8C207.055 196.8 209.703 199.449 209.703 202.716C209.703 205.983 207.055 208.632 203.787 208.632Z" fill="#E1E4E5"/>
<path d="M364.551 215.814C362.038 215.814 360.001 214.184 360.001 212.174C360.001 210.163 362.038 208.533 364.551 208.533C367.064 208.533 369.102 210.163 369.102 212.174C369.102 214.184 367.064 215.814 364.551 215.814Z" fill="#E1E4E5"/>
<path d="M267.784 226.557C264.108 228.351 259.979 227.452 258.563 224.549C257.147 221.647 258.98 217.84 262.656 216.046C266.332 214.253 270.46 215.152 271.876 218.054C273.292 220.957 271.46 224.764 267.784 226.557Z" fill="#E1E4E5"/>
<path d="M282.865 34.986C284.096 39.5801 281.37 44.3022 276.776 45.5332C272.182 46.7642 267.46 44.0379 266.229 39.4438C264.998 34.8497 267.724 30.1276 272.318 28.8966C276.912 27.6656 281.634 30.392 282.865 34.986Z" fill="#E1E4E5"/>
<path d="M200.2 249.647H200.319C201.024 259.635 208.452 259.789 208.452 259.789C208.452 259.789 200.261 259.949 200.261 271.49C200.261 259.949 192.07 259.789 192.07 259.789C192.07 259.789 199.495 259.635 200.2 249.647Z" fill="#E1E4E5"/>
</g>
<defs>
<clipPath id="clip0_931_30585">
<rect width="480" height="320" fill="white"/>
</clipPath>
</defs>
</svg>
