<svg width="480" height="346" viewBox="0 0 480 346" fill="none" xmlns="http://www.w3.org/2000/svg">
<g clip-path="url(#clip0_490_31401)">
<path d="M414.331 213.357C416.663 256.396 332.639 343.912 229.074 311.52C180.906 296.453 184.986 271.445 148.36 238.487C126.529 218.844 95.1612 203.991 86.4371 175.438C78.9002 150.792 83.5224 124.302 96.5887 107.072C125.974 68.3224 185.298 41.7882 243.751 102.841C302.203 163.895 408.302 102.354 414.331 213.357Z" fill="url(#paint0_linear_490_31401)"/>
<path d="M384.937 105.263C376.9 119.627 359.298 121.601 331.099 118.871C309.89 116.814 290.55 115.223 269.34 103.642C254.495 95.5426 242.744 84.5833 234.167 73.9398C224.873 62.4094 211.9 49.2497 218.26 36.1756C226.999 18.2167 277.539 3.09042 326.615 27.8264C380.526 55.0062 392.799 91.2233 384.937 105.263Z" fill="url(#paint1_linear_490_31401)"/>
<path opacity="0.76" fill-rule="evenodd" clip-rule="evenodd" d="M91.0859 119.063C91.0859 69.4661 131.234 29.2609 180.758 29.2609C230.282 29.2609 270.429 69.4661 270.429 119.063C270.429 168.658 230.282 208.864 180.758 208.864C131.234 208.864 91.0859 168.658 91.0859 119.063ZM265.43 119.181C265.43 82.0309 235.358 51.9155 198.263 51.9155C161.167 51.9155 131.095 82.0309 131.095 119.181C131.095 156.33 161.167 186.446 198.263 186.446C235.358 186.446 265.43 156.33 265.43 119.181Z" fill="url(#paint2_linear_490_31401)"/>
<path opacity="0.76" d="M206.778 151.642C212.499 151.642 217.137 156.286 217.137 162.016C217.137 167.746 212.499 172.39 206.778 172.39C201.057 172.39 196.418 167.746 196.418 162.016C196.418 156.286 201.057 151.642 206.778 151.642Z" fill="url(#paint3_linear_490_31401)"/>
<path d="M425.415 139.064C414.895 139.064 406.367 130.524 406.367 119.989C406.367 109.453 414.895 100.913 425.415 100.913C435.934 100.913 444.462 109.453 444.462 119.989C444.462 130.524 435.934 139.064 425.415 139.064Z" fill="#FFF3EB"/>
<path d="M407.757 82.8261C404.304 82.8261 401.505 80.023 401.505 76.5652C401.505 73.1074 404.304 70.3044 407.757 70.3044C411.21 70.3044 414.009 73.1074 414.009 76.5652C414.009 80.023 411.21 82.8261 407.757 82.8261Z" fill="url(#paint4_linear_490_31401)"/>
<path d="M137.887 282.478C132.708 282.478 128.51 278.274 128.51 273.087C128.51 267.9 132.708 263.696 137.887 263.696C143.067 263.696 147.265 267.9 147.265 273.087C147.265 278.274 143.067 282.478 137.887 282.478Z" fill="#FFF3EB"/>
<path fill-rule="evenodd" clip-rule="evenodd" d="M364.966 254.772C364.573 254.716 364.173 254.74 363.789 254.841C363.405 254.941 363.045 255.117 362.729 255.359C362.414 255.6 362.149 255.902 361.951 256.246C361.753 256.591 361.626 256.971 361.576 257.365L351.06 340.474C350.962 341.249 351.175 342.032 351.652 342.649C352.13 343.267 352.833 343.67 353.606 343.768C354.38 343.867 355.162 343.654 355.779 343.176C356.395 342.697 356.797 341.993 356.896 341.218L367.518 258.124C367.618 257.341 367.407 256.55 366.929 255.923C366.451 255.296 365.746 254.882 364.966 254.772Z" fill="white" stroke="#E1E4E5" stroke-width="2.78261" stroke-linecap="round" stroke-linejoin="round"/>
<path fill-rule="evenodd" clip-rule="evenodd" d="M363.762 254.772C364.155 254.716 364.555 254.74 364.939 254.841C365.323 254.941 365.683 255.117 365.998 255.359C366.314 255.6 366.578 255.902 366.776 256.246C366.974 256.591 367.102 256.971 367.152 257.365L377.667 340.474C377.766 341.249 377.553 342.032 377.076 342.649C376.598 343.267 375.895 343.67 375.121 343.768C374.347 343.867 373.566 343.654 372.949 343.176C372.332 342.697 371.93 341.993 371.832 341.218L361.209 258.124C361.109 257.341 361.321 256.55 361.799 255.923C362.277 255.296 362.982 254.882 363.762 254.772ZM332.016 254.772C331.623 254.716 331.223 254.74 330.839 254.841C330.455 254.941 330.095 255.117 329.78 255.359C329.465 255.6 329.2 255.902 329.002 256.246C328.804 256.591 328.677 256.971 328.627 257.365L318.111 340.474C318.058 340.892 318.096 341.317 318.22 341.719C318.345 342.122 318.555 342.492 318.835 342.807C319.116 343.121 319.46 343.371 319.845 343.541C320.231 343.711 320.648 343.795 321.068 343.79C321.777 343.781 322.459 343.515 322.987 343.043C323.516 342.57 323.857 341.923 323.946 341.218L334.57 258.124C334.669 257.341 334.457 256.55 333.979 255.923C333.502 255.296 332.796 254.882 332.016 254.772ZM398.28 254.772C398.673 254.716 399.073 254.74 399.457 254.841C399.841 254.941 400.201 255.117 400.517 255.359C400.832 255.6 401.097 255.902 401.295 256.246C401.493 256.591 401.62 256.971 401.67 257.365L412.186 340.474C412.284 341.249 412.071 342.032 411.594 342.649C411.116 343.267 410.413 343.67 409.64 343.768C408.866 343.867 408.084 343.654 407.467 343.176C406.851 342.697 406.449 341.993 406.35 341.218L395.728 258.124C395.628 257.341 395.839 256.55 396.317 255.923C396.795 255.296 397.5 254.882 398.28 254.772Z" fill="white" stroke="#E1E4E5" stroke-width="2.78261" stroke-linecap="round" stroke-linejoin="round"/>
<path fill-rule="evenodd" clip-rule="evenodd" d="M324.669 268.414C319.513 268.414 315.333 264.229 315.333 259.065C315.333 253.902 319.513 249.716 324.669 249.716H345.015C360.329 249.716 373.13 238.048 374.565 222.778L377.936 186.933C379.037 175.227 388.85 166.282 400.591 166.282C413.845 166.282 424.295 177.582 423.279 190.818L419.785 236.3C418.393 254.421 403.304 268.414 385.155 268.414H324.669Z" fill="white" stroke="#E1E4E5" stroke-width="2.78261" stroke-linecap="round" stroke-linejoin="round"/>
<path fill-rule="evenodd" clip-rule="evenodd" d="M315.333 258.841C315.334 258.921 315.4 258.987 315.479 258.987H375.748C393.894 258.987 408.982 244.998 410.378 226.879L413.863 181.621C413.935 180.692 413.951 179.759 413.91 178.828C413.612 172.115 408.045 166.575 401.342 166.301C401.027 166.288 400.712 166.282 400.396 166.282C388.687 166.282 378.898 175.202 377.797 186.878L374.428 222.611C372.992 237.842 360.222 249.479 344.946 249.479H324.645C319.503 249.479 315.333 253.654 315.333 258.804V258.841Z" fill="white"/>
<path d="M375.748 257.595H315.479V260.378H375.748V257.595ZM408.992 226.772C407.652 244.166 393.168 257.595 375.748 257.595V260.378C394.619 260.378 410.311 245.829 411.762 226.986L408.992 226.772ZM412.478 181.514L408.992 226.772L411.762 226.986L415.248 181.728L412.478 181.514ZM412.522 178.889C412.56 179.764 412.545 180.641 412.478 181.514L415.248 181.728C415.324 180.742 415.341 179.753 415.297 178.766L412.522 178.889ZM400.396 167.673C400.694 167.673 400.99 167.679 401.284 167.691L401.398 164.911C401.064 164.898 400.73 164.891 400.396 164.891V167.673ZM379.18 187.008C380.214 176.048 389.403 167.673 400.396 167.673V164.891C387.969 164.891 377.582 174.357 376.414 186.746L379.18 187.008ZM375.81 222.742L379.18 187.008L376.414 186.746L373.044 222.48L375.81 222.742ZM344.946 250.87C360.939 250.87 374.307 238.687 375.81 222.742L373.044 222.48C371.676 236.996 359.506 248.087 344.946 248.087V250.87ZM324.645 250.87H344.946V248.087H324.645V250.87ZM316.722 258.804C316.722 254.422 320.269 250.87 324.645 250.87V248.087C318.735 248.087 313.944 252.885 313.944 258.804H316.722ZM316.722 258.836V258.804H313.944V258.846L316.722 258.836ZM415.297 178.766C414.968 171.33 408.821 165.214 401.398 164.911L401.284 167.691C407.269 167.936 412.256 172.901 412.522 178.889L415.297 178.766ZM315.479 257.595C315.808 257.595 316.123 257.726 316.357 257.958C316.59 258.191 316.721 258.506 316.722 258.836L313.944 258.846C313.945 259.253 314.108 259.643 314.395 259.93C314.683 260.217 315.073 260.378 315.479 260.378V257.595Z" fill="#E1E4E5"/>
<path fill-rule="evenodd" clip-rule="evenodd" d="M308.92 311.962C308.92 311.962 314.121 322.48 309.858 325.795C305.588 329.11 294.311 335.323 294.311 335.323L324.188 333.442L317.547 310.503L308.92 311.962Z" fill="#F8AE9D"/>
<path fill-rule="evenodd" clip-rule="evenodd" d="M321.23 321.48C320.29 321.929 321.835 326.155 318.527 325.858C315.22 325.562 313.144 321.194 310.705 321.478C308.265 321.76 306.717 326.16 302.073 329.224C297.43 332.288 290.546 335.943 291.007 339.024C291.468 342.105 302.302 342.93 307.791 341.91C313.279 340.891 315.841 338.681 319.402 338.857C322.963 339.033 325.2 338.597 326.317 336.308C327.433 334.018 322.315 320.961 321.23 321.48ZM353.929 219.257C344.884 219.662 294.541 230.813 285.394 232.708C276.248 234.602 268.515 244.853 275.489 256.723C283.323 270.048 303.536 307.89 308.443 316.421C310.872 320.643 323.125 318.276 320.247 311.189C314.881 297.978 312.39 264.791 298.709 252.69C298.709 252.69 344.715 260.708 364.587 251.524C379.03 244.847 375.763 218.28 353.929 219.257Z" fill="#5F4225"/>
<path fill-rule="evenodd" clip-rule="evenodd" d="M290.829 162.715C290.829 162.715 290.931 157.33 288.356 153.478C285.782 149.626 285.68 145.534 283.731 145.669C281.783 145.802 283.713 155.312 283.713 155.312C283.713 155.312 281.24 154.366 279.464 153.17C277.688 151.974 272.303 146.076 271.044 147.121C268.911 148.902 272.348 158.947 274.22 160.955C276.097 162.964 285.366 168.577 285.366 168.577L312.661 196.114L316.742 181.496L290.829 162.715Z" fill="#F8AE9D"/>
<path fill-rule="evenodd" clip-rule="evenodd" d="M345.424 160.284C341.216 170.057 333.512 188.01 330.336 193.367C326.356 200.075 320.079 203.031 312.73 198.053C311.193 197.012 306.777 193.369 306.777 193.369C307.431 186.994 309.809 181.666 313.909 177.381L316.693 179.688C316.693 179.688 324.59 159.417 330.942 147.674C336.444 137.514 351.829 145.426 345.424 160.284ZM363.609 122.347V130.995L369.95 125.882C369.95 125.882 371.9 117.596 373.485 111.442C374.479 107.584 376.901 94.5235 367.15 95.135C359.163 81.0348 335.902 89.7618 335.716 106.988C335.493 127.707 335.675 135.774 335.675 135.774C348.829 136.53 356.233 134.626 363.609 122.347Z" fill="#5F4225"/>
<path fill-rule="evenodd" clip-rule="evenodd" d="M370.087 138.813C370.087 138.813 364.188 137.426 363.983 127.746C363.779 118.066 363.923 114.761 363.923 114.761L350.929 114.527C350.929 114.527 350.787 125.315 350.785 129.217C350.779 138.705 343.812 139.483 343.812 139.483C343.812 139.483 345.003 147.31 356.778 147.974C365.971 148.492 370.087 138.813 370.087 138.813Z" fill="#F8AE9D"/>
<path fill-rule="evenodd" clip-rule="evenodd" d="M366.952 109.928C372.748 109.703 371.803 118.201 365.782 118.19C365.782 118.19 362.284 130.262 350.142 130.262C340.281 130.262 339.639 116.192 339.55 113.385C339.453 110.392 339.441 100.56 339.441 100.56L367.178 100.547L366.952 109.928Z" fill="#F8AE9D"/>
<path fill-rule="evenodd" clip-rule="evenodd" d="M367.4 109.872C364.998 110.269 365.29 111.862 364.636 111.723C361.319 111.016 347.893 111.948 346.165 104.554C344.014 109.173 343.488 110.309 338.751 111.549V98.0129L368.71 95.1349C368.71 95.1349 368.245 109.732 367.4 109.872Z" fill="#5F4225"/>
<path fill-rule="evenodd" clip-rule="evenodd" d="M368.769 137.822C361.366 142.363 352.808 144.028 344.841 139.097C331.839 164.77 328.599 195.403 331.727 229.259C350.685 236.776 366.619 235.298 380.185 226.706L368.769 137.822Z" fill="#F08519"/>
<path fill-rule="evenodd" clip-rule="evenodd" d="M276.513 312.384C276.513 312.384 276.67 324.764 266.483 329.393C256.303 334.021 249.05 333.742 249.974 337.321C250.897 340.898 277.393 340.754 279.868 337.956C281.977 335.575 286.563 313.408 287.826 315.103L276.513 312.384Z" fill="#F8AE9D"/>
<path fill-rule="evenodd" clip-rule="evenodd" d="M283.911 329.868C282.349 328.743 281.037 335.23 276.796 333.426C272.556 331.623 275.9 325.66 273.232 324.56C270.563 323.461 265.411 329.373 258.566 330.81C251.723 332.246 246.166 333.504 244.586 336.172C243.226 338.464 244.586 339.197 244.586 339.197C244.586 339.197 251.175 342.492 255.269 343.217C261.216 344.27 278.405 344.972 280.288 343.052C281.445 341.873 284.691 330.431 283.911 329.868ZM382.269 215.431C382.269 215.431 395.419 243.243 376.939 252.793C359.067 262.028 305.565 251.105 305.565 251.105C305.565 251.105 306.521 258.813 305.565 265.688C303.068 283.644 291.193 313.559 288.68 317.317C285.206 322.516 274.622 318.595 274.423 314.267C274.223 309.939 282.402 254.66 283.645 244.119C284.882 233.577 288.788 232.046 300.197 229.164C302.818 228.502 333.812 220.788 336.652 221.013C361.049 222.945 382.269 215.431 382.269 215.431Z" fill="#5F4225"/>
<path fill-rule="evenodd" clip-rule="evenodd" d="M368.445 137.843C356.185 178.065 348.832 235.089 387.124 225.168C366.783 187.663 394.435 170.782 388.168 151.399C386.025 144.772 368.606 137.323 368.445 137.843ZM345.489 138.815C340.811 150.567 338.562 159.788 336.463 177.038C334.713 191.406 335.589 221.053 335.589 221.053L329.807 222.191C329.807 222.191 325.674 176.388 327.056 170.49C329.375 160.594 330.946 154.811 334.008 145.765C335.695 140.799 345.489 138.815 345.489 138.815Z" fill="#5F4225"/>
<path fill-rule="evenodd" clip-rule="evenodd" d="M365.871 183.505C365.871 183.505 358.322 175.936 355.708 175.057C353.093 174.178 338.773 173.123 338.869 175.108C338.979 177.235 348.195 177.113 349.046 178.159C349.899 179.204 351.084 187.348 354.305 188.151C357.52 188.954 364.184 191.33 364.184 191.33L393.848 206.68L390.687 191.332L365.871 183.505Z" fill="#F8AE9D"/>
<path fill-rule="evenodd" clip-rule="evenodd" d="M388.593 151.454C397.591 164.171 405.273 183.544 408.222 191.096C411.171 198.649 408.196 210.041 395.229 207.804C393.685 207.538 391.174 206.56 391.174 206.56C386.407 200.014 385.57 194.395 387.349 189.392L389.026 190.1C389.026 190.1 376.139 167.224 372.992 161.091C367.735 150.85 380.667 140.249 388.593 151.454Z" fill="#5F4225"/>
<path d="M351.323 342.503C350.244 342.503 349.197 342.135 348.355 341.459C347.513 340.783 346.927 339.84 346.692 338.786L321.117 223.9C320.456 220.929 322.713 218.11 325.752 218.11C326.832 218.109 327.879 218.478 328.722 219.155C329.564 219.831 330.152 220.775 330.386 221.831L355.954 336.718C356.615 339.687 354.36 342.503 351.323 342.503ZM152.895 342.503C153.974 342.503 155.02 342.135 155.862 341.459C156.704 340.783 157.291 339.84 157.525 338.786L183.102 223.895C183.763 220.927 181.508 218.11 178.471 218.11C177.392 218.11 176.345 218.478 175.504 219.154C174.662 219.83 174.075 220.773 173.84 221.827L148.264 336.718C147.603 339.687 149.858 342.503 152.895 342.503Z" fill="white" stroke="#E1E4E5" stroke-width="2.78261" stroke-linecap="round" stroke-linejoin="round"/>
<path fill-rule="evenodd" clip-rule="evenodd" d="M152.214 218.322V214.001C152.214 211.521 153.479 209.511 155.033 209.499H350.947C352.51 209.499 353.767 211.521 353.767 214.001V218.322C353.767 220.814 352.502 222.824 350.947 222.824H344.722C343.473 222.824 342.274 223.321 341.39 224.206C340.506 225.091 340.01 226.292 340.01 227.543C340.009 227.731 339.972 227.917 339.9 228.09C339.827 228.264 339.722 228.421 339.589 228.553C339.455 228.686 339.298 228.79 339.124 228.862C338.95 228.933 338.764 228.969 338.577 228.968H162.231C161.853 228.968 161.491 228.818 161.224 228.551C160.957 228.284 160.806 227.921 160.806 227.543C160.806 226.923 160.684 226.31 160.447 225.737C160.21 225.165 159.863 224.644 159.425 224.206C158.988 223.768 158.468 223.42 157.896 223.183C157.325 222.946 156.712 222.824 156.093 222.824H155.033C153.47 222.824 152.214 220.814 152.214 218.322Z" fill="white"/>
<path d="M155.034 209.499L155.023 208.107H155.034V209.499ZM153.604 214.001V218.322H150.825V214.001H153.604ZM155.044 210.89C154.91 210.891 154.582 210.985 154.218 211.565C153.866 212.125 153.604 212.983 153.604 214.001H150.825C150.825 212.539 151.195 211.152 151.865 210.085C152.522 209.036 153.603 208.119 155.023 208.107L155.044 210.89ZM350.948 210.89H155.034V208.107H350.948V210.89ZM352.378 214.001C352.378 212.981 352.116 212.119 351.765 211.558C351.403 210.978 351.079 210.89 350.948 210.89V208.107C352.379 208.107 353.464 209.031 354.121 210.082C354.789 211.152 355.157 212.542 355.157 214.001H352.378ZM352.378 218.322V214.001H355.157V218.322H352.378ZM350.948 221.433C351.076 221.433 351.401 221.346 351.764 220.767C352.115 220.208 352.378 219.348 352.378 218.322H355.157C355.157 219.787 354.787 221.179 354.117 222.247C353.459 223.297 352.374 224.215 350.948 224.215V221.433ZM344.723 221.433H350.948V224.215H344.723V221.433ZM338.577 227.577C338.585 227.577 338.592 227.576 338.599 227.573C338.604 227.571 338.608 227.568 338.612 227.564C338.615 227.561 338.618 227.558 338.619 227.554C338.62 227.553 338.621 227.55 338.621 227.543H341.4C341.4 229.111 340.126 230.359 338.577 230.359V227.577ZM162.231 227.577H338.577V230.359H162.231V227.577ZM162.196 227.543C162.196 227.55 162.197 227.553 162.198 227.555C162.199 227.558 162.201 227.562 162.206 227.566C162.209 227.57 162.213 227.573 162.217 227.574C162.222 227.576 162.226 227.577 162.231 227.577V230.359C161.485 230.359 160.77 230.063 160.242 229.535C159.714 229.007 159.418 228.29 159.417 227.543H162.196ZM155.034 221.433H156.093V224.215H155.034V221.433ZM153.604 218.322C153.604 219.349 153.866 220.21 154.216 220.768C154.576 221.344 154.9 221.433 155.034 221.433V224.215C153.605 224.215 152.519 223.298 151.861 222.246C151.192 221.177 150.825 219.786 150.825 218.322H153.604ZM159.417 227.543C159.417 227.106 159.331 226.673 159.164 226.27C158.997 225.866 158.752 225.499 158.444 225.19C158.135 224.881 157.769 224.636 157.365 224.468C156.962 224.301 156.53 224.215 156.093 224.215V221.433C156.895 221.433 157.688 221.591 158.429 221.898C159.169 222.205 159.842 222.655 160.408 223.222C160.975 223.79 161.425 224.463 161.731 225.205C162.038 225.946 162.196 226.741 162.196 227.543H159.417ZM344.723 224.215C343.842 224.215 342.996 224.566 342.373 225.19C341.75 225.814 341.4 226.661 341.4 227.543H338.621C338.621 225.923 339.264 224.368 340.408 223.222C341.553 222.076 343.105 221.433 344.723 221.433V224.215Z" fill="#E1E4E5"/>
<path d="M266.131 4.04346H157.414C149.742 4.04346 143.521 10.2725 143.521 17.9565V156.449C143.521 164.133 149.742 170.362 157.414 170.362H266.131C273.804 170.362 280.024 164.133 280.024 156.449V17.9565C280.024 10.2725 273.804 4.04346 266.131 4.04346Z" fill="white" stroke="#E1E4E5" stroke-width="2.78261" stroke-linecap="round" stroke-linejoin="round"/>
<mask id="mask0_490_31401" style="mask-type:alpha" maskUnits="userSpaceOnUse" x="142" y="2" width="140" height="170">
<path d="M143.521 4.04346H280.024V170.362H143.521V4.04346Z" fill="white" stroke="white" stroke-width="2.78261" stroke-linecap="round" stroke-linejoin="round"/>
</mask>
<g mask="url(#mask0_490_31401)">
<path d="M243.82 108.391H179.913C177.227 108.391 175.05 110.572 175.05 113.261C175.05 115.95 177.227 118.13 179.913 118.13H243.82C246.506 118.13 248.683 115.95 248.683 113.261C248.683 110.572 246.506 108.391 243.82 108.391Z" fill="white" stroke="#E1E4E5" stroke-width="2.78261" stroke-linecap="round" stroke-linejoin="round"/>
<path d="M243.126 87.5218H180.607C177.538 87.5218 175.05 90.0134 175.05 93.087C175.05 96.1606 177.538 98.6522 180.607 98.6522H243.126C246.195 98.6522 248.683 96.1606 248.683 93.087C248.683 90.0134 246.195 87.5218 243.126 87.5218Z" fill="white" stroke="#E1E4E5" stroke-width="2.78261" stroke-linecap="round" stroke-linejoin="round"/>
<path d="M230.622 127.174H193.111C190.042 127.174 187.554 129.666 187.554 132.739C187.554 135.813 190.042 138.304 193.111 138.304H230.622C233.691 138.304 236.179 135.813 236.179 132.739C236.179 129.666 233.691 127.174 230.622 127.174Z" fill="white" stroke="#E1E4E5" stroke-width="2.78261" stroke-linecap="round" stroke-linejoin="round"/>
<path fill-rule="evenodd" clip-rule="evenodd" d="M211.867 19.3478C226.062 19.3478 237.569 30.872 237.569 45.087C237.569 59.3026 226.062 70.8261 211.867 70.8261C197.672 70.8261 186.165 59.3026 186.165 45.087C186.165 30.872 197.672 19.3478 211.867 19.3478ZM212.214 33.2609C205.5 33.2609 200.058 38.7113 200.058 45.4348C200.058 52.1583 205.5 57.6087 212.214 57.6087C218.928 57.6087 224.371 52.1583 224.371 45.4348C224.371 38.7113 218.928 33.2609 212.214 33.2609Z" fill="#F08519"/>
</g>
<path fill-rule="evenodd" clip-rule="evenodd" d="M84.7844 308.775H86.4606C86.8656 308.775 87.192 309.106 87.192 309.508V311.187C87.192 311.593 86.8628 311.92 86.4606 311.92H84.7844C84.5906 311.919 84.4049 311.841 84.2677 311.704C84.1306 311.567 84.0532 311.381 84.0522 311.187V309.508C84.0521 309.411 84.0709 309.316 84.1076 309.227C84.1444 309.138 84.1983 309.057 84.2663 308.989C84.3344 308.921 84.4152 308.867 84.5041 308.83C84.593 308.794 84.6882 308.775 84.7844 308.775ZM90.5965 308.775H92.2727C92.6742 308.775 93.0041 309.106 93.0041 309.508V311.187C93.0041 311.593 92.6742 311.92 92.2727 311.92H90.5965C90.4027 311.919 90.217 311.841 90.0798 311.704C89.9427 311.567 89.8653 311.381 89.8643 311.187V309.508C89.8643 309.106 90.1943 308.775 90.5965 308.775ZM96.4128 308.775H98.0889C98.4905 308.775 98.8204 309.106 98.8204 309.508V311.187C98.8204 311.593 98.4905 311.92 98.0889 311.92H96.4128C96.2189 311.919 96.0332 311.841 95.8961 311.704C95.759 311.567 95.6815 311.381 95.6806 311.187V309.508C95.6804 309.411 95.6993 309.316 95.736 309.227C95.7727 309.138 95.8267 309.057 95.8947 308.989C95.9627 308.921 96.0435 308.867 96.1324 308.83C96.2213 308.794 96.3166 308.775 96.4128 308.775ZM102.225 308.775H103.901C104.303 308.775 104.633 309.106 104.633 309.508V311.187C104.633 311.593 104.303 311.92 103.901 311.92H102.225C102.03 311.92 101.844 311.843 101.706 311.705C101.568 311.568 101.49 311.382 101.489 311.187V309.508C101.491 309.313 101.57 309.128 101.707 308.991C101.845 308.854 102.031 308.776 102.225 308.775Z" fill="#E1E4E5"/>
<path fill-rule="evenodd" clip-rule="evenodd" d="M179.931 304.043H184.748C185.307 304.044 185.842 304.266 186.238 304.661C186.634 305.056 186.857 305.592 186.859 306.151V310.979C186.859 311.256 186.804 311.531 186.698 311.787C186.592 312.043 186.436 312.276 186.24 312.471C186.044 312.667 185.811 312.822 185.555 312.928C185.299 313.034 185.025 313.088 184.748 313.087H179.931C179.374 313.084 178.84 312.861 178.447 312.467C178.053 312.072 177.831 311.537 177.829 310.979V306.151C177.831 305.593 178.053 305.059 178.447 304.664C178.84 304.269 179.374 304.046 179.931 304.043Z" fill="url(#paint5_linear_490_31401)"/>
<path fill-rule="evenodd" clip-rule="evenodd" d="M90.8094 315.122H92.4856C92.8878 315.122 93.2171 315.453 93.2171 315.855V317.538C93.2171 317.94 92.8878 318.27 92.4856 318.27H90.8094C90.6154 318.27 90.4294 318.193 90.2922 318.056C90.1549 317.918 90.0776 317.732 90.0773 317.538V315.858C90.0767 315.762 90.0953 315.666 90.1318 315.577C90.1684 315.487 90.2223 315.406 90.2903 315.338C90.3584 315.269 90.4393 315.215 90.5284 315.178C90.6175 315.141 90.713 315.122 90.8094 315.122ZM96.6215 315.122H98.2977C98.6999 315.122 99.0292 315.453 99.0292 315.855V317.538C99.0292 317.94 98.6999 318.27 98.2977 318.27H96.6215C96.4277 318.269 96.242 318.192 96.1049 318.055C95.9677 317.918 95.8903 317.732 95.8894 317.538V315.858C95.8888 315.762 95.9074 315.666 95.9439 315.577C95.9805 315.487 96.0344 315.406 96.1024 315.338C96.1705 315.269 96.2514 315.215 96.3405 315.178C96.4296 315.141 96.5251 315.122 96.6215 315.122ZM102.434 315.122H104.111C104.515 315.122 104.845 315.453 104.845 315.855V317.538C104.845 317.94 104.515 318.27 104.111 318.27H102.434C102.24 318.269 102.054 318.192 101.917 318.055C101.78 317.917 101.703 317.732 101.702 317.538V315.858C101.702 315.453 102.032 315.122 102.434 315.122ZM96.4124 301.956H98.0886C98.4901 301.956 98.8201 302.287 98.8201 302.689V304.368C98.8201 304.774 98.4901 305.101 98.0886 305.101H96.4124C96.2186 305.1 96.0329 305.023 95.8958 304.886C95.7587 304.748 95.6812 304.562 95.6803 304.368V302.689C95.6801 302.593 95.6989 302.497 95.7357 302.408C95.7724 302.319 95.8263 302.238 95.8944 302.17C95.9624 302.102 96.0432 302.048 96.1321 302.012C96.221 301.975 96.3163 301.956 96.4124 301.956ZM102.225 301.956H103.901C104.303 301.956 104.632 302.287 104.632 302.689V304.368C104.632 304.774 104.303 305.101 103.901 305.101H102.225C102.03 305.101 101.844 305.024 101.706 304.887C101.568 304.749 101.49 304.563 101.489 304.368V302.689C101.491 302.495 101.569 302.309 101.707 302.172C101.845 302.035 102.03 301.958 102.225 301.956ZM49.6649 193.385H52.0468C52.6234 193.385 53.0867 193.855 53.0867 194.427V196.812C53.0867 197.39 52.6185 197.854 52.0468 197.854H49.6649C49.3894 197.852 49.1256 197.742 48.9308 197.547C48.736 197.352 48.6261 197.088 48.625 196.812V194.427C48.6247 194.29 48.6514 194.154 48.7036 194.028C48.7558 193.901 48.8323 193.787 48.929 193.69C49.0256 193.593 49.1403 193.516 49.2666 193.464C49.3929 193.412 49.5282 193.385 49.6649 193.385ZM57.9242 193.385H60.3062C60.8778 193.385 61.346 193.855 61.346 194.427V196.812C61.346 197.39 60.8778 197.854 60.3062 197.854H57.9242C57.6488 197.852 57.3849 197.742 57.1901 197.547C56.9953 197.352 56.8854 197.088 56.8843 196.812V194.427C56.8843 193.855 57.3532 193.385 57.9242 193.385ZM66.1891 193.385H68.5717C69.1427 193.385 69.6116 193.855 69.6116 194.427V196.812C69.6116 197.39 69.1427 197.854 68.5717 197.854H66.1891C65.9137 197.852 65.6498 197.742 65.455 197.547C65.2602 197.352 65.1503 197.088 65.1492 196.812V194.427C65.1489 194.29 65.1757 194.154 65.2278 194.028C65.28 193.901 65.3566 193.787 65.4532 193.69C65.5498 193.593 65.6646 193.516 65.7908 193.464C65.9171 193.412 66.0525 193.385 66.1891 193.385ZM74.4484 193.385H76.8311C77.4021 193.385 77.871 193.855 77.871 194.427V196.812C77.871 197.39 77.4021 197.854 76.8311 197.854H74.4484C74.1723 197.854 73.9073 197.744 73.7117 197.549C73.516 197.354 73.4055 197.089 73.4044 196.812V194.427C73.4073 194.151 73.5184 193.887 73.7137 193.692C73.9089 193.497 74.1728 193.387 74.4484 193.385ZM82.7092 193.385H85.0911C85.667 193.385 86.1359 193.855 86.1359 194.427V196.812C86.1356 196.949 86.1083 197.085 86.0557 197.211C86.003 197.338 85.926 197.453 85.8289 197.55C85.7319 197.646 85.6168 197.723 85.4902 197.775C85.3636 197.827 85.228 197.854 85.0911 197.854H82.7092C82.4337 197.853 82.1697 197.743 81.9749 197.548C81.7801 197.352 81.6702 197.088 81.6693 196.812V194.427C81.6693 193.855 82.1375 193.385 82.7092 193.385ZM58.2271 202.405H60.6097C61.1807 202.405 61.6496 202.874 61.6496 203.447V205.837C61.6496 206.409 61.1807 206.878 60.6097 206.878H58.2271C57.9515 206.878 57.6873 206.768 57.4924 206.573C57.2976 206.378 57.1881 206.113 57.1879 205.837V203.451C57.187 203.314 57.2132 203.178 57.265 203.051C57.3169 202.924 57.3933 202.809 57.4899 202.712C57.5865 202.614 57.7014 202.537 57.8279 202.485C57.9544 202.432 58.0901 202.405 58.2271 202.405ZM66.4864 202.405H68.8691C69.4401 202.405 69.9089 202.874 69.9089 203.447V205.837C69.9089 206.409 69.4401 206.878 68.8691 206.878H66.4864C66.211 206.877 65.9471 206.767 65.7523 206.572C65.5575 206.377 65.4476 206.113 65.4465 205.837V203.451C65.4457 203.314 65.472 203.178 65.5239 203.051C65.5758 202.924 65.6523 202.809 65.749 202.712C65.8456 202.614 65.9606 202.537 66.0871 202.485C66.2137 202.432 66.3494 202.405 66.4864 202.405ZM74.7465 202.405H77.1291C77.7049 202.405 78.1738 202.874 78.1738 203.447V205.837C78.1738 206.409 77.7049 206.878 77.1291 206.878H74.7465C74.471 206.877 74.2071 206.767 74.0124 206.572C73.8176 206.377 73.7077 206.113 73.7066 205.837V203.451C73.7066 202.874 74.1755 202.405 74.7465 202.405ZM66.1891 183.696H68.5717C69.1427 183.696 69.6116 184.165 69.6116 184.737V187.122C69.6116 187.7 69.1427 188.164 68.5717 188.164H66.1891C65.9137 188.163 65.6498 188.053 65.455 187.858C65.2602 187.662 65.1503 187.398 65.1492 187.122V184.737C65.1489 184.6 65.1757 184.465 65.2278 184.338C65.28 184.212 65.3566 184.097 65.4532 184C65.5498 183.903 65.6646 183.827 65.7908 183.774C65.9171 183.722 66.0525 183.695 66.1891 183.696ZM74.4484 183.696H76.8311C77.4021 183.696 77.871 184.165 77.871 184.737V187.122C77.871 187.7 77.4021 188.164 76.8311 188.164H74.4484C74.1723 188.164 73.9073 188.054 73.7117 187.859C73.516 187.664 73.4055 187.399 73.4044 187.122V184.737C73.4073 184.461 73.5184 184.197 73.7137 184.002C73.9089 183.808 74.1728 183.697 74.4484 183.696ZM425.931 275.406H427.785C428.233 275.406 428.593 275.771 428.593 276.216V278.071C428.593 278.52 428.229 278.881 427.785 278.881H425.931C425.717 278.88 425.512 278.795 425.36 278.643C425.209 278.491 425.124 278.286 425.123 278.071V276.216C425.123 276.11 425.143 276.004 425.184 275.906C425.224 275.807 425.284 275.718 425.359 275.643C425.434 275.568 425.523 275.508 425.622 275.467C425.72 275.427 425.825 275.406 425.931 275.406ZM432.355 275.406H434.208C434.653 275.406 435.017 275.771 435.017 276.216V278.071C435.017 278.52 434.653 278.881 434.208 278.881H432.355C432.141 278.88 431.936 278.795 431.785 278.643C431.633 278.491 431.548 278.286 431.547 278.071V276.216C431.547 275.771 431.912 275.406 432.355 275.406ZM438.784 275.406H440.637C441.081 275.406 441.446 275.771 441.446 276.216V278.071C441.446 278.52 441.081 278.881 440.637 278.881H438.784C438.569 278.88 438.364 278.795 438.213 278.643C438.061 278.491 437.976 278.286 437.975 278.071V276.216C437.975 276.11 437.996 276.004 438.036 275.906C438.077 275.807 438.136 275.718 438.211 275.643C438.286 275.568 438.376 275.508 438.474 275.467C438.572 275.427 438.677 275.406 438.784 275.406ZM445.208 275.406H447.061C447.505 275.406 447.87 275.771 447.87 276.216V278.071C447.87 278.52 447.505 278.881 447.061 278.881H445.208C444.993 278.881 444.787 278.796 444.635 278.644C444.483 278.492 444.397 278.286 444.396 278.071V276.216C444.399 275.771 444.764 275.406 445.208 275.406ZM451.633 275.406H453.485C453.933 275.406 454.298 275.771 454.298 276.216V278.071C454.298 278.52 453.933 278.881 453.485 278.881H451.633C451.188 278.881 450.824 278.516 450.824 278.071V276.216C450.824 275.771 451.188 275.406 451.633 275.406ZM432.592 282.421H434.444C434.889 282.421 435.253 282.786 435.253 283.231V285.09C435.253 285.536 434.889 285.901 434.444 285.901H432.592C432.377 285.901 432.171 285.815 432.02 285.663C431.868 285.511 431.783 285.305 431.782 285.09V283.235C431.782 283.128 431.802 283.023 431.843 282.924C431.883 282.825 431.943 282.735 432.018 282.66C432.093 282.584 432.183 282.524 432.281 282.483C432.379 282.442 432.485 282.421 432.592 282.421ZM439.015 282.421H440.868C441.312 282.421 441.677 282.786 441.677 283.231V285.09C441.676 285.305 441.591 285.51 441.439 285.662C441.288 285.814 441.083 285.9 440.868 285.901H439.015C438.801 285.9 438.596 285.814 438.444 285.662C438.293 285.51 438.207 285.305 438.206 285.09V283.235C438.206 283.128 438.226 283.023 438.267 282.924C438.307 282.825 438.366 282.735 438.442 282.66C438.517 282.584 438.606 282.524 438.705 282.483C438.803 282.442 438.908 282.421 439.015 282.421ZM445.44 282.421H447.292C447.74 282.421 448.105 282.786 448.105 283.231V285.09C448.104 285.306 448.018 285.512 447.866 285.664C447.714 285.816 447.507 285.901 447.292 285.901H445.44C445.225 285.9 445.02 285.814 444.869 285.662C444.717 285.511 444.631 285.305 444.631 285.09V283.235C444.631 282.786 444.995 282.421 445.44 282.421ZM438.784 267.87H440.637C441.081 267.87 441.446 268.235 441.446 268.679V270.535C441.446 270.984 441.081 271.345 440.637 271.345H438.784C438.57 271.344 438.364 271.258 438.213 271.107C438.062 270.955 437.976 270.75 437.975 270.535V268.679C437.975 268.573 437.996 268.467 438.036 268.369C438.077 268.271 438.136 268.182 438.212 268.106C438.287 268.031 438.376 267.971 438.474 267.931C438.572 267.89 438.677 267.869 438.784 267.87ZM445.208 267.87H447.061C447.505 267.87 447.87 268.235 447.87 268.679V270.535C447.87 270.984 447.505 271.345 447.061 271.345H445.208C444.993 271.345 444.787 271.26 444.635 271.108C444.483 270.956 444.397 270.75 444.396 270.535V268.679C444.398 268.465 444.485 268.26 444.636 268.108C444.788 267.957 444.993 267.871 445.208 267.87Z" fill="#E1E4E5"/>
<path d="M96.1718 41.4737C95.6661 43.4974 96.3364 45.601 97.4423 47.368C98.2238 48.6167 99.3158 47.2379 100.909 47.0167C103.373 46.6716 104.933 44.0595 105.465 37.6963C105.713 33.0494 105.596 30.7301 105.338 30.3245C104.417 28.872 102.05 28.3857 100.184 28.5263" fill="#5F4225"/>
<path fill-rule="evenodd" clip-rule="evenodd" d="M100.644 318.04C100.644 318.04 100.494 327.596 106.384 330.99C112.273 334.385 121.397 340.692 121.397 340.692L86.687 341.864L87.6762 317.954L100.644 318.04Z" fill="#F8AE9D"/>
<path fill-rule="evenodd" clip-rule="evenodd" d="M85.4765 328.57L84.9117 344.073H92.9738L93.5267 342.076C93.5267 342.076 96.5616 341.952 98.3156 342.814C100.17 343.726 100.419 344.169 100.419 344.169L125.992 344.222C125.992 344.222 127.254 339.212 119.459 335.588C111.663 331.963 105.987 326.818 104.908 326.292C103.823 325.762 101.632 325.462 100.089 326.709C98.5455 327.954 97.325 331.23 93.8289 331.333C89.329 331.465 86.7435 325.949 85.4765 328.57ZM75.5083 162.085C75.5083 162.085 84.9819 242.589 85.2764 248.185C85.5716 253.781 82.2339 263.439 82.2985 273.906C82.3638 284.375 83.5176 321.268 83.5176 321.268L104.416 321.609C104.416 321.609 113.199 254.94 113.294 244.943C113.388 234.946 114.194 163.048 114.194 163.048L75.5083 162.085Z" fill="#5F4225"/>
<path fill-rule="evenodd" clip-rule="evenodd" d="M49.9467 316.361L45.874 341.13L60.8881 341.055L61.3632 315.973L49.9467 316.361Z" fill="#F8AE9D"/>
<path fill-rule="evenodd" clip-rule="evenodd" d="M47.2861 327.302C46.8709 327.392 46.4978 327.619 46.2258 327.946C45.9537 328.273 45.7984 328.681 45.7843 329.106L45.628 333.867C43.4704 336.27 42.4687 343.282 42.3902 343.854C42.3864 343.88 42.385 343.906 42.3861 343.933C42.5695 347.345 64.9773 347.278 66.6473 344.025C66.6887 343.939 66.7006 343.841 66.6813 343.746C66.5049 342.645 65.283 335.541 62.867 333.643L62.8496 328.938C62.8484 328.519 62.7094 328.112 62.4542 327.78C62.1989 327.448 61.8417 327.209 61.4374 327.1L58.1663 326.219C55.972 323.005 52.9808 323.118 50.4176 326.621L47.2861 327.302ZM57.3182 162.843C57.3182 162.843 50.628 217.769 50.7184 228.286C50.8094 238.805 52.778 243.424 49.9765 250.969C47.175 258.515 44.7861 318.741 44.7861 318.741L65.5018 320.469C65.5018 320.469 78.7355 256.024 80.1748 247.089C81.6141 238.154 99.4005 162.085 99.4005 162.085L57.3182 162.843Z" fill="#5F4225"/>
<path fill-rule="evenodd" clip-rule="evenodd" d="M160.617 64.0887C160.617 64.0887 158.887 54.4358 159.509 52.481C160.04 50.792 165.061 48.3558 165.061 48.3558C165.061 48.3558 173.794 34.5409 175.705 35.9475C177.259 37.0877 171.157 47.2727 171.157 47.2727C171.157 47.2727 176.721 53.1197 176.644 55.7325C176.567 58.3468 167.561 66.5284 167.561 66.5284L160.617 64.0887ZM70.8638 66.3565C70.8638 66.3565 76.6154 65.0049 76.8148 55.567C77.0142 46.1297 76.8738 42.9089 76.8738 42.9089L90.509 42.6793C90.509 42.6793 90.6466 53.1976 90.6487 57.0014C90.6542 65.2838 96.7963 67.5217 96.7963 67.5217C96.7963 67.5217 96.2857 76.5778 84.8067 77.224C75.8444 77.7297 70.8638 66.3565 70.8638 66.3565Z" fill="#F8AE9D"/>
<path fill-rule="evenodd" clip-rule="evenodd" d="M75.6218 38.1381C69.9708 37.919 70.8926 46.2042 76.7631 46.193C76.7631 46.193 83.0725 58.897 92.9775 58.9304C97.749 58.9457 99.3071 54.6897 100.737 51.7019C102.168 48.7141 103.217 44.2445 103.305 41.5085C103.399 38.591 103.41 29.0049 103.41 29.0049L75.4023 28.9923L75.6218 38.1381Z" fill="#F8AE9D"/>
<path fill-rule="evenodd" clip-rule="evenodd" d="M97.0108 66.9596C97.0108 66.9596 111.7 71.5516 115.24 77.0368C126.642 87.0688 140.903 100.846 140.903 100.846C140.903 100.846 154.486 66.7064 158.926 62.8142C161.964 60.1513 168.017 63.4438 169.146 66.8282C170.595 71.1753 161.292 96.6709 156.898 108.713C156.047 111.046 155.38 112.873 155.011 113.945C152.332 121.729 145.813 126.194 137.881 121.246C134.684 119.252 125.168 112.717 117.049 106.793C116.922 113.017 116.708 119.575 116.505 125.803C116.011 140.935 115.581 154.122 116.615 155.835C121.735 164.329 114.927 170.159 92.3866 172.301C69.8467 174.443 49.8493 172.689 53.4781 161.355C54.2346 158.993 54.2249 153.91 53.8477 147.305C51.6395 147.188 49.4329 147.042 47.2284 146.869C37.8208 146.126 30.8639 142.078 29.8935 131.565C29.2141 124.203 43.2189 89.6414 48.4711 78.2772C49.6992 75.6184 51.5991 73.9628 53.7511 73.137C54.2519 72.5777 54.816 72.184 55.4502 71.9753C59.3076 70.7015 73.1387 64.8824 73.1387 64.8824L89.592 75.6629L97.0108 66.9596ZM52.3236 127.798L52.2868 127.894L52.3326 127.899L52.3236 127.798Z" fill="#F08519"/>
<path fill-rule="evenodd" clip-rule="evenodd" d="M88.8323 136.92C88.8323 136.92 93.8512 135.909 95.9052 134.295C97.9586 132.68 104.178 131.538 104.178 131.538L102.189 135.735C102.189 135.735 117.433 134.302 117.794 135.808C118.155 137.314 113.746 138.951 113.746 138.951C113.746 138.951 111.572 143.019 109.467 145.376C107.475 147.607 97.58 147.342 94.111 145.95C91.1136 144.747 87.855 145.348 87.855 145.348L88.8323 136.92Z" fill="#F8AE9D"/>
<path d="M77.1584 29.3833C77.9844 30.4657 79.4404 30.7043 80.64 30.9179C82.2523 31.2059 83.0497 31.8049 83.8868 33.4132C84.4168 34.4407 84.9468 35.5662 85.895 36.1228C86.6674 36.5784 86.6438 35.4257 86.7584 34.5353C86.7688 34.4519 86.7851 34.3694 86.8071 34.2883C86.9912 33.5767 87.7455 33.6963 87.9643 34.3982C88.1651 35.0341 88.5951 35.5725 89.1418 35.8723C89.2307 35.921 89.3258 35.9642 89.4203 35.9454C89.5488 35.9273 89.6496 35.8049 89.7329 35.6949C89.9073 35.4661 90.0802 35.1753 90.2588 34.8678C90.8485 33.8522 91.9745 34.2083 92.6338 35.1809C93.0471 35.7868 93.5375 36.4101 94.2127 36.5513C94.4301 36.6 94.7038 36.5631 94.8038 36.3489C94.9323 36.0859 94.7316 35.8229 94.7649 35.5544C94.7927 35.3033 94.899 35.1934 95.0157 34.9791C95.4728 34.1534 96.5321 34.1235 97.1774 34.8115C97.6276 35.2915 98.0957 35.7506 98.5806 36.1902C98.7869 36.3739 99.0884 36.5569 99.2947 36.3739C99.4065 36.2758 99.4343 36.1109 99.4566 35.9516C99.574 35.1746 99.6851 34.3982 99.8025 33.6212C99.8692 33.1871 100.098 32.6181 100.489 32.7287C100.678 32.7836 100.79 32.9854 100.896 33.169C101.024 33.4014 103.317 36.0497 103.362 35.848C103.719 34.3433 104.45 32.9736 104.807 31.4689C107.116 21.7868 96.8683 14.001 89.0411 13.9586C87.301 13.9461 85.7109 13.9753 84.0201 14.385C82.2182 14.8254 80.3163 15.5245 78.6818 16.5089C76.3888 17.8849 74.6536 20.3864 75.1002 23.3715" fill="#5F4225"/>
<path d="M83.5238 26.2535C84.6276 27.5175 84.9201 29.2963 85.0222 30.977C85.1743 33.5106 84.9687 36.1422 83.8107 38.392C83.4808 39.032 83.237 42.2007 82.7285 42.0254C82.5666 41.9711 82.5937 39.5134 82.1658 38.1895C81.5059 36.1374 78.4654 35.3548 77.097 36.6515C74.9109 38.7148 76.1933 41.2212 76.9178 42.7808C77.3512 43.7221 78.0382 44.7781 78.157 45.7742C78.3029 47.0494 78.3467 51.6956 77.5242 52.7795C76.8372 53.688 76.1064 49.2984 75.4847 48.4337C70.8806 41.9927 66.4654 25.5913 74.3267 22.0337C75.5222 21.4925 79.2122 21.2128 80.3319 21.9029" fill="#5F4225"/>
</g>
<defs>
<linearGradient id="paint0_linear_490_31401" x1="313.904" y1="471.343" x2="156.298" y2="-238.691" gradientUnits="userSpaceOnUse">
<stop stop-color="white"/>
<stop offset="1" stop-color="#EEEEEE"/>
</linearGradient>
<linearGradient id="paint1_linear_490_31401" x1="330.794" y1="198.359" x2="258.96" y2="-123.967" gradientUnits="userSpaceOnUse">
<stop stop-color="white"/>
<stop offset="1" stop-color="#EEEEEE"/>
</linearGradient>
<linearGradient id="paint2_linear_490_31401" x1="176.934" y1="309.559" x2="182.48" y2="-166.116" gradientUnits="userSpaceOnUse">
<stop stop-color="white"/>
<stop offset="1" stop-color="#EEEEEE"/>
</linearGradient>
<linearGradient id="paint3_linear_490_31401" x1="206.336" y1="184.023" x2="206.977" y2="129.071" gradientUnits="userSpaceOnUse">
<stop stop-color="white"/>
<stop offset="1" stop-color="#EEEEEE"/>
</linearGradient>
<linearGradient id="paint4_linear_490_31401" x1="401.238" y1="96.1075" x2="401.625" y2="62.9437" gradientUnits="userSpaceOnUse">
<stop stop-color="white"/>
<stop offset="1" stop-color="#EEEEEE"/>
</linearGradient>
<linearGradient id="paint5_linear_490_31401" x1="182.152" y1="298.973" x2="182.431" y2="322.925" gradientUnits="userSpaceOnUse">
<stop stop-color="white"/>
<stop offset="1" stop-color="#EEEEEE"/>
</linearGradient>
<clipPath id="clip0_490_31401">
<rect width="480" height="346" fill="white"/>
</clipPath>
</defs>
</svg>
