<svg width="480" height="375" viewBox="0 0 480 375" fill="none" xmlns="http://www.w3.org/2000/svg">
<g clip-path="url(#clip0_506_5269)">
<mask id="mask0_506_5269" style="mask-type:luminance" maskUnits="userSpaceOnUse" x="0" y="0" width="480" height="375">
<path d="M0 0H480V375H0V0Z" fill="white"/>
</mask>
<g mask="url(#mask0_506_5269)">
<path d="M62.2437 161.082C51.9037 205.994 124.522 313.592 239.711 298.458C293.284 291.417 293.558 264.326 338.231 236.322C364.859 219.632 400.67 209.736 415.101 181.256C427.564 156.676 427.538 127.923 416.909 107.376C393.003 61.1681 335.276 22.3388 262.433 75.9375C189.59 129.536 88.9262 45.2538 62.2437 161.082Z" fill="url(#paint0_linear_506_5269)"/>
<path d="M311.462 285.851C340.013 262.363 369.555 237.183 401.475 229.435C434.401 221.436 437.106 232.528 434.973 248.439C432.841 264.351 414.217 298.414 369.466 308.643C324.703 318.876 284.744 307.836 311.462 285.851Z" fill="url(#paint1_linear_506_5269)"/>
<path fill-rule="evenodd" clip-rule="evenodd" d="M382.493 138.998V162.402H382.5C379.109 161.718 375.598 161.946 372.324 163.064C369.329 164.087 366.639 165.844 364.497 168.174C362.355 170.503 360.83 173.332 360.061 176.401C359.336 179.238 359.269 182.202 359.864 185.069C360.459 187.935 361.701 190.628 363.496 192.941C365.29 195.254 367.589 197.127 370.218 198.416C372.846 199.705 375.734 200.377 378.662 200.38C379.951 200.378 381.236 200.249 382.5 199.995V223.399C382.5 225.414 382.103 227.41 381.332 229.271C380.561 231.133 379.431 232.824 378.006 234.249C376.581 235.674 374.889 236.804 373.028 237.575C371.166 238.346 369.171 238.743 367.156 238.742H343.75V238.75C344.434 235.359 344.206 231.848 343.089 228.574C342.065 225.58 340.308 222.889 337.978 220.748C335.648 218.606 332.82 217.081 329.75 216.312C326.914 215.588 323.949 215.52 321.083 216.115C318.216 216.711 315.524 217.953 313.211 219.747C310.898 221.541 309.025 223.84 307.735 226.469C306.446 229.097 305.774 231.985 305.771 234.912C305.773 236.201 305.901 237.486 306.156 238.75L282.758 238.742C274.285 238.744 267.415 231.878 267.413 223.406V200.002C266.149 200.256 264.864 200.385 263.575 200.387C260.648 200.384 257.76 199.712 255.131 198.423C252.503 197.133 250.204 195.26 248.41 192.947C246.616 190.634 245.373 187.942 244.778 185.076C244.182 182.209 244.249 179.245 244.974 176.409C245.743 173.339 247.268 170.511 249.41 168.181C251.551 165.852 254.242 164.095 257.236 163.071C260.51 161.954 264.022 161.725 267.413 162.409H267.406V139.005C267.406 136.99 267.802 134.995 268.573 133.133C269.344 131.271 270.475 129.58 271.9 128.155C273.325 126.73 275.016 125.6 276.878 124.829C278.74 124.058 280.735 123.661 282.75 123.661H306.156C305.901 122.398 305.772 121.112 305.771 119.824C305.774 116.896 306.445 114.008 307.735 111.379C309.024 108.751 310.897 106.452 313.21 104.658C315.523 102.863 318.216 101.621 321.083 101.026C323.949 100.431 326.914 100.499 329.75 101.224C332.819 101.995 335.646 103.52 337.976 105.662C340.305 107.803 342.063 110.492 343.089 113.486C344.206 116.759 344.434 120.271 343.75 123.661H367.156C371.225 123.661 375.128 125.278 378.006 128.155C380.884 131.033 382.5 134.936 382.5 139.005M124.308 152.794H147.788V152.787C147.101 156.188 147.33 159.711 148.451 162.996C149.478 166 151.24 168.699 153.577 170.847C155.914 172.996 158.752 174.526 161.831 175.297C164.677 176.025 167.651 176.092 170.526 175.495C173.402 174.898 176.103 173.651 178.423 171.851C180.744 170.051 182.622 167.745 183.916 165.108C185.209 162.471 185.883 159.574 185.886 156.637C185.884 155.344 185.754 154.054 185.499 152.787H208.979C211 152.787 213.002 153.185 214.87 153.958C216.737 154.732 218.434 155.866 219.864 157.295C221.293 158.725 222.427 160.422 223.2 162.29C223.974 164.157 224.372 166.159 224.371 168.181V191.661H224.379C220.977 190.974 217.454 191.203 214.17 192.324C211.166 193.351 208.467 195.114 206.319 197.451C204.17 199.788 202.641 202.626 201.869 205.705C201.142 208.55 201.075 211.524 201.672 214.4C202.269 217.275 203.515 219.977 205.315 222.297C207.115 224.618 209.421 226.497 212.058 227.79C214.695 229.084 217.592 229.758 220.529 229.761C221.822 229.759 223.111 229.63 224.379 229.375L224.371 252.847C224.373 261.347 217.485 268.239 208.986 268.241H185.507C185.762 269.509 185.891 270.799 185.893 272.091C185.89 275.028 185.216 277.925 183.922 280.562C182.629 283.199 180.75 285.505 178.43 287.305C176.109 289.105 173.408 290.352 170.533 290.949C167.658 291.546 164.684 291.479 161.838 290.752C158.759 289.98 155.921 288.451 153.584 286.302C151.247 284.153 149.485 281.454 148.458 278.45C147.337 275.166 147.108 271.643 147.794 268.241V268.249H124.316C122.294 268.249 120.292 267.851 118.425 267.077C116.557 266.304 114.86 265.17 113.431 263.74C112.001 262.311 110.868 260.614 110.094 258.746C109.321 256.878 108.923 254.876 108.923 252.855V229.375C107.656 229.63 106.366 229.759 105.073 229.761C102.136 229.758 99.2388 229.084 96.602 227.791C93.9652 226.497 91.6588 224.618 89.8588 222.298C88.0587 219.977 86.8126 217.276 86.2156 214.4C85.6185 211.524 85.6863 208.55 86.4138 205.705C87.1873 202.626 88.7177 199.79 90.866 197.453C93.0142 195.116 95.7123 193.353 98.715 192.324C101.999 191.203 105.522 190.974 108.923 191.661V168.181C108.923 166.159 109.321 164.157 110.094 162.29C110.868 160.422 112.001 158.725 113.431 157.295C114.86 155.866 116.557 154.732 118.425 153.958C120.292 153.185 122.294 152.787 124.316 152.787" fill="#F08519"/>
<path d="M37.9119 294.592C37.0444 293.358 36.4307 255.793 37.2851 254.291C38.1438 252.794 75.7488 241.871 75.7488 241.871C75.7488 241.871 88.4794 221.128 100.481 209.512C105.213 204.926 112.129 201.076 113.826 203.653C114.878 205.249 113.208 209.336 110.846 213.638C110.84 213.651 110.833 213.664 110.824 213.676C107.536 219.66 102.928 226.031 102.494 226.629C102.482 226.643 102.471 226.658 102.46 226.673C102.46 226.673 133.654 218.748 138.356 217.896C143.058 217.036 149.193 215.668 150.168 218.843C151.066 221.759 143.122 225.176 142.65 225.378C143.161 225.236 153.955 222.254 155.557 226.32C156.746 229.344 145.583 235.066 145.252 235.229C145.531 235.156 150.851 233.754 151.413 236.283C152.336 240.443 140.756 245.236 140.284 245.434C140.546 245.369 144.848 244.354 145.158 246.681C145.922 252.446 106.088 268.423 93.9157 272.919C81.7301 277.41 38.7838 295.827 37.9119 294.592ZM443.338 88.1838C444.206 89.4106 444.819 126.739 443.965 128.232C443.106 129.719 405.508 140.573 405.508 140.573C405.508 140.573 392.779 161.187 380.78 172.729C376.049 177.287 369.133 181.113 367.438 178.552C366.386 176.966 368.056 172.905 370.417 168.63C370.421 168.617 370.43 168.604 370.438 168.591C373.727 162.645 378.333 156.314 378.767 155.719C378.793 155.689 378.801 155.677 378.801 155.677C378.801 155.677 347.613 163.551 342.911 164.398C338.211 165.253 332.076 166.612 331.101 163.457C330.204 160.559 338.146 157.164 338.619 156.964C338.108 157.104 327.315 160.067 325.714 156.028C324.524 153.022 335.686 147.336 336.017 147.174C335.738 147.247 330.419 148.64 329.856 146.126C328.933 141.993 340.512 137.231 340.984 137.034C340.722 137.098 336.421 138.107 336.111 135.794C335.348 130.066 375.174 114.188 387.344 109.721C399.528 105.258 442.467 86.9569 443.338 88.1838Z" fill="#F8AE9D"/>
</g>
</g>
<defs>
<linearGradient id="paint0_linear_506_5269" x1="120.956" y1="451.267" x2="416.781" y2="-267.992" gradientUnits="userSpaceOnUse">
<stop stop-color="white"/>
<stop offset="1" stop-color="#EEEEEE"/>
</linearGradient>
<linearGradient id="paint1_linear_506_5269" x1="309.095" y1="387.439" x2="461.658" y2="90.605" gradientUnits="userSpaceOnUse">
<stop stop-color="white"/>
<stop offset="1" stop-color="#EEEEEE"/>
</linearGradient>
<clipPath id="clip0_506_5269">
<rect width="480" height="375" fill="white"/>
</clipPath>
</defs>
</svg>
