<svg width="300" height="252" viewBox="0 0 300 252" fill="none" xmlns="http://www.w3.org/2000/svg">
<g clip-path="url(#clip0_506_12371)">
<path d="M239.396 71.6305C231.888 47.1234 166.991 15.4933 115.721 54.8138C91.8756 73.1021 99.2768 86.2268 85.5475 112.137C77.3639 127.58 62.8676 142.305 63.8362 160.034C64.6689 175.339 72.6768 189.18 83.5099 196.12C107.873 211.728 146.474 214.378 166.654 168.307C186.834 122.236 258.754 134.838 239.396 71.6305Z" fill="url(#paint0_linear_506_12371)"/>
<path d="M268.495 146.659C262.91 139.478 253.117 139.859 237.916 143.687C226.484 146.569 216.036 149.041 205.391 157.126C197.941 162.781 192.419 169.741 188.608 176.267C184.478 183.336 178.47 191.6 183.031 198.214C189.299 207.3 218.199 211.374 242.999 193.794C270.242 174.478 273.959 153.677 268.495 146.659Z" fill="url(#paint1_linear_506_12371)"/>
<path d="M86.2961 79.9243C77.8634 102.409 69.4233 126.168 53.9839 140.892C38.0605 156.086 32.9367 150.724 28.9689 141.082C25.0011 131.439 24.4149 106.229 46.2655 85.9414C68.122 65.6481 94.1852 58.8808 86.2961 79.9243Z" fill="url(#paint2_linear_506_12371)"/>
<path d="M102.103 101.094C102.103 112.987 106.332 123.893 113.371 132.41C119.46 139.772 122.841 148.988 122.841 158.524V172.279C122.841 181.024 130.022 188.178 138.799 188.178H164.336C173.113 188.178 180.293 181.024 180.293 172.279V158.499C180.293 148.942 183.724 139.735 189.81 132.347C196.877 123.769 201.098 112.774 201.027 100.794C200.864 73.6134 178.843 51.8088 151.567 51.8088C148.537 51.8088 145.569 52.0837 142.686 52.6042C142.046 52.7209 141.415 52.8456 140.784 52.9874C118.649 57.8845 102.103 77.5611 102.103 101.094Z" fill="#F08519"/>
<path d="M160.909 91.9837C160.148 100.169 152.373 107.964 152.373 107.964C152.373 107.964 144.688 98.7276 145.449 90.5423C146.215 82.3552 150.289 76.0423 154.56 76.4427C158.829 76.8373 161.67 83.7983 160.909 91.9837ZM144.787 107.857C150.148 112.679 151.561 122.233 151.561 122.233C151.561 122.233 141.038 122.81 135.675 117.983C130.311 113.157 128.005 106.982 130.524 104.186C133.04 101.391 139.425 103.035 144.787 107.857ZM153.039 139.945C153.332 141.037 153.476 141.808 153.513 142.003C153.517 142.026 153.522 142.042 153.522 142.052L153.523 142.057C153.523 142.057 153.519 142.058 153.517 142.054L153.486 142.06C153.383 142.064 153.075 142.08 152.609 142.091C150.112 142.139 143.106 141.948 139.109 138.487C134.187 134.224 132.001 128.681 134.224 126.118C136.446 123.551 142.239 124.925 147.162 129.188C149.365 131.099 150.872 133.873 151.859 136.364C152.323 137.533 152.717 138.729 153.039 139.945ZM167.138 119.058C161.181 123.123 151.563 122.238 151.563 122.238C151.563 122.238 153.5 111.873 159.457 107.808C165.414 103.743 171.96 102.965 174.083 106.069C176.207 109.178 173.095 114.992 167.138 119.058Z" fill="white"/>
<path d="M166.435 137.718C161.469 141.929 152.75 142.036 152.75 142.036C152.75 142.036 153.516 132.546 158.482 128.335C163.447 124.125 169.256 122.808 171.453 125.401C173.65 127.993 171.405 133.506 166.435 137.718Z" fill="white"/>
<path d="M153.507 104.533C153.477 104.651 151.256 116.061 154.719 144.314C154.985 146.477 155.271 148.638 155.577 150.795L155.44 150.815L154.434 150.954L154.433 150.949L154.427 150.951L154.388 150.959C154.258 150.964 153.869 150.984 153.28 150.998C152.939 148.592 152.623 146.182 152.334 143.769C148.945 115.688 151.151 104.553 151.248 104.056L153.507 104.533Z" fill="white"/>
<path d="M160.989 189.515L160.953 189.701L160.476 192.048L160.352 192.667V192.672L160.224 193.294L159.752 195.639L159.627 196.257L159.624 196.262L159.499 196.886L159.429 197.229C159.188 198.42 157.075 199.328 154.545 199.328H148.85C148.246 199.328 147.671 199.277 147.136 199.182H147.133C146.681 199.104 146.238 198.985 145.807 198.826L145.776 198.815C145.475 198.705 145.187 198.563 144.915 198.392C144.405 198.068 144.068 197.679 143.972 197.251L143.771 196.341L143.643 195.768V195.767L143.641 195.754V195.752L143.516 195.192L143.032 193.017L142.904 192.446L142.901 192.433L142.777 191.869L142.253 189.513H160.989V189.515Z" fill="#5F4225"/>
<path d="M86.0425 131.074C87.7671 131.074 89.1651 132.472 89.1651 134.196C89.1651 135.921 87.7671 137.319 86.0425 137.319C84.318 137.319 82.9199 135.921 82.9199 134.196C82.9199 132.472 84.318 131.074 86.0425 131.074Z" fill="#F08519"/>
<path d="M233.744 62.6032C229.732 64.9197 224.601 63.545 222.285 59.5327C219.968 55.5205 221.343 50.39 225.355 48.0736C229.368 45.7571 234.498 47.1318 236.814 51.144C239.131 55.1563 237.756 60.2867 233.744 62.6032Z" fill="#F08519"/>
<path d="M236.246 95.9252C234.441 96.967 232.134 96.3487 231.092 94.5442C230.05 92.7397 230.668 90.4323 232.473 89.3905C234.277 88.3487 236.585 88.9669 237.627 90.7714C238.668 92.5759 238.05 94.8833 236.246 95.9252Z" fill="#F8AE9D"/>
<path d="M69.7091 86.4297C67.8614 86.4297 66.3635 87.9276 66.3635 89.7753C66.3635 91.623 67.8614 93.1209 69.7091 93.1209C71.5568 93.1209 73.0547 91.623 73.0547 89.7753C73.0547 87.9276 71.5568 86.4297 69.7091 86.4297Z" fill="#E1E4E5"/>
<path d="M268.183 173.371C270.503 172.031 271.298 169.065 269.959 166.745C268.619 164.425 265.653 163.63 263.333 164.969C261.013 166.309 260.218 169.275 261.557 171.595C262.897 173.915 265.863 174.71 268.183 173.371Z" fill="#E1E4E5"/>
<path d="M32.064 171.223C35.5133 171.223 38.3096 174.019 38.3096 177.469C38.3096 180.918 35.5133 183.714 32.064 183.714C28.6146 183.714 25.8184 180.918 25.8184 177.469C25.8184 174.019 28.6146 171.223 32.064 171.223Z" fill="#E1E4E5"/>
<path d="M169.928 39.6751C167.866 40.8659 165.229 40.1592 164.038 38.0968C162.847 36.0343 163.554 33.3971 165.616 32.2063C167.679 31.0155 170.316 31.7222 171.507 33.7846C172.697 35.8471 171.991 38.4844 169.928 39.6751Z" fill="#E1E4E5"/>
<path d="M94.9654 61.7234C96.6899 61.7234 98.088 60.3254 98.088 58.6008C98.088 56.8763 96.6899 55.4782 94.9654 55.4782C93.2408 55.4782 91.8428 56.8763 91.8428 58.6008C91.8428 60.3254 93.2408 61.7234 94.9654 61.7234Z" fill="#F08519"/>
<path d="M230.459 184.894C225.917 182.271 220.108 183.827 217.486 188.37C214.863 192.912 216.419 198.721 220.962 201.343C225.504 203.966 231.313 202.409 233.935 197.867C236.558 193.325 235.001 187.516 230.459 184.894Z" fill="#F08519"/>
<path d="M50.1836 125.699C48.1406 124.519 45.5281 125.219 44.3486 127.262C43.169 129.305 43.869 131.918 45.9121 133.097C47.9551 134.277 50.5675 133.577 51.7471 131.534C52.9267 129.491 52.2267 126.878 50.1836 125.699Z" fill="#F8AE9D"/>
<path d="M79.1279 179.239C77.0336 179.239 75.3358 177.741 75.3358 175.893C75.3358 174.046 77.0336 172.548 79.1279 172.548C81.2222 172.548 82.9199 174.046 82.9199 175.893C82.9199 177.741 81.2222 179.239 79.1279 179.239Z" fill="#E1E4E5"/>
<path d="M248.644 123.463C249.843 124.155 250.254 125.689 249.562 126.889C248.869 128.088 247.335 128.499 246.136 127.807C244.936 127.114 244.525 125.58 245.218 124.381C245.91 123.181 247.444 122.77 248.644 123.463Z" fill="#E1E4E5"/>
<path d="M40.4892 94.4736C44.4312 94.4736 47.6269 91.3778 47.6269 87.559C47.6269 83.7401 44.4312 80.6443 40.4892 80.6443C36.5472 80.6443 33.3516 83.7401 33.3516 87.559C33.3516 91.3778 36.5472 94.4736 40.4892 94.4736Z" fill="#E1E4E5"/>
<path d="M221.077 146.313C218.253 144.683 214.643 145.65 213.012 148.474C211.382 151.298 212.35 154.908 215.173 156.539C217.997 158.169 221.608 157.202 223.238 154.378C224.868 151.554 223.901 147.943 221.077 146.313Z" fill="#E1E4E5"/>
<path d="M198.51 175.183C198.066 200.455 177.54 220.796 152.288 220.796C127.041 220.796 106.515 200.455 106.07 175.183H198.51Z" fill="white" stroke="#E1E4E5" stroke-width="1.67364"/>
<path d="M105.242 223.027C105.643 220.69 107.692 218.901 110.172 218.901H194.418C196.89 218.901 198.94 220.686 199.34 223.027H105.242Z" fill="#E1E4E5" stroke="#E1E4E5" stroke-width="1.67364"/>
<path d="M200.246 174.346H103.441V182.822H200.246V174.346Z" fill="#E1E4E5"/>
</g>
<defs>
<linearGradient id="paint0_linear_506_12371" x1="130.425" y1="-51.8079" x2="187.952" y2="376.878" gradientUnits="userSpaceOnUse">
<stop stop-color="white"/>
<stop offset="1" stop-color="#EEEEEE"/>
</linearGradient>
<linearGradient id="paint1_linear_506_12371" x1="231.171" y1="100.292" x2="218.663" y2="282.329" gradientUnits="userSpaceOnUse">
<stop stop-color="white"/>
<stop offset="1" stop-color="#EEEEEE"/>
</linearGradient>
<linearGradient id="paint2_linear_506_12371" x1="54.635" y1="22.0113" x2="65.2178" y2="238.532" gradientUnits="userSpaceOnUse">
<stop stop-color="white"/>
<stop offset="1" stop-color="#EEEEEE"/>
</linearGradient>
<clipPath id="clip0_506_12371">
<rect width="300" height="251.046" fill="white"/>
</clipPath>
</defs>
</svg>
