<svg width="365" height="194" viewBox="0 0 365 194" fill="none" xmlns="http://www.w3.org/2000/svg">
<g clip-path="url(#clip0_24_23394)">
<rect y="0.428711" width="365" height="193" rx="6.68274" fill="#FCC49B"/>
<path d="M269.372 120.272C270.679 144.348 223.609 193.302 165.593 175.182C138.61 166.754 140.896 152.765 120.378 134.33C108.149 123.342 90.5769 115.033 85.6897 99.0607C81.4679 85.2746 84.0568 70.4568 91.3763 60.8186C107.838 39.1426 141.071 24.3 173.815 58.4518C206.559 92.6037 265.995 58.1796 269.372 120.272Z" fill="url(#paint0_linear_24_23394)"/>
<path d="M248.949 58.6018C244.636 66.2997 235.189 67.3575 220.055 65.8943C208.673 64.7921 198.294 63.9393 186.911 57.7331C178.944 53.3924 172.637 47.5198 168.034 41.8155C163.046 35.6366 156.084 28.5844 159.497 21.5779C164.187 11.9539 191.311 3.84769 217.649 17.1032C246.582 31.669 253.168 51.0778 248.949 58.6018Z" fill="url(#paint1_linear_24_23394)"/>
<path fill-rule="evenodd" clip-rule="evenodd" d="M144.47 154.804C143.034 155.575 141.411 155.926 139.785 155.819C138.16 155.712 136.597 155.151 135.274 154.199C133.952 153.247 132.924 151.942 132.307 150.435C131.69 148.927 131.508 147.276 131.784 145.67L138.076 109.257L111.428 83.4574C110.274 82.3219 109.459 80.8867 109.076 79.3133C108.693 77.74 108.757 76.091 109.26 74.5519C109.763 73.0128 110.686 71.6446 111.925 70.6015C113.163 69.5583 114.668 68.8815 116.27 68.6472L153.111 63.3336L169.566 30.1761C170.295 28.72 171.415 27.4954 172.8 26.6396C174.186 25.7838 175.782 25.3306 177.41 25.3306C179.038 25.3306 180.635 25.7838 182.02 26.6396C183.405 27.4954 184.525 28.72 185.254 30.1761L201.709 63.3336L238.55 68.6472C240.152 68.8811 241.658 69.5577 242.896 70.6008C244.135 71.644 245.058 73.0121 245.561 74.5514C246.065 76.0906 246.128 77.7398 245.745 79.3133C245.362 80.8867 244.547 82.322 243.392 83.4574L216.73 109.243L223.022 145.656C223.3 147.262 223.121 148.915 222.505 150.425C221.889 151.935 220.861 153.241 219.538 154.195C218.216 155.148 216.652 155.711 215.025 155.819C213.398 155.927 211.773 155.575 210.336 154.804L177.396 137.631L144.47 154.804ZM58.59 155.337C57.8797 155.719 57.0767 155.893 56.2723 155.84C55.4679 155.787 54.6946 155.509 54.0403 155.038C53.3861 154.567 52.8773 153.922 52.572 153.176C52.2666 152.43 52.177 151.613 52.3132 150.818L55.4264 132.803L42.2414 120.039C41.6701 119.478 41.2669 118.768 41.0773 117.989C40.8877 117.211 40.9192 116.395 41.1682 115.633C41.4173 114.871 41.874 114.195 42.4869 113.678C43.0999 113.162 43.8447 112.828 44.6376 112.712L62.8655 110.083L71.0075 93.6788C71.3682 92.9584 71.9222 92.3527 72.6076 91.9293C73.2931 91.506 74.0828 91.2818 74.8884 91.2818C75.694 91.2818 76.4837 91.506 77.1691 91.9293C77.8545 92.3527 78.4085 92.9584 78.7692 93.6788L86.9112 110.083L105.14 112.712C105.932 112.828 106.677 113.162 107.29 113.679C107.903 114.195 108.36 114.872 108.609 115.633C108.858 116.395 108.889 117.211 108.699 117.989C108.51 118.768 108.107 119.478 107.535 120.039L94.3432 132.796L97.4564 150.811C97.5942 151.606 97.5058 152.424 97.2011 153.171C96.8964 153.919 96.3877 154.565 95.7332 155.037C95.0787 155.509 94.3047 155.787 93.4995 155.84C92.6943 155.894 91.8904 155.719 91.1796 155.337L74.8814 146.841L58.59 155.337ZM263.604 155.337C262.893 155.719 262.09 155.893 261.286 155.84C260.482 155.787 259.708 155.509 259.054 155.038C258.4 154.567 257.891 153.922 257.586 153.176C257.28 152.43 257.191 151.613 257.327 150.818L260.44 132.803L247.255 120.039C246.684 119.478 246.281 118.768 246.091 117.989C245.901 117.211 245.933 116.395 246.182 115.633C246.431 114.871 246.888 114.195 247.501 113.678C248.113 113.162 248.858 112.828 249.651 112.712L267.879 110.083L276.021 93.6788C276.382 92.9584 276.936 92.3527 277.621 91.9293C278.307 91.506 279.096 91.2818 279.902 91.2818C280.708 91.2818 281.497 91.506 282.183 91.9293C282.868 92.3527 283.422 92.9584 283.783 93.6788L291.925 110.083L310.153 112.712C310.946 112.828 311.691 113.163 312.304 113.679C312.916 114.195 313.373 114.872 313.622 115.633C313.871 116.395 313.903 117.211 313.713 117.989C313.524 118.767 313.12 119.478 312.549 120.039L299.357 132.796L302.47 150.811C302.608 151.606 302.519 152.424 302.215 153.171C301.91 153.918 301.401 154.565 300.747 155.036C300.092 155.508 299.318 155.787 298.513 155.84C297.708 155.893 296.904 155.719 296.193 155.337L279.895 146.841L263.604 155.337Z" fill="#F08519" stroke="#F08519" stroke-width="10.8691" stroke-linecap="round" stroke-linejoin="round"/>
<path d="M189.481 88.1621L174.381 103.262L165.312 94.2007" stroke="white" stroke-width="10.8691" stroke-linecap="round" stroke-linejoin="round"/>
<path d="M290.667 86.2083C282.005 88.2604 272.844 80.9145 272.844 80.9145C272.844 80.9145 277.732 70.2458 286.397 68.2C295.059 66.1479 304.217 73.4875 304.217 73.4875C304.217 73.4875 299.328 84.1562 290.667 86.2083Z" fill="url(#paint2_linear_24_23394)"/>
<path d="M321.163 147.74C326.287 151.27 334.115 148.803 334.115 148.803C334.115 148.803 333.63 140.615 328.503 137.089C323.379 133.56 315.555 136.023 315.555 136.023C315.555 136.023 316.039 144.211 321.163 147.74Z" fill="url(#paint3_linear_24_23394)"/>
<path d="M110.408 173.973C114.362 177.996 121.755 177.148 121.755 177.148C121.755 177.148 122.733 169.776 118.776 165.755C114.823 161.731 107.433 162.577 107.433 162.577C107.433 162.577 106.455 169.949 110.408 173.973Z" fill="url(#paint4_linear_24_23394)"/>
<path d="M299.109 113.59C295.615 113.59 292.782 116.3 292.782 119.642C292.782 122.984 295.615 125.693 299.109 125.693C302.603 125.693 305.436 122.984 305.436 119.642C305.436 116.3 302.603 113.59 299.109 113.59Z" fill="#F08519"/>
<path d="M177.676 170.961C172.966 170.961 169.148 174.656 169.148 179.214C169.148 183.772 172.966 187.466 177.676 187.466C182.385 187.466 186.203 183.772 186.203 179.214C186.203 174.656 182.385 170.961 177.676 170.961Z" fill="#F08519"/>
<path d="M81.0654 65.6768C77.6357 65.6768 74.8554 62.8965 74.8554 59.4668C74.8554 56.0371 77.6357 53.2568 81.0654 53.2568C84.4951 53.2568 87.2754 56.0371 87.2754 59.4668C87.2754 62.8965 84.4951 65.6768 81.0654 65.6768Z" fill="#F08519"/>
<path d="M216.801 43.6036C213.611 43.6036 211.024 41.0172 211.024 37.8267C211.024 34.6362 213.611 32.0498 216.801 32.0498C219.992 32.0498 222.578 34.6362 222.578 37.8267C222.578 41.0172 219.992 43.6036 216.801 43.6036Z" fill="#F08519"/>
<path d="M286.431 179.398C283.562 179.398 281.236 177.072 281.236 174.202C281.236 171.333 283.562 169.007 286.431 169.007C289.301 169.007 291.627 171.333 291.627 174.202C291.627 177.072 289.301 179.398 286.431 179.398Z" fill="#E1E4E5"/>
<path d="M56.9225 153.793C55.0685 153.793 53.5656 152.29 53.5656 150.436C53.5656 148.582 55.0685 147.08 56.9225 147.08C58.7764 147.08 60.2793 148.582 60.2793 150.436C60.2793 152.29 58.7764 153.793 56.9225 153.793Z" fill="white"/>
<path d="M147.335 186.715C145.848 186.715 144.642 185.509 144.642 184.022C144.642 182.535 145.848 181.33 147.335 181.33C148.822 181.33 150.027 182.535 150.027 184.022C150.027 185.509 148.822 186.715 147.335 186.715Z" fill="#E1E4E5"/>
<path d="M259.164 43.6748C256.894 43.6748 255.054 41.8349 255.054 39.5652C255.054 37.2955 256.894 35.4556 259.164 35.4556C261.434 35.4556 263.273 37.2955 263.273 39.5652C263.273 41.8349 261.434 43.6748 259.164 43.6748Z" fill="#E1E4E5"/>
<path d="M83.6055 106.634C83.9897 108.068 83.1387 109.542 81.7047 109.926C80.2707 110.311 78.7968 109.46 78.4125 108.026C78.0283 106.592 78.8793 105.118 80.3133 104.733C81.7473 104.349 83.2212 105.2 83.6055 106.634Z" fill="white"/>
<path d="M137.379 48.5072C135.404 48.5072 133.803 46.9061 133.803 44.9311C133.803 42.9561 135.404 41.355 137.379 41.355C139.354 41.355 140.955 42.9561 140.955 44.9311C140.955 46.9061 139.354 48.5072 137.379 48.5072Z" fill="#E1E4E5"/>
<path d="M255.32 116.451C253.8 116.451 252.569 115.466 252.569 114.25C252.569 113.035 253.8 112.049 255.32 112.049C256.839 112.049 258.07 113.035 258.07 114.25C258.07 115.466 256.839 116.451 255.32 116.451Z" fill="white"/>
<path d="M299.75 154.298C297.527 155.383 295.032 154.839 294.176 153.085C293.32 151.33 294.428 149.029 296.65 147.945C298.872 146.861 301.368 147.404 302.224 149.159C303.08 150.913 301.972 153.214 299.75 154.298Z" fill="white"/>
<path d="M204.59 11.5076C205.334 14.2849 203.686 17.1395 200.909 17.8837C198.132 18.6278 195.277 16.9797 194.533 14.2025C193.789 11.4252 195.437 8.57057 198.214 7.82641C200.991 7.08225 203.846 8.73039 204.59 11.5076Z" fill="#E1E4E5"/>
<path d="M319.632 88.1908H319.705C320.131 94.2286 324.621 94.3215 324.621 94.3215C324.621 94.3215 319.669 94.4181 319.669 101.395C319.669 94.4181 314.718 94.3215 314.718 94.3215C314.718 94.3215 319.206 94.2286 319.632 88.1908ZM113.99 12.606H114.113C114.847 23.1722 122.581 23.3347 122.581 23.3347C122.581 23.3347 114.053 23.504 114.053 35.7127C114.053 23.504 105.525 23.3347 105.525 23.3347C105.525 23.3347 113.256 23.1722 113.99 12.606Z" fill="#E1E4E5"/>
</g>
<defs>
<linearGradient id="paint0_linear_24_23394" x1="213.114" y1="264.584" x2="125.069" y2="-132.648" gradientUnits="userSpaceOnUse">
<stop stop-color="white"/>
<stop offset="1" stop-color="#EEEEEE"/>
</linearGradient>
<linearGradient id="paint1_linear_24_23394" x1="219.892" y1="108.491" x2="181.446" y2="-64.2661" gradientUnits="userSpaceOnUse">
<stop stop-color="white"/>
<stop offset="1" stop-color="#EEEEEE"/>
</linearGradient>
<linearGradient id="paint2_linear_24_23394" x1="258.049" y1="91.3101" x2="333.874" y2="55.488" gradientUnits="userSpaceOnUse">
<stop stop-color="white"/>
<stop offset="1" stop-color="#EEEEEE"/>
</linearGradient>
<linearGradient id="paint3_linear_24_23394" x1="341.122" y1="159.32" x2="300.789" y2="116.79" gradientUnits="userSpaceOnUse">
<stop stop-color="white"/>
<stop offset="1" stop-color="#EEEEEE"/>
</linearGradient>
<linearGradient id="paint4_linear_24_23394" x1="126.181" y1="187.717" x2="97.6011" y2="142.915" gradientUnits="userSpaceOnUse">
<stop stop-color="white"/>
<stop offset="1" stop-color="#EEEEEE"/>
</linearGradient>
<clipPath id="clip0_24_23394">
<rect y="0.428711" width="365" height="193" rx="6.68274" fill="white"/>
</clipPath>
</defs>
</svg>
