<svg width="315" height="210" viewBox="0 0 315 210" fill="none" xmlns="http://www.w3.org/2000/svg">
<g clip-path="url(#clip0_751_46796)">
<rect width="315" height="210" fill="#FCFCFD"/>
<mask id="mask0_751_46796" style="mask-type:luminance" maskUnits="userSpaceOnUse" x="-1" y="0" width="316" height="210">
<path d="M-0.00390625 0H314.996V210H-0.00390625V0Z" fill="white"/>
</mask>
<g mask="url(#mask0_751_46796)">
<path d="M55.1524 90.2058C49.362 115.356 90.0285 175.611 154.534 167.136C184.535 163.193 184.688 148.022 209.705 132.34C224.617 122.994 244.671 117.452 252.753 101.503C259.732 87.7383 259.717 71.6369 253.765 60.1307C240.378 34.2541 208.051 12.5097 167.258 42.525C126.466 72.5399 70.0946 25.3421 55.1524 90.2058Z" fill="url(#paint0_linear_751_46796)"/>
<path d="M194.714 160.077C210.703 146.923 227.246 132.823 245.122 128.484C263.56 124.004 265.075 130.216 263.88 139.126C262.686 148.036 252.257 167.112 227.196 172.84C202.129 178.57 179.752 172.388 194.714 160.077Z" fill="url(#paint1_linear_751_46796)"/>
<path fill-rule="evenodd" clip-rule="evenodd" d="M234.492 77.8389V90.9454H234.496C232.597 90.5621 230.631 90.6899 228.798 91.3157C227.121 91.8889 225.614 92.8726 224.415 94.1772C223.215 95.4817 222.361 97.0657 221.931 98.7847C221.525 100.373 221.487 102.033 221.82 103.638C222.153 105.244 222.849 106.751 223.854 108.047C224.859 109.342 226.146 110.391 227.618 111.113C229.09 111.835 230.708 112.211 232.347 112.213C233.069 112.211 233.789 112.139 234.496 111.997V125.104C234.496 126.232 234.274 127.349 233.842 128.392C233.41 129.434 232.777 130.382 231.979 131.179C231.182 131.977 230.234 132.61 229.192 133.042C228.149 133.474 227.032 133.696 225.903 133.696H212.796V133.7C213.18 131.801 213.052 129.835 212.426 128.002C211.853 126.325 210.869 124.818 209.564 123.619C208.259 122.419 206.675 121.566 204.956 121.135C203.368 120.729 201.708 120.691 200.103 121.025C198.497 121.358 196.99 122.054 195.694 123.058C194.399 124.063 193.35 125.351 192.628 126.822C191.906 128.294 191.53 129.912 191.528 131.551C191.529 132.273 191.601 132.992 191.743 133.7L178.641 133.696C173.896 133.697 170.049 129.852 170.047 125.107V112.001C169.34 112.143 168.62 112.216 167.898 112.217C166.259 112.215 164.642 111.839 163.17 111.117C161.698 110.395 160.411 109.346 159.406 108.051C158.401 106.755 157.705 105.247 157.372 103.642C157.038 102.037 157.076 100.377 157.482 98.7889C157.912 97.0699 158.766 95.486 159.966 94.1814C161.165 92.8769 162.672 91.8932 164.349 91.3199C166.182 90.694 168.148 90.5661 170.047 90.9492H170.043V77.8428C170.043 76.7143 170.266 75.5969 170.697 74.5544C171.129 73.5118 171.762 72.5645 172.56 71.7666C173.358 70.9687 174.305 70.3358 175.348 69.904C176.39 69.4723 177.508 69.2501 178.636 69.2503H191.743C191.601 68.5428 191.529 67.823 191.528 67.1013C191.53 65.4618 191.906 63.8444 192.628 62.3725C193.35 60.9006 194.399 59.6131 195.694 58.6083C196.989 57.6034 198.497 56.9078 200.103 56.5746C201.708 56.2413 203.368 56.2792 204.956 56.6853C206.675 57.1171 208.258 57.9714 209.563 59.1705C210.867 60.3697 211.851 61.8758 212.426 63.5519C213.052 65.3851 213.18 67.3515 212.796 69.2503H225.903C228.182 69.2503 230.368 70.1555 231.98 71.7668C233.591 73.3783 234.496 75.5639 234.496 77.8428M89.9089 85.5648H103.057V85.5606C102.673 87.4655 102.801 89.4384 103.429 91.2775C104.004 92.9598 104.991 94.4713 106.299 95.6746C107.608 96.8778 109.197 97.7345 110.922 98.1666C112.515 98.5738 114.181 98.6116 115.791 98.2771C117.401 97.9426 118.914 97.2447 120.213 96.2367C121.513 95.2286 122.565 93.937 123.289 92.4604C124.013 90.9838 124.391 89.3613 124.393 87.7166C124.391 86.9926 124.319 86.2704 124.176 85.5606H137.324C138.456 85.5606 139.577 85.7835 140.623 86.2167C141.669 86.65 142.619 87.2849 143.42 88.0854C144.22 88.886 144.855 89.8363 145.288 90.8822C145.721 91.9281 145.944 93.0491 145.944 94.1811V107.33H145.948C144.043 106.945 142.071 107.074 140.232 107.702C138.549 108.277 137.038 109.264 135.835 110.572C134.632 111.881 133.775 113.47 133.343 115.195C132.936 116.788 132.898 118.454 133.232 120.064C133.567 121.674 134.265 123.187 135.273 124.486C136.281 125.786 137.572 126.838 139.049 127.562C140.525 128.287 142.148 128.664 143.792 128.666C144.516 128.665 145.239 128.593 145.948 128.45L145.944 141.595C145.945 146.354 142.088 150.214 137.329 150.215H124.18C124.323 150.925 124.395 151.647 124.396 152.371C124.395 154.016 124.017 155.638 123.293 157.115C122.569 158.591 121.517 159.883 120.217 160.891C118.918 161.899 117.405 162.597 115.795 162.931C114.184 163.266 112.519 163.228 110.926 162.821C109.201 162.389 107.612 161.532 106.303 160.329C104.995 159.126 104.008 157.614 103.433 155.932C102.805 154.093 102.677 152.12 103.061 150.215V150.219H89.9131C88.781 150.219 87.66 149.996 86.6141 149.563C85.5682 149.13 84.6179 148.495 83.8175 147.695C83.017 146.894 82.3821 145.944 81.949 144.898C81.5159 143.852 81.2931 142.731 81.2933 141.599V128.45C80.5835 128.593 79.8613 128.665 79.1373 128.666C77.4926 128.665 75.87 128.287 74.3934 127.563C72.9168 126.838 71.6252 125.786 70.6172 124.487C69.6092 123.187 68.9114 121.674 68.577 120.064C68.2427 118.454 68.2806 116.788 68.688 115.195C69.1212 113.471 69.9782 111.882 71.1812 110.574C72.3843 109.265 73.8952 108.278 75.5767 107.702C77.4157 107.074 79.3885 106.945 81.2933 107.33V94.1811C81.2931 93.0491 81.5159 91.9281 81.949 90.8821C82.3821 89.8362 83.017 88.8859 83.8175 88.0853C84.6179 87.2848 85.5682 86.6498 86.6141 86.2166C87.66 85.7834 88.781 85.5605 89.9131 85.5606" fill="#F08519"/>
<path d="M41.526 164.972C41.0402 164.28 40.6965 143.244 41.1749 142.403C41.6558 141.565 62.7146 135.448 62.7146 135.448C62.7146 135.448 69.8438 123.831 76.5645 117.327C79.2143 114.759 83.0878 112.602 84.0377 114.045C84.6267 114.939 83.6915 117.228 82.3689 119.637C82.3659 119.645 82.3619 119.652 82.357 119.659C80.5153 123.01 77.9351 126.577 77.6922 126.912C77.6854 126.92 77.6789 126.928 77.6729 126.937C77.6729 126.937 95.1418 122.499 97.7748 122.022C100.408 121.54 103.843 120.774 104.389 122.552C104.892 124.185 100.444 126.098 100.179 126.211C100.465 126.132 106.51 124.462 107.407 126.739C108.073 128.432 101.822 131.637 101.636 131.728C101.792 131.687 104.772 130.902 105.087 132.318C105.604 134.648 99.1188 137.332 98.8542 137.443C99.0009 137.406 101.41 136.838 101.584 138.141C102.012 141.369 79.7047 150.317 72.8881 152.834C66.0641 155.35 42.0142 165.663 41.526 164.972ZM268.565 49.3828C269.05 50.0699 269.394 70.974 268.916 71.8098C268.435 72.6428 247.38 78.7209 247.38 78.7209C247.38 78.7209 240.252 90.2646 233.532 96.7284C230.883 99.2806 227.01 101.423 226.06 99.989C225.471 99.101 226.406 96.8267 227.729 94.4327C227.731 94.4254 227.736 94.4184 227.741 94.411C229.582 91.0811 232.162 87.5356 232.405 87.2028C232.419 87.186 232.424 87.179 232.424 87.179C232.424 87.179 214.958 91.5886 212.326 92.0625C209.693 92.5413 206.258 93.3026 205.712 91.5358C205.21 89.9128 209.657 88.012 209.922 87.8996C209.636 87.9784 203.592 89.6374 202.695 87.3753C202.029 85.6922 208.28 82.5082 208.465 82.4172C208.309 82.4582 205.33 83.2383 205.015 81.8306C204.498 79.5157 210.982 76.8491 211.246 76.7388C211.1 76.7749 208.691 77.3398 208.518 76.0444C208.09 72.8367 230.393 63.9453 237.208 61.4438C244.031 58.9445 268.077 48.6958 268.565 49.3828Z" fill="#FFD9CA"/>
</g>
</g>
<defs>
<linearGradient id="paint0_linear_751_46796" x1="88.0314" y1="252.709" x2="253.693" y2="-150.076" gradientUnits="userSpaceOnUse">
<stop stop-color="white"/>
<stop offset="1" stop-color="#EEEEEE"/>
</linearGradient>
<linearGradient id="paint1_linear_751_46796" x1="193.388" y1="216.966" x2="278.824" y2="50.7388" gradientUnits="userSpaceOnUse">
<stop stop-color="white"/>
<stop offset="1" stop-color="#EEEEEE"/>
</linearGradient>
<clipPath id="clip0_751_46796">
<rect width="315" height="210" fill="white"/>
</clipPath>
</defs>
</svg>
