<svg width="315" height="210" viewBox="0 0 315 210" fill="none" xmlns="http://www.w3.org/2000/svg">
<path d="M122.137 89.817V47.124C122.137 38.01 129.525 30.6218 138.639 30.6218H221.148C230.262 30.6218 237.65 38.01 237.65 47.124V162.637C237.65 171.751 230.262 179.139 221.148 179.139H175.654" stroke="#E1E4E5" stroke-width="1.7213"/>
<path d="M212.233 50.6649H179.855M212.233 90.9433H179.855M212.233 70.9005H179.855M212.233 111.372H179.855M212.233 131.415H179.855M212.233 151.843H179.855" stroke="#E1E4E5" stroke-width="5.3144" stroke-linecap="round" stroke-linejoin="round"/>
<path d="M168.981 65.4764C168.981 55.4951 160.89 47.4036 150.909 47.4036C140.927 47.4036 132.836 55.4951 132.836 65.4764C132.836 75.4577 140.927 83.5492 150.909 83.5492C160.89 83.5492 168.981 75.4577 168.981 65.4764Z" fill="#F08519"/>
<path d="M156.785 62.2279L148.904 70.0161L144.176 65.3433" stroke="white" stroke-width="3.60045" stroke-linecap="round" stroke-linejoin="round"/>
<path d="M142.846 118.584V109.579C142.846 104.604 138.811 100.575 133.829 100.575H114.227C109.246 100.575 105.211 104.604 105.211 109.579V118.584" stroke="#F08519" stroke-width="6.09175" stroke-linecap="round" stroke-linejoin="round"/>
<path fill-rule="evenodd" clip-rule="evenodd" d="M155.566 177.258H92.3784C87.3909 177.258 83.3516 173.219 83.3516 168.231V137.074L107.198 152.81L107.2 152.811C109.322 154.213 111.741 155.101 114.266 155.407C116.218 158.407 119.601 160.391 123.448 160.391H124.132C127.96 160.391 131.329 158.426 133.286 155.449C135.95 155.192 138.51 154.286 140.744 152.811L140.746 152.81L164.593 137.074V168.231C164.593 173.219 160.553 177.258 155.566 177.258ZM114.994 142.492C117.002 140.054 120.043 138.499 123.448 138.499H124.132C127.58 138.499 130.655 140.093 132.661 142.584C133.025 142.485 133.37 142.328 133.685 142.12L133.687 142.118L163.133 122.687C161.523 120.216 158.736 118.584 155.566 118.584H92.3784C89.2081 118.584 86.4207 120.216 84.8107 122.687L114.257 142.118L114.259 142.12C114.49 142.272 114.737 142.397 114.994 142.492Z" fill="#F08519"/>
<path d="M83.3504 137.074L85.0279 134.532C84.5689 134.229 84.0363 134.056 83.4867 134.031C82.9371 134.006 82.391 134.131 81.9066 134.391C81.4222 134.652 81.0174 135.039 80.7353 135.512C80.4533 135.984 80.3045 136.524 80.3047 137.074H83.3504ZM107.197 152.81L108.875 150.268L108.874 150.268L107.197 152.81ZM107.199 152.811L105.52 155.353H105.521L107.199 152.811ZM114.265 155.407L116.818 153.746C116.575 153.373 116.254 153.057 115.876 152.822C115.498 152.586 115.073 152.436 114.631 152.383L114.265 155.407ZM133.285 155.449L132.992 152.418C132.538 152.461 132.101 152.606 131.711 152.841C131.321 153.077 130.989 153.396 130.739 153.777L133.285 155.449ZM140.743 152.811L142.421 155.353L142.422 155.352L140.743 152.811ZM140.745 152.81L139.068 150.268L139.065 150.269L140.745 152.81ZM164.591 137.074H167.637C167.637 136.524 167.488 135.984 167.206 135.512C166.924 135.039 166.519 134.653 166.035 134.392C165.55 134.131 165.005 134.006 164.455 134.031C163.905 134.056 163.373 134.229 162.914 134.532L164.591 137.074ZM114.993 142.492L113.938 145.349C114.531 145.568 115.178 145.597 115.788 145.432C116.398 145.267 116.942 144.916 117.344 144.428L114.993 142.492ZM132.66 142.584L130.288 144.495C130.661 144.958 131.16 145.301 131.726 145.483C132.291 145.666 132.897 145.679 133.47 145.521L132.66 142.584ZM133.684 142.12L132.006 139.577L132.005 139.578L133.684 142.12ZM133.686 142.118L135.363 144.66H135.364L133.686 142.118ZM163.132 122.687L164.81 125.229C165.481 124.786 165.95 124.094 166.114 123.306C166.278 122.518 166.123 121.698 165.684 121.023L163.132 122.687ZM84.8095 122.687L82.2577 121.024C81.8183 121.698 81.6637 122.519 81.8275 123.307C81.9913 124.095 82.4603 124.786 83.132 125.229L84.8095 122.687ZM114.255 142.118L112.578 144.66L112.579 144.661L114.255 142.118ZM114.258 142.12L115.937 139.578L115.935 139.577L114.258 142.12ZM92.3772 180.304H155.564V174.212H92.3772V180.304ZM80.3047 168.231C80.3047 174.901 85.7076 180.304 92.3772 180.304V174.212C89.0718 174.212 86.3961 171.537 86.3961 168.231H80.3047ZM80.3047 137.074V168.231H86.3961V137.074H80.3047ZM108.874 150.268L85.0279 134.532L81.6728 139.616L105.519 155.352L108.874 150.268ZM108.878 150.27L108.875 150.268L105.518 155.351L105.52 155.353L108.878 150.27ZM114.631 152.383C112.575 152.134 110.605 151.411 108.877 150.27L105.521 155.353C108.037 157.015 110.905 158.068 113.899 158.431L114.631 152.383ZM123.447 157.346C120.674 157.346 118.232 155.919 116.818 153.746L111.712 157.068C114.202 160.895 118.527 163.437 123.447 163.437V157.346ZM124.131 157.346H123.447V163.437H124.131V157.346ZM130.739 153.777C129.322 155.933 126.891 157.346 124.131 157.346V163.437C129.027 163.437 133.334 160.919 135.83 157.122L130.739 153.777ZM139.064 150.27C137.246 151.471 135.161 152.208 132.992 152.418L133.577 158.481C136.736 158.176 139.773 157.102 142.421 155.353L139.064 150.27ZM139.065 150.269L139.063 150.271L142.422 155.352L142.425 155.351L139.065 150.269ZM162.914 134.532L139.068 150.268L142.423 155.352L166.269 139.616L162.914 134.532ZM167.637 168.231V137.074H161.546V168.231H167.637ZM155.564 180.304C162.234 180.304 167.637 174.901 167.637 168.231H161.546C161.546 171.537 158.87 174.212 155.564 174.212V180.304ZM117.344 144.428C118.798 142.662 120.99 141.545 123.447 141.545V135.453C119.093 135.453 115.203 137.445 112.642 140.555L117.344 144.428ZM123.447 141.545H124.131V135.453H123.447V141.545ZM124.131 141.545C126.618 141.545 128.835 142.691 130.288 144.495L135.032 140.674C132.473 137.496 128.539 135.453 124.131 135.453V141.545ZM132.005 139.578C131.958 139.609 131.906 139.633 131.851 139.648L133.47 145.521C134.142 145.335 134.78 145.045 135.362 144.661L132.005 139.578ZM132.009 139.576L132.006 139.577L135.361 144.662L135.363 144.66L132.009 139.576ZM161.455 120.144L132.008 139.576L135.364 144.66L164.81 125.229L161.455 120.144ZM155.564 121.63C157.663 121.63 159.509 122.706 160.581 124.35L165.684 121.023C163.535 117.727 159.806 115.538 155.564 115.538V121.63ZM92.3772 121.63H155.564V115.538H92.3772V121.63ZM87.361 124.35C88.4324 122.706 90.2786 121.63 92.3772 121.63V115.538C88.1352 115.538 84.4067 117.727 82.2577 121.024L87.361 124.35ZM115.933 139.576L86.4871 120.144L83.132 125.229L112.578 144.66L115.933 139.576ZM115.935 139.577L115.932 139.575L112.579 144.661L112.581 144.662L115.935 139.577ZM116.047 139.634C116.008 139.62 115.971 139.601 115.937 139.578L112.579 144.661C113.004 144.942 113.46 145.173 113.938 145.349L116.047 139.634Z" fill="#F08519"/>
<path fill-rule="evenodd" clip-rule="evenodd" d="M94.6934 98.4833H93.559C93.2846 98.4833 93.0638 98.7066 93.0638 98.9782V100.113C93.0638 100.387 93.2871 100.608 93.559 100.608H94.6934C94.8245 100.607 94.9501 100.555 95.0428 100.462C95.1355 100.369 95.1878 100.244 95.1883 100.113V98.9782C95.1884 98.9132 95.1757 98.8487 95.1509 98.7886C95.1261 98.7285 95.0896 98.6739 95.0436 98.6279C94.9976 98.582 94.943 98.5455 94.8829 98.5207C94.8228 98.4959 94.7584 98.4832 94.6934 98.4833ZM90.7597 98.4833H89.6257C89.4946 98.4838 89.3689 98.536 89.2762 98.6287C89.1834 98.7214 89.131 98.847 89.1305 98.9782V100.113C89.1305 100.387 89.3538 100.608 89.6257 100.608H90.7597C90.8909 100.607 91.0166 100.555 91.1094 100.462C91.2022 100.369 91.2545 100.244 91.255 100.113V98.9782C91.2544 98.847 91.2021 98.7214 91.1093 98.6287C91.0165 98.536 90.8909 98.4838 90.7597 98.4833ZM86.825 98.4833H85.6907C85.5595 98.4838 85.4339 98.536 85.3411 98.6287C85.2483 98.7214 85.196 98.847 85.1954 98.9782V100.113C85.1954 100.387 85.4187 100.608 85.6907 100.608H86.825C86.9562 100.607 87.0818 100.555 87.1745 100.462C87.2672 100.369 87.3195 100.244 87.3199 100.113V98.9782C87.3201 98.9132 87.3074 98.8487 87.2825 98.7886C87.2577 98.7285 87.2213 98.6739 87.1753 98.6279C87.1293 98.582 87.0747 98.5455 87.0146 98.5207C86.9545 98.4959 86.8901 98.4832 86.825 98.4833ZM82.8924 98.4833H81.7584C81.6273 98.4838 81.5016 98.536 81.4089 98.6287C81.3161 98.7214 81.2637 98.847 81.2632 98.9782V100.113C81.2632 100.387 81.4865 100.608 81.7584 100.608H82.8924C83.1668 100.608 83.3898 100.384 83.3898 100.113V98.9782C83.3883 98.847 83.3354 98.7216 83.2423 98.629C83.1493 98.5364 83.0237 98.4841 82.8924 98.4833ZM78.9598 98.4833H77.8258C77.5514 98.4833 77.3281 98.7066 77.3281 98.9782V100.113C77.3281 100.387 77.5514 100.608 77.8258 100.608H78.9598C79.091 100.607 79.2167 100.555 79.3095 100.462C79.4023 100.369 79.4546 100.244 79.4551 100.113V98.9782C79.4545 98.847 79.4022 98.7214 79.3094 98.6287C79.2166 98.536 79.091 98.4838 78.9598 98.4833ZM90.6169 102.772H89.4826C89.3514 102.772 89.2258 102.825 89.133 102.917C89.0402 103.01 88.9879 103.136 88.9873 103.267V104.403C88.9878 104.534 89.0401 104.66 89.1329 104.753C89.2257 104.846 89.3514 104.898 89.4826 104.898H90.6169C90.891 104.898 91.1118 104.675 91.1118 104.403V103.269C91.1122 103.204 91.0997 103.139 91.075 103.079C91.0504 103.019 91.014 102.964 90.9679 102.917C90.9219 102.871 90.8672 102.835 90.807 102.81C90.7467 102.785 90.6821 102.772 90.6169 102.772ZM86.6833 102.772H85.5493C85.4181 102.772 85.2925 102.825 85.1997 102.917C85.1069 103.01 85.0546 103.136 85.054 103.267V104.403C85.0545 104.534 85.1068 104.66 85.1996 104.753C85.2924 104.846 85.4181 104.898 85.5493 104.898H86.6833C86.8145 104.898 86.9402 104.846 87.033 104.753C87.1257 104.66 87.1781 104.534 87.1785 104.403V103.269C87.1789 103.204 87.1664 103.139 87.1416 103.079C87.1169 103.019 87.0805 102.964 87.0344 102.917C86.9884 102.871 86.9337 102.835 86.8734 102.81C86.8131 102.785 86.7485 102.772 86.6833 102.772ZM82.7503 102.772H81.616C81.3419 102.772 81.1186 102.995 81.1186 103.267V104.403C81.1186 104.675 81.3419 104.898 81.616 104.898H82.7503C82.8815 104.898 83.0071 104.846 83.0998 104.753C83.1925 104.66 83.2448 104.534 83.2452 104.403V103.269C83.2453 103.138 83.1933 103.011 83.1005 102.918C83.0078 102.825 82.8818 102.772 82.7503 102.772ZM86.825 93.8766H85.6907C85.5595 93.877 85.4338 93.9294 85.341 94.0222C85.2482 94.1149 85.1959 94.2406 85.1954 94.3718V95.5062C85.1954 95.7802 85.4187 96.0011 85.6907 96.0011H86.825C86.9561 96.0005 87.0817 95.9482 87.1744 95.8555C87.2671 95.7628 87.3194 95.6373 87.3199 95.5062V94.3718C87.3201 94.3068 87.3074 94.2424 87.2825 94.1822C87.2577 94.1221 87.2213 94.0675 87.1753 94.0215C87.1293 93.9754 87.0747 93.939 87.0146 93.9141C86.9545 93.8893 86.8901 93.8765 86.825 93.8766ZM82.8924 93.8766H81.7584C81.6272 93.877 81.5015 93.9294 81.4087 94.0222C81.316 94.1149 81.2636 94.2406 81.2632 94.3718V95.5062C81.2632 95.7802 81.4865 96.0011 81.7584 96.0011H82.8924C83.0239 96.0012 83.1501 95.9492 83.2433 95.8564C83.3366 95.7636 83.3892 95.6377 83.3898 95.5062V94.3718C83.3884 94.2406 83.3355 94.1151 83.2425 94.0224C83.1494 93.9298 83.0237 93.8774 82.8924 93.8766Z" fill="#E1E4E5"/>
<path d="M95.7791 78.1277C94.3822 78.1277 93.2497 76.9953 93.2497 75.5983C93.2497 74.2013 94.3822 73.0688 95.7791 73.0688C97.1761 73.0688 98.3086 74.2013 98.3086 75.5983C98.3086 76.9953 97.1761 78.1277 95.7791 78.1277Z" fill="#F08519"/>
<path d="M103.944 58.5458C102.293 58.5458 100.955 57.2075 100.955 55.5565C100.955 53.9055 102.293 52.5671 103.944 52.5671C105.595 52.5671 106.934 53.9055 106.934 55.5565C106.934 57.2075 105.595 58.5458 103.944 58.5458Z" fill="#E1E4E5"/>
<path d="M227.095 118.888C226.259 118.888 225.58 119.566 225.58 120.402C225.58 121.239 226.259 121.917 227.095 121.917C227.931 121.917 228.609 121.239 228.609 120.402C228.609 119.566 227.931 118.888 227.095 118.888Z" fill="#F08519"/>
<path d="M228.01 81.9335C226.613 81.9335 225.48 80.8011 225.48 79.4041C225.48 78.0071 226.613 76.8746 228.01 76.8746C229.407 76.8746 230.539 78.0071 230.539 79.4041C230.539 80.8011 229.407 81.9335 228.01 81.9335Z" fill="#F08519"/>
<path d="M226.489 142.4C225.987 142.4 225.58 142.807 225.58 143.309C225.58 143.811 225.987 144.218 226.489 144.218C226.991 144.218 227.398 143.811 227.398 143.309C227.398 142.807 226.991 142.4 226.489 142.4Z" fill="#E1E4E5"/>
<path d="M227.003 105.141C226.116 105.141 225.397 104.422 225.397 103.535C225.397 102.648 226.116 101.929 227.003 101.929C227.89 101.929 228.609 102.648 228.609 103.535C228.609 104.422 227.89 105.141 227.003 105.141Z" fill="#E1E4E5"/>
<path d="M226.589 66.2711C225.899 66.2711 225.339 65.7112 225.339 65.0206C225.339 64.3299 225.899 63.77 226.589 63.77C227.28 63.77 227.84 64.3299 227.84 65.0206C227.84 65.7112 227.28 66.2711 226.589 66.2711Z" fill="#E1E4E5"/>
<path d="M110.796 65.3114H110.852C111.18 69.9657 114.641 70.0374 114.641 70.0374C114.641 70.0374 110.825 70.1117 110.825 75.4894C110.825 70.1117 107.008 70.0374 107.008 70.0374C107.008 70.0374 110.468 69.9657 110.796 65.3114Z" fill="#E1E4E5"/>
</svg>
