<svg width="316" height="210" viewBox="0 0 316 210" fill="none" xmlns="http://www.w3.org/2000/svg">
<g clip-path="url(#clip0_751_46836)">
<path d="M222.013 158.625V99.2131C222.011 98.4759 221.83 97.7501 221.487 97.0978C221.143 96.4455 220.647 95.886 220.04 95.4669C219.434 95.0479 218.735 94.7818 218.003 94.6913C217.271 94.6008 216.529 94.6887 215.838 94.9473L192.984 103.504C192.112 103.831 191.36 104.417 190.83 105.183C190.3 105.95 190.017 106.86 190.02 107.791V158.625" stroke="#F08519" stroke-width="3.85" stroke-linecap="round" stroke-linejoin="round"/>
<path d="M170.023 102.637H178.021C180.23 102.637 182.02 104.427 182.02 106.636V114.634H166.023V106.636C166.023 104.427 167.814 102.637 170.023 102.637Z" stroke="#F08519" stroke-width="3.85" stroke-linecap="round" stroke-linejoin="round"/>
<path d="M174.02 94.6382V102.637M158.023 158.626V118.634C158.023 116.425 159.814 114.634 162.023 114.634H186.018C188.226 114.634 190.017 116.425 190.017 118.634V158.626M168.023 138.629H180.021M168.023 126.632H180.021M200.681 116.17V144.406M211.346 116.17V144.406" stroke="#F08519" stroke-width="3.85" stroke-linecap="round" stroke-linejoin="round"/>
<path d="M97.6054 101.748H104.715C106.678 101.748 108.27 103.34 108.27 105.303V112.413H94.0508V105.303C94.0508 103.34 95.6422 101.748 97.6054 101.748Z" stroke="#F08519" stroke-width="3.85" stroke-linecap="round" stroke-linejoin="round"/>
<path d="M101.161 94.6382V101.748M86.9414 158.626V115.968C86.9414 114.004 88.5332 112.413 90.4964 112.413H111.825C113.789 112.413 115.38 114.004 115.38 115.968V126.632M126.045 126.632V101.748C126.045 101.174 126.184 100.608 126.451 100.099C126.718 99.5907 127.103 99.1542 127.575 98.8271C128.047 98.5001 128.592 98.2923 129.161 98.2214C129.731 98.1506 130.31 98.2188 130.848 98.4203L148.622 105.086C149.3 105.34 149.884 105.795 150.296 106.39C150.708 106.986 150.929 107.693 150.929 108.417V158.625" stroke="#F08519" stroke-width="3.85" stroke-linecap="round" stroke-linejoin="round"/>
<path d="M104.715 158.625V130.186C104.715 128.223 106.307 126.631 108.27 126.631H129.599C131.562 126.631 133.154 128.223 133.154 130.186V158.625M113.602 146.895H124.267M113.602 137.297H124.267" stroke="#F08519" stroke-width="3.85" stroke-linecap="round" stroke-linejoin="round"/>
<path fill-rule="evenodd" clip-rule="evenodd" d="M53.8398 176.498C53.8398 176.498 75.4002 151.347 105.694 150.994C136.125 150.639 160.336 175.637 162.566 176.928L53.8398 176.498Z" fill="white" stroke="#E1E4E5" stroke-width="3.85"/>
<path fill-rule="evenodd" clip-rule="evenodd" d="M127.746 176.498C127.746 176.498 149.306 151.347 179.6 150.994C210.031 150.639 234.242 175.637 236.472 176.928L127.746 176.498Z" fill="white" stroke="#E1E4E5" stroke-width="3.85"/>
<path fill-rule="evenodd" clip-rule="evenodd" d="M172.16 176.586C172.16 176.586 188.577 156.603 211.644 156.323C234.815 156.041 253.25 175.902 254.948 176.928L172.16 176.586Z" fill="white" stroke="#E1E4E5" stroke-width="3.85"/>
<path d="M97.2773 176.163V166.269" stroke="#E1E4E5" stroke-width="3.85"/>
<path d="M103.461 176.163V169.154" stroke="#E1E4E5" stroke-width="3.85"/>
<path d="M91.5039 176.163V169.154" stroke="#E1E4E5" stroke-width="3.85"/>
<path d="M154.836 176.519V166.624" stroke="#E1E4E5" stroke-width="3.85"/>
<path d="M161.02 176.518V169.51" stroke="#E1E4E5" stroke-width="3.85"/>
<path d="M149.066 176.518V169.51" stroke="#E1E4E5" stroke-width="3.85"/>
<path d="M226.254 177.229V167.335" stroke="#E1E4E5" stroke-width="3.85"/>
<path d="M232.441 177.229V170.22" stroke="#E1E4E5" stroke-width="3.85"/>
<path d="M220.484 177.229V170.22" stroke="#E1E4E5" stroke-width="3.85"/>
<path d="M159.172 72.2123C170.052 72.2123 178.871 63.3926 178.871 52.5129C178.871 41.6332 170.052 32.8135 159.172 32.8135C148.292 32.8135 139.473 41.6332 139.473 52.5129C139.473 63.3926 148.292 72.2123 159.172 72.2123Z" fill="#F08519"/>
<path d="M123.646 54.8359C127.806 54.8359 125.859 48.2394 120.589 49.8151C120.298 40.656 105.369 33.9545 99.1954 46.3081C97.4499 44.927 93.5306 47.5356 94.3986 49.8151C92.46 49.9803 90.9347 50.2047 89.7482 50.5015C87.008 51.1875 87.5505 54.8047 90.3747 54.7795L123.646 54.8359ZM271.389 80.9487C277.57 80.9487 274.678 71.2071 266.847 73.5339C266.414 60.0078 244.231 50.1112 235.059 68.3546C232.465 66.3152 226.642 70.1676 227.931 73.5339C225.051 73.7779 222.784 74.109 221.021 74.5479C216.95 75.5608 217.756 80.9028 221.952 80.8654L271.389 80.9487ZM42.7701 61.9045H65.1586C67.1602 61.9045 68.0226 59.2931 66.3846 58.1346C66.3617 58.1181 66.3386 58.1018 66.3153 58.0856C63.9829 56.4704 60.9222 56.6174 60.9222 56.6174C60.9222 56.6174 60.4854 47.8782 52.2502 47.8782C44.805 47.8782 41.836 55.2415 40.765 59.298C40.4171 60.6161 41.4167 61.9045 42.7701 61.9045ZM198.398 58.5655H220.786C222.788 58.5655 223.65 55.9538 222.012 54.7956C221.989 54.779 221.966 54.7625 221.943 54.7463C219.61 53.1314 216.55 53.278 216.55 53.278C216.55 53.278 216.113 44.5389 207.878 44.5389C200.432 44.5389 197.463 51.9022 196.392 55.959C196.045 57.2768 197.044 58.5655 198.398 58.5655ZM142.053 82.1086H123.766C122.132 82.1086 121.427 80.0089 122.765 79.0779C122.784 79.0645 122.803 79.0513 122.822 79.0384C124.726 77.7399 127.227 77.8578 127.227 77.8578C127.227 77.8578 127.583 70.8323 134.31 70.8323C140.391 70.8323 142.816 76.7518 143.69 80.0131C143.974 81.0726 143.158 82.1086 142.053 82.1086ZM204.02 84.8449H173.986C171.555 84.8449 170.506 81.7673 172.496 80.4016L172.581 80.3442C175.414 78.4402 179.133 78.6131 179.133 78.6131C179.133 78.6131 179.664 68.314 189.67 68.314C194.616 68.314 198.614 76.5796 198.614 76.5796C198.614 76.5796 205.343 76.5796 206.457 81.7726C206.794 83.3462 205.665 84.8449 204.02 84.8449ZM59.6079 83.9891H106.644C111.06 83.9891 110.857 80.3519 109.415 79.0846C107.937 77.7854 105.016 78.3125 105.016 78.3125C105.016 78.3125 104.146 75.8656 101.284 74.6746C98.7526 73.6211 96.1003 74.1226 96.1003 74.1226C96.1003 74.1226 96.1003 72.4433 94.4791 71.0528C92.8579 69.6622 90.6967 69.7973 90.6967 69.7973C90.6967 69.7973 89.2109 60.5384 79.2818 60.5384C69.353 60.5384 68.2046 69.2566 68.2046 69.2566C68.2046 69.2566 65.9758 69.2566 64.3546 70.7434C62.7334 72.2302 62.5311 73.9196 62.5311 73.9196C62.5311 73.9196 57.1096 73.1888 55.5063 77.868C54.5508 80.6568 56.5139 83.9891 59.6079 83.9891Z" fill="#F7F7F7"/>
</g>
<defs>
<clipPath id="clip0_751_46836">
<rect width="315" height="210" fill="white" transform="translate(0.332031)"/>
</clipPath>
</defs>
</svg>
