<svg width="316" height="210" viewBox="0 0 316 210" fill="none" xmlns="http://www.w3.org/2000/svg">
<g clip-path="url(#clip0_751_46811)">
<path d="M220.811 108.85C220.811 75.4092 193.702 48.3 160.261 48.3C126.82 48.3 99.7109 75.4092 99.7109 108.85C99.7109 142.291 126.82 169.4 160.261 169.4C193.702 169.4 220.811 142.291 220.811 108.85Z" stroke="#E1E4E5" stroke-width="3.85" stroke-linecap="round" stroke-linejoin="bevel" stroke-dasharray="3.71 9.28"/>
<path d="M114.759 145.25C114.759 129.399 101.91 116.55 86.0594 116.55C70.2088 116.55 57.3594 129.399 57.3594 145.25V157.15C57.3594 173.001 70.2088 185.85 86.0594 185.85C101.91 185.85 114.759 173.001 114.759 157.15V145.25Z" fill="white" stroke="#E1E4E5" stroke-width="3.85"/>
<path d="M188.959 107.45C188.959 91.5994 176.109 78.75 160.259 78.75C144.408 78.75 131.559 91.5994 131.559 107.45V157.15C131.559 173.001 144.408 185.85 160.259 185.85C176.109 185.85 188.959 173.001 188.959 157.15V107.45Z" fill="white" stroke="#E1E4E5" stroke-width="3.85"/>
<path d="M263.158 75.95C263.158 60.0994 250.308 47.25 234.458 47.25C218.607 47.25 205.758 60.0994 205.758 75.95V157.15C205.758 173.001 218.607 185.85 234.458 185.85C250.308 185.85 263.158 173.001 263.158 157.15V75.95Z" fill="white" stroke="#E1E4E5" stroke-width="3.85"/>
<path d="M117.908 77.6999C124.48 77.6999 129.808 72.3721 129.808 65.7999C129.808 59.2277 124.48 53.8999 117.908 53.8999C111.336 53.8999 106.008 59.2277 106.008 65.7999C106.008 72.3721 111.336 77.6999 117.908 77.6999Z" fill="white" stroke="#E1E4E5" stroke-width="3.85"/>
<path d="M168.31 60.1999C174.882 60.1999 180.21 54.8721 180.21 48.2999C180.21 41.7277 174.882 36.3999 168.31 36.3999C161.738 36.3999 156.41 41.7277 156.41 48.2999C156.41 54.8721 161.738 60.1999 168.31 60.1999Z" fill="white" stroke="#E1E4E5" stroke-width="3.85"/>
<path d="M96.9986 105.581C98.5948 104.659 100.406 104.174 102.249 104.174C104.092 104.174 105.902 104.659 107.499 105.581L120.716 113.212C122.312 114.134 123.638 115.459 124.559 117.055C125.481 118.652 125.966 120.462 125.966 122.305V137.568C125.966 139.411 125.481 141.222 124.559 142.818C123.638 144.414 122.312 145.739 120.716 146.661L107.499 154.292C105.902 155.214 104.092 155.699 102.249 155.699C100.406 155.699 98.5948 155.214 96.9986 154.292L83.7812 146.661C82.1851 145.739 80.8596 144.414 79.938 142.818C79.0164 141.222 78.5313 139.411 78.5313 137.568V122.305C78.5312 120.462 79.0164 118.652 79.938 117.055C80.8595 115.459 82.185 114.134 83.7812 113.212L96.9986 105.581Z" fill="#F08519"/>
<path d="M110.717 124.82L100.721 134.737L94.7227 128.787" stroke="white" stroke-width="3.85" stroke-linecap="round" stroke-linejoin="round"/>
<path d="M171.37 105.581C172.966 104.659 174.777 104.174 176.62 104.174C178.463 104.174 180.274 104.659 181.87 105.581L195.087 113.212C196.683 114.134 198.009 115.459 198.93 117.055C199.852 118.652 200.337 120.462 200.337 122.305V137.568C200.337 139.411 199.852 141.222 198.93 142.818C198.009 144.414 196.683 145.739 195.087 146.661L181.87 154.292C180.274 155.214 178.463 155.699 176.62 155.699C174.777 155.699 172.966 155.214 171.37 154.292L158.152 146.661C156.556 145.739 155.231 144.414 154.309 142.818C153.388 141.222 152.902 139.411 152.902 137.568V122.305C152.902 120.462 153.387 118.652 154.309 117.055C155.231 115.459 156.556 114.134 158.152 113.212L171.37 105.581Z" fill="#F08519"/>
<path d="M185.092 124.82L175.096 134.737L169.098 128.787" stroke="white" stroke-width="3.85" stroke-linecap="round" stroke-linejoin="round"/>
<path d="M245.741 105.581C247.337 104.659 249.148 104.174 250.991 104.174C252.834 104.174 254.645 104.659 256.241 105.581L269.458 113.212C271.054 114.134 272.38 115.459 273.302 117.055C274.223 118.652 274.708 120.462 274.708 122.305V137.568C274.708 139.411 274.223 141.222 273.301 142.818C272.38 144.414 271.054 145.739 269.458 146.661L256.241 154.292C254.645 155.214 252.834 155.699 250.991 155.699C249.148 155.699 247.337 155.214 245.741 154.292L232.523 146.661C230.927 145.739 229.602 144.414 228.68 142.818C227.759 141.222 227.273 139.411 227.273 137.568V122.305C227.273 120.462 227.759 118.652 228.68 117.055C229.602 115.459 230.927 114.134 232.523 113.212L245.741 105.581Z" fill="#F08519"/>
<path d="M259.463 124.82L249.467 134.737L243.469 128.787" stroke="white" stroke-width="3.85" stroke-linecap="round" stroke-linejoin="round"/>
<path d="M160.288 173.655C156.6 173.655 153.61 170.665 153.61 166.977C153.61 163.289 156.6 160.3 160.288 160.3C163.975 160.3 166.965 163.289 166.965 166.977C166.965 170.665 163.975 173.655 160.288 173.655Z" fill="#F08519"/>
<path d="M243.915 114.551C242.194 114.551 240.799 113.156 240.799 111.435C240.799 109.714 242.194 108.319 243.915 108.319C245.636 108.319 247.031 109.714 247.031 111.435C247.031 113.156 245.636 114.551 243.915 114.551Z" fill="#F08519"/>
<path d="M262.998 92.4238C259.802 92.4238 257.211 89.8329 257.211 86.6369C257.211 83.4409 259.802 80.85 262.998 80.85C266.194 80.85 268.785 83.4409 268.785 86.6369C268.785 89.8329 266.194 92.4238 262.998 92.4238Z" fill="#E1E4E5"/>
<path d="M237.407 79.0398C235.78 79.0398 234.462 77.7213 234.462 76.0949C234.462 74.4685 235.78 73.15 237.407 73.15C239.033 73.15 240.352 74.4685 240.352 76.0949C240.352 77.7213 239.033 79.0398 237.407 79.0398Z" fill="#E1E4E5"/>
<path d="M210.005 43.9471C210.005 46.3755 208.036 48.3441 205.608 48.3441C203.18 48.3441 201.211 46.3755 201.211 43.9471C201.211 41.5187 203.18 39.55 205.608 39.55C208.036 39.55 210.005 41.5187 210.005 43.9471Z" fill="#E1E4E5"/>
<path d="M131.704 42.2897C130.077 42.2897 128.759 40.9712 128.759 39.3448C128.759 37.7184 130.077 36.3999 131.704 36.3999C133.33 36.3999 134.648 37.7184 134.648 39.3448C134.648 40.9712 133.33 42.2897 131.704 42.2897Z" fill="#E1E4E5"/>
</g>
<defs>
<clipPath id="clip0_751_46811">
<rect width="315" height="210" fill="white" transform="translate(0.667969)"/>
</clipPath>
</defs>
</svg>
