<svg width="460" height="272" viewBox="0 0 460 272" fill="none" xmlns="http://www.w3.org/2000/svg">
<g clip-path="url(#clip0_513_17775)">
<path d="M282.229 273.498C315.453 278.181 388.942 218.76 370.74 136.16C362.274 97.7439 342.606 99.2443 319.493 68.5977C305.717 50.331 296.293 24.9771 274.731 16.2955C256.121 8.79744 235.267 10.6197 221.031 19.618C189.014 39.8559 164.471 84.1618 207.916 133.635C251.361 183.109 196.542 261.409 282.229 273.498Z" fill="#FFE8D7"/>
<path d="M80.4017 110.8C86.6618 121.972 100.371 123.507 122.335 121.384C138.853 119.784 153.916 118.546 170.435 109.54C181.998 103.24 191.15 94.7174 197.83 86.4394C205.069 77.4715 215.173 67.237 210.22 57.0689C203.413 43.1013 164.05 31.3376 125.826 50.5753C83.8374 71.7138 74.2781 99.8811 80.4017 110.8Z" fill="#FFE8D7"/>
<path d="M49.5124 132.745C65.7402 140.795 87.2784 130.444 87.2784 130.444C87.2784 130.444 82.4918 107.047 66.2554 99.0084C50.0276 90.9584 28.498 101.298 28.498 101.298C28.498 101.298 33.2846 124.695 49.5124 132.745Z" fill="url(#paint0_linear_513_17775)"/>
<path d="M413.119 157.824C404.302 163.108 391.652 158.223 391.652 158.223C391.652 158.223 393.306 144.773 402.129 139.495C410.945 134.211 423.589 139.089 423.589 139.089C423.589 139.089 421.935 152.54 413.119 157.824Z" fill="url(#paint1_linear_513_17775)"/>
<path d="M89.7539 247.777C92.5067 247.777 94.7382 245.545 94.7382 242.793C94.7382 240.04 92.5067 237.808 89.7539 237.808C87.0011 237.808 84.7695 240.04 84.7695 242.793C84.7695 245.545 87.0011 247.777 89.7539 247.777Z" fill="#E1E4E5"/>
<path d="M414.364 213.056C418.34 213.056 421.563 209.833 421.563 205.857C421.563 201.88 418.34 198.657 414.364 198.657C410.387 198.657 407.164 201.88 407.164 205.857C407.164 209.833 410.387 213.056 414.364 213.056Z" fill="#E1E4E5"/>
<path d="M64.3717 198.994C67.3977 198.994 69.8508 196.541 69.8508 193.515C69.8508 190.489 67.3977 188.036 64.3717 188.036C61.3457 188.036 58.8926 190.489 58.8926 193.515C58.8926 196.541 61.3457 198.994 64.3717 198.994Z" fill="#FCC49B"/>
<path d="M95.047 54.4349C98.4115 54.4349 101.139 51.7074 101.139 48.3429C101.139 44.9785 98.4115 42.251 95.047 42.251C91.6825 42.251 88.9551 44.9785 88.9551 48.3429C88.9551 51.7074 91.6825 54.4349 95.047 54.4349Z" fill="#FCC49B"/>
<path d="M428.614 86.8158C428.614 89.837 431.063 92.2862 434.084 92.2862C437.106 92.2862 439.555 89.837 439.555 86.8158C439.555 83.7946 437.106 81.3454 434.084 81.3454C431.063 81.3454 428.614 83.7946 428.614 86.8158Z" fill="#FCC49B"/>
<path d="M273.724 41.4148C277.744 41.4148 281.002 38.1567 281.002 34.1376C281.002 30.1185 277.744 26.8604 273.724 26.8604C269.705 26.8604 266.447 30.1185 266.447 34.1376C266.447 38.1567 269.705 41.4148 273.724 41.4148Z" fill="#E1E4E5"/>
<path d="M84.315 167.643C87.4068 167.643 89.9132 165.638 89.9132 163.165C89.9132 160.691 87.4068 158.686 84.315 158.686C81.2232 158.686 78.7168 160.691 78.7168 163.165C78.7168 165.638 81.2232 167.643 84.315 167.643Z" fill="#E1E4E5"/>
<path d="M372.95 54.3475H372.87C372.398 61.0384 367.422 61.1412 367.422 61.1412C367.422 61.1412 372.909 61.2485 372.909 68.9796C372.909 61.2485 378.395 61.1412 378.395 61.1412C378.395 61.1412 373.422 61.0384 372.95 54.3475ZM381.286 229.486H381.209C380.756 236.157 375.978 236.26 375.978 236.26C375.978 236.26 381.246 236.366 381.246 244.074C381.246 236.366 386.514 236.26 386.514 236.26C386.514 236.26 381.739 236.157 381.286 229.486Z" fill="#E1E4E5"/>
<path d="M229.721 279.312C299.148 279.312 355.429 223.03 355.429 153.603C355.429 84.1762 299.148 27.8944 229.721 27.8944C160.293 27.8944 104.012 84.1762 104.012 153.603C104.012 223.03 160.293 279.312 229.721 279.312Z" fill="#F08519"/>
<mask id="mask0_513_17775" style="mask-type:alpha" maskUnits="userSpaceOnUse" x="104" y="27" width="252" height="253">
<path d="M229.722 279.312C299.15 279.312 355.431 223.03 355.431 153.603C355.431 84.1761 299.15 27.8944 229.722 27.8944C160.295 27.8944 104.014 84.1761 104.014 153.603C104.014 223.03 160.295 279.312 229.722 279.312Z" fill="#F08519"/>
</mask>
<g mask="url(#mask0_513_17775)">
<path d="M296.957 97.1111H163.046C151.755 97.1111 142.602 106.264 142.602 117.556V261.689C142.602 272.98 151.755 282.133 163.046 282.133H296.957C308.248 282.133 317.402 272.98 317.402 261.689V117.556C317.402 106.264 308.248 97.1111 296.957 97.1111Z" fill="white"/>
<path d="M188.359 194.483H271.588M188.359 217.063H271.588M201.889 239.711H258.112" stroke="#E1E4E5" stroke-width="7.37584" stroke-linecap="round" stroke-linejoin="round"/>
<path d="M259.19 131.867L222.356 168.633L200.256 146.573" stroke="#784007" stroke-width="14.0249" stroke-linecap="round" stroke-linejoin="round"/>
</g>
</g>
<defs>
<linearGradient id="paint0_linear_513_17775" x1="111.829" y1="157.855" x2="-22.0181" y2="51.981" gradientUnits="userSpaceOnUse">
<stop stop-color="white"/>
<stop offset="1" stop-color="#EEEEEE"/>
</linearGradient>
<linearGradient id="paint1_linear_513_17775" x1="379" y1="174.834" x2="449.943" y2="108.918" gradientUnits="userSpaceOnUse">
<stop stop-color="white"/>
<stop offset="1" stop-color="#EEEEEE"/>
</linearGradient>
<clipPath id="clip0_513_17775">
<rect width="460" height="272" fill="white"/>
</clipPath>
</defs>
</svg>
