<svg width="280" height="372" viewBox="0 0 280 372" fill="none" xmlns="http://www.w3.org/2000/svg">
<path d="M280 140C280 217.32 217.32 280 140 280C62.6801 280 0 217.32 0 140C0 62.6801 62.6801 0 140 0C217.32 0 280 62.6801 280 140ZM70 140C70 178.66 101.34 210 140 210C178.66 210 210 178.66 210 140C210 101.34 178.66 70 140 70C101.34 70 70 101.34 70 140Z" fill="#F39240"/>
<path d="M140 0C169.565 3.5256e-07 198.371 9.3597 222.29 26.7376L181.145 83.3688C169.186 74.6798 154.783 70 140 70V0Z" fill="#FEDCC3"/>
<path d="M222.29 26.7376C246.209 44.1156 264.012 68.6196 273.148 96.7377L206.574 118.369C202.006 104.31 193.104 92.0578 181.145 83.3688L222.29 26.7376Z" fill="#FCC49B"/>
<path d="M273.148 96.7376C282.284 124.856 282.284 155.144 273.148 183.262C264.012 211.38 246.209 235.884 222.29 253.262L181.145 196.631C193.104 187.942 202.006 175.69 206.574 161.631C211.142 147.572 211.142 132.428 206.574 118.369L273.148 96.7376Z" fill="#FAB887"/>
<path d="M43.0335 164.252L38.2095 151.652H40.6755L45.6435 164.252H43.0335ZM33.0795 164.252L38.0475 151.652H40.5135L35.6895 164.252H33.0795ZM35.4195 161.48V159.302H43.3215V161.48H35.4195Z" fill="#784007"/>
<path d="M231.606 176.252V163.652H235.872C236.736 163.652 237.492 163.784 238.14 164.048C238.788 164.312 239.292 164.714 239.652 165.254C240.012 165.782 240.192 166.442 240.192 167.234C240.192 167.726 240.066 168.182 239.814 168.602C239.574 169.01 239.232 169.364 238.788 169.664C239.376 169.964 239.826 170.366 240.138 170.87C240.462 171.362 240.624 171.956 240.624 172.652C240.624 173.42 240.45 174.074 240.102 174.614C239.754 175.154 239.268 175.562 238.644 175.838C238.02 176.114 237.288 176.252 236.448 176.252H231.606ZM234.018 174.074H236.214C236.802 174.074 237.264 173.93 237.6 173.642C237.936 173.342 238.104 172.946 238.104 172.454C238.104 171.938 237.918 171.536 237.546 171.248C237.174 170.948 236.664 170.798 236.016 170.798H234.018V174.074ZM234.018 168.782H235.926C236.466 168.782 236.892 168.644 237.204 168.368C237.516 168.092 237.672 167.702 237.672 167.198C237.672 166.694 237.498 166.304 237.15 166.028C236.802 165.752 236.328 165.614 235.728 165.614H234.018V168.782Z" fill="#B26110"/>
<path d="M225.918 83.6848C224.694 83.6848 223.608 83.4087 222.66 82.8567C221.712 82.2927 220.968 81.5247 220.428 80.5527C219.888 79.5687 219.618 78.4407 219.618 77.1687C219.618 75.8967 219.888 74.7747 220.428 73.8027C220.968 72.8187 221.706 72.0507 222.642 71.4987C223.59 70.9347 224.676 70.6527 225.9 70.6527C226.764 70.6527 227.568 70.8087 228.312 71.1207C229.056 71.4207 229.704 71.8467 230.256 72.3987C230.82 72.9387 231.252 73.5627 231.552 74.2707L229.266 75.1167C229.062 74.6727 228.792 74.2887 228.456 73.9648C228.12 73.6287 227.736 73.3707 227.304 73.1907C226.872 72.9987 226.404 72.9027 225.9 72.9027C225.168 72.9027 224.514 73.0887 223.938 73.4607C223.374 73.8207 222.93 74.3187 222.606 74.9547C222.294 75.5907 222.138 76.3287 222.138 77.1687C222.138 78.0087 222.3 78.7527 222.624 79.4007C222.948 80.0367 223.398 80.5407 223.974 80.9127C224.55 81.2727 225.21 81.4527 225.954 81.4527C226.47 81.4527 226.938 81.3567 227.358 81.1647C227.79 80.9607 228.168 80.6847 228.492 80.3367C228.828 79.9887 229.098 79.5867 229.302 79.1307L231.588 79.9587C231.288 80.6907 230.856 81.3387 230.292 81.9027C229.74 82.4667 229.092 82.9047 228.348 83.2167C227.604 83.5287 226.794 83.6848 225.918 83.6848Z" fill="#B26110"/>
<path d="M168.233 47.2832V34.6832H172.265C173.549 34.6832 174.683 34.9532 175.667 35.4932C176.663 36.0332 177.437 36.7772 177.989 37.7252C178.553 38.6612 178.835 39.7472 178.835 40.9832C178.835 42.2072 178.553 43.2932 177.989 44.2412C177.437 45.1892 176.663 45.9332 175.667 46.4732C174.683 47.0132 173.549 47.2832 172.265 47.2832H168.233ZM170.699 44.9792H172.265C172.841 44.9792 173.375 44.8772 173.867 44.6732C174.359 44.4692 174.785 44.1872 175.145 43.8272C175.517 43.4672 175.805 43.0472 176.009 42.5672C176.213 42.0752 176.315 41.5472 176.315 40.9832C176.315 40.4192 176.213 39.8972 176.009 39.4172C175.805 38.9252 175.517 38.4992 175.145 38.1392C174.785 37.7792 174.359 37.4972 173.867 37.2932C173.375 37.0892 172.841 36.9872 172.265 36.9872H170.699V44.9792Z" fill="#B26110"/>
<circle cx="4" cy="304" r="4" fill="#F39240"/>
<path d="M16.132 309L19.396 300.06H20.428L23.692 309H22.684L21.916 306.816H17.92L17.14 309H16.132ZM18.232 305.916H21.58L19.768 300.78H20.056L18.232 305.916ZM25.0641 309V307.68H26.0241V309H25.0641ZM33.4518 299.736H41.3238V309.768H40.3638V300.636H34.3758V309.828H33.4518V299.736ZM34.0758 303.888H40.7718V304.776H34.0758V303.888ZM34.0518 308.148H40.7838V309.048H34.0518V308.148ZM44.1198 301.452H54.5838V302.364H44.1198V301.452ZM46.5078 306.804H52.0998V307.716H46.5078V306.804ZM48.8598 298.932H49.8078V309.96H48.8598V298.932ZM48.5718 301.752L49.3878 302.016C49.0278 302.864 48.5878 303.676 48.0678 304.452C47.5478 305.22 46.9718 305.916 46.3398 306.54C45.7078 307.156 45.0478 307.664 44.3598 308.064C44.3118 307.992 44.2478 307.912 44.1678 307.824C44.0878 307.728 44.0078 307.636 43.9278 307.548C43.8558 307.46 43.7838 307.384 43.7118 307.32C44.2158 307.056 44.7038 306.728 45.1758 306.336C45.6558 305.944 46.1078 305.504 46.5318 305.016C46.9638 304.52 47.3518 303.996 47.6958 303.444C48.0398 302.892 48.3318 302.328 48.5718 301.752ZM50.0958 301.788C50.4158 302.548 50.8278 303.284 51.3318 303.996C51.8358 304.7 52.3998 305.336 53.0238 305.904C53.6558 306.464 54.3158 306.912 55.0038 307.248C54.9318 307.312 54.8518 307.388 54.7638 307.476C54.6838 307.564 54.6038 307.66 54.5238 307.764C54.4438 307.86 54.3758 307.952 54.3198 308.04C53.6238 307.648 52.9558 307.148 52.3158 306.54C51.6838 305.924 51.1118 305.232 50.5998 304.464C50.0878 303.696 49.6558 302.896 49.3038 302.064L50.0958 301.788ZM61.0878 305.64H66.1638V309.912H65.2878V306.456H61.9398V309.96H61.0878V305.64ZM60.7638 301.392H65.8398V304.332H64.9758V302.172H60.7638V301.392ZM62.5038 299.664L63.3798 299.748C63.3158 300.236 63.2358 300.764 63.1398 301.332C63.0438 301.892 62.9478 302.436 62.8518 302.964C62.7558 303.492 62.6638 303.944 62.5758 304.32H61.6998C61.7718 304.032 61.8438 303.696 61.9158 303.312C61.9878 302.928 62.0598 302.524 62.1318 302.1C62.2038 301.676 62.2718 301.256 62.3358 300.84C62.3998 300.424 62.4558 300.032 62.5038 299.664ZM60.5838 299.364H66.5238V300.156H60.5838V299.364ZM60.2118 303.924H66.9078V304.728H60.2118V303.924ZM61.4838 308.592H65.7798V309.408H61.4838V308.592ZM56.3718 302.616H59.7558V303.336H56.3718V302.616ZM56.4438 299.34H59.7438V300.06H56.4438V299.34ZM56.3718 304.26H59.7558V304.968H56.3718V304.26ZM55.7958 300.948H60.1638V301.692H55.7958V300.948ZM56.7918 305.904H59.8038V309.396H56.7918V308.664H58.9998V306.648H56.7918V305.904ZM56.3478 305.904H57.1398V309.948H56.3478V305.904ZM75.6798 304.44C75.6798 303.656 75.7758 302.924 75.9678 302.244C76.1678 301.564 76.4478 300.932 76.8078 300.348C77.1678 299.756 77.5878 299.216 78.0678 298.728L78.7878 299.1C78.3318 299.572 77.9358 300.088 77.5998 300.648C77.2638 301.2 77.0038 301.792 76.8198 302.424C76.6438 303.048 76.5558 303.72 76.5558 304.44C76.5558 305.152 76.6438 305.824 76.8198 306.456C77.0038 307.088 77.2638 307.68 77.5998 308.232C77.9358 308.784 78.3318 309.3 78.7878 309.78L78.0678 310.152C77.5878 309.656 77.1678 309.116 76.8078 308.532C76.4478 307.948 76.1678 307.316 75.9678 306.636C75.7758 305.948 75.6798 305.216 75.6798 304.44ZM82.9398 309.144C82.3798 309.144 81.8838 309.02 81.4518 308.772C81.0198 308.516 80.6798 308.168 80.4318 307.728C80.1838 307.28 80.0598 306.768 80.0598 306.192C80.0598 305.872 80.0958 305.556 80.1678 305.244C80.2478 304.932 80.3638 304.624 80.5158 304.32C80.6758 304.016 80.8678 303.712 81.0918 303.408L83.6118 300.06H84.7638L81.6558 304.128L81.4758 304.236C81.5958 304.036 81.7358 303.884 81.8958 303.78C82.0558 303.668 82.2318 303.588 82.4238 303.54C82.6238 303.492 82.8358 303.468 83.0598 303.468C83.5798 303.468 84.0478 303.592 84.4638 303.84C84.8798 304.08 85.2078 304.412 85.4478 304.836C85.6958 305.26 85.8198 305.752 85.8198 306.312C85.8198 306.848 85.6918 307.332 85.4358 307.764C85.1878 308.188 84.8478 308.524 84.4158 308.772C83.9838 309.02 83.4918 309.144 82.9398 309.144ZM82.9398 308.304C83.3078 308.304 83.6358 308.22 83.9238 308.052C84.2118 307.876 84.4398 307.636 84.6078 307.332C84.7758 307.028 84.8598 306.688 84.8598 306.312C84.8598 305.928 84.7758 305.588 84.6078 305.292C84.4478 304.996 84.2238 304.764 83.9358 304.596C83.6478 304.42 83.3158 304.332 82.9398 304.332C82.5718 304.332 82.2398 304.42 81.9438 304.596C81.6558 304.764 81.4278 304.996 81.2598 305.292C81.0998 305.588 81.0198 305.928 81.0198 306.312C81.0198 306.688 81.1038 307.028 81.2718 307.332C81.4398 307.636 81.6678 307.876 81.9558 308.052C82.2438 308.22 82.5718 308.304 82.9398 308.304ZM90.904 309.144C90.2 309.144 89.58 308.952 89.044 308.568C88.516 308.176 88.104 307.636 87.808 306.948C87.512 306.252 87.364 305.444 87.364 304.524C87.364 303.604 87.512 302.8 87.808 302.112C88.104 301.416 88.516 300.876 89.044 300.492C89.572 300.108 90.188 299.916 90.892 299.916C91.596 299.916 92.212 300.108 92.74 300.492C93.268 300.876 93.68 301.416 93.976 302.112C94.272 302.8 94.42 303.604 94.42 304.524C94.42 305.444 94.272 306.252 93.976 306.948C93.688 307.644 93.28 308.184 92.752 308.568C92.224 308.952 91.608 309.144 90.904 309.144ZM90.904 308.244C91.416 308.244 91.864 308.088 92.248 307.776C92.632 307.464 92.932 307.032 93.148 306.48C93.364 305.92 93.472 305.268 93.472 304.524C93.472 303.78 93.364 303.132 93.148 302.58C92.932 302.02 92.632 301.588 92.248 301.284C91.864 300.972 91.412 300.816 90.892 300.816C90.38 300.816 89.932 300.972 89.548 301.284C89.164 301.588 88.864 302.02 88.648 302.58C88.432 303.132 88.324 303.78 88.324 304.524C88.324 305.26 88.432 305.908 88.648 306.468C88.864 307.028 89.164 307.464 89.548 307.776C89.94 308.088 90.392 308.244 90.904 308.244ZM96.9451 309L104.265 300.06H105.429L98.1091 309H96.9451ZM98.2531 304.596C97.8211 304.596 97.4291 304.492 97.0771 304.284C96.7251 304.068 96.4411 303.784 96.2251 303.432C96.0171 303.08 95.9131 302.688 95.9131 302.256C95.9131 301.824 96.0171 301.432 96.2251 301.08C96.4411 300.72 96.7251 300.436 97.0771 300.228C97.4291 300.02 97.8211 299.916 98.2531 299.916C98.6851 299.916 99.0771 300.02 99.4291 300.228C99.7811 300.436 100.061 300.72 100.269 301.08C100.477 301.432 100.581 301.824 100.581 302.256C100.581 302.688 100.477 303.08 100.269 303.432C100.061 303.784 99.7811 304.068 99.4291 304.284C99.0771 304.492 98.6851 304.596 98.2531 304.596ZM98.2531 303.732C98.5331 303.732 98.7771 303.664 98.9851 303.528C99.2011 303.384 99.3691 303.2 99.4891 302.976C99.6171 302.744 99.6811 302.504 99.6811 302.256C99.6811 302 99.6171 301.76 99.4891 301.536C99.3691 301.312 99.2011 301.132 98.9851 300.996C98.7771 300.852 98.5331 300.78 98.2531 300.78C97.9811 300.78 97.7331 300.852 97.5091 300.996C97.2931 301.132 97.1211 301.312 96.9931 301.536C96.8731 301.76 96.8131 302 96.8131 302.256C96.8131 302.504 96.8731 302.744 96.9931 302.976C97.1211 303.2 97.2931 303.384 97.5091 303.528C97.7331 303.664 97.9811 303.732 98.2531 303.732ZM104.013 309.144C103.581 309.144 103.189 309.04 102.837 308.832C102.485 308.616 102.201 308.332 101.985 307.98C101.777 307.628 101.673 307.236 101.673 306.804C101.673 306.372 101.777 305.98 101.985 305.628C102.201 305.268 102.485 304.984 102.837 304.776C103.189 304.568 103.581 304.464 104.013 304.464C104.445 304.464 104.837 304.568 105.189 304.776C105.541 304.984 105.821 305.268 106.029 305.628C106.237 305.98 106.341 306.372 106.341 306.804C106.341 307.236 106.237 307.628 106.029 307.98C105.821 308.332 105.541 308.616 105.189 308.832C104.837 309.04 104.445 309.144 104.013 309.144ZM104.013 308.28C104.293 308.28 104.537 308.212 104.745 308.076C104.961 307.932 105.129 307.748 105.249 307.524C105.377 307.292 105.441 307.052 105.441 306.804C105.441 306.548 105.377 306.308 105.249 306.084C105.129 305.86 104.961 305.68 104.745 305.544C104.537 305.4 104.293 305.328 104.013 305.328C103.741 305.328 103.493 305.4 103.269 305.544C103.053 305.68 102.881 305.86 102.753 306.084C102.633 306.308 102.573 306.548 102.573 306.804C102.573 307.052 102.633 307.292 102.753 307.524C102.881 307.748 103.053 307.932 103.269 308.076C103.493 308.212 103.741 308.28 104.013 308.28Z" fill="#667085"/>
<circle cx="4" cy="324" r="4" fill="#FAB887"/>
<path d="M17.056 329V320.06H20.812C21.316 320.06 21.752 320.156 22.12 320.348C22.496 320.532 22.784 320.792 22.984 321.128C23.192 321.464 23.296 321.856 23.296 322.304C23.296 322.768 23.18 323.18 22.948 323.54C22.724 323.892 22.4 324.16 21.976 324.344L21.964 324.056C22.316 324.184 22.616 324.364 22.864 324.596C23.12 324.828 23.316 325.1 23.452 325.412C23.588 325.716 23.656 326.044 23.656 326.396C23.656 327.196 23.4 327.832 22.888 328.304C22.384 328.768 21.696 329 20.824 329H17.056ZM18.016 328.1H20.824C21.392 328.1 21.844 327.952 22.18 327.656C22.524 327.352 22.696 326.936 22.696 326.408C22.696 325.888 22.524 325.476 22.18 325.172C21.844 324.86 21.392 324.704 20.824 324.704H18.016V328.1ZM18.016 323.84H20.74C21.22 323.84 21.604 323.7 21.892 323.42C22.188 323.14 22.336 322.78 22.336 322.34C22.336 321.892 22.188 321.552 21.892 321.32C21.604 321.08 21.22 320.96 20.74 320.96H18.016V323.84ZM25.5563 329V327.68H26.5163V329H25.5563ZM32.805 318.968L33.645 319.208C33.421 319.888 33.153 320.56 32.841 321.224C32.529 321.88 32.189 322.5 31.821 323.084C31.461 323.668 31.081 324.188 30.681 324.644C30.657 324.572 30.613 324.48 30.549 324.368C30.485 324.256 30.417 324.144 30.345 324.032C30.281 323.912 30.217 323.82 30.153 323.756C30.513 323.364 30.857 322.912 31.185 322.4C31.513 321.88 31.813 321.328 32.085 320.744C32.365 320.16 32.605 319.568 32.805 318.968ZM31.713 322.052L32.553 321.2L32.577 321.212V329.936H31.713V322.052ZM36.765 318.956H37.641V329.888H36.765V318.956ZM33.369 321.344H41.241V322.208H33.369V321.344ZM34.785 326.9H39.573V327.728H34.785V326.9ZM38.073 321.788C38.305 322.5 38.597 323.208 38.949 323.912C39.301 324.608 39.693 325.252 40.125 325.844C40.557 326.428 41.005 326.908 41.469 327.284C41.365 327.364 41.245 327.472 41.109 327.608C40.981 327.744 40.873 327.872 40.785 327.992C40.321 327.56 39.873 327.028 39.441 326.396C39.017 325.756 38.629 325.06 38.277 324.308C37.925 323.548 37.629 322.776 37.389 321.992L38.073 321.788ZM36.381 321.74L37.053 321.932C36.805 322.74 36.497 323.528 36.129 324.296C35.769 325.056 35.369 325.76 34.929 326.408C34.489 327.048 34.029 327.588 33.549 328.028C33.501 327.956 33.437 327.876 33.357 327.788C33.285 327.7 33.209 327.616 33.129 327.536C33.049 327.456 32.973 327.392 32.901 327.344C33.373 326.968 33.829 326.48 34.269 325.88C34.709 325.28 35.113 324.624 35.481 323.912C35.849 323.192 36.149 322.468 36.381 321.74ZM42.789 321.536H52.101V322.46H42.789V321.536ZM51.753 321.536H52.677C52.677 321.536 52.677 321.568 52.677 321.632C52.677 321.696 52.673 321.764 52.665 321.836C52.665 321.908 52.661 321.968 52.653 322.016C52.589 323.256 52.521 324.312 52.449 325.184C52.385 326.056 52.309 326.776 52.221 327.344C52.141 327.904 52.049 328.348 51.945 328.676C51.849 328.996 51.733 329.228 51.597 329.372C51.453 329.548 51.301 329.668 51.141 329.732C50.989 329.796 50.797 329.84 50.565 329.864C50.365 329.88 50.085 329.884 49.725 329.876C49.373 329.868 49.013 329.856 48.645 329.84C48.637 329.704 48.605 329.548 48.549 329.372C48.501 329.196 48.429 329.044 48.333 328.916C48.749 328.948 49.129 328.972 49.473 328.988C49.825 328.996 50.077 329 50.229 329C50.357 329 50.461 328.988 50.541 328.964C50.629 328.94 50.709 328.888 50.781 328.808C50.893 328.704 50.993 328.5 51.081 328.196C51.177 327.884 51.261 327.452 51.333 326.9C51.413 326.34 51.485 325.636 51.549 324.788C51.621 323.94 51.689 322.92 51.753 321.728V321.536ZM46.713 318.944H47.649V321.02C47.649 321.572 47.625 322.156 47.577 322.772C47.529 323.38 47.425 324.004 47.265 324.644C47.105 325.276 46.861 325.908 46.533 326.54C46.205 327.172 45.765 327.784 45.213 328.376C44.661 328.96 43.965 329.504 43.125 330.008C43.077 329.928 43.013 329.844 42.933 329.756C42.853 329.668 42.769 329.58 42.681 329.492C42.593 329.412 42.509 329.348 42.429 329.3C43.229 328.82 43.889 328.308 44.409 327.764C44.937 327.22 45.353 326.66 45.657 326.084C45.969 325.5 46.197 324.916 46.341 324.332C46.493 323.748 46.593 323.176 46.641 322.616C46.689 322.056 46.713 321.524 46.713 321.02V318.944ZM57.069 329.672C56.813 329.352 56.533 329.032 56.229 328.712C55.925 328.392 55.617 328.084 55.305 327.788C55.001 327.492 54.705 327.228 54.417 326.996L55.197 326.312C55.485 326.544 55.789 326.812 56.109 327.116C56.429 327.42 56.741 327.732 57.045 328.052C57.357 328.372 57.637 328.68 57.885 328.976L57.069 329.672ZM75.513 320.264C75.449 320.368 75.377 320.508 75.297 320.684C75.225 320.86 75.165 321.012 75.117 321.14C74.973 321.54 74.793 321.972 74.577 322.436C74.369 322.892 74.129 323.352 73.857 323.816C73.593 324.28 73.297 324.724 72.969 325.148C72.585 325.636 72.149 326.128 71.661 326.624C71.181 327.12 70.637 327.604 70.029 328.076C69.429 328.54 68.749 328.972 67.989 329.372L67.161 328.616C68.281 328.088 69.241 327.476 70.041 326.78C70.849 326.076 71.557 325.332 72.165 324.548C72.669 323.916 73.077 323.276 73.389 322.628C73.701 321.98 73.961 321.36 74.169 320.768C74.209 320.648 74.253 320.504 74.301 320.336C74.349 320.16 74.385 320.008 74.409 319.88L75.513 320.264ZM69.165 321.668C69.461 321.86 69.781 322.076 70.125 322.316C70.469 322.548 70.813 322.788 71.157 323.036C71.501 323.276 71.825 323.512 72.129 323.744C72.441 323.976 72.709 324.184 72.933 324.368C73.541 324.856 74.133 325.36 74.709 325.88C75.285 326.392 75.809 326.908 76.281 327.428L75.525 328.256C75.021 327.672 74.501 327.136 73.965 326.648C73.437 326.152 72.873 325.648 72.273 325.136C72.057 324.952 71.805 324.748 71.517 324.524C71.229 324.3 70.917 324.064 70.581 323.816C70.253 323.568 69.913 323.328 69.561 323.096C69.209 322.856 68.869 322.632 68.541 322.424L69.165 321.668ZM80.517 320.204C80.733 320.348 80.981 320.528 81.261 320.744C81.541 320.952 81.825 321.176 82.113 321.416C82.409 321.648 82.685 321.876 82.941 322.1C83.197 322.324 83.409 322.52 83.577 322.688L82.821 323.444C82.669 323.292 82.473 323.104 82.233 322.88C81.993 322.656 81.729 322.424 81.441 322.184C81.153 321.936 80.869 321.704 80.589 321.488C80.309 321.264 80.057 321.08 79.833 320.936L80.517 320.204ZM79.485 328.244C80.189 328.14 80.829 327.996 81.405 327.812C81.989 327.628 82.521 327.42 83.001 327.188C83.481 326.956 83.909 326.724 84.285 326.492C84.901 326.108 85.469 325.668 85.989 325.172C86.509 324.668 86.965 324.148 87.357 323.612C87.749 323.076 88.061 322.564 88.293 322.076L88.869 323.096C88.597 323.592 88.261 324.096 87.861 324.608C87.461 325.12 87.009 325.612 86.505 326.084C86.001 326.556 85.445 326.984 84.837 327.368C84.437 327.616 83.997 327.86 83.517 328.1C83.045 328.34 82.525 328.56 81.957 328.76C81.397 328.952 80.785 329.108 80.121 329.228L79.485 328.244ZM94.773 323.504C95.157 323.728 95.561 323.976 95.985 324.248C96.409 324.52 96.829 324.804 97.245 325.1C97.669 325.388 98.073 325.672 98.457 325.952C98.841 326.232 99.181 326.496 99.477 326.744L98.769 327.572C98.497 327.324 98.169 327.052 97.785 326.756C97.409 326.452 97.009 326.148 96.585 325.844C96.161 325.532 95.737 325.232 95.313 324.944C94.889 324.656 94.493 324.396 94.125 324.164L94.773 323.504ZM100.269 321.308C100.213 321.396 100.161 321.504 100.113 321.632C100.065 321.752 100.021 321.86 99.981 321.956C99.869 322.364 99.709 322.804 99.501 323.276C99.293 323.748 99.049 324.224 98.769 324.704C98.489 325.176 98.169 325.632 97.809 326.072C97.273 326.736 96.601 327.376 95.793 327.992C94.993 328.6 94.025 329.112 92.889 329.528L92.025 328.784C92.769 328.552 93.445 328.268 94.053 327.932C94.669 327.588 95.221 327.212 95.709 326.804C96.197 326.396 96.621 325.976 96.981 325.544C97.293 325.176 97.577 324.772 97.833 324.332C98.097 323.892 98.325 323.456 98.517 323.024C98.709 322.584 98.849 322.176 98.937 321.8H94.485L94.869 320.948H98.685C98.845 320.948 98.993 320.94 99.129 320.924C99.265 320.9 99.381 320.868 99.477 320.828L100.269 321.308ZM96.225 319.58C96.121 319.74 96.021 319.908 95.925 320.084C95.829 320.26 95.749 320.404 95.685 320.516C95.445 320.956 95.133 321.44 94.749 321.968C94.373 322.488 93.929 323.008 93.417 323.528C92.913 324.048 92.341 324.532 91.701 324.98L90.897 324.356C91.585 323.932 92.181 323.464 92.685 322.952C93.189 322.44 93.613 321.94 93.957 321.452C94.301 320.964 94.565 320.54 94.749 320.18C94.813 320.076 94.885 319.932 94.965 319.748C95.045 319.556 95.101 319.384 95.133 319.232L96.225 319.58ZM108.081 328.748C108.105 328.652 108.121 328.548 108.129 328.436C108.145 328.316 108.153 328.196 108.153 328.076C108.153 327.996 108.153 327.82 108.153 327.548C108.153 327.276 108.153 326.944 108.153 326.552C108.153 326.152 108.153 325.72 108.153 325.256C108.153 324.792 108.153 324.328 108.153 323.864C108.153 323.392 108.153 322.952 108.153 322.544C108.153 322.136 108.153 321.784 108.153 321.488C108.153 321.192 108.153 320.992 108.153 320.888C108.153 320.656 108.145 320.464 108.129 320.312C108.113 320.152 108.101 320.048 108.093 320H109.197C109.197 320.048 109.189 320.152 109.173 320.312C109.157 320.472 109.149 320.664 109.149 320.888C109.149 321 109.149 321.2 109.149 321.488C109.149 321.768 109.149 322.112 109.149 322.52C109.149 322.92 109.149 323.352 109.149 323.816C109.149 324.272 109.149 324.724 109.149 325.172C109.149 325.62 109.149 326.036 109.149 326.42C109.149 326.796 109.149 327.108 109.149 327.356C109.149 327.604 109.149 327.756 109.149 327.812C109.525 327.636 109.925 327.404 110.349 327.116C110.773 326.828 111.185 326.492 111.585 326.108C111.993 325.724 112.349 325.308 112.653 324.86L113.217 325.676C112.873 326.14 112.469 326.584 112.005 327.008C111.549 327.432 111.073 327.812 110.577 328.148C110.081 328.484 109.597 328.768 109.125 329C109.029 329.056 108.945 329.108 108.873 329.156C108.809 329.204 108.757 329.244 108.717 329.276L108.081 328.748ZM102.585 328.688C103.089 328.328 103.517 327.892 103.869 327.38C104.221 326.868 104.489 326.32 104.673 325.736C104.761 325.464 104.829 325.124 104.877 324.716C104.925 324.308 104.961 323.876 104.985 323.42C105.009 322.956 105.021 322.508 105.021 322.076C105.029 321.636 105.033 321.248 105.033 320.912C105.033 320.736 105.025 320.58 105.009 320.444C104.993 320.3 104.973 320.164 104.949 320.036H106.053C106.045 320.084 106.037 320.156 106.029 320.252C106.021 320.34 106.013 320.44 106.005 320.552C105.997 320.664 105.993 320.78 105.993 320.9C105.993 321.236 105.989 321.632 105.981 322.088C105.973 322.536 105.953 323.008 105.921 323.504C105.897 323.992 105.861 324.456 105.813 324.896C105.773 325.336 105.709 325.704 105.621 326C105.445 326.64 105.169 327.244 104.793 327.812C104.425 328.38 103.989 328.876 103.485 329.3L102.585 328.688ZM117.069 329.672C116.813 329.352 116.533 329.032 116.229 328.712C115.925 328.392 115.617 328.084 115.305 327.788C115.001 327.492 114.705 327.228 114.417 326.996L115.197 326.312C115.485 326.544 115.789 326.812 116.109 327.116C116.429 327.42 116.741 327.732 117.045 328.052C117.357 328.372 117.637 328.68 117.885 328.976L117.069 329.672ZM126.573 320.912H130.845V321.728H126.573V320.912ZM126.321 323.696H131.073V324.524H126.321V323.696ZM128.301 319.04H129.153V323.192C129.153 323.72 129.129 324.284 129.081 324.884C129.041 325.476 128.945 326.072 128.793 326.672C128.649 327.264 128.421 327.832 128.109 328.376C127.805 328.912 127.389 329.396 126.861 329.828C126.821 329.756 126.765 329.68 126.693 329.6C126.621 329.52 126.545 329.44 126.465 329.36C126.393 329.28 126.321 329.216 126.249 329.168C126.737 328.8 127.121 328.372 127.401 327.884C127.681 327.388 127.881 326.868 128.001 326.324C128.129 325.78 128.209 325.24 128.241 324.704C128.281 324.168 128.301 323.664 128.301 323.192V319.04ZM128.961 325.124C129.041 325.196 129.153 325.312 129.297 325.472C129.449 325.632 129.613 325.812 129.789 326.012C129.973 326.204 130.153 326.4 130.329 326.6C130.513 326.8 130.673 326.98 130.809 327.14C130.953 327.3 131.053 327.416 131.109 327.488L130.497 328.16C130.393 328.008 130.249 327.812 130.065 327.572C129.881 327.332 129.685 327.084 129.477 326.828C129.269 326.564 129.069 326.32 128.877 326.096C128.685 325.872 128.529 325.696 128.409 325.568L128.961 325.124ZM132.357 322.136V323.312H135.801V322.136H132.357ZM132.357 324.056V325.268H135.801V324.056H132.357ZM132.357 320.204V321.38H135.801V320.204H132.357ZM131.517 319.388H136.665V326.072H131.517V319.388ZM134.385 325.724H135.237V328.628C135.237 328.764 135.253 328.852 135.285 328.892C135.317 328.932 135.397 328.952 135.525 328.952C135.565 328.952 135.637 328.952 135.741 328.952C135.845 328.952 135.949 328.952 136.053 328.952C136.165 328.952 136.245 328.952 136.293 328.952C136.381 328.952 136.445 328.916 136.485 328.844C136.533 328.772 136.565 328.624 136.581 328.4C136.605 328.176 136.621 327.828 136.629 327.356C136.693 327.404 136.769 327.452 136.857 327.5C136.945 327.548 137.037 327.588 137.133 327.62C137.237 327.652 137.325 327.68 137.397 327.704C137.373 328.248 137.325 328.668 137.253 328.964C137.189 329.26 137.089 329.464 136.953 329.576C136.817 329.688 136.629 329.744 136.389 329.744C136.349 329.744 136.281 329.744 136.185 329.744C136.097 329.744 136.001 329.744 135.897 329.744C135.793 329.744 135.693 329.744 135.597 329.744C135.509 329.744 135.445 329.744 135.405 329.744C135.133 329.744 134.921 329.712 134.769 329.648C134.625 329.584 134.525 329.468 134.469 329.3C134.413 329.14 134.385 328.916 134.385 328.628V325.724ZM132.501 325.88H133.365C133.309 326.36 133.221 326.808 133.101 327.224C132.989 327.632 132.825 328.008 132.609 328.352C132.401 328.688 132.121 328.988 131.769 329.252C131.417 329.524 130.977 329.756 130.449 329.948C130.409 329.844 130.333 329.724 130.221 329.588C130.117 329.46 130.021 329.356 129.933 329.276C130.573 329.068 131.069 328.8 131.421 328.472C131.773 328.144 132.025 327.764 132.177 327.332C132.337 326.892 132.445 326.408 132.501 325.88ZM142.377 320.192H148.449V324.56H142.317V323.792H147.573V320.96H142.377V320.192ZM144.885 318.92H145.761V329.948H144.885V318.92ZM141.813 321.968H149.313V322.76H141.813V321.968ZM141.633 327.296H149.193V328.088H141.633V327.296ZM142.161 325.508H148.617V326.264H142.161V325.508ZM141.021 321.584L141.813 321.896C141.549 322.368 141.241 322.84 140.889 323.312C140.537 323.776 140.165 324.216 139.773 324.632C139.389 325.04 139.005 325.404 138.621 325.724C138.597 325.66 138.557 325.572 138.501 325.46C138.445 325.348 138.385 325.24 138.321 325.136C138.257 325.024 138.197 324.932 138.141 324.86C138.501 324.588 138.857 324.28 139.209 323.936C139.569 323.584 139.905 323.208 140.217 322.808C140.529 322.408 140.797 322 141.021 321.584ZM140.841 318.956L141.705 319.28C141.473 319.624 141.197 319.976 140.877 320.336C140.557 320.688 140.217 321.02 139.857 321.332C139.505 321.644 139.153 321.92 138.801 322.16C138.769 322.088 138.725 322.008 138.669 321.92C138.613 321.824 138.553 321.732 138.489 321.644C138.433 321.556 138.377 321.484 138.321 321.428C138.641 321.22 138.961 320.98 139.281 320.708C139.601 320.428 139.897 320.136 140.169 319.832C140.449 319.528 140.673 319.236 140.841 318.956ZM139.977 323.708L140.793 322.88L140.829 322.904V329.936H139.977V323.708ZM158.133 324.44C158.133 323.656 158.229 322.924 158.421 322.244C158.621 321.564 158.901 320.932 159.261 320.348C159.621 319.756 160.041 319.216 160.521 318.728L161.241 319.1C160.785 319.572 160.389 320.088 160.053 320.648C159.717 321.2 159.457 321.792 159.273 322.424C159.097 323.048 159.009 323.72 159.009 324.44C159.009 325.152 159.097 325.824 159.273 326.456C159.457 327.088 159.717 327.68 160.053 328.232C160.389 328.784 160.785 329.3 161.241 329.78L160.521 330.152C160.041 329.656 159.621 329.116 159.261 328.532C158.901 327.948 158.621 327.316 158.421 326.636C158.229 325.948 158.133 325.216 158.133 324.44ZM162.489 329V328.4L164.985 325.652C165.473 325.116 165.869 324.672 166.173 324.32C166.485 323.968 166.717 323.648 166.869 323.36C167.021 323.072 167.097 322.76 167.097 322.424C167.097 321.888 166.941 321.476 166.629 321.188C166.317 320.9 165.901 320.756 165.381 320.756C164.845 320.756 164.393 320.908 164.025 321.212C163.665 321.516 163.421 321.94 163.293 322.484L162.417 322.292C162.521 321.804 162.709 321.384 162.981 321.032C163.253 320.68 163.593 320.408 164.001 320.216C164.409 320.016 164.865 319.916 165.369 319.916C165.905 319.916 166.373 320.024 166.773 320.24C167.173 320.456 167.485 320.752 167.709 321.128C167.941 321.504 168.057 321.936 168.057 322.424C168.057 322.76 167.985 323.084 167.841 323.396C167.705 323.708 167.497 324.044 167.217 324.404C166.937 324.764 166.577 325.184 166.137 325.664L163.869 328.16H168.297V329H162.489ZM173.392 329.144C172.688 329.144 172.068 328.952 171.532 328.568C171.004 328.176 170.592 327.636 170.296 326.948C170 326.252 169.852 325.444 169.852 324.524C169.852 323.604 170 322.8 170.296 322.112C170.592 321.416 171.004 320.876 171.532 320.492C172.06 320.108 172.676 319.916 173.38 319.916C174.084 319.916 174.7 320.108 175.228 320.492C175.756 320.876 176.168 321.416 176.464 322.112C176.76 322.8 176.908 323.604 176.908 324.524C176.908 325.444 176.76 326.252 176.464 326.948C176.176 327.644 175.768 328.184 175.24 328.568C174.712 328.952 174.096 329.144 173.392 329.144ZM173.392 328.244C173.904 328.244 174.352 328.088 174.736 327.776C175.12 327.464 175.42 327.032 175.636 326.48C175.852 325.92 175.96 325.268 175.96 324.524C175.96 323.78 175.852 323.132 175.636 322.58C175.42 322.02 175.12 321.588 174.736 321.284C174.352 320.972 173.9 320.816 173.38 320.816C172.868 320.816 172.42 320.972 172.036 321.284C171.652 321.588 171.352 322.02 171.136 322.58C170.92 323.132 170.812 323.78 170.812 324.524C170.812 325.26 170.92 325.908 171.136 326.468C171.352 327.028 171.652 327.464 172.036 327.776C172.428 328.088 172.88 328.244 173.392 328.244ZM179.433 329L186.753 320.06H187.917L180.597 329H179.433ZM180.741 324.596C180.309 324.596 179.917 324.492 179.565 324.284C179.213 324.068 178.929 323.784 178.713 323.432C178.505 323.08 178.401 322.688 178.401 322.256C178.401 321.824 178.505 321.432 178.713 321.08C178.929 320.72 179.213 320.436 179.565 320.228C179.917 320.02 180.309 319.916 180.741 319.916C181.173 319.916 181.565 320.02 181.917 320.228C182.269 320.436 182.549 320.72 182.757 321.08C182.965 321.432 183.069 321.824 183.069 322.256C183.069 322.688 182.965 323.08 182.757 323.432C182.549 323.784 182.269 324.068 181.917 324.284C181.565 324.492 181.173 324.596 180.741 324.596ZM180.741 323.732C181.021 323.732 181.265 323.664 181.473 323.528C181.689 323.384 181.857 323.2 181.977 322.976C182.105 322.744 182.169 322.504 182.169 322.256C182.169 322 182.105 321.76 181.977 321.536C181.857 321.312 181.689 321.132 181.473 320.996C181.265 320.852 181.021 320.78 180.741 320.78C180.469 320.78 180.221 320.852 179.997 320.996C179.781 321.132 179.609 321.312 179.481 321.536C179.361 321.76 179.301 322 179.301 322.256C179.301 322.504 179.361 322.744 179.481 322.976C179.609 323.2 179.781 323.384 179.997 323.528C180.221 323.664 180.469 323.732 180.741 323.732ZM186.501 329.144C186.069 329.144 185.677 329.04 185.325 328.832C184.973 328.616 184.689 328.332 184.473 327.98C184.265 327.628 184.161 327.236 184.161 326.804C184.161 326.372 184.265 325.98 184.473 325.628C184.689 325.268 184.973 324.984 185.325 324.776C185.677 324.568 186.069 324.464 186.501 324.464C186.933 324.464 187.325 324.568 187.677 324.776C188.029 324.984 188.309 325.268 188.517 325.628C188.725 325.98 188.829 326.372 188.829 326.804C188.829 327.236 188.725 327.628 188.517 327.98C188.309 328.332 188.029 328.616 187.677 328.832C187.325 329.04 186.933 329.144 186.501 329.144ZM186.501 328.28C186.781 328.28 187.025 328.212 187.233 328.076C187.449 327.932 187.617 327.748 187.737 327.524C187.865 327.292 187.929 327.052 187.929 326.804C187.929 326.548 187.865 326.308 187.737 326.084C187.617 325.86 187.449 325.68 187.233 325.544C187.025 325.4 186.781 325.328 186.501 325.328C186.229 325.328 185.981 325.4 185.757 325.544C185.541 325.68 185.369 325.86 185.241 326.084C185.121 326.308 185.061 326.548 185.061 326.804C185.061 327.052 185.121 327.292 185.241 327.524C185.369 327.748 185.541 327.932 185.757 328.076C185.981 328.212 186.229 328.28 186.501 328.28ZM193.121 324.44C193.121 325.216 193.021 325.948 192.821 326.636C192.629 327.316 192.353 327.948 191.993 328.532C191.633 329.116 191.213 329.656 190.733 330.152L190.013 329.78C190.469 329.3 190.865 328.784 191.201 328.232C191.537 327.68 191.793 327.088 191.969 326.456C192.153 325.824 192.245 325.152 192.245 324.44C192.245 323.72 192.153 323.048 191.969 322.424C191.793 321.792 191.537 321.2 191.201 320.648C190.865 320.088 190.469 319.572 190.013 319.1L190.733 318.728C191.213 319.216 191.633 319.756 191.993 320.348C192.353 320.932 192.629 321.564 192.821 322.244C193.021 322.924 193.121 323.656 193.121 324.44Z" fill="#667085"/>
<circle cx="4" cy="344" r="4" fill="#FCC49B"/>
<path d="M21.136 349.144C20.504 349.144 19.924 349.032 19.396 348.808C18.868 348.576 18.408 348.256 18.016 347.848C17.632 347.432 17.332 346.944 17.116 346.384C16.9 345.824 16.792 345.208 16.792 344.536C16.792 343.864 16.9 343.248 17.116 342.688C17.332 342.128 17.632 341.64 18.016 341.224C18.408 340.808 18.868 340.488 19.396 340.264C19.924 340.032 20.504 339.916 21.136 339.916C21.744 339.916 22.288 340.024 22.768 340.24C23.256 340.456 23.664 340.736 23.992 341.08C24.328 341.416 24.568 341.772 24.712 342.148L23.812 342.544C23.588 342.024 23.244 341.608 22.78 341.296C22.324 340.976 21.776 340.816 21.136 340.816C20.48 340.816 19.896 340.972 19.384 341.284C18.872 341.596 18.472 342.032 18.184 342.592C17.896 343.144 17.752 343.792 17.752 344.536C17.752 345.272 17.896 345.92 18.184 346.48C18.472 347.04 18.872 347.476 19.384 347.788C19.896 348.092 20.48 348.244 21.136 348.244C21.776 348.244 22.324 348.088 22.78 347.776C23.244 347.464 23.588 347.048 23.812 346.528L24.712 346.924C24.568 347.292 24.328 347.648 23.992 347.992C23.664 348.328 23.256 348.604 22.768 348.82C22.288 349.036 21.744 349.144 21.136 349.144ZM26.611 349V347.68H27.571V349H26.611ZM39.5477 341.404L40.4957 341.692C39.9917 343.156 39.3437 344.42 38.5517 345.484C37.7677 346.548 36.8237 347.444 35.7197 348.172C34.6237 348.9 33.3477 349.5 31.8917 349.972C31.8597 349.892 31.8077 349.8 31.7357 349.696C31.6717 349.592 31.5997 349.484 31.5197 349.372C31.4477 349.26 31.3797 349.172 31.3157 349.108C32.7397 348.692 33.9837 348.148 35.0477 347.476C36.1117 346.796 37.0157 345.96 37.7597 344.968C38.5037 343.968 39.0997 342.78 39.5477 341.404ZM34.0877 341.476C34.5277 342.756 35.1197 343.908 35.8637 344.932C36.6157 345.948 37.5357 346.808 38.6237 347.512C39.7117 348.216 40.9797 348.74 42.4277 349.084C42.3557 349.148 42.2757 349.232 42.1877 349.336C42.1077 349.448 42.0277 349.56 41.9477 349.672C41.8757 349.784 41.8157 349.88 41.7677 349.96C40.2877 349.576 38.9957 349.008 37.8917 348.256C36.7957 347.496 35.8637 346.572 35.0957 345.484C34.3277 344.388 33.6957 343.14 33.1997 341.74L34.0877 341.476ZM31.4477 340.96H42.2957V341.836H31.4477V340.96ZM36.3677 338.92H37.2917V341.488H36.3677V338.92ZM48.6797 339.208H49.5917V348.124C49.5917 348.348 49.6117 348.52 49.6517 348.64C49.6917 348.752 49.7677 348.832 49.8797 348.88C49.9997 348.92 50.1717 348.94 50.3957 348.94C50.4757 348.94 50.6197 348.94 50.8277 348.94C51.0437 348.94 51.2797 348.94 51.5357 348.94C51.7997 348.94 52.0437 348.94 52.2677 348.94C52.4917 348.94 52.6517 348.94 52.7477 348.94C52.9717 348.94 53.1357 348.88 53.2397 348.76C53.3517 348.632 53.4317 348.408 53.4797 348.088C53.5357 347.768 53.5757 347.32 53.5997 346.744C53.7117 346.824 53.8477 346.904 54.0077 346.984C54.1757 347.056 54.3237 347.104 54.4517 347.128C54.4117 347.784 54.3397 348.308 54.2357 348.7C54.1397 349.084 53.9797 349.36 53.7557 349.528C53.5397 349.696 53.2197 349.78 52.7957 349.78C52.7317 349.78 52.6157 349.78 52.4477 349.78C52.2877 349.78 52.0957 349.78 51.8717 349.78C51.6557 349.78 51.4397 349.78 51.2237 349.78C51.0077 349.78 50.8157 349.78 50.6477 349.78C50.4877 349.78 50.3797 349.78 50.3237 349.78C49.9077 349.78 49.5797 349.732 49.3397 349.636C49.0997 349.54 48.9277 349.368 48.8237 349.12C48.7277 348.88 48.6797 348.54 48.6797 348.1V339.208ZM53.1917 341.2L53.8397 341.968C53.4397 342.304 52.9877 342.636 52.4837 342.964C51.9797 343.284 51.4517 343.596 50.8997 343.9C50.3557 344.204 49.8197 344.492 49.2917 344.764C49.2597 344.66 49.2037 344.544 49.1237 344.416C49.0517 344.28 48.9837 344.16 48.9197 344.056C49.4317 343.784 49.9517 343.488 50.4797 343.168C51.0077 342.848 51.5077 342.52 51.9797 342.184C52.4517 341.84 52.8557 341.512 53.1917 341.2ZM46.6037 339.1L47.4797 339.4C47.1757 340.096 46.8197 340.78 46.4117 341.452C46.0037 342.124 45.5637 342.756 45.0917 343.348C44.6277 343.932 44.1437 344.448 43.6397 344.896C43.6157 344.816 43.5677 344.72 43.4957 344.608C43.4317 344.496 43.3637 344.384 43.2917 344.272C43.2197 344.152 43.1557 344.056 43.0997 343.984C43.5637 343.6 44.0117 343.152 44.4437 342.64C44.8837 342.12 45.2877 341.56 45.6557 340.96C46.0237 340.352 46.3397 339.732 46.6037 339.1ZM45.2237 342.244L46.1117 341.356L46.1237 341.38V349.936H45.2237V342.244ZM63.1877 344.44C63.1877 343.656 63.2837 342.924 63.4757 342.244C63.6757 341.564 63.9557 340.932 64.3157 340.348C64.6757 339.756 65.0957 339.216 65.5757 338.728L66.2957 339.1C65.8397 339.572 65.4437 340.088 65.1077 340.648C64.7717 341.2 64.5117 341.792 64.3277 342.424C64.1517 343.048 64.0637 343.72 64.0637 344.44C64.0637 345.152 64.1517 345.824 64.3277 346.456C64.5117 347.088 64.7717 347.68 65.1077 348.232C65.4437 348.784 65.8397 349.3 66.2957 349.78L65.5757 350.152C65.0957 349.656 64.6757 349.116 64.3157 348.532C63.9557 347.948 63.6757 347.316 63.4757 346.636C63.2837 345.948 63.1877 345.216 63.1877 344.44ZM69.0197 349V340.9H67.3397V340.06H69.9797V349H69.0197ZM75.7048 349.144C75.0008 349.144 74.3808 348.952 73.8448 348.568C73.3168 348.176 72.9048 347.636 72.6088 346.948C72.3128 346.252 72.1648 345.444 72.1648 344.524C72.1648 343.604 72.3128 342.8 72.6088 342.112C72.9048 341.416 73.3168 340.876 73.8448 340.492C74.3728 340.108 74.9888 339.916 75.6928 339.916C76.3968 339.916 77.0128 340.108 77.5408 340.492C78.0688 340.876 78.4808 341.416 78.7768 342.112C79.0728 342.8 79.2208 343.604 79.2208 344.524C79.2208 345.444 79.0728 346.252 78.7768 346.948C78.4888 347.644 78.0808 348.184 77.5528 348.568C77.0248 348.952 76.4088 349.144 75.7048 349.144ZM75.7048 348.244C76.2168 348.244 76.6648 348.088 77.0488 347.776C77.4328 347.464 77.7328 347.032 77.9488 346.48C78.1648 345.92 78.2728 345.268 78.2728 344.524C78.2728 343.78 78.1648 343.132 77.9488 342.58C77.7328 342.02 77.4328 341.588 77.0488 341.284C76.6648 340.972 76.2128 340.816 75.6928 340.816C75.1808 340.816 74.7328 340.972 74.3488 341.284C73.9648 341.588 73.6648 342.02 73.4488 342.58C73.2328 343.132 73.1248 343.78 73.1248 344.524C73.1248 345.26 73.2328 345.908 73.4488 346.468C73.6648 347.028 73.9648 347.464 74.3488 347.776C74.7408 348.088 75.1928 348.244 75.7048 348.244ZM81.7458 349L89.0658 340.06H90.2298L82.9098 349H81.7458ZM83.0538 344.596C82.6218 344.596 82.2298 344.492 81.8778 344.284C81.5258 344.068 81.2418 343.784 81.0258 343.432C80.8178 343.08 80.7138 342.688 80.7138 342.256C80.7138 341.824 80.8178 341.432 81.0258 341.08C81.2418 340.72 81.5258 340.436 81.8778 340.228C82.2298 340.02 82.6218 339.916 83.0538 339.916C83.4858 339.916 83.8778 340.02 84.2298 340.228C84.5818 340.436 84.8618 340.72 85.0698 341.08C85.2778 341.432 85.3818 341.824 85.3818 342.256C85.3818 342.688 85.2778 343.08 85.0698 343.432C84.8618 343.784 84.5818 344.068 84.2298 344.284C83.8778 344.492 83.4858 344.596 83.0538 344.596ZM83.0538 343.732C83.3338 343.732 83.5778 343.664 83.7858 343.528C84.0018 343.384 84.1698 343.2 84.2898 342.976C84.4178 342.744 84.4818 342.504 84.4818 342.256C84.4818 342 84.4178 341.76 84.2898 341.536C84.1698 341.312 84.0018 341.132 83.7858 340.996C83.5778 340.852 83.3338 340.78 83.0538 340.78C82.7818 340.78 82.5338 340.852 82.3098 340.996C82.0938 341.132 81.9218 341.312 81.7938 341.536C81.6738 341.76 81.6138 342 81.6138 342.256C81.6138 342.504 81.6738 342.744 81.7938 342.976C81.9218 343.2 82.0938 343.384 82.3098 343.528C82.5338 343.664 82.7818 343.732 83.0538 343.732ZM88.8138 349.144C88.3818 349.144 87.9898 349.04 87.6378 348.832C87.2858 348.616 87.0018 348.332 86.7858 347.98C86.5778 347.628 86.4738 347.236 86.4738 346.804C86.4738 346.372 86.5778 345.98 86.7858 345.628C87.0018 345.268 87.2858 344.984 87.6378 344.776C87.9898 344.568 88.3818 344.464 88.8138 344.464C89.2458 344.464 89.6378 344.568 89.9898 344.776C90.3418 344.984 90.6218 345.268 90.8298 345.628C91.0378 345.98 91.1418 346.372 91.1418 346.804C91.1418 347.236 91.0378 347.628 90.8298 347.98C90.6218 348.332 90.3418 348.616 89.9898 348.832C89.6378 349.04 89.2458 349.144 88.8138 349.144ZM88.8138 348.28C89.0938 348.28 89.3378 348.212 89.5458 348.076C89.7618 347.932 89.9298 347.748 90.0498 347.524C90.1778 347.292 90.2418 347.052 90.2418 346.804C90.2418 346.548 90.1778 346.308 90.0498 346.084C89.9298 345.86 89.7618 345.68 89.5458 345.544C89.3378 345.4 89.0938 345.328 88.8138 345.328C88.5418 345.328 88.2938 345.4 88.0698 345.544C87.8538 345.68 87.6818 345.86 87.5538 346.084C87.4338 346.308 87.3738 346.548 87.3738 346.804C87.3738 347.052 87.4338 347.292 87.5538 347.524C87.6818 347.748 87.8538 347.932 88.0698 348.076C88.2938 348.212 88.5418 348.28 88.8138 348.28ZM95.4334 344.44C95.4334 345.216 95.3334 345.948 95.1334 346.636C94.9414 347.316 94.6654 347.948 94.3054 348.532C93.9454 349.116 93.5254 349.656 93.0454 350.152L92.3254 349.78C92.7814 349.3 93.1774 348.784 93.5134 348.232C93.8494 347.68 94.1054 347.088 94.2814 346.456C94.4654 345.824 94.5574 345.152 94.5574 344.44C94.5574 343.72 94.4654 343.048 94.2814 342.424C94.1054 341.792 93.8494 341.2 93.5134 340.648C93.1774 340.088 92.7814 339.572 92.3254 339.1L93.0454 338.728C93.5254 339.216 93.9454 339.756 94.3054 340.348C94.6654 340.932 94.9414 341.564 95.1334 342.244C95.3334 342.924 95.4334 343.656 95.4334 344.44Z" fill="#667085"/>
<circle cx="4" cy="364" r="4" fill="#FEDCC3"/>
<path d="M17.116 368V359.6H19.672C20.464 359.6 21.16 359.78 21.76 360.14C22.368 360.492 22.844 360.984 23.188 361.616C23.532 362.248 23.704 362.976 23.704 363.8C23.704 364.616 23.532 365.34 23.188 365.972C22.844 366.604 22.368 367.1 21.76 367.46C21.16 367.82 20.464 368 19.672 368H17.116ZM18.136 367.064H19.672C20.096 367.064 20.488 366.984 20.848 366.824C21.208 366.656 21.524 366.42 21.796 366.116C22.076 365.812 22.292 365.464 22.444 365.072C22.604 364.672 22.684 364.248 22.684 363.8C22.684 363.352 22.604 362.932 22.444 362.54C22.292 362.14 22.076 361.788 21.796 361.484C21.524 361.18 21.208 360.948 20.848 360.788C20.488 360.62 20.096 360.536 19.672 360.536H18.136V367.064ZM25.5097 368.168C25.3257 368.168 25.1657 368.104 25.0297 367.976C24.9017 367.84 24.8377 367.684 24.8377 367.508C24.8377 367.324 24.9017 367.168 25.0297 367.04C25.1657 366.904 25.3257 366.836 25.5097 366.836C25.6937 366.836 25.8497 366.904 25.9777 367.04C26.1057 367.168 26.1697 367.324 26.1697 367.508C26.1697 367.684 26.1057 367.84 25.9777 367.976C25.8497 368.104 25.6937 368.168 25.5097 368.168ZM33.5755 359.276H38.3995V360.08H33.5755V359.276ZM39.6235 361.808H43.1395V362.612H39.6235V361.808ZM33.2635 361.592H38.6995V362.408H33.2635V361.592ZM36.2035 364.196H38.5795V364.988H36.2035V364.196ZM35.5795 357.932H36.4315V362.024H35.5795V357.932ZM35.7955 362.156H36.6235V367.652H35.7955V362.156ZM39.1435 358.496H43.5475V362.912H42.6835V359.3H39.1435V358.496ZM39.2635 361.808H40.1275V365.732C40.1275 365.932 40.1675 366.06 40.2475 366.116C40.3355 366.172 40.5235 366.2 40.8115 366.2C40.8755 366.2 40.9955 366.2 41.1715 366.2C41.3475 366.2 41.5395 366.2 41.7475 366.2C41.9635 366.2 42.1635 366.2 42.3475 366.2C42.5395 366.2 42.6835 366.2 42.7795 366.2C42.9475 366.2 43.0755 366.16 43.1635 366.08C43.2515 366 43.3115 365.84 43.3435 365.6C43.3835 365.352 43.4115 364.988 43.4275 364.508C43.4915 364.556 43.5715 364.604 43.6675 364.652C43.7635 364.7 43.8595 364.744 43.9555 364.784C44.0595 364.816 44.1515 364.844 44.2315 364.868C44.1995 365.436 44.1395 365.876 44.0515 366.188C43.9635 366.5 43.8235 366.716 43.6315 366.836C43.4395 366.956 43.1755 367.016 42.8395 367.016C42.7835 367.016 42.6835 367.016 42.5395 367.016C42.3955 367.016 42.2315 367.016 42.0475 367.016C41.8635 367.016 41.6795 367.016 41.4955 367.016C41.3115 367.016 41.1475 367.016 41.0035 367.016C40.8675 367.016 40.7755 367.016 40.7275 367.016C40.3515 367.016 40.0555 366.98 39.8395 366.908C39.6315 366.836 39.4835 366.708 39.3955 366.524C39.3075 366.332 39.2635 366.068 39.2635 365.732V361.808ZM34.5595 364.76C34.7195 365.392 34.9275 365.908 35.1835 366.308C35.4395 366.7 35.7555 367.004 36.1315 367.22C36.5155 367.436 36.9715 367.584 37.4995 367.664C38.0275 367.744 38.6395 367.784 39.3355 367.784C39.4315 367.784 39.6035 367.788 39.8515 367.796C40.0995 367.796 40.3875 367.796 40.7155 367.796C41.0515 367.788 41.4035 367.784 41.7715 367.784C42.1395 367.784 42.4955 367.784 42.8395 367.784C43.1835 367.784 43.4875 367.784 43.7515 367.784C44.0155 367.776 44.2115 367.768 44.3395 367.76C44.2835 367.824 44.2315 367.908 44.1835 368.012C44.1355 368.124 44.0915 368.236 44.0515 368.348C44.0115 368.46 43.9835 368.56 43.9675 368.648H43.0675H39.3475C38.5395 368.648 37.8355 368.596 37.2355 368.492C36.6355 368.396 36.1195 368.216 35.6875 367.952C35.2635 367.688 34.9075 367.316 34.6195 366.836C34.3315 366.356 34.0875 365.74 33.8875 364.988L34.5595 364.76ZM33.8755 363.356L34.7275 363.416C34.7035 364.184 34.6595 364.912 34.5955 365.6C34.5395 366.288 34.4435 366.924 34.3075 367.508C34.1795 368.092 33.9995 368.608 33.7675 369.056C33.7115 369.016 33.6355 368.968 33.5395 368.912C33.4515 368.864 33.3555 368.812 33.2515 368.756C33.1555 368.7 33.0715 368.66 32.9995 368.636C33.2395 368.228 33.4195 367.752 33.5395 367.208C33.6595 366.656 33.7435 366.056 33.7915 365.408C33.8395 364.752 33.8675 364.068 33.8755 363.356ZM45.4555 365.324H55.9675V366.092H45.4555V365.324ZM45.4915 360.056H55.9195V360.824H45.4915V360.056ZM45.9835 362.12H55.4875V362.864H45.9835V362.12ZM46.5835 363.74H54.8995V364.436H46.5835V363.74ZM50.2195 362.468H51.1195V368.96H50.2195V362.468ZM49.1155 357.908H49.9675V360.428H49.1155V357.908ZM51.3955 357.908H52.2595V360.38H51.3955V357.908ZM49.9315 365.636L50.6515 365.972C50.2835 366.38 49.8275 366.768 49.2835 367.136C48.7395 367.496 48.1595 367.812 47.5435 368.084C46.9275 368.364 46.3195 368.588 45.7195 368.756C45.6795 368.676 45.6235 368.588 45.5515 368.492C45.4875 368.404 45.4195 368.312 45.3475 368.216C45.2755 368.128 45.2035 368.056 45.1315 368C45.7235 367.864 46.3235 367.676 46.9315 367.436C47.5395 367.196 48.1075 366.92 48.6355 366.608C49.1635 366.296 49.5955 365.972 49.9315 365.636ZM51.3955 365.612C51.6515 365.876 51.9595 366.132 52.3195 366.38C52.6875 366.628 53.0875 366.856 53.5195 367.064C53.9595 367.272 54.4115 367.456 54.8755 367.616C55.3395 367.768 55.7995 367.896 56.2555 368C56.1915 368.064 56.1195 368.14 56.0395 368.228C55.9675 368.324 55.8955 368.42 55.8235 368.516C55.7515 368.62 55.6955 368.712 55.6555 368.792C55.1995 368.664 54.7355 368.504 54.2635 368.312C53.7995 368.12 53.3475 367.9 52.9075 367.652C52.4755 367.404 52.0675 367.132 51.6835 366.836C51.3075 366.54 50.9795 366.232 50.6995 365.912L51.3955 365.612ZM54.1795 358.064L55.1035 358.316C54.9275 358.636 54.7395 358.964 54.5395 359.3C54.3395 359.628 54.1555 359.912 53.9875 360.152L53.2555 359.9C53.3675 359.732 53.4795 359.54 53.5915 359.324C53.7115 359.108 53.8235 358.888 53.9275 358.664C54.0315 358.44 54.1155 358.24 54.1795 358.064ZM52.5715 360.596L53.4955 360.836C53.3515 361.1 53.2035 361.364 53.0515 361.628C52.8995 361.884 52.7555 362.112 52.6195 362.312L51.8755 362.084C51.9955 361.868 52.1195 361.62 52.2475 361.34C52.3835 361.06 52.4915 360.812 52.5715 360.596ZM46.4635 358.304L47.2315 358.04C47.4395 358.304 47.6395 358.604 47.8315 358.94C48.0315 359.276 48.1755 359.568 48.2635 359.816L47.4475 360.128C47.3675 359.88 47.2315 359.584 47.0395 359.24C46.8555 358.896 46.6635 358.584 46.4635 358.304ZM48.0355 360.908L48.8875 360.752C49.0235 360.944 49.1515 361.164 49.2715 361.412C49.3995 361.652 49.4875 361.864 49.5355 362.048L48.6475 362.228C48.5995 362.052 48.5155 361.84 48.3955 361.592C48.2835 361.336 48.1635 361.108 48.0355 360.908ZM62.2195 357.92H63.1315V359.516H62.2195V357.92ZM57.7315 358.988H67.7155V361.376H66.8035V359.816H58.6195V361.376H57.7315V358.988ZM59.2675 361.028H66.0355V361.82H59.2675V361.028ZM60.8515 362.816L61.5235 362.396C62.0515 362.788 62.4795 363.228 62.8075 363.716C63.1435 364.196 63.3875 364.684 63.5395 365.18C63.6995 365.676 63.7795 366.152 63.7795 366.608C63.7795 367.056 63.7115 367.456 63.5755 367.808C63.4395 368.152 63.2515 368.412 63.0115 368.588C62.8115 368.74 62.6155 368.844 62.4235 368.9C62.2315 368.956 61.9955 368.984 61.7155 368.984C61.5715 368.992 61.4075 368.992 61.2235 368.984C61.0475 368.976 60.8635 368.968 60.6715 368.96C60.6635 368.832 60.6395 368.688 60.5995 368.528C60.5595 368.368 60.4995 368.224 60.4195 368.096C60.6435 368.112 60.8515 368.124 61.0435 368.132C61.2435 368.148 61.4115 368.156 61.5475 368.156C61.7075 368.156 61.8515 368.14 61.9795 368.108C62.1155 368.084 62.2435 368.02 62.3635 367.916C62.5395 367.796 62.6715 367.6 62.7595 367.328C62.8475 367.056 62.8835 366.74 62.8675 366.38C62.8595 366.012 62.7835 365.62 62.6395 365.204C62.4955 364.788 62.2755 364.376 61.9795 363.968C61.6915 363.56 61.3155 363.176 60.8515 362.816ZM62.6395 361.208L63.3955 361.52C62.9795 361.92 62.4795 362.288 61.8955 362.624C61.3195 362.96 60.7035 363.26 60.0475 363.524C59.3995 363.788 58.7635 364.012 58.1395 364.196C58.1075 364.14 58.0635 364.068 58.0075 363.98C57.9515 363.884 57.8915 363.792 57.8275 363.704C57.7635 363.608 57.7075 363.532 57.6595 363.476C58.2755 363.324 58.8955 363.14 59.5195 362.924C60.1515 362.7 60.7395 362.444 61.2835 362.156C61.8275 361.86 62.2795 361.544 62.6395 361.208ZM61.7995 363.488L62.3995 363.908C62.0715 364.18 61.6675 364.46 61.1875 364.748C60.7075 365.028 60.2075 365.292 59.6875 365.54C59.1675 365.78 58.6755 365.984 58.2115 366.152C58.1635 366.048 58.0955 365.928 58.0075 365.792C57.9195 365.656 57.8315 365.54 57.7435 365.444C58.0795 365.348 58.4355 365.232 58.8115 365.096C59.1955 364.952 59.5715 364.792 59.9395 364.616C60.3075 364.432 60.6515 364.244 60.9715 364.052C61.2995 363.86 61.5755 363.672 61.7995 363.488ZM62.6875 364.724L63.3115 365.192C62.9995 365.504 62.6275 365.816 62.1955 366.128C61.7635 366.44 61.2995 366.74 60.8035 367.028C60.3075 367.316 59.7995 367.576 59.2795 367.808C58.7675 368.04 58.2715 368.236 57.7915 368.396C57.7355 368.292 57.6635 368.164 57.5755 368.012C57.4955 367.868 57.4075 367.748 57.3115 367.652C57.7915 367.524 58.2835 367.356 58.7875 367.148C59.2995 366.932 59.7995 366.696 60.2875 366.44C60.7755 366.176 61.2235 365.9 61.6315 365.612C62.0475 365.316 62.3995 365.02 62.6875 364.724ZM63.7915 361.328C64.0075 362.224 64.3115 363.064 64.7035 363.848C65.1035 364.632 65.5915 365.316 66.1675 365.9C66.7435 366.484 67.4115 366.932 68.1715 367.244C68.1075 367.3 68.0355 367.376 67.9555 367.472C67.8755 367.56 67.7995 367.652 67.7275 367.748C67.6555 367.844 67.5955 367.932 67.5475 368.012C66.7635 367.652 66.0755 367.152 65.4835 366.512C64.8995 365.872 64.4075 365.128 64.0075 364.28C63.6075 363.424 63.2835 362.496 63.0355 361.496L63.7915 361.328ZM66.8635 362.216L67.5595 362.816C67.2875 363.032 66.9875 363.256 66.6595 363.488C66.3395 363.72 66.0155 363.94 65.6875 364.148C65.3595 364.348 65.0555 364.524 64.7755 364.676L64.1995 364.124C64.4795 363.964 64.7795 363.776 65.0995 363.56C65.4275 363.344 65.7475 363.116 66.0595 362.876C66.3715 362.636 66.6395 362.416 66.8635 362.216ZM70.8715 357.956H71.6995V368.936H70.8715V357.956ZM69.1795 361.952H73.0435V362.792H69.1795V361.952ZM70.8235 362.396L71.3995 362.636C71.3035 363.044 71.1875 363.472 71.0515 363.92C70.9155 364.36 70.7635 364.8 70.5955 365.24C70.4355 365.68 70.2635 366.092 70.0795 366.476C69.8955 366.86 69.7075 367.188 69.5155 367.46C69.4915 367.364 69.4515 367.264 69.3955 367.16C69.3395 367.048 69.2795 366.94 69.2155 366.836C69.1515 366.724 69.0955 366.628 69.0475 366.548C69.2795 366.236 69.5115 365.844 69.7435 365.372C69.9755 364.892 70.1875 364.392 70.3795 363.872C70.5715 363.344 70.7195 362.852 70.8235 362.396ZM71.6755 363.02C71.7475 363.116 71.8555 363.268 71.9995 363.476C72.1515 363.684 72.3115 363.912 72.4795 364.16C72.6555 364.4 72.8155 364.628 72.9595 364.844C73.1035 365.052 73.2035 365.208 73.2595 365.312L72.6475 365.996C72.5915 365.836 72.4995 365.64 72.3715 365.408C72.2515 365.168 72.1155 364.916 71.9635 364.652C71.8195 364.388 71.6795 364.144 71.5435 363.92C71.4155 363.688 71.3115 363.508 71.2315 363.38L71.6755 363.02ZM69.2995 358.856L69.9235 358.7C70.0355 358.972 70.1395 359.268 70.2355 359.588C70.3315 359.908 70.4115 360.22 70.4755 360.524C70.5475 360.82 70.5955 361.088 70.6195 361.328L69.9595 361.484C69.9435 361.252 69.8995 360.984 69.8275 360.68C69.7635 360.376 69.6835 360.064 69.5875 359.744C69.4995 359.424 69.4035 359.128 69.2995 358.856ZM72.6235 358.652L73.3795 358.844C73.2835 359.14 73.1795 359.452 73.0675 359.78C72.9555 360.108 72.8435 360.424 72.7315 360.728C72.6275 361.032 72.5235 361.296 72.4195 361.52L71.8555 361.34C71.9515 361.108 72.0475 360.832 72.1435 360.512C72.2395 360.192 72.3315 359.868 72.4195 359.54C72.5075 359.212 72.5755 358.916 72.6235 358.652ZM73.7995 358.892H79.8955V359.588H73.7995V358.892ZM74.0995 360.332H79.6315V360.992H74.0995V360.332ZM73.4635 361.796H80.2075V362.504H73.4635V361.796ZM76.3195 357.92H77.1715V362.18H76.3195V357.92ZM74.2075 363.224H78.8275V363.908H75.0715V368.948H74.2075V363.224ZM78.5635 363.224H79.4035V368.024C79.4035 368.24 79.3755 368.408 79.3195 368.528C79.2715 368.656 79.1675 368.752 79.0075 368.816C78.8475 368.88 78.6395 368.916 78.3835 368.924C78.1275 368.94 77.8115 368.948 77.4355 368.948C77.4195 368.836 77.3835 368.708 77.3275 368.564C77.2795 368.428 77.2275 368.304 77.1715 368.192C77.4435 368.2 77.6915 368.204 77.9155 368.204C78.1395 368.212 78.2875 368.212 78.3595 368.204C78.4395 368.204 78.4915 368.188 78.5155 368.156C78.5475 368.132 78.5635 368.088 78.5635 368.024V363.224ZM74.6635 364.808H78.8995V365.456H74.6635V364.808ZM74.6635 366.356H78.8995V366.992H74.6635V366.356ZM86.2795 362.372H91.5475V363.152H86.2795V362.372ZM86.2675 364.748H91.6795V365.564H86.2675V364.748ZM88.4155 357.92H89.2795V368.96H88.4155V357.92ZM85.8355 359.996H91.9675V366.02H91.1035V360.824H86.6635V366.08H85.8355V359.996ZM81.3475 360.176H84.9715V360.992H81.3475V360.176ZM82.9915 357.92H83.8675V360.584H82.9915V357.92ZM83.9635 362.9C84.0515 362.956 84.1715 363.056 84.3235 363.2C84.4835 363.336 84.6555 363.488 84.8395 363.656C85.0235 363.816 85.1915 363.968 85.3435 364.112C85.4955 364.248 85.6035 364.348 85.6675 364.412L85.1395 365.144C85.0515 365.032 84.9315 364.896 84.7795 364.736C84.6355 364.576 84.4795 364.404 84.3115 364.22C84.1435 364.036 83.9835 363.868 83.8315 363.716C83.6795 363.564 83.5555 363.44 83.4595 363.344L83.9635 362.9ZM84.6595 360.176H84.8395L85.0075 360.14L85.4995 360.464C85.2275 361.192 84.8675 361.892 84.4195 362.564C83.9795 363.228 83.4955 363.836 82.9675 364.388C82.4395 364.94 81.9115 365.404 81.3835 365.78C81.3515 365.692 81.3075 365.596 81.2515 365.492C81.1955 365.388 81.1395 365.288 81.0835 365.192C81.0275 365.088 80.9715 365.012 80.9155 364.964C81.4195 364.636 81.9115 364.228 82.3915 363.74C82.8795 363.252 83.3235 362.716 83.7235 362.132C84.1235 361.548 84.4355 360.956 84.6595 360.356V360.176ZM82.9915 363.776L83.8675 362.708V368.936H82.9915V363.776ZM101.028 363.44C101.028 362.656 101.124 361.924 101.316 361.244C101.516 360.564 101.796 359.932 102.156 359.348C102.516 358.756 102.936 358.216 103.416 357.728L104.136 358.1C103.68 358.572 103.284 359.088 102.948 359.648C102.612 360.2 102.352 360.792 102.168 361.424C101.992 362.048 101.904 362.72 101.904 363.44C101.904 364.152 101.992 364.824 102.168 365.456C102.352 366.088 102.612 366.68 102.948 367.232C103.284 367.784 103.68 368.3 104.136 368.78L103.416 369.152C102.936 368.656 102.516 368.116 102.156 367.532C101.796 366.948 101.516 366.316 101.316 365.636C101.124 364.948 101.028 364.216 101.028 363.44ZM107.292 368V360.14L107.376 359.6H108.288V368H107.292ZM105.408 361.76V360.836C105.576 360.844 105.776 360.788 106.008 360.668C106.24 360.548 106.48 360.392 106.728 360.2C106.976 360.008 107.192 359.808 107.376 359.6L108 360.284C107.736 360.564 107.46 360.816 107.172 361.04C106.884 361.264 106.592 361.444 106.296 361.58C106 361.708 105.704 361.768 105.408 361.76ZM113.485 368.144C112.845 368.144 112.277 367.96 111.781 367.592C111.285 367.216 110.897 366.704 110.617 366.056C110.337 365.4 110.197 364.648 110.197 363.8C110.197 362.952 110.337 362.204 110.617 361.556C110.897 360.9 111.281 360.388 111.769 360.02C112.265 359.644 112.837 359.456 113.485 359.456C114.133 359.456 114.701 359.644 115.189 360.02C115.685 360.388 116.073 360.9 116.353 361.556C116.641 362.204 116.785 362.952 116.785 363.8C116.785 364.648 116.645 365.4 116.365 366.056C116.085 366.704 115.697 367.216 115.201 367.592C114.705 367.96 114.133 368.144 113.485 368.144ZM113.485 367.232C113.933 367.232 114.329 367.084 114.673 366.788C115.025 366.492 115.297 366.088 115.489 365.576C115.689 365.064 115.789 364.472 115.789 363.8C115.789 363.128 115.689 362.536 115.489 362.024C115.297 361.504 115.025 361.1 114.673 360.812C114.329 360.516 113.933 360.368 113.485 360.368C113.037 360.368 112.641 360.516 112.297 360.812C111.953 361.1 111.681 361.504 111.481 362.024C111.289 362.536 111.193 363.128 111.193 363.8C111.193 364.472 111.289 365.064 111.481 365.576C111.681 366.088 111.953 366.492 112.297 366.788C112.649 367.084 113.045 367.232 113.485 367.232ZM118.496 368L124.46 359.6H125.576L119.576 368H118.496ZM124.316 368.192C123.956 368.192 123.632 368.108 123.344 367.94C123.064 367.764 122.844 367.528 122.684 367.232C122.532 366.928 122.456 366.584 122.456 366.2C122.456 365.808 122.532 365.464 122.684 365.168C122.844 364.872 123.064 364.64 123.344 364.472C123.632 364.296 123.956 364.208 124.316 364.208C124.684 364.208 125.008 364.296 125.288 364.472C125.568 364.64 125.788 364.872 125.948 365.168C126.108 365.464 126.188 365.808 126.188 366.2C126.188 366.584 126.108 366.928 125.948 367.232C125.788 367.528 125.568 367.764 125.288 367.94C125.008 368.108 124.684 368.192 124.316 368.192ZM124.316 367.424C124.628 367.424 124.88 367.308 125.072 367.076C125.264 366.844 125.36 366.552 125.36 366.2C125.36 365.848 125.264 365.556 125.072 365.324C124.88 365.092 124.628 364.976 124.316 364.976C124.02 364.976 123.772 365.092 123.572 365.324C123.38 365.556 123.284 365.848 123.284 366.2C123.284 366.552 123.38 366.844 123.572 367.076C123.772 367.308 124.02 367.424 124.316 367.424ZM119.768 363.392C119.4 363.392 119.076 363.308 118.796 363.14C118.516 362.964 118.296 362.728 118.136 362.432C117.976 362.128 117.896 361.784 117.896 361.4C117.896 361.008 117.976 360.664 118.136 360.368C118.296 360.072 118.516 359.84 118.796 359.672C119.076 359.496 119.4 359.408 119.768 359.408C120.136 359.408 120.46 359.496 120.74 359.672C121.02 359.84 121.24 360.072 121.4 360.368C121.56 360.664 121.64 361.008 121.64 361.4C121.64 361.784 121.56 362.128 121.4 362.432C121.24 362.728 121.02 362.964 120.74 363.14C120.46 363.308 120.136 363.392 119.768 363.392ZM119.768 362.624C120.072 362.624 120.32 362.508 120.512 362.276C120.704 362.044 120.8 361.752 120.8 361.4C120.8 361.048 120.704 360.756 120.512 360.524C120.32 360.292 120.072 360.176 119.768 360.176C119.472 360.176 119.224 360.292 119.024 360.524C118.832 360.756 118.736 361.048 118.736 361.4C118.736 361.752 118.832 362.044 119.024 362.276C119.224 362.508 119.472 362.624 119.768 362.624ZM130.426 363.44C130.426 364.216 130.326 364.948 130.126 365.636C129.934 366.316 129.658 366.948 129.298 367.532C128.938 368.116 128.518 368.656 128.038 369.152L127.318 368.78C127.774 368.3 128.17 367.784 128.506 367.232C128.842 366.68 129.098 366.088 129.274 365.456C129.458 364.824 129.55 364.152 129.55 363.44C129.55 362.72 129.458 362.048 129.274 361.424C129.098 360.792 128.842 360.2 128.506 359.648C128.17 359.088 127.774 358.572 127.318 358.1L128.038 357.728C128.518 358.216 128.938 358.756 129.298 359.348C129.658 359.932 129.934 360.564 130.126 361.244C130.326 361.924 130.426 362.656 130.426 363.44Z" fill="#667085"/>
</svg>
