<svg width="280" height="372" viewBox="0 0 280 372" fill="none" xmlns="http://www.w3.org/2000/svg">
<path d="M280 140C280 217.32 217.32 280 140 280C62.6801 280 0 217.32 0 140C0 62.6801 62.6801 0 140 0C217.32 0 280 62.6801 280 140ZM70 140C70 178.66 101.34 210 140 210C178.66 210 210 178.66 210 140C210 101.34 178.66 70 140 70C101.34 70 70 101.34 70 140Z" fill="#F39240"/>
<path d="M140 0C169.565 3.5256e-07 198.371 9.3597 222.29 26.7376L181.145 83.3688C169.186 74.6799 154.783 70 140 70L140 0Z" fill="#FEDCC3"/>
<path d="M222.29 26.7376C246.209 44.1156 264.012 68.6196 273.148 96.7377L206.574 118.369C202.006 104.31 193.104 92.0578 181.145 83.3688L222.29 26.7376Z" fill="#FCC49B"/>
<path d="M273.148 96.7376C282.284 124.856 282.284 155.144 273.148 183.262C264.012 211.38 246.209 235.884 222.29 253.262L181.145 196.631C193.104 187.942 202.006 175.69 206.574 161.631C211.142 147.572 211.142 132.428 206.574 118.369L273.148 96.7376Z" fill="#FAB887"/>
<path d="M43.0335 164.253L38.2095 151.653H40.6755L45.6435 164.253H43.0335ZM33.0795 164.253L38.0475 151.653H40.5135L35.6895 164.253H33.0795ZM35.4195 161.481V159.303H43.3215V161.481H35.4195Z" fill="#784007"/>
<path d="M231.606 176.252V163.652H235.872C236.736 163.652 237.492 163.784 238.14 164.048C238.788 164.312 239.292 164.714 239.652 165.254C240.012 165.782 240.192 166.442 240.192 167.234C240.192 167.726 240.066 168.182 239.814 168.602C239.574 169.01 239.232 169.364 238.788 169.664C239.376 169.964 239.826 170.366 240.138 170.87C240.462 171.362 240.624 171.956 240.624 172.652C240.624 173.42 240.45 174.074 240.102 174.614C239.754 175.154 239.268 175.562 238.644 175.838C238.02 176.114 237.288 176.252 236.448 176.252H231.606ZM234.018 174.074H236.214C236.802 174.074 237.264 173.93 237.6 173.642C237.936 173.342 238.104 172.946 238.104 172.454C238.104 171.938 237.918 171.536 237.546 171.248C237.174 170.948 236.664 170.798 236.016 170.798H234.018V174.074ZM234.018 168.782H235.926C236.466 168.782 236.892 168.644 237.204 168.368C237.516 168.092 237.672 167.702 237.672 167.198C237.672 166.694 237.498 166.304 237.15 166.028C236.802 165.752 236.328 165.614 235.728 165.614H234.018V168.782Z" fill="#B26110"/>
<path d="M225.918 83.684C224.694 83.684 223.608 83.408 222.66 82.856C221.712 82.292 220.968 81.524 220.428 80.552C219.888 79.568 219.618 78.44 219.618 77.168C219.618 75.896 219.888 74.774 220.428 73.802C220.968 72.818 221.706 72.05 222.642 71.498C223.59 70.934 224.676 70.652 225.9 70.652C226.764 70.652 227.568 70.808 228.312 71.12C229.056 71.42 229.704 71.846 230.256 72.398C230.82 72.938 231.252 73.562 231.552 74.27L229.266 75.116C229.062 74.672 228.792 74.288 228.456 73.964C228.12 73.628 227.736 73.37 227.304 73.19C226.872 72.998 226.404 72.902 225.9 72.902C225.168 72.902 224.514 73.088 223.938 73.46C223.374 73.82 222.93 74.318 222.606 74.954C222.294 75.59 222.138 76.328 222.138 77.168C222.138 78.008 222.3 78.752 222.624 79.4C222.948 80.036 223.398 80.54 223.974 80.912C224.55 81.272 225.21 81.452 225.954 81.452C226.47 81.452 226.938 81.356 227.358 81.164C227.79 80.96 228.168 80.684 228.492 80.336C228.828 79.988 229.098 79.586 229.302 79.13L231.588 79.958C231.288 80.69 230.856 81.338 230.292 81.902C229.74 82.466 229.092 82.904 228.348 83.216C227.604 83.528 226.794 83.684 225.918 83.684Z" fill="#B26110"/>
<path d="M168.233 47.2834V34.6834H172.265C173.549 34.6834 174.683 34.9534 175.667 35.4934C176.663 36.0334 177.437 36.7774 177.989 37.7254C178.553 38.6614 178.835 39.7474 178.835 40.9834C178.835 42.2074 178.553 43.2934 177.989 44.2414C177.437 45.1894 176.663 45.9334 175.667 46.4734C174.683 47.0134 173.549 47.2834 172.265 47.2834H168.233ZM170.699 44.9794H172.265C172.841 44.9794 173.375 44.8774 173.867 44.6734C174.359 44.4694 174.785 44.1874 175.145 43.8274C175.517 43.4674 175.805 43.0474 176.009 42.5674C176.213 42.0754 176.315 41.5474 176.315 40.9834C176.315 40.4194 176.213 39.8974 176.009 39.4174C175.805 38.9254 175.517 38.4994 175.145 38.1394C174.785 37.7794 174.359 37.4974 173.867 37.2934C173.375 37.0894 172.841 36.9874 172.265 36.9874H170.699V44.9794Z" fill="#B26110"/>
<circle cx="4" cy="304" r="4" fill="#F39240"/>
<path d="M16.132 309L19.396 300.06H20.428L23.692 309H22.684L21.916 306.816H17.92L17.14 309H16.132ZM18.232 305.916H21.58L19.768 300.78H20.056L18.232 305.916ZM25.0641 309V307.68H26.0241V309H25.0641ZM30.3568 309V300.06H34.1128C34.6168 300.06 35.0528 300.156 35.4208 300.348C35.7968 300.532 36.0848 300.792 36.2848 301.128C36.4928 301.464 36.5968 301.856 36.5968 302.304C36.5968 302.768 36.4808 303.18 36.2488 303.54C36.0248 303.892 35.7008 304.16 35.2768 304.344L35.2648 304.056C35.6168 304.184 35.9168 304.364 36.1648 304.596C36.4208 304.828 36.6168 305.1 36.7528 305.412C36.8888 305.716 36.9568 306.044 36.9568 306.396C36.9568 307.196 36.7008 307.832 36.1888 308.304C35.6848 308.768 34.9968 309 34.1248 309H30.3568ZM31.3168 308.1H34.1248C34.6928 308.1 35.1448 307.952 35.4808 307.656C35.8248 307.352 35.9968 306.936 35.9968 306.408C35.9968 305.888 35.8248 305.476 35.4808 305.172C35.1448 304.86 34.6928 304.704 34.1248 304.704H31.3168V308.1ZM31.3168 303.84H34.0408C34.5208 303.84 34.9048 303.7 35.1928 303.42C35.4888 303.14 35.6368 302.78 35.6368 302.34C35.6368 301.892 35.4888 301.552 35.1928 301.32C34.9048 301.08 34.5208 300.96 34.0408 300.96H31.3168V303.84ZM40.4051 309.144C39.9971 309.144 39.6331 309.068 39.3131 308.916C38.9931 308.756 38.7411 308.54 38.5571 308.268C38.3731 307.996 38.2811 307.684 38.2811 307.332C38.2811 306.996 38.3531 306.692 38.4971 306.42C38.6411 306.14 38.8651 305.904 39.1691 305.712C39.4731 305.52 39.8611 305.384 40.3331 305.304L42.8531 304.884V305.7L40.5491 306.084C40.0851 306.164 39.7491 306.312 39.5411 306.528C39.3411 306.744 39.2411 307 39.2411 307.296C39.2411 307.584 39.3531 307.828 39.5771 308.028C39.8091 308.228 40.1051 308.328 40.4651 308.328C40.9051 308.328 41.2891 308.236 41.6171 308.052C41.9451 307.86 42.2011 307.604 42.3851 307.284C42.5691 306.964 42.6611 306.608 42.6611 306.216V304.584C42.6611 304.2 42.5211 303.888 42.2411 303.648C41.9611 303.408 41.5971 303.288 41.1491 303.288C40.7571 303.288 40.4131 303.388 40.1171 303.588C39.8211 303.78 39.6011 304.032 39.4571 304.344L38.6411 303.9C38.7611 303.628 38.9491 303.38 39.2051 303.156C39.4691 302.932 39.7691 302.756 40.1051 302.628C40.4411 302.492 40.7891 302.424 41.1491 302.424C41.6211 302.424 42.0371 302.516 42.3971 302.7C42.7651 302.884 43.0491 303.14 43.2491 303.468C43.4571 303.788 43.5611 304.16 43.5611 304.584V309H42.6611V307.716L42.7931 307.848C42.6811 308.088 42.5051 308.308 42.2651 308.508C42.0331 308.7 41.7571 308.856 41.4371 308.976C41.1251 309.088 40.7811 309.144 40.4051 309.144ZM45.4123 309V299.916H46.3123V303.816L46.1083 303.768C46.2683 303.352 46.5283 303.024 46.8883 302.784C47.2563 302.544 47.6803 302.424 48.1603 302.424C48.6163 302.424 49.0243 302.528 49.3843 302.736C49.7523 302.944 50.0403 303.232 50.2483 303.6C50.4643 303.96 50.5723 304.368 50.5723 304.824V309H49.6723V305.172C49.6723 304.78 49.6003 304.448 49.4563 304.176C49.3123 303.904 49.1123 303.696 48.8563 303.552C48.6083 303.4 48.3243 303.324 48.0043 303.324C47.6843 303.324 47.3963 303.4 47.1403 303.552C46.8843 303.696 46.6803 303.908 46.5283 304.188C46.3843 304.46 46.3123 304.788 46.3123 305.172V309H45.4123ZM54.1512 309.144C53.7432 309.144 53.3792 309.068 53.0592 308.916C52.7392 308.756 52.4872 308.54 52.3032 308.268C52.1192 307.996 52.0272 307.684 52.0272 307.332C52.0272 306.996 52.0992 306.692 52.2432 306.42C52.3872 306.14 52.6112 305.904 52.9152 305.712C53.2192 305.52 53.6072 305.384 54.0792 305.304L56.5992 304.884V305.7L54.2952 306.084C53.8312 306.164 53.4952 306.312 53.2872 306.528C53.0872 306.744 52.9872 307 52.9872 307.296C52.9872 307.584 53.0992 307.828 53.3232 308.028C53.5552 308.228 53.8512 308.328 54.2112 308.328C54.6512 308.328 55.0352 308.236 55.3632 308.052C55.6912 307.86 55.9472 307.604 56.1312 307.284C56.3152 306.964 56.4072 306.608 56.4072 306.216V304.584C56.4072 304.2 56.2672 303.888 55.9872 303.648C55.7072 303.408 55.3432 303.288 54.8952 303.288C54.5032 303.288 54.1592 303.388 53.8632 303.588C53.5672 303.78 53.3472 304.032 53.2032 304.344L52.3872 303.9C52.5072 303.628 52.6952 303.38 52.9512 303.156C53.2152 302.932 53.5152 302.756 53.8512 302.628C54.1872 302.492 54.5352 302.424 54.8952 302.424C55.3672 302.424 55.7832 302.516 56.1432 302.7C56.5112 302.884 56.7952 303.14 56.9952 303.468C57.2032 303.788 57.3072 304.16 57.3072 304.584V309H56.4072V307.716L56.5392 307.848C56.4272 308.088 56.2512 308.308 56.0112 308.508C55.7792 308.7 55.5032 308.856 55.1832 308.976C54.8712 309.088 54.5272 309.144 54.1512 309.144ZM61.3904 309.144C60.7744 309.144 60.2344 308.988 59.7704 308.676C59.3064 308.364 58.9704 307.94 58.7624 307.404L59.5184 307.044C59.7024 307.436 59.9584 307.748 60.2864 307.98C60.6224 308.212 60.9904 308.328 61.3904 308.328C61.7744 308.328 62.0984 308.236 62.3624 308.052C62.6264 307.86 62.7584 307.612 62.7584 307.308C62.7584 307.084 62.6944 306.908 62.5664 306.78C62.4384 306.644 62.2904 306.54 62.1224 306.468C61.9544 306.396 61.8064 306.344 61.6784 306.312L60.7544 306.048C60.1624 305.88 59.7344 305.644 59.4704 305.34C59.2064 305.036 59.0744 304.684 59.0744 304.284C59.0744 303.908 59.1704 303.58 59.3624 303.3C59.5544 303.02 59.8144 302.804 60.1424 302.652C60.4704 302.5 60.8344 302.424 61.2344 302.424C61.7784 302.424 62.2704 302.568 62.7104 302.856C63.1584 303.136 63.4744 303.528 63.6584 304.032L62.8904 304.392C62.7304 304.032 62.4984 303.752 62.1944 303.552C61.8984 303.344 61.5664 303.24 61.1984 303.24C60.8384 303.24 60.5504 303.332 60.3344 303.516C60.1184 303.7 60.0104 303.932 60.0104 304.212C60.0104 304.428 60.0664 304.6 60.1784 304.728C60.2904 304.856 60.4184 304.952 60.5624 305.016C60.7144 305.08 60.8464 305.128 60.9584 305.16L62.0264 305.472C62.5464 305.624 62.9504 305.86 63.2384 306.18C63.5344 306.5 63.6824 306.876 63.6824 307.308C63.6824 307.66 63.5824 307.976 63.3824 308.256C63.1904 308.536 62.9224 308.756 62.5784 308.916C62.2344 309.068 61.8384 309.144 61.3904 309.144ZM67.1238 309.144C66.7158 309.144 66.3518 309.068 66.0318 308.916C65.7118 308.756 65.4598 308.54 65.2758 308.268C65.0918 307.996 64.9998 307.684 64.9998 307.332C64.9998 306.996 65.0718 306.692 65.2158 306.42C65.3598 306.14 65.5838 305.904 65.8878 305.712C66.1918 305.52 66.5798 305.384 67.0518 305.304L69.5718 304.884V305.7L67.2678 306.084C66.8038 306.164 66.4678 306.312 66.2598 306.528C66.0598 306.744 65.9598 307 65.9598 307.296C65.9598 307.584 66.0718 307.828 66.2958 308.028C66.5278 308.228 66.8238 308.328 67.1838 308.328C67.6238 308.328 68.0078 308.236 68.3358 308.052C68.6638 307.86 68.9198 307.604 69.1038 307.284C69.2878 306.964 69.3798 306.608 69.3798 306.216V304.584C69.3798 304.2 69.2398 303.888 68.9598 303.648C68.6798 303.408 68.3158 303.288 67.8678 303.288C67.4758 303.288 67.1318 303.388 66.8358 303.588C66.5398 303.78 66.3198 304.032 66.1758 304.344L65.3598 303.9C65.4798 303.628 65.6678 303.38 65.9238 303.156C66.1878 302.932 66.4878 302.756 66.8238 302.628C67.1598 302.492 67.5078 302.424 67.8678 302.424C68.3398 302.424 68.7558 302.516 69.1158 302.7C69.4838 302.884 69.7678 303.14 69.9678 303.468C70.1758 303.788 70.2798 304.16 70.2798 304.584V309H69.3798V307.716L69.5118 307.848C69.3998 308.088 69.2238 308.308 68.9838 308.508C68.7518 308.7 68.4758 308.856 68.1558 308.976C67.8438 309.088 67.4998 309.144 67.1238 309.144ZM73.9061 309V308.04H74.3861C74.8341 308.04 75.1861 307.908 75.4421 307.644C75.6981 307.372 75.8261 307.004 75.8261 306.54V300.06H76.7861V306.54C76.7861 307.044 76.6861 307.48 76.4861 307.848C76.2941 308.216 76.0181 308.5 75.6581 308.7C75.2981 308.9 74.8741 309 74.3861 309H73.9061ZM81.6918 309.144C81.0918 309.144 80.5478 309 80.0598 308.712C79.5798 308.416 79.1998 308.012 78.9198 307.5C78.6398 306.988 78.4998 306.408 78.4998 305.76C78.4998 305.112 78.6358 304.54 78.9078 304.044C79.1798 303.54 79.5478 303.144 80.0118 302.856C80.4838 302.568 81.0118 302.424 81.5958 302.424C82.0598 302.424 82.4718 302.512 82.8318 302.688C83.1998 302.856 83.5118 303.088 83.7678 303.384C84.0238 303.672 84.2198 304 84.3558 304.368C84.4918 304.728 84.5598 305.1 84.5598 305.484C84.5598 305.564 84.5558 305.656 84.5478 305.76C84.5398 305.856 84.5278 305.956 84.5118 306.06H79.0758V305.22H83.9958L83.5638 305.58C83.6358 305.14 83.5838 304.748 83.4078 304.404C83.2398 304.052 82.9958 303.776 82.6758 303.576C82.3558 303.368 81.9958 303.264 81.5958 303.264C81.1958 303.264 80.8238 303.368 80.4798 303.576C80.1438 303.784 79.8798 304.076 79.6878 304.452C79.4958 304.82 79.4198 305.26 79.4598 305.772C79.4198 306.284 79.4998 306.732 79.6998 307.116C79.9078 307.492 80.1878 307.784 80.5398 307.992C80.8998 308.2 81.2838 308.304 81.6918 308.304C82.1638 308.304 82.5598 308.192 82.8798 307.968C83.1998 307.744 83.4598 307.464 83.6598 307.128L84.4278 307.536C84.2998 307.824 84.1038 308.092 83.8398 308.34C83.5758 308.58 83.2598 308.776 82.8918 308.928C82.5318 309.072 82.1318 309.144 81.6918 309.144ZM86.1467 311.4V302.568H87.0467V304.008L86.9027 303.756C87.1587 303.348 87.4987 303.024 87.9227 302.784C88.3547 302.544 88.8467 302.424 89.3987 302.424C90.0067 302.424 90.5467 302.572 91.0187 302.868C91.4987 303.156 91.8747 303.552 92.1467 304.056C92.4267 304.56 92.5667 305.136 92.5667 305.784C92.5667 306.424 92.4267 307 92.1467 307.512C91.8747 308.016 91.4987 308.416 91.0187 308.712C90.5467 309 90.0067 309.144 89.3987 309.144C88.8467 309.144 88.3467 309.02 87.8987 308.772C87.4587 308.516 87.1267 308.156 86.9027 307.692L87.0467 307.56V311.4H86.1467ZM89.3507 308.244C89.7827 308.244 90.1667 308.136 90.5027 307.92C90.8467 307.704 91.1147 307.412 91.3067 307.044C91.5067 306.668 91.6067 306.248 91.6067 305.784C91.6067 305.312 91.5067 304.892 91.3067 304.524C91.1147 304.156 90.8467 303.864 90.5027 303.648C90.1667 303.432 89.7827 303.324 89.3507 303.324C88.9187 303.324 88.5267 303.432 88.1747 303.648C87.8307 303.864 87.5547 304.16 87.3467 304.536C87.1467 304.904 87.0467 305.32 87.0467 305.784C87.0467 306.248 87.1467 306.668 87.3467 307.044C87.5547 307.412 87.8307 307.704 88.1747 307.92C88.5267 308.136 88.9187 308.244 89.3507 308.244ZM96.0106 309.144C95.6026 309.144 95.2386 309.068 94.9186 308.916C94.5986 308.756 94.3466 308.54 94.1626 308.268C93.9786 307.996 93.8866 307.684 93.8866 307.332C93.8866 306.996 93.9586 306.692 94.1026 306.42C94.2466 306.14 94.4706 305.904 94.7746 305.712C95.0786 305.52 95.4666 305.384 95.9386 305.304L98.4586 304.884V305.7L96.1546 306.084C95.6906 306.164 95.3546 306.312 95.1466 306.528C94.9466 306.744 94.8466 307 94.8466 307.296C94.8466 307.584 94.9586 307.828 95.1826 308.028C95.4146 308.228 95.7106 308.328 96.0706 308.328C96.5106 308.328 96.8946 308.236 97.2226 308.052C97.5506 307.86 97.8066 307.604 97.9906 307.284C98.1746 306.964 98.2666 306.608 98.2666 306.216V304.584C98.2666 304.2 98.1266 303.888 97.8466 303.648C97.5666 303.408 97.2026 303.288 96.7546 303.288C96.3626 303.288 96.0186 303.388 95.7226 303.588C95.4266 303.78 95.2066 304.032 95.0626 304.344L94.2466 303.9C94.3666 303.628 94.5546 303.38 94.8106 303.156C95.0746 302.932 95.3746 302.756 95.7106 302.628C96.0466 302.492 96.3946 302.424 96.7546 302.424C97.2266 302.424 97.6426 302.516 98.0026 302.7C98.3706 302.884 98.6546 303.14 98.8546 303.468C99.0626 303.788 99.1666 304.16 99.1666 304.584V309H98.2666V307.716L98.3986 307.848C98.2866 308.088 98.1106 308.308 97.8706 308.508C97.6386 308.7 97.3626 308.856 97.0426 308.976C96.7306 309.088 96.3866 309.144 96.0106 309.144ZM101.018 309V302.568H101.918V303.816L101.714 303.768C101.874 303.352 102.134 303.024 102.494 302.784C102.862 302.544 103.286 302.424 103.766 302.424C104.222 302.424 104.63 302.528 104.99 302.736C105.358 302.944 105.646 303.232 105.854 303.6C106.07 303.96 106.178 304.368 106.178 304.824V309H105.278V305.172C105.278 304.78 105.206 304.448 105.062 304.176C104.926 303.904 104.73 303.696 104.474 303.552C104.226 303.4 103.938 303.324 103.61 303.324C103.282 303.324 102.99 303.4 102.734 303.552C102.478 303.696 102.278 303.908 102.134 304.188C101.99 304.46 101.918 304.788 101.918 305.172V309H101.018ZM110.945 311.64C110.505 311.64 110.097 311.572 109.721 311.436C109.353 311.3 109.033 311.112 108.761 310.872C108.497 310.64 108.293 310.368 108.149 310.056L108.977 309.612C109.105 309.916 109.333 310.18 109.661 310.404C109.989 310.628 110.409 310.74 110.921 310.74C111.313 310.74 111.673 310.664 112.001 310.512C112.329 310.36 112.593 310.136 112.793 309.84C112.993 309.544 113.093 309.18 113.093 308.748V307.32L113.237 307.452C113.013 307.916 112.681 308.276 112.241 308.532C111.801 308.78 111.321 308.904 110.801 308.904C110.201 308.904 109.661 308.76 109.181 308.472C108.701 308.184 108.321 307.796 108.041 307.308C107.769 306.812 107.633 306.264 107.633 305.664C107.633 305.056 107.769 304.508 108.041 304.02C108.321 303.532 108.697 303.144 109.169 302.856C109.649 302.568 110.193 302.424 110.801 302.424C111.321 302.424 111.793 302.544 112.217 302.784C112.649 303.024 112.989 303.348 113.237 303.756L113.093 304.008V302.568H113.993V308.748C113.993 309.3 113.861 309.792 113.597 310.224C113.341 310.664 112.981 311.008 112.517 311.256C112.061 311.512 111.537 311.64 110.945 311.64ZM110.849 308.004C111.265 308.004 111.641 307.9 111.977 307.692C112.313 307.476 112.581 307.192 112.781 306.84C112.989 306.48 113.093 306.088 113.093 305.664C113.093 305.24 112.989 304.852 112.781 304.5C112.581 304.14 112.313 303.856 111.977 303.648C111.641 303.432 111.265 303.324 110.849 303.324C110.425 303.324 110.041 303.432 109.697 303.648C109.353 303.856 109.081 304.136 108.881 304.488C108.689 304.84 108.593 305.232 108.593 305.664C108.593 306.088 108.689 306.48 108.881 306.84C109.081 307.192 109.349 307.476 109.685 307.692C110.029 307.9 110.417 308.004 110.849 308.004ZM119.477 310.68C118.845 309.96 118.361 309.148 118.025 308.244C117.697 307.34 117.533 306.38 117.533 305.364C117.533 304.34 117.697 303.38 118.025 302.484C118.361 301.58 118.845 300.772 119.477 300.06H120.257C119.681 300.86 119.241 301.712 118.937 302.616C118.641 303.52 118.493 304.436 118.493 305.364C118.493 306.292 118.641 307.208 118.937 308.112C119.241 309.016 119.681 309.872 120.257 310.68H119.477ZM124.096 309.144C123.536 309.144 123.04 309.02 122.608 308.772C122.176 308.516 121.836 308.168 121.588 307.728C121.34 307.28 121.216 306.768 121.216 306.192C121.216 305.872 121.252 305.556 121.324 305.244C121.404 304.932 121.52 304.624 121.672 304.32C121.832 304.016 122.024 303.712 122.248 303.408L124.768 300.06H125.92L122.812 304.128L122.632 304.236C122.752 304.036 122.892 303.884 123.052 303.78C123.212 303.668 123.388 303.588 123.58 303.54C123.78 303.492 123.992 303.468 124.216 303.468C124.736 303.468 125.204 303.592 125.62 303.84C126.036 304.08 126.364 304.412 126.604 304.836C126.852 305.26 126.976 305.752 126.976 306.312C126.976 306.848 126.848 307.332 126.592 307.764C126.344 308.188 126.004 308.524 125.572 308.772C125.14 309.02 124.648 309.144 124.096 309.144ZM124.096 308.304C124.464 308.304 124.792 308.22 125.08 308.052C125.368 307.876 125.596 307.636 125.764 307.332C125.932 307.028 126.016 306.688 126.016 306.312C126.016 305.928 125.932 305.588 125.764 305.292C125.604 304.996 125.38 304.764 125.092 304.596C124.804 304.42 124.472 304.332 124.096 304.332C123.728 304.332 123.396 304.42 123.1 304.596C122.812 304.764 122.584 304.996 122.416 305.292C122.256 305.588 122.176 305.928 122.176 306.312C122.176 306.688 122.26 307.028 122.428 307.332C122.596 307.636 122.824 307.876 123.112 308.052C123.4 308.22 123.728 308.304 124.096 308.304ZM132.06 309.144C131.356 309.144 130.736 308.952 130.2 308.568C129.672 308.176 129.26 307.636 128.964 306.948C128.668 306.252 128.52 305.444 128.52 304.524C128.52 303.604 128.668 302.8 128.964 302.112C129.26 301.416 129.672 300.876 130.2 300.492C130.728 300.108 131.344 299.916 132.048 299.916C132.752 299.916 133.368 300.108 133.896 300.492C134.424 300.876 134.836 301.416 135.132 302.112C135.428 302.8 135.576 303.604 135.576 304.524C135.576 305.444 135.428 306.252 135.132 306.948C134.844 307.644 134.436 308.184 133.908 308.568C133.38 308.952 132.764 309.144 132.06 309.144ZM132.06 308.244C132.572 308.244 133.02 308.088 133.404 307.776C133.788 307.464 134.088 307.032 134.304 306.48C134.52 305.92 134.628 305.268 134.628 304.524C134.628 303.78 134.52 303.132 134.304 302.58C134.088 302.02 133.788 301.588 133.404 301.284C133.02 300.972 132.568 300.816 132.048 300.816C131.536 300.816 131.088 300.972 130.704 301.284C130.32 301.588 130.02 302.02 129.804 302.58C129.588 303.132 129.48 303.78 129.48 304.524C129.48 305.26 129.588 305.908 129.804 306.468C130.02 307.028 130.32 307.464 130.704 307.776C131.096 308.088 131.548 308.244 132.06 308.244ZM138.101 309L145.421 300.06H146.585L139.265 309H138.101ZM139.409 304.596C138.977 304.596 138.585 304.492 138.233 304.284C137.881 304.068 137.597 303.784 137.381 303.432C137.173 303.08 137.069 302.688 137.069 302.256C137.069 301.824 137.173 301.432 137.381 301.08C137.597 300.72 137.881 300.436 138.233 300.228C138.585 300.02 138.977 299.916 139.409 299.916C139.841 299.916 140.233 300.02 140.585 300.228C140.937 300.436 141.217 300.72 141.425 301.08C141.633 301.432 141.737 301.824 141.737 302.256C141.737 302.688 141.633 303.08 141.425 303.432C141.217 303.784 140.937 304.068 140.585 304.284C140.233 304.492 139.841 304.596 139.409 304.596ZM139.409 303.732C139.689 303.732 139.933 303.664 140.141 303.528C140.357 303.384 140.525 303.2 140.645 302.976C140.773 302.744 140.837 302.504 140.837 302.256C140.837 302 140.773 301.76 140.645 301.536C140.525 301.312 140.357 301.132 140.141 300.996C139.933 300.852 139.689 300.78 139.409 300.78C139.137 300.78 138.889 300.852 138.665 300.996C138.449 301.132 138.277 301.312 138.149 301.536C138.029 301.76 137.969 302 137.969 302.256C137.969 302.504 138.029 302.744 138.149 302.976C138.277 303.2 138.449 303.384 138.665 303.528C138.889 303.664 139.137 303.732 139.409 303.732ZM145.169 309.144C144.737 309.144 144.345 309.04 143.993 308.832C143.641 308.616 143.357 308.332 143.141 307.98C142.933 307.628 142.829 307.236 142.829 306.804C142.829 306.372 142.933 305.98 143.141 305.628C143.357 305.268 143.641 304.984 143.993 304.776C144.345 304.568 144.737 304.464 145.169 304.464C145.601 304.464 145.993 304.568 146.345 304.776C146.697 304.984 146.977 305.268 147.185 305.628C147.393 305.98 147.497 306.372 147.497 306.804C147.497 307.236 147.393 307.628 147.185 307.98C146.977 308.332 146.697 308.616 146.345 308.832C145.993 309.04 145.601 309.144 145.169 309.144ZM145.169 308.28C145.449 308.28 145.693 308.212 145.901 308.076C146.117 307.932 146.285 307.748 146.405 307.524C146.533 307.292 146.597 307.052 146.597 306.804C146.597 306.548 146.533 306.308 146.405 306.084C146.285 305.86 146.117 305.68 145.901 305.544C145.693 305.4 145.449 305.328 145.169 305.328C144.897 305.328 144.649 305.4 144.425 305.544C144.209 305.68 144.037 305.86 143.909 306.084C143.789 306.308 143.729 306.548 143.729 306.804C143.729 307.052 143.789 307.292 143.909 307.524C144.037 307.748 144.209 307.932 144.425 308.076C144.649 308.212 144.897 308.28 145.169 308.28ZM148.369 310.68C148.945 309.872 149.381 309.016 149.677 308.112C149.981 307.208 150.133 306.292 150.133 305.364C150.133 304.436 149.981 303.52 149.677 302.616C149.381 301.712 148.945 300.86 148.369 300.06H149.149C149.789 300.772 150.273 301.58 150.601 302.484C150.929 303.38 151.093 304.34 151.093 305.364C151.093 306.38 150.929 307.34 150.601 308.244C150.273 309.148 149.789 309.96 149.149 310.68H148.369Z" fill="#667085"/>
<circle cx="4" cy="324" r="4" fill="#FAB887"/>
<path d="M17.056 329V320.06H20.812C21.316 320.06 21.752 320.156 22.12 320.348C22.496 320.532 22.784 320.792 22.984 321.128C23.192 321.464 23.296 321.856 23.296 322.304C23.296 322.768 23.18 323.18 22.948 323.54C22.724 323.892 22.4 324.16 21.976 324.344L21.964 324.056C22.316 324.184 22.616 324.364 22.864 324.596C23.12 324.828 23.316 325.1 23.452 325.412C23.588 325.716 23.656 326.044 23.656 326.396C23.656 327.196 23.4 327.832 22.888 328.304C22.384 328.768 21.696 329 20.824 329H17.056ZM18.016 328.1H20.824C21.392 328.1 21.844 327.952 22.18 327.656C22.524 327.352 22.696 326.936 22.696 326.408C22.696 325.888 22.524 325.476 22.18 325.172C21.844 324.86 21.392 324.704 20.824 324.704H18.016V328.1ZM18.016 323.84H20.74C21.22 323.84 21.604 323.7 21.892 323.42C22.188 323.14 22.336 322.78 22.336 322.34C22.336 321.892 22.188 321.552 21.892 321.32C21.604 321.08 21.22 320.96 20.74 320.96H18.016V323.84ZM25.5563 329V327.68H26.5163V329H25.5563ZM30.849 329V320.06H36.369V320.96H31.809V324.068H36.009V324.968H31.809V329H30.849ZM37.6896 329V322.568H38.5896V329H37.6896ZM37.6896 321.38V320.06H38.5896V321.38H37.6896ZM42.6638 329.144C42.0478 329.144 41.5078 328.988 41.0438 328.676C40.5798 328.364 40.2438 327.94 40.0358 327.404L40.7918 327.044C40.9758 327.436 41.2318 327.748 41.5598 327.98C41.8958 328.212 42.2638 328.328 42.6638 328.328C43.0478 328.328 43.3718 328.236 43.6358 328.052C43.8998 327.86 44.0318 327.612 44.0318 327.308C44.0318 327.084 43.9678 326.908 43.8398 326.78C43.7118 326.644 43.5638 326.54 43.3958 326.468C43.2278 326.396 43.0798 326.344 42.9518 326.312L42.0278 326.048C41.4358 325.88 41.0078 325.644 40.7438 325.34C40.4798 325.036 40.3478 324.684 40.3478 324.284C40.3478 323.908 40.4438 323.58 40.6358 323.3C40.8278 323.02 41.0878 322.804 41.4158 322.652C41.7438 322.5 42.1078 322.424 42.5078 322.424C43.0518 322.424 43.5438 322.568 43.9838 322.856C44.4318 323.136 44.7478 323.528 44.9318 324.032L44.1638 324.392C44.0038 324.032 43.7718 323.752 43.4678 323.552C43.1718 323.344 42.8398 323.24 42.4718 323.24C42.1118 323.24 41.8238 323.332 41.6078 323.516C41.3918 323.7 41.2838 323.932 41.2838 324.212C41.2838 324.428 41.3398 324.6 41.4518 324.728C41.5638 324.856 41.6918 324.952 41.8358 325.016C41.9878 325.08 42.1198 325.128 42.2318 325.16L43.2998 325.472C43.8198 325.624 44.2238 325.86 44.5118 326.18C44.8078 326.5 44.9558 326.876 44.9558 327.308C44.9558 327.66 44.8558 327.976 44.6558 328.256C44.4638 328.536 44.1958 328.756 43.8518 328.916C43.5078 329.068 43.1118 329.144 42.6638 329.144ZM46.5373 329V322.568H47.4373V329H46.5373ZM46.5373 321.38V320.06H47.4373V321.38H46.5373ZM49.2795 329V319.916H50.1795V326.276L49.7955 326.216L53.4075 322.568H54.5715L52.0515 325.148L54.7995 329H53.7195L51.1395 325.436L51.7155 325.484L49.8795 327.38L50.1795 326.636V329H49.2795ZM55.8897 330.56V330.14C56.1297 330.076 56.3057 329.952 56.4177 329.768C56.5297 329.584 56.5857 329.328 56.5857 329H56.1297V327.68H57.0897V328.688C57.0897 329.208 56.9897 329.624 56.7897 329.936C56.5897 330.256 56.2897 330.464 55.8897 330.56ZM61.2591 329V320.06H62.0991L65.4591 324.932H64.9911L68.3391 320.06H69.1791V329H68.2191V321.356L68.5311 321.476L65.2431 326.24H65.1951L61.9191 321.476L62.2191 321.356V329H61.2591ZM74.0864 329.144C73.4864 329.144 72.9424 329 72.4544 328.712C71.9744 328.416 71.5944 328.012 71.3144 327.5C71.0344 326.988 70.8944 326.408 70.8944 325.76C70.8944 325.112 71.0304 324.54 71.3024 324.044C71.5744 323.54 71.9424 323.144 72.4064 322.856C72.8784 322.568 73.4064 322.424 73.9904 322.424C74.4544 322.424 74.8664 322.512 75.2264 322.688C75.5944 322.856 75.9064 323.088 76.1624 323.384C76.4184 323.672 76.6144 324 76.7504 324.368C76.8864 324.728 76.9544 325.1 76.9544 325.484C76.9544 325.564 76.9504 325.656 76.9424 325.76C76.9344 325.856 76.9224 325.956 76.9064 326.06H71.4704V325.22H76.3904L75.9584 325.58C76.0304 325.14 75.9784 324.748 75.8024 324.404C75.6344 324.052 75.3904 323.776 75.0704 323.576C74.7504 323.368 74.3904 323.264 73.9904 323.264C73.5904 323.264 73.2184 323.368 72.8744 323.576C72.5384 323.784 72.2744 324.076 72.0824 324.452C71.8904 324.82 71.8144 325.26 71.8544 325.772C71.8144 326.284 71.8944 326.732 72.0944 327.116C72.3024 327.492 72.5824 327.784 72.9344 327.992C73.2944 328.2 73.6784 328.304 74.0864 328.304C74.5584 328.304 74.9544 328.192 75.2744 327.968C75.5944 327.744 75.8544 327.464 76.0544 327.128L76.8224 327.536C76.6944 327.824 76.4984 328.092 76.2344 328.34C75.9704 328.58 75.6544 328.776 75.2864 328.928C74.9264 329.072 74.5264 329.144 74.0864 329.144ZM78.5412 329V322.568H79.4412V323.816L79.2372 323.768C79.3972 323.352 79.6572 323.024 80.0172 322.784C80.3852 322.544 80.8092 322.424 81.2892 322.424C81.7452 322.424 82.1532 322.528 82.5132 322.736C82.8812 322.944 83.1692 323.232 83.3772 323.6C83.5932 323.96 83.7012 324.368 83.7012 324.824V329H82.8012V325.172C82.8012 324.78 82.7292 324.448 82.5852 324.176C82.4492 323.904 82.2532 323.696 81.9972 323.552C81.7492 323.4 81.4612 323.324 81.1332 323.324C80.8052 323.324 80.5132 323.4 80.2572 323.552C80.0012 323.696 79.8012 323.908 79.6572 324.188C79.5132 324.46 79.4412 324.788 79.4412 325.172V329H78.5412ZM87.8801 329.072C87.3041 329.072 86.8601 328.904 86.5481 328.568C86.2361 328.232 86.0801 327.752 86.0801 327.128V323.468H84.8921V322.568H85.1921C85.4641 322.568 85.6801 322.48 85.8401 322.304C86.0001 322.12 86.0801 321.892 86.0801 321.62V321.08H86.9801V322.568H88.3961V323.468H86.9801V327.128C86.9801 327.344 87.0121 327.536 87.0761 327.704C87.1401 327.864 87.2481 327.992 87.4001 328.088C87.5601 328.184 87.7721 328.232 88.0361 328.232C88.1001 328.232 88.1761 328.228 88.2641 328.22C88.3521 328.212 88.4281 328.204 88.4921 328.196V329C88.3961 329.024 88.2881 329.04 88.1681 329.048C88.0481 329.064 87.9521 329.072 87.8801 329.072ZM91.8153 329.144C91.4073 329.144 91.0433 329.068 90.7233 328.916C90.4033 328.756 90.1513 328.54 89.9673 328.268C89.7833 327.996 89.6913 327.684 89.6913 327.332C89.6913 326.996 89.7633 326.692 89.9073 326.42C90.0513 326.14 90.2753 325.904 90.5793 325.712C90.8833 325.52 91.2713 325.384 91.7433 325.304L94.2633 324.884V325.7L91.9593 326.084C91.4953 326.164 91.1593 326.312 90.9513 326.528C90.7513 326.744 90.6513 327 90.6513 327.296C90.6513 327.584 90.7633 327.828 90.9873 328.028C91.2193 328.228 91.5153 328.328 91.8753 328.328C92.3153 328.328 92.6993 328.236 93.0273 328.052C93.3553 327.86 93.6113 327.604 93.7953 327.284C93.9793 326.964 94.0713 326.608 94.0713 326.216V324.584C94.0713 324.2 93.9313 323.888 93.6513 323.648C93.3713 323.408 93.0073 323.288 92.5592 323.288C92.1673 323.288 91.8233 323.388 91.5273 323.588C91.2313 323.78 91.0113 324.032 90.8673 324.344L90.0513 323.9C90.1713 323.628 90.3593 323.38 90.6152 323.156C90.8793 322.932 91.1793 322.756 91.5153 322.628C91.8513 322.492 92.1993 322.424 92.5592 322.424C93.0313 322.424 93.4473 322.516 93.8073 322.7C94.1753 322.884 94.4593 323.14 94.6593 323.468C94.8673 323.788 94.9713 324.16 94.9713 324.584V329H94.0713V327.716L94.2033 327.848C94.0913 328.088 93.9153 328.308 93.6753 328.508C93.4433 328.7 93.1673 328.856 92.8473 328.976C92.5353 329.088 92.1913 329.144 91.8153 329.144ZM96.8224 329V319.916H97.7224V329H96.8224ZM104.508 329.144C103.908 329.144 103.368 329 102.888 328.712C102.408 328.416 102.028 328.016 101.748 327.512C101.476 327 101.34 326.424 101.34 325.784C101.34 325.136 101.476 324.56 101.748 324.056C102.028 323.552 102.404 323.156 102.876 322.868C103.356 322.572 103.9 322.424 104.508 322.424C105.06 322.424 105.552 322.544 105.984 322.784C106.416 323.024 106.756 323.348 107.004 323.756L106.86 324.008V319.916H107.76V329H106.86V327.56L107.004 327.692C106.78 328.156 106.444 328.516 105.996 328.772C105.556 329.02 105.06 329.144 104.508 329.144ZM104.556 328.244C104.988 328.244 105.376 328.136 105.72 327.92C106.072 327.704 106.348 327.412 106.548 327.044C106.756 326.668 106.86 326.248 106.86 325.784C106.86 325.32 106.756 324.904 106.548 324.536C106.348 324.16 106.072 323.864 105.72 323.648C105.376 323.432 104.988 323.324 104.556 323.324C104.132 323.324 103.748 323.432 103.404 323.648C103.06 323.864 102.788 324.156 102.588 324.524C102.396 324.892 102.3 325.312 102.3 325.784C102.3 326.248 102.396 326.668 102.588 327.044C102.788 327.412 103.056 327.704 103.392 327.92C103.736 328.136 104.124 328.244 104.556 328.244ZM111.468 329.144C111.06 329.144 110.696 329.068 110.376 328.916C110.056 328.756 109.804 328.54 109.62 328.268C109.436 327.996 109.344 327.684 109.344 327.332C109.344 326.996 109.416 326.692 109.56 326.42C109.704 326.14 109.928 325.904 110.232 325.712C110.536 325.52 110.924 325.384 111.396 325.304L113.916 324.884V325.7L111.612 326.084C111.148 326.164 110.812 326.312 110.604 326.528C110.404 326.744 110.304 327 110.304 327.296C110.304 327.584 110.416 327.828 110.64 328.028C110.872 328.228 111.168 328.328 111.528 328.328C111.968 328.328 112.352 328.236 112.68 328.052C113.008 327.86 113.264 327.604 113.448 327.284C113.632 326.964 113.724 326.608 113.724 326.216V324.584C113.724 324.2 113.584 323.888 113.304 323.648C113.024 323.408 112.66 323.288 112.212 323.288C111.82 323.288 111.476 323.388 111.18 323.588C110.884 323.78 110.664 324.032 110.52 324.344L109.704 323.9C109.824 323.628 110.012 323.38 110.268 323.156C110.532 322.932 110.832 322.756 111.168 322.628C111.504 322.492 111.852 322.424 112.212 322.424C112.684 322.424 113.1 322.516 113.46 322.7C113.828 322.884 114.112 323.14 114.312 323.468C114.52 323.788 114.624 324.16 114.624 324.584V329H113.724V327.716L113.856 327.848C113.744 328.088 113.568 328.308 113.328 328.508C113.096 328.7 112.82 328.856 112.5 328.976C112.188 329.088 111.844 329.144 111.468 329.144ZM116.475 329V322.568H117.375V323.816L117.171 323.768C117.331 323.352 117.591 323.024 117.951 322.784C118.319 322.544 118.743 322.424 119.223 322.424C119.679 322.424 120.087 322.528 120.447 322.736C120.815 322.944 121.103 323.232 121.311 323.6C121.527 323.96 121.635 324.368 121.635 324.824V329H120.735V325.172C120.735 324.78 120.663 324.448 120.519 324.176C120.383 323.904 120.187 323.696 119.931 323.552C119.683 323.4 119.395 323.324 119.067 323.324C118.739 323.324 118.447 323.4 118.191 323.552C117.935 323.696 117.735 323.908 117.591 324.188C117.447 324.46 117.375 324.788 117.375 325.172V329H116.475ZM125.525 329V320.06H128.465C129.353 320.06 130.125 320.244 130.781 320.612C131.437 320.972 131.945 321.488 132.305 322.16C132.665 322.824 132.845 323.612 132.845 324.524C132.845 325.428 132.665 326.216 132.305 326.888C131.945 327.56 131.437 328.08 130.781 328.448C130.125 328.816 129.353 329 128.465 329H125.525ZM126.485 328.1H128.465C129.153 328.1 129.749 327.956 130.253 327.668C130.757 327.372 131.145 326.956 131.417 326.42C131.697 325.884 131.837 325.252 131.837 324.524C131.837 323.796 131.697 323.168 131.417 322.64C131.137 322.104 130.745 321.692 130.241 321.404C129.737 321.108 129.145 320.96 128.465 320.96H126.485V328.1ZM134.299 329V322.568H135.199V329H134.299ZM134.299 321.38V320.06H135.199V321.38H134.299ZM139.273 329.144C138.657 329.144 138.117 328.988 137.653 328.676C137.189 328.364 136.853 327.94 136.645 327.404L137.401 327.044C137.585 327.436 137.841 327.748 138.169 327.98C138.505 328.212 138.873 328.328 139.273 328.328C139.657 328.328 139.981 328.236 140.245 328.052C140.509 327.86 140.641 327.612 140.641 327.308C140.641 327.084 140.577 326.908 140.449 326.78C140.321 326.644 140.173 326.54 140.005 326.468C139.837 326.396 139.689 326.344 139.561 326.312L138.637 326.048C138.045 325.88 137.617 325.644 137.353 325.34C137.089 325.036 136.957 324.684 136.957 324.284C136.957 323.908 137.053 323.58 137.245 323.3C137.437 323.02 137.697 322.804 138.025 322.652C138.353 322.5 138.717 322.424 139.117 322.424C139.661 322.424 140.153 322.568 140.593 322.856C141.041 323.136 141.357 323.528 141.541 324.032L140.773 324.392C140.613 324.032 140.381 323.752 140.077 323.552C139.781 323.344 139.449 323.24 139.081 323.24C138.721 323.24 138.433 323.332 138.217 323.516C138.001 323.7 137.893 323.932 137.893 324.212C137.893 324.428 137.949 324.6 138.061 324.728C138.173 324.856 138.301 324.952 138.445 325.016C138.597 325.08 138.729 325.128 138.841 325.16L139.909 325.472C140.429 325.624 140.833 325.86 141.121 326.18C141.417 326.5 141.565 326.876 141.565 327.308C141.565 327.66 141.465 327.976 141.265 328.256C141.073 328.536 140.805 328.756 140.461 328.916C140.117 329.068 139.721 329.144 139.273 329.144ZM143.147 329V322.568H144.047V329H143.147ZM143.147 321.38V320.06H144.047V321.38H143.147ZM145.889 331.4V322.568H146.789V324.008L146.645 323.756C146.901 323.348 147.241 323.024 147.665 322.784C148.097 322.544 148.589 322.424 149.141 322.424C149.749 322.424 150.289 322.572 150.761 322.868C151.241 323.156 151.617 323.552 151.889 324.056C152.169 324.56 152.309 325.136 152.309 325.784C152.309 326.424 152.169 327 151.889 327.512C151.617 328.016 151.241 328.416 150.761 328.712C150.289 329 149.749 329.144 149.141 329.144C148.589 329.144 148.089 329.02 147.641 328.772C147.201 328.516 146.869 328.156 146.645 327.692L146.789 327.56V331.4H145.889ZM149.093 328.244C149.525 328.244 149.909 328.136 150.245 327.92C150.589 327.704 150.857 327.412 151.049 327.044C151.249 326.668 151.349 326.248 151.349 325.784C151.349 325.312 151.249 324.892 151.049 324.524C150.857 324.156 150.589 323.864 150.245 323.648C149.909 323.432 149.525 323.324 149.093 323.324C148.661 323.324 148.269 323.432 147.917 323.648C147.573 323.864 147.297 324.16 147.089 324.536C146.889 324.904 146.789 325.32 146.789 325.784C146.789 326.248 146.889 326.668 147.089 327.044C147.297 327.412 147.573 327.704 147.917 327.92C148.269 328.136 148.661 328.244 149.093 328.244ZM153.893 329V319.916H154.793V329H153.893ZM156.635 329V322.568H157.535V329H156.635ZM156.635 321.38V320.06H157.535V321.38H156.635ZM159.377 329V322.568H160.277V323.816L160.073 323.768C160.233 323.352 160.493 323.024 160.853 322.784C161.221 322.544 161.645 322.424 162.125 322.424C162.581 322.424 162.989 322.528 163.349 322.736C163.717 322.944 164.005 323.232 164.213 323.6C164.429 323.96 164.537 324.368 164.537 324.824V329H163.637V325.172C163.637 324.78 163.565 324.448 163.421 324.176C163.285 323.904 163.089 323.696 162.833 323.552C162.585 323.4 162.297 323.324 161.969 323.324C161.641 323.324 161.349 323.4 161.093 323.552C160.837 323.696 160.637 323.908 160.493 324.188C160.349 324.46 160.277 324.788 160.277 325.172V329H159.377ZM169.891 330.68C169.259 329.96 168.775 329.148 168.439 328.244C168.111 327.34 167.947 326.38 167.947 325.364C167.947 324.34 168.111 323.38 168.439 322.484C168.775 321.58 169.259 320.772 169.891 320.06H170.671C170.095 320.86 169.655 321.712 169.351 322.616C169.055 323.52 168.907 324.436 168.907 325.364C168.907 326.292 169.055 327.208 169.351 328.112C169.655 329.016 170.095 329.872 170.671 330.68H169.891ZM171.606 329V328.4L174.102 325.652C174.59 325.116 174.986 324.672 175.29 324.32C175.602 323.968 175.834 323.648 175.986 323.36C176.138 323.072 176.214 322.76 176.214 322.424C176.214 321.888 176.058 321.476 175.746 321.188C175.434 320.9 175.018 320.756 174.498 320.756C173.962 320.756 173.51 320.908 173.142 321.212C172.782 321.516 172.538 321.94 172.41 322.484L171.534 322.292C171.638 321.804 171.826 321.384 172.098 321.032C172.37 320.68 172.71 320.408 173.118 320.216C173.526 320.016 173.982 319.916 174.486 319.916C175.022 319.916 175.49 320.024 175.89 320.24C176.29 320.456 176.602 320.752 176.826 321.128C177.058 321.504 177.174 321.936 177.174 322.424C177.174 322.76 177.102 323.084 176.958 323.396C176.822 323.708 176.614 324.044 176.334 324.404C176.054 324.764 175.694 325.184 175.254 325.664L172.986 328.16H177.414V329H171.606ZM182.509 329.144C181.805 329.144 181.185 328.952 180.649 328.568C180.121 328.176 179.709 327.636 179.413 326.948C179.117 326.252 178.969 325.444 178.969 324.524C178.969 323.604 179.117 322.8 179.413 322.112C179.709 321.416 180.121 320.876 180.649 320.492C181.177 320.108 181.793 319.916 182.497 319.916C183.201 319.916 183.817 320.108 184.345 320.492C184.873 320.876 185.285 321.416 185.581 322.112C185.877 322.8 186.025 323.604 186.025 324.524C186.025 325.444 185.877 326.252 185.581 326.948C185.293 327.644 184.885 328.184 184.357 328.568C183.829 328.952 183.213 329.144 182.509 329.144ZM182.509 328.244C183.021 328.244 183.469 328.088 183.853 327.776C184.237 327.464 184.537 327.032 184.753 326.48C184.969 325.92 185.077 325.268 185.077 324.524C185.077 323.78 184.969 323.132 184.753 322.58C184.537 322.02 184.237 321.588 183.853 321.284C183.469 320.972 183.017 320.816 182.497 320.816C181.985 320.816 181.537 320.972 181.153 321.284C180.769 321.588 180.469 322.02 180.253 322.58C180.037 323.132 179.929 323.78 179.929 324.524C179.929 325.26 180.037 325.908 180.253 326.468C180.469 327.028 180.769 327.464 181.153 327.776C181.545 328.088 181.997 328.244 182.509 328.244ZM188.551 329L195.871 320.06H197.035L189.715 329H188.551ZM189.859 324.596C189.427 324.596 189.035 324.492 188.683 324.284C188.331 324.068 188.047 323.784 187.831 323.432C187.623 323.08 187.519 322.688 187.519 322.256C187.519 321.824 187.623 321.432 187.831 321.08C188.047 320.72 188.331 320.436 188.683 320.228C189.035 320.02 189.427 319.916 189.859 319.916C190.291 319.916 190.683 320.02 191.035 320.228C191.387 320.436 191.667 320.72 191.875 321.08C192.083 321.432 192.187 321.824 192.187 322.256C192.187 322.688 192.083 323.08 191.875 323.432C191.667 323.784 191.387 324.068 191.035 324.284C190.683 324.492 190.291 324.596 189.859 324.596ZM189.859 323.732C190.139 323.732 190.383 323.664 190.591 323.528C190.807 323.384 190.975 323.2 191.095 322.976C191.223 322.744 191.287 322.504 191.287 322.256C191.287 322 191.223 321.76 191.095 321.536C190.975 321.312 190.807 321.132 190.591 320.996C190.383 320.852 190.139 320.78 189.859 320.78C189.587 320.78 189.339 320.852 189.115 320.996C188.899 321.132 188.727 321.312 188.599 321.536C188.479 321.76 188.419 322 188.419 322.256C188.419 322.504 188.479 322.744 188.599 322.976C188.727 323.2 188.899 323.384 189.115 323.528C189.339 323.664 189.587 323.732 189.859 323.732ZM195.619 329.144C195.187 329.144 194.795 329.04 194.443 328.832C194.091 328.616 193.807 328.332 193.591 327.98C193.383 327.628 193.279 327.236 193.279 326.804C193.279 326.372 193.383 325.98 193.591 325.628C193.807 325.268 194.091 324.984 194.443 324.776C194.795 324.568 195.187 324.464 195.619 324.464C196.051 324.464 196.443 324.568 196.795 324.776C197.147 324.984 197.427 325.268 197.635 325.628C197.843 325.98 197.947 326.372 197.947 326.804C197.947 327.236 197.843 327.628 197.635 327.98C197.427 328.332 197.147 328.616 196.795 328.832C196.443 329.04 196.051 329.144 195.619 329.144ZM195.619 328.28C195.899 328.28 196.143 328.212 196.351 328.076C196.567 327.932 196.735 327.748 196.855 327.524C196.983 327.292 197.047 327.052 197.047 326.804C197.047 326.548 196.983 326.308 196.855 326.084C196.735 325.86 196.567 325.68 196.351 325.544C196.143 325.4 195.899 325.328 195.619 325.328C195.347 325.328 195.099 325.4 194.875 325.544C194.659 325.68 194.487 325.86 194.359 326.084C194.239 326.308 194.179 326.548 194.179 326.804C194.179 327.052 194.239 327.292 194.359 327.524C194.487 327.748 194.659 327.932 194.875 328.076C195.099 328.212 195.347 328.28 195.619 328.28ZM198.818 330.68C199.394 329.872 199.83 329.016 200.126 328.112C200.43 327.208 200.582 326.292 200.582 325.364C200.582 324.436 200.43 323.52 200.126 322.616C199.83 321.712 199.394 320.86 198.818 320.06H199.598C200.238 320.772 200.722 321.58 201.05 322.484C201.378 323.38 201.542 324.34 201.542 325.364C201.542 326.38 201.378 327.34 201.05 328.244C200.722 329.148 200.238 329.96 199.598 330.68H198.818Z" fill="#667085"/>
<circle cx="4" cy="344" r="4" fill="#FCC49B"/>
<path d="M21.136 349.144C20.504 349.144 19.924 349.032 19.396 348.808C18.868 348.576 18.408 348.256 18.016 347.848C17.632 347.432 17.332 346.944 17.116 346.384C16.9 345.824 16.792 345.208 16.792 344.536C16.792 343.864 16.9 343.248 17.116 342.688C17.332 342.128 17.632 341.64 18.016 341.224C18.408 340.808 18.868 340.488 19.396 340.264C19.924 340.032 20.504 339.916 21.136 339.916C21.744 339.916 22.288 340.024 22.768 340.24C23.256 340.456 23.664 340.736 23.992 341.08C24.328 341.416 24.568 341.772 24.712 342.148L23.812 342.544C23.588 342.024 23.244 341.608 22.78 341.296C22.324 340.976 21.776 340.816 21.136 340.816C20.48 340.816 19.896 340.972 19.384 341.284C18.872 341.596 18.472 342.032 18.184 342.592C17.896 343.144 17.752 343.792 17.752 344.536C17.752 345.272 17.896 345.92 18.184 346.48C18.472 347.04 18.872 347.476 19.384 347.788C19.896 348.092 20.48 348.244 21.136 348.244C21.776 348.244 22.324 348.088 22.78 347.776C23.244 347.464 23.588 347.048 23.812 346.528L24.712 346.924C24.568 347.292 24.328 347.648 23.992 347.992C23.664 348.328 23.256 348.604 22.768 348.82C22.288 349.036 21.744 349.144 21.136 349.144ZM26.611 349V347.68H27.571V349H26.611ZM31.9037 349V340.06H35.6597C36.1637 340.06 36.5997 340.156 36.9677 340.348C37.3437 340.532 37.6317 340.792 37.8317 341.128C38.0397 341.464 38.1437 341.856 38.1437 342.304C38.1437 342.768 38.0277 343.18 37.7957 343.54C37.5717 343.892 37.2477 344.16 36.8237 344.344L36.8117 344.056C37.1637 344.184 37.4637 344.364 37.7117 344.596C37.9677 344.828 38.1637 345.1 38.2997 345.412C38.4357 345.716 38.5037 346.044 38.5037 346.396C38.5037 347.196 38.2477 347.832 37.7357 348.304C37.2317 348.768 36.5437 349 35.6717 349H31.9037ZM32.8637 348.1H35.6717C36.2397 348.1 36.6917 347.952 37.0277 347.656C37.3717 347.352 37.5437 346.936 37.5437 346.408C37.5437 345.888 37.3717 345.476 37.0277 345.172C36.6917 344.86 36.2397 344.704 35.6717 344.704H32.8637V348.1ZM32.8637 343.84H35.5877C36.0677 343.84 36.4517 343.7 36.7397 343.42C37.0357 343.14 37.1837 342.78 37.1837 342.34C37.1837 341.892 37.0357 341.552 36.7397 341.32C36.4517 341.08 36.0677 340.96 35.5877 340.96H32.8637V343.84ZM42.372 349.144C41.924 349.144 41.516 349.04 41.148 348.832C40.78 348.616 40.488 348.32 40.272 347.944C40.064 347.56 39.96 347.12 39.96 346.624V342.568H40.86V346.516C40.86 346.86 40.928 347.164 41.064 347.428C41.208 347.684 41.404 347.884 41.652 348.028C41.908 348.172 42.2 348.244 42.528 348.244C42.856 348.244 43.148 348.172 43.404 348.028C43.66 347.876 43.86 347.664 44.004 347.392C44.148 347.112 44.22 346.78 44.22 346.396V342.568H45.12V349H44.22V347.752L44.424 347.8C44.272 348.216 44.012 348.544 43.644 348.784C43.276 349.024 42.852 349.144 42.372 349.144ZM49.8749 349.144C49.2749 349.144 48.7349 349 48.2549 348.712C47.7749 348.416 47.3949 348.016 47.1149 347.512C46.8429 347 46.7069 346.424 46.7069 345.784C46.7069 345.136 46.8429 344.56 47.1149 344.056C47.3949 343.552 47.7709 343.156 48.2429 342.868C48.7229 342.572 49.2669 342.424 49.8749 342.424C50.4269 342.424 50.9189 342.544 51.3509 342.784C51.7829 343.024 52.1229 343.348 52.3709 343.756L52.2269 344.008V339.916H53.1269V349H52.2269V347.56L52.3709 347.692C52.1469 348.156 51.8109 348.516 51.3629 348.772C50.9229 349.02 50.4269 349.144 49.8749 349.144ZM49.9229 348.244C50.3549 348.244 50.7429 348.136 51.0869 347.92C51.4389 347.704 51.7149 347.412 51.9149 347.044C52.1229 346.668 52.2269 346.248 52.2269 345.784C52.2269 345.32 52.1229 344.904 51.9149 344.536C51.7149 344.16 51.4389 343.864 51.0869 343.648C50.7429 343.432 50.3549 343.324 49.9229 343.324C49.4989 343.324 49.1149 343.432 48.7709 343.648C48.4269 343.864 48.1549 344.156 47.9549 344.524C47.7629 344.892 47.6669 345.312 47.6669 345.784C47.6669 346.248 47.7629 346.668 47.9549 347.044C48.1549 347.412 48.4229 347.704 48.7589 347.92C49.1029 348.136 49.4909 348.244 49.9229 348.244ZM56.8348 349.144C56.4268 349.144 56.0628 349.068 55.7428 348.916C55.4228 348.756 55.1708 348.54 54.9868 348.268C54.8028 347.996 54.7108 347.684 54.7108 347.332C54.7108 346.996 54.7828 346.692 54.9268 346.42C55.0708 346.14 55.2948 345.904 55.5988 345.712C55.9028 345.52 56.2908 345.384 56.7628 345.304L59.2828 344.884V345.7L56.9788 346.084C56.5148 346.164 56.1788 346.312 55.9708 346.528C55.7708 346.744 55.6708 347 55.6708 347.296C55.6708 347.584 55.7828 347.828 56.0068 348.028C56.2388 348.228 56.5348 348.328 56.8948 348.328C57.3348 348.328 57.7188 348.236 58.0468 348.052C58.3748 347.86 58.6308 347.604 58.8148 347.284C58.9988 346.964 59.0908 346.608 59.0908 346.216V344.584C59.0908 344.2 58.9508 343.888 58.6708 343.648C58.3908 343.408 58.0268 343.288 57.5788 343.288C57.1868 343.288 56.8428 343.388 56.5468 343.588C56.2508 343.78 56.0308 344.032 55.8868 344.344L55.0708 343.9C55.1908 343.628 55.3788 343.38 55.6348 343.156C55.8988 342.932 56.1988 342.756 56.5348 342.628C56.8708 342.492 57.2188 342.424 57.5788 342.424C58.0508 342.424 58.4668 342.516 58.8268 342.7C59.1948 342.884 59.4788 343.14 59.6788 343.468C59.8868 343.788 59.9908 344.16 59.9908 344.584V349H59.0908V347.716L59.2228 347.848C59.1108 348.088 58.9348 348.308 58.6948 348.508C58.4628 348.7 58.1868 348.856 57.8668 348.976C57.5548 349.088 57.2108 349.144 56.8348 349.144ZM61.974 351.64C61.846 351.64 61.714 351.628 61.578 351.604C61.45 351.588 61.322 351.556 61.194 351.508V350.668C61.274 350.676 61.374 350.688 61.494 350.704C61.622 350.728 61.75 350.74 61.878 350.74C62.27 350.74 62.57 350.656 62.778 350.488C62.986 350.328 63.19 350.016 63.39 349.552L63.798 348.592L63.774 349.384L61.05 342.568H62.022L64.254 348.196H64.002L66.222 342.568H67.218L64.278 349.816C64.15 350.128 63.986 350.424 63.786 350.704C63.594 350.984 63.35 351.208 63.054 351.376C62.758 351.552 62.398 351.64 61.974 351.64ZM69.9012 349.144C69.4932 349.144 69.1292 349.068 68.8092 348.916C68.4892 348.756 68.2372 348.54 68.0532 348.268C67.8692 347.996 67.7772 347.684 67.7772 347.332C67.7772 346.996 67.8492 346.692 67.9932 346.42C68.1372 346.14 68.3612 345.904 68.6652 345.712C68.9692 345.52 69.3572 345.384 69.8292 345.304L72.3492 344.884V345.7L70.0452 346.084C69.5812 346.164 69.2452 346.312 69.0372 346.528C68.8372 346.744 68.7372 347 68.7372 347.296C68.7372 347.584 68.8492 347.828 69.0732 348.028C69.3052 348.228 69.6012 348.328 69.9612 348.328C70.4012 348.328 70.7852 348.236 71.1132 348.052C71.4412 347.86 71.6972 347.604 71.8812 347.284C72.0652 346.964 72.1572 346.608 72.1572 346.216V344.584C72.1572 344.2 72.0172 343.888 71.7372 343.648C71.4572 343.408 71.0932 343.288 70.6452 343.288C70.2532 343.288 69.9092 343.388 69.6132 343.588C69.3172 343.78 69.0972 344.032 68.9532 344.344L68.1372 343.9C68.2572 343.628 68.4452 343.38 68.7012 343.156C68.9652 342.932 69.2652 342.756 69.6012 342.628C69.9372 342.492 70.2852 342.424 70.6452 342.424C71.1172 342.424 71.5332 342.516 71.8932 342.7C72.2612 342.884 72.5452 343.14 72.7452 343.468C72.9532 343.788 73.0572 344.16 73.0572 344.584V349H72.1572V347.716L72.2892 347.848C72.1772 348.088 72.0012 348.308 71.7612 348.508C71.5292 348.7 71.2532 348.856 70.9332 348.976C70.6212 349.088 70.2772 349.144 69.9012 349.144ZM78.5434 350.68C77.9114 349.96 77.4274 349.148 77.0914 348.244C76.7634 347.34 76.5994 346.38 76.5994 345.364C76.5994 344.34 76.7634 343.38 77.0914 342.484C77.4274 341.58 77.9114 340.772 78.5434 340.06H79.3234C78.7474 340.86 78.3074 341.712 78.0034 342.616C77.7074 343.52 77.5594 344.436 77.5594 345.364C77.5594 346.292 77.7074 347.208 78.0034 348.112C78.3074 349.016 78.7474 349.872 79.3234 350.68H78.5434ZM81.7345 349V340.9H80.0545V340.06H82.6945V349H81.7345ZM88.4196 349.144C87.7156 349.144 87.0956 348.952 86.5596 348.568C86.0316 348.176 85.6196 347.636 85.3236 346.948C85.0276 346.252 84.8796 345.444 84.8796 344.524C84.8796 343.604 85.0276 342.8 85.3236 342.112C85.6196 341.416 86.0316 340.876 86.5596 340.492C87.0876 340.108 87.7036 339.916 88.4076 339.916C89.1116 339.916 89.7276 340.108 90.2556 340.492C90.7836 340.876 91.1956 341.416 91.4916 342.112C91.7876 342.8 91.9356 343.604 91.9356 344.524C91.9356 345.444 91.7876 346.252 91.4916 346.948C91.2036 347.644 90.7956 348.184 90.2676 348.568C89.7396 348.952 89.1236 349.144 88.4196 349.144ZM88.4196 348.244C88.9316 348.244 89.3796 348.088 89.7636 347.776C90.1476 347.464 90.4476 347.032 90.6636 346.48C90.8796 345.92 90.9876 345.268 90.9876 344.524C90.9876 343.78 90.8796 343.132 90.6636 342.58C90.4476 342.02 90.1476 341.588 89.7636 341.284C89.3796 340.972 88.9276 340.816 88.4076 340.816C87.8956 340.816 87.4476 340.972 87.0636 341.284C86.6796 341.588 86.3796 342.02 86.1636 342.58C85.9476 343.132 85.8396 343.78 85.8396 344.524C85.8396 345.26 85.9476 345.908 86.1636 346.468C86.3796 347.028 86.6796 347.464 87.0636 347.776C87.4556 348.088 87.9076 348.244 88.4196 348.244ZM94.4607 349L101.781 340.06H102.945L95.6247 349H94.4607ZM95.7687 344.596C95.3367 344.596 94.9447 344.492 94.5927 344.284C94.2407 344.068 93.9567 343.784 93.7407 343.432C93.5327 343.08 93.4287 342.688 93.4287 342.256C93.4287 341.824 93.5327 341.432 93.7407 341.08C93.9567 340.72 94.2407 340.436 94.5927 340.228C94.9447 340.02 95.3367 339.916 95.7687 339.916C96.2007 339.916 96.5927 340.02 96.9447 340.228C97.2967 340.436 97.5767 340.72 97.7847 341.08C97.9927 341.432 98.0967 341.824 98.0967 342.256C98.0967 342.688 97.9927 343.08 97.7847 343.432C97.5767 343.784 97.2967 344.068 96.9447 344.284C96.5927 344.492 96.2007 344.596 95.7687 344.596ZM95.7687 343.732C96.0487 343.732 96.2927 343.664 96.5007 343.528C96.7167 343.384 96.8847 343.2 97.0047 342.976C97.1327 342.744 97.1967 342.504 97.1967 342.256C97.1967 342 97.1327 341.76 97.0047 341.536C96.8847 341.312 96.7167 341.132 96.5007 340.996C96.2927 340.852 96.0487 340.78 95.7687 340.78C95.4967 340.78 95.2487 340.852 95.0247 340.996C94.8087 341.132 94.6367 341.312 94.5087 341.536C94.3887 341.76 94.3287 342 94.3287 342.256C94.3287 342.504 94.3887 342.744 94.5087 342.976C94.6367 343.2 94.8087 343.384 95.0247 343.528C95.2487 343.664 95.4967 343.732 95.7687 343.732ZM101.529 349.144C101.097 349.144 100.705 349.04 100.353 348.832C100.001 348.616 99.7167 348.332 99.5007 347.98C99.2927 347.628 99.1887 347.236 99.1887 346.804C99.1887 346.372 99.2927 345.98 99.5007 345.628C99.7167 345.268 100.001 344.984 100.353 344.776C100.705 344.568 101.097 344.464 101.529 344.464C101.961 344.464 102.353 344.568 102.705 344.776C103.057 344.984 103.337 345.268 103.545 345.628C103.753 345.98 103.857 346.372 103.857 346.804C103.857 347.236 103.753 347.628 103.545 347.98C103.337 348.332 103.057 348.616 102.705 348.832C102.353 349.04 101.961 349.144 101.529 349.144ZM101.529 348.28C101.809 348.28 102.053 348.212 102.261 348.076C102.477 347.932 102.645 347.748 102.765 347.524C102.893 347.292 102.957 347.052 102.957 346.804C102.957 346.548 102.893 346.308 102.765 346.084C102.645 345.86 102.477 345.68 102.261 345.544C102.053 345.4 101.809 345.328 101.529 345.328C101.257 345.328 101.009 345.4 100.785 345.544C100.569 345.68 100.397 345.86 100.269 346.084C100.149 346.308 100.089 346.548 100.089 346.804C100.089 347.052 100.149 347.292 100.269 347.524C100.397 347.748 100.569 347.932 100.785 348.076C101.009 348.212 101.257 348.28 101.529 348.28ZM104.728 350.68C105.304 349.872 105.74 349.016 106.036 348.112C106.34 347.208 106.492 346.292 106.492 345.364C106.492 344.436 106.34 343.52 106.036 342.616C105.74 341.712 105.304 340.86 104.728 340.06H105.508C106.148 340.772 106.632 341.58 106.96 342.484C107.288 343.38 107.452 344.34 107.452 345.364C107.452 346.38 107.288 347.34 106.96 348.244C106.632 349.148 106.148 349.96 105.508 350.68H104.728Z" fill="#667085"/>
<circle cx="4" cy="364" r="4" fill="#FEDCC3"/>
<path d="M17.116 368V359.6H19.672C20.464 359.6 21.16 359.78 21.76 360.14C22.368 360.492 22.844 360.984 23.188 361.616C23.532 362.248 23.704 362.976 23.704 363.8C23.704 364.616 23.532 365.34 23.188 365.972C22.844 366.604 22.368 367.1 21.76 367.46C21.16 367.82 20.464 368 19.672 368H17.116ZM18.136 367.064H19.672C20.096 367.064 20.488 366.984 20.848 366.824C21.208 366.656 21.524 366.42 21.796 366.116C22.076 365.812 22.292 365.464 22.444 365.072C22.604 364.672 22.684 364.248 22.684 363.8C22.684 363.352 22.604 362.932 22.444 362.54C22.292 362.14 22.076 361.788 21.796 361.484C21.524 361.18 21.208 360.948 20.848 360.788C20.488 360.62 20.096 360.536 19.672 360.536H18.136V367.064ZM25.5097 368.168C25.3257 368.168 25.1657 368.104 25.0297 367.976C24.9017 367.84 24.8377 367.684 24.8377 367.508C24.8377 367.324 24.9017 367.168 25.0297 367.04C25.1657 366.904 25.3257 366.836 25.5097 366.836C25.6937 366.836 25.8497 366.904 25.9777 367.04C26.1057 367.168 26.1697 367.324 26.1697 367.508C26.1697 367.684 26.1057 367.84 25.9777 367.976C25.8497 368.104 25.6937 368.168 25.5097 368.168ZM31.5467 365.12L31.1267 364.196L35.5427 359.6H36.8147L31.5467 365.12ZM30.8387 368V359.6H31.8107V368H30.8387ZM35.7347 368L32.2907 363.728L32.9507 363.08L36.9707 368H35.7347ZM40.4211 368.144C39.8371 368.144 39.3211 368.012 38.8731 367.748C38.4251 367.476 38.0731 367.104 37.8171 366.632C37.5691 366.16 37.4451 365.616 37.4451 365C37.4451 364.384 37.5691 363.84 37.8171 363.368C38.0731 362.896 38.4211 362.528 38.8611 362.264C39.3091 361.992 39.8211 361.856 40.3971 361.856C40.9571 361.856 41.4411 361.996 41.8491 362.276C42.2571 362.548 42.5731 362.932 42.7971 363.428C43.0211 363.924 43.1331 364.508 43.1331 365.18H38.1771L38.4171 364.976C38.4171 365.456 38.5011 365.868 38.6691 366.212C38.8451 366.556 39.0891 366.82 39.4011 367.004C39.7131 367.18 40.0691 367.268 40.4691 367.268C40.8931 367.268 41.2491 367.168 41.5371 366.968C41.8331 366.768 42.0611 366.504 42.2211 366.176L43.0491 366.596C42.8971 366.908 42.6931 367.18 42.4371 367.412C42.1891 367.644 41.8931 367.824 41.5491 367.952C41.2131 368.08 40.8371 368.144 40.4211 368.144ZM38.4771 364.568L38.2251 364.376H42.3651L42.1131 364.58C42.1131 364.196 42.0371 363.864 41.8851 363.584C41.7331 363.304 41.5291 363.088 41.2731 362.936C41.0171 362.784 40.7211 362.708 40.3851 362.708C40.0571 362.708 39.7451 362.784 39.4491 362.936C39.1611 363.088 38.9251 363.304 38.7411 363.584C38.5651 363.856 38.4771 364.184 38.4771 364.568ZM49.6396 368L51.6676 362H52.6396L50.5996 368H49.6396ZM45.5596 368L47.5876 362H48.4876L46.4836 368H45.5596ZM45.5116 368L43.4716 362H44.4436L46.4476 368H45.5116ZM49.6396 368L47.6356 362H48.5476L50.5516 368H49.6396ZM53.6617 368V362H54.6217V368H53.6617ZM54.1537 360.608C53.9937 360.608 53.8537 360.548 53.7337 360.428C53.6137 360.308 53.5537 360.168 53.5537 360.008C53.5537 359.84 53.6137 359.7 53.7337 359.588C53.8537 359.468 53.9937 359.408 54.1537 359.408C54.3217 359.408 54.4617 359.468 54.5737 359.588C54.6937 359.7 54.7537 359.84 54.7537 360.008C54.7537 360.168 54.6937 360.308 54.5737 360.428C54.4617 360.548 54.3217 360.608 54.1537 360.608ZM56.9188 364.748C56.9188 364.1 57.0428 363.576 57.2908 363.176C57.5388 362.768 57.8548 362.468 58.2388 362.276C58.6308 362.076 59.0428 361.976 59.4748 361.976V362.876C59.1228 362.876 58.7828 362.936 58.4548 363.056C58.1348 363.168 57.8708 363.356 57.6628 363.62C57.4548 363.884 57.3508 364.244 57.3508 364.7L56.9188 364.748ZM56.3908 368V362H57.3508V368H56.3908ZM64.1415 368L64.0935 367.016V364.832C64.0935 364.36 64.0415 363.972 63.9375 363.668C63.8335 363.356 63.6695 363.12 63.4455 362.96C63.2215 362.8 62.9295 362.72 62.5695 362.72C62.2415 362.72 61.9575 362.788 61.7175 362.924C61.4855 363.052 61.2935 363.26 61.1415 363.548L60.2775 363.212C60.4295 362.932 60.6135 362.692 60.8295 362.492C61.0455 362.284 61.2975 362.128 61.5855 362.024C61.8735 361.912 62.2015 361.856 62.5695 361.856C63.1295 361.856 63.5895 361.968 63.9495 362.192C64.3175 362.408 64.5935 362.732 64.7775 363.164C64.9615 363.588 65.0495 364.116 65.0415 364.748L65.0295 368H64.1415ZM62.3415 368.144C61.6375 368.144 61.0855 367.984 60.6855 367.664C60.2935 367.336 60.0975 366.884 60.0975 366.308C60.0975 365.7 60.2975 365.236 60.6975 364.916C61.1055 364.588 61.6735 364.424 62.4015 364.424H64.1175V365.228H62.6175C62.0575 365.228 61.6575 365.32 61.4175 365.504C61.1855 365.688 61.0695 365.952 61.0695 366.296C61.0695 366.608 61.1855 366.856 61.4175 367.04C61.6495 367.216 61.9735 367.304 62.3895 367.304C62.7335 367.304 63.0335 367.232 63.2895 367.088C63.5455 366.936 63.7415 366.724 63.8775 366.452C64.0215 366.172 64.0935 365.844 64.0935 365.468H64.5015C64.5015 366.284 64.3175 366.936 63.9495 367.424C63.5815 367.904 63.0455 368.144 62.3415 368.144ZM70.6787 368L70.6187 366.896V362H71.5787V368H70.6787ZM66.4067 365.072V362H67.3667V365.072H66.4067ZM67.3667 365.072C67.3667 365.664 67.4347 366.116 67.5707 366.428C67.7067 366.74 67.8947 366.956 68.1347 367.076C68.3827 367.188 68.6587 367.244 68.9627 367.244C69.4827 367.244 69.8867 367.056 70.1747 366.68C70.4707 366.304 70.6187 365.78 70.6187 365.108H71.0867C71.0867 365.74 70.9947 366.284 70.8107 366.74C70.6267 367.196 70.3587 367.544 70.0067 367.784C69.6627 368.024 69.2387 368.144 68.7347 368.144C68.2707 368.144 67.8627 368.052 67.5107 367.868C67.1587 367.676 66.8867 367.376 66.6947 366.968C66.5027 366.552 66.4067 366.016 66.4067 365.36V365.072H67.3667ZM75.3541 368.144C74.9141 368.144 74.5301 368.08 74.2021 367.952C73.8741 367.816 73.5981 367.64 73.3741 367.424C73.1581 367.208 73.0021 366.972 72.9061 366.716L73.7461 366.368C73.8821 366.64 74.0861 366.86 74.3581 367.028C74.6301 367.196 74.9301 367.28 75.2581 367.28C75.6341 367.28 75.9501 367.208 76.2061 367.064C76.4621 366.912 76.5901 366.7 76.5901 366.428C76.5901 366.18 76.4941 365.98 76.3021 365.828C76.1181 365.676 75.8421 365.552 75.4741 365.456L74.8981 365.3C74.3541 365.156 73.9301 364.94 73.6261 364.652C73.3221 364.356 73.1701 364.024 73.1701 363.656C73.1701 363.088 73.3541 362.648 73.7221 362.336C74.0981 362.016 74.6541 361.856 75.3901 361.856C75.7421 361.856 76.0621 361.908 76.3501 362.012C76.6381 362.116 76.8861 362.264 77.0941 362.456C77.3021 362.64 77.4541 362.86 77.5501 363.116L76.7101 363.488C76.6061 363.216 76.4341 363.02 76.1941 362.9C75.9541 362.78 75.6621 362.72 75.3181 362.72C74.9501 362.72 74.6621 362.8 74.4541 362.96C74.2461 363.112 74.1421 363.328 74.1421 363.608C74.1421 363.768 74.2261 363.92 74.3941 364.064C74.5701 364.2 74.8261 364.312 75.1621 364.4L75.7621 364.556C76.1541 364.652 76.4821 364.796 76.7461 364.988C77.0101 365.172 77.2101 365.384 77.3461 365.624C77.4821 365.864 77.5501 366.12 77.5501 366.392C77.5501 366.752 77.4541 367.064 77.2621 367.328C77.0701 367.592 76.8101 367.796 76.4821 367.94C76.1541 368.076 75.7781 368.144 75.3541 368.144ZM82.5399 368L82.4919 367.016V364.832C82.4919 364.36 82.4399 363.972 82.3359 363.668C82.2319 363.356 82.0679 363.12 81.8439 362.96C81.6199 362.8 81.3279 362.72 80.9679 362.72C80.6399 362.72 80.3559 362.788 80.1159 362.924C79.8839 363.052 79.6919 363.26 79.5399 363.548L78.6759 363.212C78.8279 362.932 79.0119 362.692 79.2279 362.492C79.4439 362.284 79.6959 362.128 79.9839 362.024C80.2719 361.912 80.5999 361.856 80.9679 361.856C81.5279 361.856 81.9879 361.968 82.3479 362.192C82.7159 362.408 82.9919 362.732 83.1759 363.164C83.3599 363.588 83.4479 364.116 83.4399 364.748L83.4279 368H82.5399ZM80.7399 368.144C80.0359 368.144 79.4839 367.984 79.0839 367.664C78.6919 367.336 78.4959 366.884 78.4959 366.308C78.4959 365.7 78.6959 365.236 79.0959 364.916C79.5039 364.588 80.0719 364.424 80.7999 364.424H82.5159V365.228H81.0159C80.4559 365.228 80.0559 365.32 79.8159 365.504C79.5839 365.688 79.4679 365.952 79.4679 366.296C79.4679 366.608 79.5839 366.856 79.8159 367.04C80.0479 367.216 80.3719 367.304 80.7879 367.304C81.1319 367.304 81.4319 367.232 81.6879 367.088C81.9439 366.936 82.1399 366.724 82.2759 366.452C82.4199 366.172 82.4919 365.844 82.4919 365.468H82.8999C82.8999 366.284 82.7159 366.936 82.3479 367.424C81.9799 367.904 81.4439 368.144 80.7399 368.144ZM84.9611 368V359.6H85.9211V368H84.9611ZM89.1851 368V364.928H90.1451V368H89.1851ZM89.1851 364.928C89.1851 364.336 89.1131 363.884 88.9691 363.572C88.8331 363.26 88.6451 363.048 88.4051 362.936C88.1651 362.816 87.8931 362.756 87.5891 362.756C87.0611 362.756 86.6491 362.944 86.3531 363.32C86.0651 363.688 85.9211 364.212 85.9211 364.892H85.4531C85.4531 364.26 85.5451 363.716 85.7291 363.26C85.9211 362.804 86.1931 362.456 86.5451 362.216C86.8971 361.976 87.3211 361.856 87.8171 361.856C88.2811 361.856 88.6891 361.952 89.0411 362.144C89.3931 362.328 89.6651 362.624 89.8571 363.032C90.0571 363.44 90.1531 363.976 90.1451 364.64V364.928H89.1851ZM95.3485 368L95.3005 367.016V364.832C95.3005 364.36 95.2485 363.972 95.1445 363.668C95.0405 363.356 94.8765 363.12 94.6525 362.96C94.4285 362.8 94.1365 362.72 93.7765 362.72C93.4485 362.72 93.1645 362.788 92.9245 362.924C92.6925 363.052 92.5005 363.26 92.3485 363.548L91.4845 363.212C91.6365 362.932 91.8205 362.692 92.0365 362.492C92.2525 362.284 92.5045 362.128 92.7925 362.024C93.0805 361.912 93.4085 361.856 93.7765 361.856C94.3365 361.856 94.7965 361.968 95.1565 362.192C95.5245 362.408 95.8005 362.732 95.9845 363.164C96.1685 363.588 96.2565 364.116 96.2485 364.748L96.2365 368H95.3485ZM93.5485 368.144C92.8445 368.144 92.2925 367.984 91.8925 367.664C91.5005 367.336 91.3045 366.884 91.3045 366.308C91.3045 365.7 91.5045 365.236 91.9045 364.916C92.3125 364.588 92.8805 364.424 93.6085 364.424H95.3245V365.228H93.8245C93.2645 365.228 92.8645 365.32 92.6245 365.504C92.3925 365.688 92.2765 365.952 92.2765 366.296C92.2765 366.608 92.3925 366.856 92.6245 367.04C92.8565 367.216 93.1805 367.304 93.5965 367.304C93.9405 367.304 94.2405 367.232 94.4965 367.088C94.7525 366.936 94.9485 366.724 95.0845 366.452C95.2285 366.172 95.3005 365.844 95.3005 365.468H95.7085C95.7085 366.284 95.5245 366.936 95.1565 367.424C94.7885 367.904 94.2525 368.144 93.5485 368.144ZM101.466 368L101.418 367.016V364.832C101.418 364.36 101.366 363.972 101.262 363.668C101.158 363.356 100.994 363.12 100.77 362.96C100.546 362.8 100.254 362.72 99.8937 362.72C99.5657 362.72 99.2817 362.788 99.0417 362.924C98.8097 363.052 98.6177 363.26 98.4657 363.548L97.6017 363.212C97.7537 362.932 97.9377 362.692 98.1537 362.492C98.3697 362.284 98.6217 362.128 98.9097 362.024C99.1977 361.912 99.5257 361.856 99.8937 361.856C100.454 361.856 100.914 361.968 101.274 362.192C101.642 362.408 101.918 362.732 102.102 363.164C102.286 363.588 102.374 364.116 102.366 364.748L102.354 368H101.466ZM99.6657 368.144C98.9617 368.144 98.4097 367.984 98.0097 367.664C97.6177 367.336 97.4217 366.884 97.4217 366.308C97.4217 365.7 97.6217 365.236 98.0217 364.916C98.4297 364.588 98.9977 364.424 99.7257 364.424H101.442V365.228H99.9417C99.3817 365.228 98.9817 365.32 98.7417 365.504C98.5097 365.688 98.3937 365.952 98.3937 366.296C98.3937 366.608 98.5097 366.856 98.7417 367.04C98.9737 367.216 99.2977 367.304 99.7137 367.304C100.058 367.304 100.358 367.232 100.614 367.088C100.87 366.936 101.066 366.724 101.202 366.452C101.346 366.172 101.418 365.844 101.418 365.468H101.826C101.826 366.284 101.642 366.936 101.274 367.424C100.906 367.904 100.37 368.144 99.6657 368.144ZM103.887 368V362H104.787L104.847 363.104V368H103.887ZM108.099 368V364.928H109.059V368H108.099ZM108.099 364.928C108.099 364.336 108.031 363.884 107.895 363.572C107.759 363.26 107.571 363.048 107.331 362.936C107.091 362.816 106.819 362.756 106.515 362.756C105.987 362.756 105.575 362.944 105.279 363.32C104.991 363.688 104.847 364.212 104.847 364.892H104.379C104.379 364.26 104.471 363.716 104.655 363.26C104.839 362.804 105.107 362.456 105.459 362.216C105.811 361.976 106.235 361.856 106.731 361.856C107.203 361.856 107.611 361.952 107.955 362.144C108.307 362.328 108.579 362.624 108.771 363.032C108.971 363.44 109.067 363.976 109.059 364.64V364.928H108.099ZM115.379 369.2C115.011 368.712 114.675 368.184 114.371 367.616C114.067 367.04 113.827 366.432 113.651 365.792C113.475 365.152 113.387 364.488 113.387 363.8C113.387 363.104 113.475 362.44 113.651 361.808C113.827 361.168 114.067 360.564 114.371 359.996C114.675 359.42 115.011 358.888 115.379 358.4H116.363C115.995 358.912 115.659 359.46 115.355 360.044C115.051 360.628 114.811 361.236 114.635 361.868C114.459 362.492 114.371 363.136 114.371 363.8C114.371 364.456 114.459 365.1 114.635 365.732C114.811 366.364 115.051 366.972 115.355 367.556C115.659 368.132 115.995 368.68 116.363 369.2H115.379ZM119.526 368V360.14L119.61 359.6H120.522V368H119.526ZM117.642 361.76V360.836C117.81 360.844 118.01 360.788 118.242 360.668C118.474 360.548 118.714 360.392 118.962 360.2C119.21 360.008 119.426 359.808 119.61 359.6L120.234 360.284C119.97 360.564 119.694 360.816 119.406 361.04C119.118 361.264 118.826 361.444 118.53 361.58C118.234 361.708 117.938 361.768 117.642 361.76ZM125.719 368.144C125.079 368.144 124.511 367.96 124.015 367.592C123.519 367.216 123.131 366.704 122.851 366.056C122.571 365.4 122.431 364.648 122.431 363.8C122.431 362.952 122.571 362.204 122.851 361.556C123.131 360.9 123.515 360.388 124.003 360.02C124.499 359.644 125.071 359.456 125.719 359.456C126.367 359.456 126.935 359.644 127.423 360.02C127.919 360.388 128.307 360.9 128.587 361.556C128.875 362.204 129.019 362.952 129.019 363.8C129.019 364.648 128.879 365.4 128.599 366.056C128.319 366.704 127.931 367.216 127.435 367.592C126.939 367.96 126.367 368.144 125.719 368.144ZM125.719 367.232C126.167 367.232 126.563 367.084 126.907 366.788C127.259 366.492 127.531 366.088 127.723 365.576C127.923 365.064 128.023 364.472 128.023 363.8C128.023 363.128 127.923 362.536 127.723 362.024C127.531 361.504 127.259 361.1 126.907 360.812C126.563 360.516 126.167 360.368 125.719 360.368C125.271 360.368 124.875 360.516 124.531 360.812C124.187 361.1 123.915 361.504 123.715 362.024C123.523 362.536 123.427 363.128 123.427 363.8C123.427 364.472 123.523 365.064 123.715 365.576C123.915 366.088 124.187 366.492 124.531 366.788C124.883 367.084 125.279 367.232 125.719 367.232ZM130.73 368L136.694 359.6H137.81L131.81 368H130.73ZM136.55 368.192C136.19 368.192 135.866 368.108 135.578 367.94C135.298 367.764 135.078 367.528 134.918 367.232C134.766 366.928 134.69 366.584 134.69 366.2C134.69 365.808 134.766 365.464 134.918 365.168C135.078 364.872 135.298 364.64 135.578 364.472C135.866 364.296 136.19 364.208 136.55 364.208C136.918 364.208 137.242 364.296 137.522 364.472C137.802 364.64 138.022 364.872 138.182 365.168C138.342 365.464 138.422 365.808 138.422 366.2C138.422 366.584 138.342 366.928 138.182 367.232C138.022 367.528 137.802 367.764 137.522 367.94C137.242 368.108 136.918 368.192 136.55 368.192ZM136.55 367.424C136.862 367.424 137.114 367.308 137.306 367.076C137.498 366.844 137.594 366.552 137.594 366.2C137.594 365.848 137.498 365.556 137.306 365.324C137.114 365.092 136.862 364.976 136.55 364.976C136.254 364.976 136.006 365.092 135.806 365.324C135.614 365.556 135.518 365.848 135.518 366.2C135.518 366.552 135.614 366.844 135.806 367.076C136.006 367.308 136.254 367.424 136.55 367.424ZM132.002 363.392C131.634 363.392 131.31 363.308 131.03 363.14C130.75 362.964 130.53 362.728 130.37 362.432C130.21 362.128 130.13 361.784 130.13 361.4C130.13 361.008 130.21 360.664 130.37 360.368C130.53 360.072 130.75 359.84 131.03 359.672C131.31 359.496 131.634 359.408 132.002 359.408C132.37 359.408 132.694 359.496 132.974 359.672C133.254 359.84 133.474 360.072 133.634 360.368C133.794 360.664 133.874 361.008 133.874 361.4C133.874 361.784 133.794 362.128 133.634 362.432C133.474 362.728 133.254 362.964 132.974 363.14C132.694 363.308 132.37 363.392 132.002 363.392ZM132.002 362.624C132.306 362.624 132.554 362.508 132.746 362.276C132.938 362.044 133.034 361.752 133.034 361.4C133.034 361.048 132.938 360.756 132.746 360.524C132.554 360.292 132.306 360.176 132.002 360.176C131.706 360.176 131.458 360.292 131.258 360.524C131.066 360.756 130.97 361.048 130.97 361.4C130.97 361.752 131.066 362.044 131.258 362.276C131.458 362.508 131.706 362.624 132.002 362.624ZM140.548 369.2H139.564C139.94 368.68 140.276 368.132 140.572 367.556C140.876 366.972 141.116 366.364 141.292 365.732C141.468 365.1 141.556 364.456 141.556 363.8C141.556 363.136 141.468 362.492 141.292 361.868C141.116 361.236 140.876 360.628 140.572 360.044C140.276 359.46 139.94 358.912 139.564 358.4H140.548C140.924 358.888 141.26 359.42 141.556 359.996C141.86 360.564 142.1 361.168 142.276 361.808C142.452 362.44 142.54 363.104 142.54 363.8C142.54 364.488 142.452 365.152 142.276 365.792C142.1 366.432 141.86 367.04 141.556 367.616C141.26 368.184 140.924 368.712 140.548 369.2Z" fill="#667085"/>
</svg>
