<svg width="720" height="394" viewBox="0 0 720 394" fill="none" xmlns="http://www.w3.org/2000/svg">
<g clip-path="url(#clip0_516_19644)">
<path d="M13 227.168L11.86 227.168L11.86 226.676C11.86 226.252 11.736 225.916 11.488 225.668C11.232 225.42 10.888 225.296 10.456 225.296L4.06 225.296L4.06 224.108L10.432 224.108C10.952 224.108 11.404 224.216 11.788 224.432C12.172 224.64 12.472 224.936 12.688 225.32C12.896 225.704 13 226.156 13 226.676L13 227.168ZM13.144 219.983C13.144 220.447 13.036 220.867 12.82 221.243C12.604 221.611 12.304 221.899 11.92 222.107C11.528 222.307 11.08 222.407 10.576 222.407L6.532 222.407L6.532 221.291L10.456 221.291C10.776 221.291 11.056 221.227 11.296 221.099C11.536 220.963 11.724 220.779 11.86 220.547C11.996 220.307 12.064 220.035 12.064 219.731C12.064 219.427 11.996 219.159 11.86 218.927C11.724 218.687 11.528 218.503 11.272 218.375C11.016 218.239 10.712 218.171 10.36 218.171L6.532 218.171L6.532 217.043L13 217.043L13 218.135L11.74 218.135L11.848 217.955C12.256 218.107 12.576 218.367 12.808 218.735C13.032 219.095 13.144 219.511 13.144 219.983ZM13 215.314L6.532 215.314L6.532 214.222L7.852 214.222L7.648 214.378C7.24 214.218 6.928 213.962 6.712 213.61C6.496 213.258 6.388 212.862 6.388 212.422C6.388 211.918 6.528 211.466 6.808 211.066C7.088 210.658 7.456 210.378 7.912 210.226L7.924 210.538C7.42 210.37 7.04 210.086 6.784 209.686C6.52 209.286 6.388 208.842 6.388 208.354C6.388 207.906 6.492 207.502 6.7 207.142C6.908 206.774 7.196 206.482 7.564 206.266C7.932 206.05 8.348 205.942 8.812 205.942L13 205.942L13 207.07L9.172 207.07C8.812 207.07 8.508 207.134 8.26 207.262C8.012 207.39 7.82 207.566 7.684 207.79C7.54 208.006 7.468 208.262 7.468 208.558C7.468 208.846 7.54 209.106 7.684 209.338C7.82 209.562 8.016 209.742 8.272 209.878C8.52 210.006 8.82 210.07 9.172 210.07L13 210.07L13 211.198L9.172 211.198C8.812 211.198 8.508 211.262 8.26 211.39C8.012 211.518 7.82 211.694 7.684 211.918C7.54 212.134 7.468 212.39 7.468 212.686C7.468 212.974 7.54 213.234 7.684 213.466C7.82 213.69 8.016 213.87 8.272 214.006C8.52 214.134 8.82 214.198 9.172 214.198L13 214.198L13 215.314ZM13 204.357L3.916 204.357L3.916 203.241L13 203.241L13 204.357ZM13.144 199.613C13.144 200.037 13.068 200.413 12.916 200.741C12.756 201.061 12.54 201.313 12.268 201.497C11.988 201.681 11.668 201.773 11.308 201.773C10.964 201.773 10.656 201.701 10.384 201.557C10.104 201.405 9.868 201.173 9.676 200.861C9.484 200.541 9.348 200.141 9.268 199.661L8.872 197.261L9.808 197.261L10.168 199.409C10.24 199.825 10.372 200.129 10.564 200.321C10.756 200.505 10.992 200.597 11.272 200.597C11.536 200.597 11.756 200.493 11.932 200.285C12.108 200.069 12.196 199.801 12.196 199.481C12.196 199.073 12.112 198.721 11.944 198.425C11.768 198.121 11.532 197.885 11.236 197.717C10.94 197.541 10.612 197.453 10.252 197.453L8.608 197.453C8.256 197.453 7.972 197.585 7.756 197.849C7.532 198.105 7.42 198.445 7.42 198.869C7.42 199.237 7.516 199.565 7.708 199.853C7.892 200.133 8.14 200.341 8.452 200.477L7.948 201.449C7.652 201.329 7.388 201.137 7.156 200.873C6.916 200.609 6.728 200.301 6.592 199.949C6.456 199.597 6.388 199.229 6.388 198.845C6.388 198.349 6.484 197.913 6.676 197.537C6.86 197.161 7.12 196.869 7.456 196.661C7.784 196.445 8.168 196.337 8.608 196.337L13 196.337L13 197.429L11.776 197.429L11.848 197.225C12.104 197.361 12.328 197.545 12.52 197.777C12.712 198.009 12.864 198.281 12.976 198.593C13.088 198.905 13.144 199.245 13.144 199.613ZM13 194.607L3.916 194.607L3.916 193.491L7.792 193.491L7.684 193.695C7.276 193.535 6.96 193.279 6.736 192.927C6.504 192.567 6.388 192.147 6.388 191.667C6.388 191.203 6.492 190.791 6.7 190.431C6.908 190.063 7.196 189.775 7.564 189.567C7.932 189.351 8.348 189.243 8.812 189.243L13 189.243L13 190.371L9.172 190.371C8.812 190.371 8.508 190.439 8.26 190.575C8.012 190.703 7.82 190.883 7.684 191.115C7.54 191.347 7.468 191.615 7.468 191.919C7.468 192.215 7.54 192.483 7.684 192.723C7.82 192.963 8.016 193.151 8.272 193.287C8.52 193.423 8.82 193.491 9.172 193.491L13 193.491L13 194.607ZM13 185.44L4.06 185.44L4.06 182.284C4.06 181.692 4.172 181.172 4.396 180.724C4.62 180.276 4.94 179.928 5.356 179.68C5.772 179.424 6.26 179.296 6.82 179.296C7.38 179.296 7.868 179.424 8.284 179.68C8.692 179.928 9.012 180.276 9.244 180.724C9.468 181.164 9.58 181.684 9.58 182.284L9.58 184.264L13 184.264L13 185.44ZM8.5 184.264L8.5 182.248C8.5 181.888 8.432 181.576 8.296 181.312C8.16 181.048 7.964 180.844 7.708 180.7C7.452 180.556 7.156 180.484 6.82 180.484C6.476 180.484 6.18 180.556 5.932 180.7C5.676 180.844 5.48 181.048 5.344 181.312C5.208 181.576 5.14 181.888 5.14 182.248L5.14 184.264L8.5 184.264ZM13.144 175.096C13.144 175.72 12.996 176.276 12.7 176.764C12.404 177.252 12 177.636 11.488 177.916C10.968 178.196 10.388 178.336 9.748 178.336C9.1 178.336 8.524 178.2 8.02 177.928C7.516 177.648 7.12 177.272 6.832 176.8C6.536 176.32 6.388 175.784 6.388 175.192C6.388 174.712 6.476 174.288 6.652 173.92C6.82 173.544 7.052 173.228 7.348 172.972C7.636 172.708 7.968 172.508 8.344 172.372C8.712 172.228 9.096 172.156 9.496 172.156C9.584 172.156 9.684 172.164 9.796 172.18C9.9 172.188 10 172.2 10.096 172.216L10.096 177.52L9.136 177.52L9.136 172.864L9.568 173.392C9.152 173.32 8.78 173.36 8.452 173.512C8.124 173.664 7.864 173.888 7.672 174.184C7.48 174.48 7.384 174.816 7.384 175.192C7.384 175.568 7.48 175.912 7.672 176.224C7.864 176.536 8.14 176.78 8.5 176.956C8.852 177.124 9.272 177.192 9.76 177.16C10.232 177.192 10.648 177.12 11.008 176.944C11.36 176.76 11.636 176.504 11.836 176.176C12.028 175.84 12.124 175.476 12.124 175.084C12.124 174.652 12.024 174.288 11.824 173.992C11.624 173.696 11.368 173.456 11.056 173.272L11.536 172.336C11.832 172.464 12.104 172.664 12.352 172.936C12.592 173.2 12.784 173.516 12.928 173.884C13.072 174.244 13.144 174.648 13.144 175.096ZM13.144 168.384C13.144 169.032 12.984 169.596 12.664 170.076C12.344 170.556 11.912 170.896 11.368 171.096L10.936 170.208C11.32 170.024 11.624 169.772 11.848 169.452C12.072 169.132 12.184 168.776 12.184 168.384C12.184 168.032 12.1 167.74 11.932 167.508C11.764 167.276 11.544 167.16 11.272 167.16C11.08 167.16 10.928 167.216 10.816 167.328C10.696 167.432 10.604 167.56 10.54 167.712C10.468 167.864 10.416 168.004 10.384 168.132L10.108 169.104C9.94 169.688 9.7 170.116 9.388 170.388C9.076 170.652 8.712 170.784 8.296 170.784C7.912 170.784 7.58 170.688 7.3 170.496C7.012 170.296 6.788 170.028 6.628 169.692C6.468 169.348 6.388 168.964 6.388 168.54C6.388 167.972 6.532 167.464 6.82 167.016C7.108 166.56 7.512 166.236 8.032 166.044L8.452 166.956C8.116 167.1 7.852 167.316 7.66 167.604C7.46 167.892 7.36 168.216 7.36 168.576C7.36 168.904 7.444 169.164 7.612 169.356C7.772 169.548 7.976 169.644 8.224 169.644C8.408 169.644 8.56 169.596 8.68 169.5C8.792 169.404 8.88 169.288 8.944 169.152C9 169.016 9.048 168.884 9.088 168.756L9.4 167.7C9.552 167.172 9.788 166.764 10.108 166.476C10.428 166.18 10.812 166.032 11.26 166.032C11.62 166.032 11.944 166.132 12.232 166.332C12.52 166.532 12.744 166.808 12.904 167.16C13.064 167.512 13.144 167.92 13.144 168.384ZM13.144 161.596C13.144 162.22 12.996 162.776 12.7 163.264C12.404 163.752 12 164.136 11.488 164.416C10.968 164.696 10.388 164.836 9.748 164.836C9.1 164.836 8.524 164.7 8.02 164.428C7.516 164.148 7.12 163.772 6.832 163.3C6.536 162.82 6.388 162.284 6.388 161.692C6.388 161.212 6.476 160.788 6.652 160.42C6.82 160.044 7.052 159.728 7.348 159.472C7.636 159.208 7.968 159.008 8.344 158.872C8.712 158.728 9.096 158.656 9.496 158.656C9.584 158.656 9.684 158.664 9.796 158.68C9.9 158.688 10 158.7 10.096 158.716L10.096 164.02L9.136 164.02L9.136 159.364L9.568 159.892C9.152 159.82 8.78 159.86 8.452 160.012C8.124 160.164 7.864 160.388 7.672 160.684C7.48 160.98 7.384 161.316 7.384 161.692C7.384 162.068 7.48 162.412 7.672 162.724C7.864 163.036 8.14 163.28 8.5 163.456C8.852 163.624 9.272 163.692 9.76 163.66C10.232 163.692 10.648 163.62 11.008 163.444C11.36 163.26 11.636 163.004 11.836 162.676C12.028 162.34 12.124 161.976 12.124 161.584C12.124 161.152 12.024 160.788 11.824 160.492C11.624 160.196 11.368 159.956 11.056 159.772L11.536 158.836C11.832 158.964 12.104 159.164 12.352 159.436C12.592 159.7 12.784 160.016 12.928 160.384C13.072 160.744 13.144 161.148 13.144 161.596ZM13 157.2L6.532 157.2L6.532 156.108L7.72 156.108L7.552 156.228C7.184 156.076 6.912 155.844 6.736 155.532C6.552 155.22 6.46 154.84 6.46 154.392L6.46 153.996L7.516 153.996L7.516 154.56C7.516 155.016 7.66 155.384 7.948 155.664C8.228 155.944 8.628 156.084 9.148 156.084L13 156.084L13 157.2ZM13.072 150.319C13.072 150.951 12.892 151.439 12.532 151.783C12.172 152.119 11.664 152.287 11.008 152.287L7.6 152.287L7.6 153.463L6.532 153.463L6.532 153.223C6.532 152.935 6.444 152.707 6.268 152.539C6.092 152.371 5.86 152.287 5.572 152.287L5.044 152.287L5.044 151.171L6.532 151.171L6.532 149.719L7.6 149.719L7.6 151.171L10.972 151.171C11.188 151.171 11.376 151.139 11.536 151.075C11.696 151.003 11.824 150.887 11.92 150.727C12.008 150.567 12.052 150.355 12.052 150.091C12.052 150.035 12.048 149.967 12.04 149.887C12.032 149.799 12.024 149.719 12.016 149.647L13 149.647C13.024 149.751 13.04 149.867 13.048 149.995C13.064 150.123 13.072 150.231 13.072 150.319ZM13.144 146.375C13.144 146.799 13.068 147.175 12.916 147.503C12.756 147.823 12.54 148.075 12.268 148.259C11.988 148.443 11.668 148.535 11.308 148.535C10.964 148.535 10.656 148.463 10.384 148.319C10.104 148.167 9.868 147.935 9.676 147.623C9.484 147.303 9.348 146.903 9.268 146.423L8.872 144.023L9.808 144.023L10.168 146.171C10.24 146.587 10.372 146.891 10.564 147.083C10.756 147.267 10.992 147.359 11.272 147.359C11.536 147.359 11.756 147.255 11.932 147.047C12.108 146.831 12.196 146.563 12.196 146.243C12.196 145.835 12.112 145.483 11.944 145.187C11.768 144.883 11.532 144.647 11.236 144.479C10.94 144.303 10.612 144.215 10.252 144.215L8.608 144.215C8.256 144.215 7.972 144.347 7.756 144.611C7.532 144.867 7.42 145.207 7.42 145.631C7.42 145.999 7.516 146.327 7.708 146.615C7.892 146.895 8.14 147.103 8.452 147.239L7.948 148.211C7.652 148.091 7.388 147.899 7.156 147.635C6.916 147.371 6.728 147.063 6.592 146.711C6.456 146.359 6.388 145.991 6.388 145.607C6.388 145.111 6.484 144.675 6.676 144.299C6.86 143.923 7.12 143.631 7.456 143.423C7.784 143.207 8.168 143.099 8.608 143.099L13 143.099L13 144.191L11.776 144.191L11.848 143.987C12.104 144.123 12.328 144.307 12.52 144.539C12.712 144.771 12.864 145.043 12.976 145.355C13.088 145.667 13.144 146.007 13.144 146.375Z" fill="#667085"/>
<path d="M22.7742 63V55.575H21.2342V54.805H23.6542V63H22.7742ZM25.7452 64.43V64.045C25.9652 63.9863 26.1266 63.8727 26.2292 63.704C26.3319 63.5353 26.3832 63.3007 26.3832 63H25.9652V61.79H26.8452V62.714C26.8452 63.1907 26.7536 63.572 26.5702 63.858C26.3869 64.1513 26.1119 64.342 25.7452 64.43ZM31.8671 63.132C31.2217 63.132 30.6534 62.956 30.1621 62.604C29.6781 62.2447 29.3004 61.7497 29.0291 61.119C28.7577 60.481 28.6221 59.7403 28.6221 58.897C28.6221 58.0537 28.7577 57.3167 29.0291 56.686C29.3004 56.048 29.6781 55.553 30.1621 55.201C30.6461 54.849 31.2107 54.673 31.8561 54.673C32.5014 54.673 33.0661 54.849 33.5501 55.201C34.0341 55.553 34.4117 56.048 34.6831 56.686C34.9544 57.3167 35.0901 58.0537 35.0901 58.897C35.0901 59.7403 34.9544 60.481 34.6831 61.119C34.4191 61.757 34.0451 62.252 33.5611 62.604C33.0771 62.956 32.5124 63.132 31.8671 63.132ZM31.8671 62.307C32.3364 62.307 32.7471 62.164 33.0991 61.878C33.4511 61.592 33.7261 61.196 33.9241 60.69C34.1221 60.1767 34.2211 59.579 34.2211 58.897C34.2211 58.215 34.1221 57.621 33.9241 57.115C33.7261 56.6017 33.4511 56.2057 33.0991 55.927C32.7471 55.641 32.3327 55.498 31.8561 55.498C31.3867 55.498 30.9761 55.641 30.6241 55.927C30.2721 56.2057 29.9971 56.6017 29.7991 57.115C29.6011 57.621 29.5021 58.215 29.5021 58.897C29.5021 59.5717 29.6011 60.1657 29.7991 60.679C29.9971 61.1923 30.2721 61.592 30.6241 61.878C30.9834 62.164 31.3977 62.307 31.8671 62.307ZM39.9237 63.132C39.2784 63.132 38.7101 62.956 38.2187 62.604C37.7347 62.2447 37.3571 61.7497 37.0857 61.119C36.8144 60.481 36.6787 59.7403 36.6787 58.897C36.6787 58.0537 36.8144 57.3167 37.0857 56.686C37.3571 56.048 37.7347 55.553 38.2187 55.201C38.7027 54.849 39.2674 54.673 39.9127 54.673C40.5581 54.673 41.1227 54.849 41.6067 55.201C42.0907 55.553 42.4684 56.048 42.7397 56.686C43.0111 57.3167 43.1467 58.0537 43.1467 58.897C43.1467 59.7403 43.0111 60.481 42.7397 61.119C42.4757 61.757 42.1017 62.252 41.6177 62.604C41.1337 62.956 40.5691 63.132 39.9237 63.132ZM39.9237 62.307C40.3931 62.307 40.8037 62.164 41.1557 61.878C41.5077 61.592 41.7827 61.196 41.9807 60.69C42.1787 60.1767 42.2777 59.579 42.2777 58.897C42.2777 58.215 42.1787 57.621 41.9807 57.115C41.7827 56.6017 41.5077 56.2057 41.1557 55.927C40.8037 55.641 40.3894 55.498 39.9127 55.498C39.4434 55.498 39.0327 55.641 38.6807 55.927C38.3287 56.2057 38.0537 56.6017 37.8557 57.115C37.6577 57.621 37.5587 58.215 37.5587 58.897C37.5587 59.5717 37.6577 60.1657 37.8557 60.679C38.0537 61.1923 38.3287 61.592 38.6807 61.878C39.0401 62.164 39.4544 62.307 39.9237 62.307ZM47.9804 63.132C47.335 63.132 46.7667 62.956 46.2754 62.604C45.7914 62.2447 45.4137 61.7497 45.1424 61.119C44.871 60.481 44.7354 59.7403 44.7354 58.897C44.7354 58.0537 44.871 57.3167 45.1424 56.686C45.4137 56.048 45.7914 55.553 46.2754 55.201C46.7594 54.849 47.324 54.673 47.9694 54.673C48.6147 54.673 49.1794 54.849 49.6634 55.201C50.1474 55.553 50.525 56.048 50.7964 56.686C51.0677 57.3167 51.2034 58.0537 51.2034 58.897C51.2034 59.7403 51.0677 60.481 50.7964 61.119C50.5324 61.757 50.1584 62.252 49.6744 62.604C49.1904 62.956 48.6257 63.132 47.9804 63.132ZM47.9804 62.307C48.4497 62.307 48.8604 62.164 49.2124 61.878C49.5644 61.592 49.8394 61.196 50.0374 60.69C50.2354 60.1767 50.3344 59.579 50.3344 58.897C50.3344 58.215 50.2354 57.621 50.0374 57.115C49.8394 56.6017 49.5644 56.2057 49.2124 55.927C48.8604 55.641 48.446 55.498 47.9694 55.498C47.5 55.498 47.0894 55.641 46.7374 55.927C46.3854 56.2057 46.1104 56.6017 45.9124 57.115C45.7144 57.621 45.6154 58.215 45.6154 58.897C45.6154 59.5717 45.7144 60.1657 45.9124 60.679C46.1104 61.1923 46.3854 61.592 46.7374 61.878C47.0967 62.164 47.511 62.307 47.9804 62.307Z" fill="#667085"/>
<line x1="60.5" y1="59" x2="719.5" y2="59" stroke="#F2F4F7" stroke-linecap="round"/>
<path d="M32.4335 112.832C31.9055 112.832 31.4325 112.726 31.0145 112.513C30.6038 112.293 30.2775 111.996 30.0355 111.622C29.8008 111.241 29.6835 110.812 29.6835 110.335C29.6835 109.814 29.8302 109.349 30.1235 108.938C30.4242 108.527 30.8275 108.241 31.3335 108.08V108.311C30.9448 108.142 30.6442 107.893 30.4315 107.563C30.2188 107.226 30.1125 106.866 30.1125 106.485C30.1125 106.082 30.2152 105.722 30.4205 105.407C30.6258 105.092 30.9008 104.842 31.2455 104.659C31.5975 104.468 31.9935 104.373 32.4335 104.373C32.8808 104.373 33.2768 104.465 33.6215 104.648C33.9662 104.824 34.2375 105.073 34.4355 105.396C34.6408 105.711 34.7435 106.074 34.7435 106.485C34.7435 106.896 34.6335 107.262 34.4135 107.585C34.1935 107.9 33.9038 108.142 33.5445 108.311L33.5335 108.08C34.0395 108.241 34.4392 108.527 34.7325 108.938C35.0332 109.349 35.1835 109.814 35.1835 110.335C35.1835 110.812 35.0625 111.241 34.8205 111.622C34.5858 111.996 34.2595 112.293 33.8415 112.513C33.4308 112.726 32.9615 112.832 32.4335 112.832ZM32.4335 112.062C32.8075 112.062 33.1338 111.992 33.4125 111.853C33.6912 111.706 33.9075 111.505 34.0615 111.248C34.2228 110.984 34.3035 110.68 34.3035 110.335C34.3035 109.99 34.2228 109.69 34.0615 109.433C33.9075 109.169 33.6912 108.967 33.4125 108.828C33.1338 108.681 32.8075 108.608 32.4335 108.608C32.0595 108.608 31.7295 108.681 31.4435 108.828C31.1648 108.967 30.9485 109.169 30.7945 109.433C30.6405 109.69 30.5635 109.99 30.5635 110.335C30.5635 110.68 30.6405 110.984 30.7945 111.248C30.9485 111.505 31.1648 111.706 31.4435 111.853C31.7295 111.992 32.0595 112.062 32.4335 112.062ZM32.4335 107.838C32.7048 107.838 32.9468 107.783 33.1595 107.673C33.3722 107.556 33.5408 107.398 33.6655 107.2C33.7975 106.995 33.8635 106.756 33.8635 106.485C33.8635 106.214 33.7975 105.979 33.6655 105.781C33.5408 105.583 33.3722 105.429 33.1595 105.319C32.9468 105.202 32.7048 105.143 32.4335 105.143C32.1622 105.143 31.9165 105.202 31.6965 105.319C31.4838 105.429 31.3115 105.583 31.1795 105.781C31.0548 105.979 30.9925 106.214 30.9925 106.485C30.9925 106.756 31.0548 106.995 31.1795 107.2C31.3115 107.398 31.4838 107.556 31.6965 107.673C31.9165 107.783 32.1622 107.838 32.4335 107.838ZM39.9237 112.832C39.2784 112.832 38.7101 112.656 38.2187 112.304C37.7347 111.945 37.3571 111.45 37.0857 110.819C36.8144 110.181 36.6787 109.44 36.6787 108.597C36.6787 107.754 36.8144 107.017 37.0857 106.386C37.3571 105.748 37.7347 105.253 38.2187 104.901C38.7027 104.549 39.2674 104.373 39.9127 104.373C40.5581 104.373 41.1227 104.549 41.6067 104.901C42.0907 105.253 42.4684 105.748 42.7397 106.386C43.0111 107.017 43.1467 107.754 43.1467 108.597C43.1467 109.44 43.0111 110.181 42.7397 110.819C42.4757 111.457 42.1017 111.952 41.6177 112.304C41.1337 112.656 40.5691 112.832 39.9237 112.832ZM39.9237 112.007C40.3931 112.007 40.8037 111.864 41.1557 111.578C41.5077 111.292 41.7827 110.896 41.9807 110.39C42.1787 109.877 42.2777 109.279 42.2777 108.597C42.2777 107.915 42.1787 107.321 41.9807 106.815C41.7827 106.302 41.5077 105.906 41.1557 105.627C40.8037 105.341 40.3894 105.198 39.9127 105.198C39.4434 105.198 39.0327 105.341 38.6807 105.627C38.3287 105.906 38.0537 106.302 37.8557 106.815C37.6577 107.321 37.5587 107.915 37.5587 108.597C37.5587 109.272 37.6577 109.866 37.8557 110.379C38.0537 110.892 38.3287 111.292 38.6807 111.578C39.0401 111.864 39.4544 112.007 39.9237 112.007ZM47.9804 112.832C47.335 112.832 46.7667 112.656 46.2754 112.304C45.7914 111.945 45.4137 111.45 45.1424 110.819C44.871 110.181 44.7354 109.44 44.7354 108.597C44.7354 107.754 44.871 107.017 45.1424 106.386C45.4137 105.748 45.7914 105.253 46.2754 104.901C46.7594 104.549 47.324 104.373 47.9694 104.373C48.6147 104.373 49.1794 104.549 49.6634 104.901C50.1474 105.253 50.525 105.748 50.7964 106.386C51.0677 107.017 51.2034 107.754 51.2034 108.597C51.2034 109.44 51.0677 110.181 50.7964 110.819C50.5324 111.457 50.1584 111.952 49.6744 112.304C49.1904 112.656 48.6257 112.832 47.9804 112.832ZM47.9804 112.007C48.4497 112.007 48.8604 111.864 49.2124 111.578C49.5644 111.292 49.8394 110.896 50.0374 110.39C50.2354 109.877 50.3344 109.279 50.3344 108.597C50.3344 107.915 50.2354 107.321 50.0374 106.815C49.8394 106.302 49.5644 105.906 49.2124 105.627C48.8604 105.341 48.446 105.198 47.9694 105.198C47.5 105.198 47.0894 105.341 46.7374 105.627C46.3854 105.906 46.1104 106.302 45.9124 106.815C45.7144 107.321 45.6154 107.915 45.6154 108.597C45.6154 109.272 45.7144 109.866 45.9124 110.379C46.1104 110.892 46.3854 111.292 46.7374 111.578C47.0967 111.864 47.511 112.007 47.9804 112.007Z" fill="#667085"/>
<line x1="60.5" y1="108.7" x2="719.5" y2="108.7" stroke="#F2F4F7" stroke-linecap="round"/>
<path d="M32.6232 160.032C32.1099 160.032 31.6552 159.918 31.2592 159.691C30.8632 159.456 30.5516 159.137 30.3242 158.734C30.0969 158.323 29.9832 157.854 29.9832 157.326C29.9832 157.033 30.0162 156.743 30.0822 156.457C30.1556 156.171 30.2619 155.889 30.4012 155.61C30.5479 155.331 30.7239 155.053 30.9292 154.774L33.2392 151.705H34.2952L31.4462 155.434L31.2812 155.533C31.3912 155.35 31.5196 155.21 31.6662 155.115C31.8129 155.012 31.9742 154.939 32.1502 154.895C32.3336 154.851 32.5279 154.829 32.7332 154.829C33.2099 154.829 33.6389 154.943 34.0202 155.17C34.4016 155.39 34.7022 155.694 34.9222 156.083C35.1496 156.472 35.2632 156.923 35.2632 157.436C35.2632 157.927 35.1459 158.371 34.9112 158.767C34.6839 159.156 34.3722 159.464 33.9762 159.691C33.5802 159.918 33.1292 160.032 32.6232 160.032ZM32.6232 159.262C32.9606 159.262 33.2612 159.185 33.5252 159.031C33.7892 158.87 33.9982 158.65 34.1522 158.371C34.3062 158.092 34.3832 157.781 34.3832 157.436C34.3832 157.084 34.3062 156.772 34.1522 156.501C34.0056 156.23 33.8002 156.017 33.5362 155.863C33.2722 155.702 32.9679 155.621 32.6232 155.621C32.2859 155.621 31.9816 155.702 31.7102 155.863C31.4462 156.017 31.2372 156.23 31.0832 156.501C30.9366 156.772 30.8632 157.084 30.8632 157.436C30.8632 157.781 30.9402 158.092 31.0942 158.371C31.2482 158.65 31.4572 158.87 31.7212 159.031C31.9852 159.185 32.2859 159.262 32.6232 159.262ZM39.9237 160.032C39.2784 160.032 38.7101 159.856 38.2187 159.504C37.7347 159.145 37.3571 158.65 37.0857 158.019C36.8144 157.381 36.6787 156.64 36.6787 155.797C36.6787 154.954 36.8144 154.217 37.0857 153.586C37.3571 152.948 37.7347 152.453 38.2187 152.101C38.7027 151.749 39.2674 151.573 39.9127 151.573C40.5581 151.573 41.1227 151.749 41.6067 152.101C42.0907 152.453 42.4684 152.948 42.7397 153.586C43.0111 154.217 43.1467 154.954 43.1467 155.797C43.1467 156.64 43.0111 157.381 42.7397 158.019C42.4757 158.657 42.1017 159.152 41.6177 159.504C41.1337 159.856 40.5691 160.032 39.9237 160.032ZM39.9237 159.207C40.3931 159.207 40.8037 159.064 41.1557 158.778C41.5077 158.492 41.7827 158.096 41.9807 157.59C42.1787 157.077 42.2777 156.479 42.2777 155.797C42.2777 155.115 42.1787 154.521 41.9807 154.015C41.7827 153.502 41.5077 153.106 41.1557 152.827C40.8037 152.541 40.3894 152.398 39.9127 152.398C39.4434 152.398 39.0327 152.541 38.6807 152.827C38.3287 153.106 38.0537 153.502 37.8557 154.015C37.6577 154.521 37.5587 155.115 37.5587 155.797C37.5587 156.472 37.6577 157.066 37.8557 157.579C38.0537 158.092 38.3287 158.492 38.6807 158.778C39.0401 159.064 39.4544 159.207 39.9237 159.207ZM47.9804 160.032C47.335 160.032 46.7667 159.856 46.2754 159.504C45.7914 159.145 45.4137 158.65 45.1424 158.019C44.871 157.381 44.7354 156.64 44.7354 155.797C44.7354 154.954 44.871 154.217 45.1424 153.586C45.4137 152.948 45.7914 152.453 46.2754 152.101C46.7594 151.749 47.324 151.573 47.9694 151.573C48.6147 151.573 49.1794 151.749 49.6634 152.101C50.1474 152.453 50.525 152.948 50.7964 153.586C51.0677 154.217 51.2034 154.954 51.2034 155.797C51.2034 156.64 51.0677 157.381 50.7964 158.019C50.5324 158.657 50.1584 159.152 49.6744 159.504C49.1904 159.856 48.6257 160.032 47.9804 160.032ZM47.9804 159.207C48.4497 159.207 48.8604 159.064 49.2124 158.778C49.5644 158.492 49.8394 158.096 50.0374 157.59C50.2354 157.077 50.3344 156.479 50.3344 155.797C50.3344 155.115 50.2354 154.521 50.0374 154.015C49.8394 153.502 49.5644 153.106 49.2124 152.827C48.8604 152.541 48.446 152.398 47.9694 152.398C47.5 152.398 47.0894 152.541 46.7374 152.827C46.3854 153.106 46.1104 153.502 45.9124 154.015C45.7144 154.521 45.6154 155.115 45.6154 155.797C45.6154 156.472 45.7144 157.066 45.9124 157.579C46.1104 158.092 46.3854 158.492 46.7374 158.778C47.0967 159.064 47.511 159.207 47.9804 159.207Z" fill="#667085"/>
<line x1="60.5" y1="155.9" x2="719.5" y2="155.9" stroke="#F2F4F7" stroke-linecap="round"/>
<path d="M33.633 207.1V205.164H29.464V204.449L33.633 198.905H34.403V204.449H35.404V205.164H34.403V207.1H33.633ZM30.135 204.768L30.036 204.449H33.633V199.664L33.908 199.741L30.135 204.768ZM39.9237 207.232C39.2784 207.232 38.7101 207.056 38.2187 206.704C37.7347 206.345 37.3571 205.85 37.0857 205.219C36.8144 204.581 36.6787 203.84 36.6787 202.997C36.6787 202.154 36.8144 201.417 37.0857 200.786C37.3571 200.148 37.7347 199.653 38.2187 199.301C38.7027 198.949 39.2674 198.773 39.9127 198.773C40.5581 198.773 41.1227 198.949 41.6067 199.301C42.0907 199.653 42.4684 200.148 42.7397 200.786C43.0111 201.417 43.1467 202.154 43.1467 202.997C43.1467 203.84 43.0111 204.581 42.7397 205.219C42.4757 205.857 42.1017 206.352 41.6177 206.704C41.1337 207.056 40.5691 207.232 39.9237 207.232ZM39.9237 206.407C40.3931 206.407 40.8037 206.264 41.1557 205.978C41.5077 205.692 41.7827 205.296 41.9807 204.79C42.1787 204.277 42.2777 203.679 42.2777 202.997C42.2777 202.315 42.1787 201.721 41.9807 201.215C41.7827 200.702 41.5077 200.306 41.1557 200.027C40.8037 199.741 40.3894 199.598 39.9127 199.598C39.4434 199.598 39.0327 199.741 38.6807 200.027C38.3287 200.306 38.0537 200.702 37.8557 201.215C37.6577 201.721 37.5587 202.315 37.5587 202.997C37.5587 203.672 37.6577 204.266 37.8557 204.779C38.0537 205.292 38.3287 205.692 38.6807 205.978C39.0401 206.264 39.4544 206.407 39.9237 206.407ZM47.9804 207.232C47.335 207.232 46.7667 207.056 46.2754 206.704C45.7914 206.345 45.4137 205.85 45.1424 205.219C44.871 204.581 44.7354 203.84 44.7354 202.997C44.7354 202.154 44.871 201.417 45.1424 200.786C45.4137 200.148 45.7914 199.653 46.2754 199.301C46.7594 198.949 47.324 198.773 47.9694 198.773C48.6147 198.773 49.1794 198.949 49.6634 199.301C50.1474 199.653 50.525 200.148 50.7964 200.786C51.0677 201.417 51.2034 202.154 51.2034 202.997C51.2034 203.84 51.0677 204.581 50.7964 205.219C50.5324 205.857 50.1584 206.352 49.6744 206.704C49.1904 207.056 48.6257 207.232 47.9804 207.232ZM47.9804 206.407C48.4497 206.407 48.8604 206.264 49.2124 205.978C49.5644 205.692 49.8394 205.296 50.0374 204.79C50.2354 204.277 50.3344 203.679 50.3344 202.997C50.3344 202.315 50.2354 201.721 50.0374 201.215C49.8394 200.702 49.5644 200.306 49.2124 200.027C48.8604 199.741 48.446 199.598 47.9694 199.598C47.5 199.598 47.0894 199.741 46.7374 200.027C46.3854 200.306 46.1104 200.702 45.9124 201.215C45.7144 201.721 45.6154 202.315 45.6154 202.997C45.6154 203.672 45.7144 204.266 45.9124 204.779C46.1104 205.292 46.3854 205.692 46.7374 205.978C47.0967 206.264 47.511 206.407 47.9804 206.407Z" fill="#667085"/>
<line x1="60.5" y1="203.1" x2="719.5" y2="203.1" stroke="#F2F4F7" stroke-linecap="round"/>
<path d="M29.929 254.3V253.75L32.217 251.231C32.6643 250.74 33.0273 250.333 33.306 250.01C33.592 249.687 33.8047 249.394 33.944 249.13C34.0833 248.866 34.153 248.58 34.153 248.272C34.153 247.781 34.01 247.403 33.724 247.139C33.438 246.875 33.0567 246.743 32.58 246.743C32.0887 246.743 31.6743 246.882 31.337 247.161C31.007 247.44 30.7833 247.828 30.666 248.327L29.863 248.151C29.9583 247.704 30.1307 247.319 30.38 246.996C30.6293 246.673 30.941 246.424 31.315 246.248C31.689 246.065 32.107 245.973 32.569 245.973C33.0603 245.973 33.4893 246.072 33.856 246.27C34.2227 246.468 34.5087 246.739 34.714 247.084C34.9267 247.429 35.033 247.825 35.033 248.272C35.033 248.58 34.967 248.877 34.835 249.163C34.7103 249.449 34.5197 249.757 34.263 250.087C34.0063 250.417 33.6763 250.802 33.273 251.242L31.194 253.53H35.253V254.3H29.929ZM39.9237 254.432C39.2784 254.432 38.7101 254.256 38.2187 253.904C37.7347 253.545 37.3571 253.05 37.0857 252.419C36.8144 251.781 36.6787 251.04 36.6787 250.197C36.6787 249.354 36.8144 248.617 37.0857 247.986C37.3571 247.348 37.7347 246.853 38.2187 246.501C38.7027 246.149 39.2674 245.973 39.9127 245.973C40.5581 245.973 41.1227 246.149 41.6067 246.501C42.0907 246.853 42.4684 247.348 42.7397 247.986C43.0111 248.617 43.1467 249.354 43.1467 250.197C43.1467 251.04 43.0111 251.781 42.7397 252.419C42.4757 253.057 42.1017 253.552 41.6177 253.904C41.1337 254.256 40.5691 254.432 39.9237 254.432ZM39.9237 253.607C40.3931 253.607 40.8037 253.464 41.1557 253.178C41.5077 252.892 41.7827 252.496 41.9807 251.99C42.1787 251.477 42.2777 250.879 42.2777 250.197C42.2777 249.515 42.1787 248.921 41.9807 248.415C41.7827 247.902 41.5077 247.506 41.1557 247.227C40.8037 246.941 40.3894 246.798 39.9127 246.798C39.4434 246.798 39.0327 246.941 38.6807 247.227C38.3287 247.506 38.0537 247.902 37.8557 248.415C37.6577 248.921 37.5587 249.515 37.5587 250.197C37.5587 250.872 37.6577 251.466 37.8557 251.979C38.0537 252.492 38.3287 252.892 38.6807 253.178C39.0401 253.464 39.4544 253.607 39.9237 253.607ZM47.9804 254.432C47.335 254.432 46.7667 254.256 46.2754 253.904C45.7914 253.545 45.4137 253.05 45.1424 252.419C44.871 251.781 44.7354 251.04 44.7354 250.197C44.7354 249.354 44.871 248.617 45.1424 247.986C45.4137 247.348 45.7914 246.853 46.2754 246.501C46.7594 246.149 47.324 245.973 47.9694 245.973C48.6147 245.973 49.1794 246.149 49.6634 246.501C50.1474 246.853 50.525 247.348 50.7964 247.986C51.0677 248.617 51.2034 249.354 51.2034 250.197C51.2034 251.04 51.0677 251.781 50.7964 252.419C50.5324 253.057 50.1584 253.552 49.6744 253.904C49.1904 254.256 48.6257 254.432 47.9804 254.432ZM47.9804 253.607C48.4497 253.607 48.8604 253.464 49.2124 253.178C49.5644 252.892 49.8394 252.496 50.0374 251.99C50.2354 251.477 50.3344 250.879 50.3344 250.197C50.3344 249.515 50.2354 248.921 50.0374 248.415C49.8394 247.902 49.5644 247.506 49.2124 247.227C48.8604 246.941 48.446 246.798 47.9694 246.798C47.5 246.798 47.0894 246.941 46.7374 247.227C46.3854 247.506 46.1104 247.902 45.9124 248.415C45.7144 248.921 45.6154 249.515 45.6154 250.197C45.6154 250.872 45.7144 251.466 45.9124 251.979C46.1104 252.492 46.3854 252.892 46.7374 253.178C47.0967 253.464 47.511 253.607 47.9804 253.607Z" fill="#667085"/>
<line x1="60.5" y1="250.3" x2="719.5" y2="250.3" stroke="#F2F4F7" stroke-linecap="round"/>
<path d="M47.9804 301.632C47.335 301.632 46.7667 301.456 46.2754 301.104C45.7914 300.745 45.4137 300.25 45.1424 299.619C44.871 298.981 44.7354 298.24 44.7354 297.397C44.7354 296.554 44.871 295.817 45.1424 295.186C45.4137 294.548 45.7914 294.053 46.2754 293.701C46.7594 293.349 47.324 293.173 47.9694 293.173C48.6147 293.173 49.1794 293.349 49.6634 293.701C50.1474 294.053 50.525 294.548 50.7964 295.186C51.0677 295.817 51.2034 296.554 51.2034 297.397C51.2034 298.24 51.0677 298.981 50.7964 299.619C50.5324 300.257 50.1584 300.752 49.6744 301.104C49.1904 301.456 48.6257 301.632 47.9804 301.632ZM47.9804 300.807C48.4497 300.807 48.8604 300.664 49.2124 300.378C49.5644 300.092 49.8394 299.696 50.0374 299.19C50.2354 298.677 50.3344 298.079 50.3344 297.397C50.3344 296.715 50.2354 296.121 50.0374 295.615C49.8394 295.102 49.5644 294.706 49.2124 294.427C48.8604 294.141 48.446 293.998 47.9694 293.998C47.5 293.998 47.0894 294.141 46.7374 294.427C46.3854 294.706 46.1104 295.102 45.9124 295.615C45.7144 296.121 45.6154 296.715 45.6154 297.397C45.6154 298.072 45.7144 298.666 45.9124 299.179C46.1104 299.692 46.3854 300.092 46.7374 300.378C47.0967 300.664 47.511 300.807 47.9804 300.807Z" fill="#667085"/>
<line x1="60.5" y1="297.5" x2="719.5" y2="297.5" stroke="#F2F4F7" stroke-linecap="round"/>
<path d="M84.8796 319V318.4L87.3756 315.652C87.8636 315.116 88.2596 314.672 88.5636 314.32C88.8756 313.968 89.1076 313.648 89.2596 313.36C89.4116 313.072 89.4876 312.76 89.4876 312.424C89.4876 311.888 89.3316 311.476 89.0196 311.188C88.7076 310.9 88.2916 310.756 87.7716 310.756C87.2356 310.756 86.7836 310.908 86.4156 311.212C86.0556 311.516 85.8116 311.94 85.6836 312.484L84.8076 312.292C84.9116 311.804 85.0996 311.384 85.3716 311.032C85.6436 310.68 85.9836 310.408 86.3916 310.216C86.7996 310.016 87.2556 309.916 87.7596 309.916C88.2956 309.916 88.7636 310.024 89.1636 310.24C89.5636 310.456 89.8756 310.752 90.0996 311.128C90.3316 311.504 90.4476 311.936 90.4476 312.424C90.4476 312.76 90.3756 313.084 90.2316 313.396C90.0956 313.708 89.8876 314.044 89.6076 314.404C89.3276 314.764 88.9676 315.184 88.5276 315.664L86.2596 318.16H90.6876V319H84.8796ZM95.7829 319.144C95.0789 319.144 94.4589 318.952 93.9229 318.568C93.3949 318.176 92.9829 317.636 92.6869 316.948C92.3909 316.252 92.2429 315.444 92.2429 314.524C92.2429 313.604 92.3909 312.8 92.6869 312.112C92.9829 311.416 93.3949 310.876 93.9229 310.492C94.4509 310.108 95.0669 309.916 95.7709 309.916C96.4749 309.916 97.0909 310.108 97.6189 310.492C98.1469 310.876 98.5589 311.416 98.8549 312.112C99.1509 312.8 99.2989 313.604 99.2989 314.524C99.2989 315.444 99.1509 316.252 98.8549 316.948C98.5669 317.644 98.1589 318.184 97.6309 318.568C97.1029 318.952 96.4869 319.144 95.7829 319.144ZM95.7829 318.244C96.2949 318.244 96.7429 318.088 97.1269 317.776C97.5109 317.464 97.8109 317.032 98.0269 316.48C98.2429 315.92 98.3509 315.268 98.3509 314.524C98.3509 313.78 98.2429 313.132 98.0269 312.58C97.8109 312.02 97.5109 311.588 97.1269 311.284C96.7429 310.972 96.2909 310.816 95.7709 310.816C95.2589 310.816 94.8109 310.972 94.4269 311.284C94.0429 311.588 93.7429 312.02 93.5269 312.58C93.3109 313.132 93.2029 313.78 93.2029 314.524C93.2029 315.26 93.3109 315.908 93.5269 316.468C93.7429 317.028 94.0429 317.464 94.4269 317.776C94.8189 318.088 95.2709 318.244 95.7829 318.244ZM102.34 319V310.9H100.66V310.06H103.3V319H102.34ZM105.317 319V318.4L107.813 315.652C108.301 315.116 108.697 314.672 109.001 314.32C109.313 313.968 109.545 313.648 109.697 313.36C109.849 313.072 109.925 312.76 109.925 312.424C109.925 311.888 109.769 311.476 109.457 311.188C109.145 310.9 108.729 310.756 108.209 310.756C107.673 310.756 107.221 310.908 106.853 311.212C106.493 311.516 106.249 311.94 106.121 312.484L105.245 312.292C105.349 311.804 105.537 311.384 105.809 311.032C106.081 310.68 106.421 310.408 106.829 310.216C107.237 310.016 107.693 309.916 108.197 309.916C108.733 309.916 109.201 310.024 109.601 310.24C110.001 310.456 110.313 310.752 110.537 311.128C110.769 311.504 110.885 311.936 110.885 312.424C110.885 312.76 110.813 313.084 110.669 313.396C110.533 313.708 110.325 314.044 110.045 314.404C109.765 314.764 109.405 315.184 108.965 315.664L106.697 318.16H111.125V319H105.317Z" fill="#667085"/>
<path d="M137.821 319V318.4L140.317 315.652C140.805 315.116 141.201 314.672 141.505 314.32C141.817 313.968 142.049 313.648 142.201 313.36C142.353 313.072 142.429 312.76 142.429 312.424C142.429 311.888 142.273 311.476 141.961 311.188C141.649 310.9 141.233 310.756 140.713 310.756C140.177 310.756 139.725 310.908 139.357 311.212C138.997 311.516 138.753 311.94 138.625 312.484L137.749 312.292C137.853 311.804 138.041 311.384 138.313 311.032C138.585 310.68 138.925 310.408 139.333 310.216C139.741 310.016 140.197 309.916 140.701 309.916C141.237 309.916 141.705 310.024 142.105 310.24C142.505 310.456 142.817 310.752 143.041 311.128C143.273 311.504 143.389 311.936 143.389 312.424C143.389 312.76 143.317 313.084 143.173 313.396C143.037 313.708 142.829 314.044 142.549 314.404C142.269 314.764 141.909 315.184 141.469 315.664L139.201 318.16H143.629V319H137.821ZM148.724 319.144C148.02 319.144 147.4 318.952 146.864 318.568C146.336 318.176 145.924 317.636 145.628 316.948C145.332 316.252 145.184 315.444 145.184 314.524C145.184 313.604 145.332 312.8 145.628 312.112C145.924 311.416 146.336 310.876 146.864 310.492C147.392 310.108 148.008 309.916 148.712 309.916C149.416 309.916 150.032 310.108 150.56 310.492C151.088 310.876 151.5 311.416 151.796 312.112C152.092 312.8 152.24 313.604 152.24 314.524C152.24 315.444 152.092 316.252 151.796 316.948C151.508 317.644 151.1 318.184 150.572 318.568C150.044 318.952 149.428 319.144 148.724 319.144ZM148.724 318.244C149.236 318.244 149.684 318.088 150.068 317.776C150.452 317.464 150.752 317.032 150.968 316.48C151.184 315.92 151.292 315.268 151.292 314.524C151.292 313.78 151.184 313.132 150.968 312.58C150.752 312.02 150.452 311.588 150.068 311.284C149.684 310.972 149.232 310.816 148.712 310.816C148.2 310.816 147.752 310.972 147.368 311.284C146.984 311.588 146.684 312.02 146.468 312.58C146.252 313.132 146.144 313.78 146.144 314.524C146.144 315.26 146.252 315.908 146.468 316.468C146.684 317.028 146.984 317.464 147.368 317.776C147.76 318.088 148.212 318.244 148.724 318.244ZM155.281 319V310.9H153.601V310.06H156.241V319H155.281ZM161.09 319.144C160.627 319.144 160.199 319.064 159.807 318.904C159.415 318.744 159.071 318.516 158.775 318.22C158.487 317.924 158.267 317.572 158.115 317.164L158.883 316.804C159.067 317.268 159.355 317.636 159.747 317.908C160.139 318.172 160.587 318.304 161.09 318.304C161.491 318.304 161.847 318.228 162.159 318.076C162.471 317.916 162.715 317.688 162.891 317.392C163.067 317.096 163.155 316.736 163.155 316.312C163.155 315.888 163.063 315.528 162.879 315.232C162.703 314.936 162.459 314.712 162.147 314.56C161.835 314.408 161.479 314.332 161.079 314.332C160.975 314.332 160.859 314.336 160.73 314.344C160.611 314.352 160.511 314.364 160.431 314.38L160.239 313.96L162.651 310.9H158.535V310.06H163.73V310.9L161.475 313.744L161.355 313.588C161.891 313.604 162.367 313.732 162.783 313.972C163.199 314.204 163.523 314.52 163.755 314.92C163.995 315.32 164.115 315.784 164.115 316.312C164.115 316.84 163.987 317.32 163.73 317.752C163.475 318.176 163.119 318.516 162.663 318.772C162.207 319.02 161.683 319.144 161.09 319.144Z" fill="#667085"/>
<path d="M190.698 319V318.4L193.194 315.652C193.682 315.116 194.078 314.672 194.382 314.32C194.694 313.968 194.926 313.648 195.078 313.36C195.23 313.072 195.306 312.76 195.306 312.424C195.306 311.888 195.15 311.476 194.838 311.188C194.526 310.9 194.11 310.756 193.59 310.756C193.054 310.756 192.602 310.908 192.234 311.212C191.874 311.516 191.63 311.94 191.502 312.484L190.626 312.292C190.73 311.804 190.918 311.384 191.19 311.032C191.462 310.68 191.802 310.408 192.21 310.216C192.618 310.016 193.074 309.916 193.578 309.916C194.114 309.916 194.582 310.024 194.982 310.24C195.382 310.456 195.694 310.752 195.918 311.128C196.15 311.504 196.266 311.936 196.266 312.424C196.266 312.76 196.194 313.084 196.05 313.396C195.914 313.708 195.706 314.044 195.426 314.404C195.146 314.764 194.786 315.184 194.346 315.664L192.078 318.16H196.506V319H190.698ZM201.601 319.144C200.897 319.144 200.277 318.952 199.741 318.568C199.213 318.176 198.801 317.636 198.505 316.948C198.209 316.252 198.061 315.444 198.061 314.524C198.061 313.604 198.209 312.8 198.505 312.112C198.801 311.416 199.213 310.876 199.741 310.492C200.269 310.108 200.885 309.916 201.589 309.916C202.293 309.916 202.909 310.108 203.437 310.492C203.965 310.876 204.377 311.416 204.673 312.112C204.969 312.8 205.117 313.604 205.117 314.524C205.117 315.444 204.969 316.252 204.673 316.948C204.385 317.644 203.977 318.184 203.449 318.568C202.921 318.952 202.305 319.144 201.601 319.144ZM201.601 318.244C202.113 318.244 202.561 318.088 202.945 317.776C203.329 317.464 203.629 317.032 203.845 316.48C204.061 315.92 204.169 315.268 204.169 314.524C204.169 313.78 204.061 313.132 203.845 312.58C203.629 312.02 203.329 311.588 202.945 311.284C202.561 310.972 202.109 310.816 201.589 310.816C201.077 310.816 200.629 310.972 200.245 311.284C199.861 311.588 199.561 312.02 199.345 312.58C199.129 313.132 199.021 313.78 199.021 314.524C199.021 315.26 199.129 315.908 199.345 316.468C199.561 317.028 199.861 317.464 200.245 317.776C200.637 318.088 201.089 318.244 201.601 318.244ZM208.158 319V310.9H206.478V310.06H209.118V319H208.158ZM215.539 319V316.888H210.991V316.108L215.539 310.06H216.379V316.108H217.471V316.888H216.379V319H215.539ZM211.723 316.456L211.615 316.108H215.539V310.888L215.839 310.972L211.723 316.456Z" fill="#667085"/>
<path d="M243.78 319V318.4L246.276 315.652C246.764 315.116 247.16 314.672 247.464 314.32C247.776 313.968 248.008 313.648 248.16 313.36C248.312 313.072 248.388 312.76 248.388 312.424C248.388 311.888 248.232 311.476 247.92 311.188C247.608 310.9 247.192 310.756 246.672 310.756C246.136 310.756 245.684 310.908 245.316 311.212C244.956 311.516 244.712 311.94 244.584 312.484L243.708 312.292C243.812 311.804 244 311.384 244.272 311.032C244.544 310.68 244.884 310.408 245.292 310.216C245.7 310.016 246.156 309.916 246.66 309.916C247.196 309.916 247.664 310.024 248.064 310.24C248.464 310.456 248.776 310.752 249 311.128C249.232 311.504 249.348 311.936 249.348 312.424C249.348 312.76 249.276 313.084 249.132 313.396C248.996 313.708 248.788 314.044 248.508 314.404C248.228 314.764 247.868 315.184 247.428 315.664L245.16 318.16H249.588V319H243.78ZM254.683 319.144C253.979 319.144 253.359 318.952 252.823 318.568C252.295 318.176 251.883 317.636 251.587 316.948C251.291 316.252 251.143 315.444 251.143 314.524C251.143 313.604 251.291 312.8 251.587 312.112C251.883 311.416 252.295 310.876 252.823 310.492C253.351 310.108 253.967 309.916 254.671 309.916C255.375 309.916 255.991 310.108 256.519 310.492C257.047 310.876 257.459 311.416 257.755 312.112C258.051 312.8 258.199 313.604 258.199 314.524C258.199 315.444 258.051 316.252 257.755 316.948C257.467 317.644 257.059 318.184 256.531 318.568C256.003 318.952 255.387 319.144 254.683 319.144ZM254.683 318.244C255.195 318.244 255.643 318.088 256.027 317.776C256.411 317.464 256.711 317.032 256.927 316.48C257.143 315.92 257.251 315.268 257.251 314.524C257.251 313.78 257.143 313.132 256.927 312.58C256.711 312.02 256.411 311.588 256.027 311.284C255.643 310.972 255.191 310.816 254.671 310.816C254.159 310.816 253.711 310.972 253.327 311.284C252.943 311.588 252.643 312.02 252.427 312.58C252.211 313.132 252.103 313.78 252.103 314.524C252.103 315.26 252.211 315.908 252.427 316.468C252.643 317.028 252.943 317.464 253.327 317.776C253.719 318.088 254.171 318.244 254.683 318.244ZM261.24 319V310.9H259.56V310.06H262.2V319H261.24ZM267.145 319.144C266.681 319.144 266.249 319.064 265.849 318.904C265.457 318.744 265.113 318.516 264.817 318.22C264.521 317.924 264.297 317.572 264.145 317.164L264.877 316.804C265.061 317.268 265.361 317.636 265.777 317.908C266.201 318.172 266.657 318.304 267.145 318.304C267.537 318.304 267.885 318.212 268.189 318.028C268.501 317.844 268.745 317.596 268.921 317.284C269.097 316.964 269.185 316.608 269.185 316.216C269.185 315.808 269.093 315.448 268.909 315.136C268.733 314.824 268.493 314.58 268.189 314.404C267.885 314.22 267.541 314.128 267.157 314.128C266.765 314.128 266.401 314.22 266.065 314.404C265.737 314.58 265.497 314.796 265.345 315.052L264.589 314.908L265.261 310.06H269.785V310.9H265.609L265.981 310.576L265.441 314.392L265.069 314.224C265.349 313.88 265.677 313.636 266.053 313.492C266.429 313.34 266.813 313.264 267.205 313.264C267.781 313.264 268.289 313.4 268.729 313.672C269.169 313.936 269.513 314.292 269.761 314.74C270.017 315.18 270.145 315.672 270.145 316.216C270.145 316.768 270.013 317.268 269.749 317.716C269.493 318.156 269.137 318.504 268.681 318.76C268.233 319.016 267.721 319.144 267.145 319.144Z" fill="#667085"/>
<path d="M296.956 319V318.4L299.452 315.652C299.94 315.116 300.336 314.672 300.64 314.32C300.952 313.968 301.184 313.648 301.336 313.36C301.488 313.072 301.564 312.76 301.564 312.424C301.564 311.888 301.408 311.476 301.096 311.188C300.784 310.9 300.368 310.756 299.848 310.756C299.312 310.756 298.86 310.908 298.492 311.212C298.132 311.516 297.888 311.94 297.76 312.484L296.884 312.292C296.988 311.804 297.176 311.384 297.448 311.032C297.72 310.68 298.06 310.408 298.468 310.216C298.876 310.016 299.332 309.916 299.836 309.916C300.372 309.916 300.84 310.024 301.24 310.24C301.64 310.456 301.952 310.752 302.176 311.128C302.408 311.504 302.524 311.936 302.524 312.424C302.524 312.76 302.452 313.084 302.308 313.396C302.172 313.708 301.964 314.044 301.684 314.404C301.404 314.764 301.044 315.184 300.604 315.664L298.336 318.16H302.764V319H296.956ZM307.859 319.144C307.155 319.144 306.535 318.952 305.999 318.568C305.471 318.176 305.059 317.636 304.763 316.948C304.467 316.252 304.319 315.444 304.319 314.524C304.319 313.604 304.467 312.8 304.763 312.112C305.059 311.416 305.471 310.876 305.999 310.492C306.527 310.108 307.143 309.916 307.847 309.916C308.551 309.916 309.167 310.108 309.695 310.492C310.223 310.876 310.635 311.416 310.931 312.112C311.227 312.8 311.375 313.604 311.375 314.524C311.375 315.444 311.227 316.252 310.931 316.948C310.643 317.644 310.235 318.184 309.707 318.568C309.179 318.952 308.563 319.144 307.859 319.144ZM307.859 318.244C308.371 318.244 308.819 318.088 309.203 317.776C309.587 317.464 309.887 317.032 310.103 316.48C310.319 315.92 310.427 315.268 310.427 314.524C310.427 313.78 310.319 313.132 310.103 312.58C309.887 312.02 309.587 311.588 309.203 311.284C308.819 310.972 308.367 310.816 307.847 310.816C307.335 310.816 306.887 310.972 306.503 311.284C306.119 311.588 305.819 312.02 305.603 312.58C305.387 313.132 305.279 313.78 305.279 314.524C305.279 315.26 305.387 315.908 305.603 316.468C305.819 317.028 306.119 317.464 306.503 317.776C306.895 318.088 307.347 318.244 307.859 318.244ZM314.416 319V310.9H312.736V310.06H315.376V319H314.416ZM320.18 319.144C319.62 319.144 319.124 319.02 318.692 318.772C318.26 318.516 317.92 318.168 317.672 317.728C317.424 317.28 317.3 316.768 317.3 316.192C317.3 315.872 317.336 315.556 317.408 315.244C317.488 314.932 317.604 314.624 317.756 314.32C317.916 314.016 318.108 313.712 318.332 313.408L320.852 310.06H322.004L318.896 314.128L318.716 314.236C318.836 314.036 318.976 313.884 319.136 313.78C319.296 313.668 319.472 313.588 319.664 313.54C319.864 313.492 320.076 313.468 320.3 313.468C320.82 313.468 321.288 313.592 321.704 313.84C322.12 314.08 322.448 314.412 322.688 314.836C322.936 315.26 323.06 315.752 323.06 316.312C323.06 316.848 322.932 317.332 322.676 317.764C322.428 318.188 322.088 318.524 321.656 318.772C321.224 319.02 320.732 319.144 320.18 319.144ZM320.18 318.304C320.548 318.304 320.876 318.22 321.164 318.052C321.452 317.876 321.68 317.636 321.848 317.332C322.016 317.028 322.1 316.688 322.1 316.312C322.1 315.928 322.016 315.588 321.848 315.292C321.688 314.996 321.464 314.764 321.176 314.596C320.888 314.42 320.556 314.332 320.18 314.332C319.812 314.332 319.48 314.42 319.184 314.596C318.896 314.764 318.668 314.996 318.5 315.292C318.34 315.588 318.26 315.928 318.26 316.312C318.26 316.688 318.344 317.028 318.512 317.332C318.68 317.636 318.908 317.876 319.196 318.052C319.484 318.22 319.812 318.304 320.18 318.304Z" fill="#667085"/>
<path d="M349.719 319V318.4L352.215 315.652C352.703 315.116 353.099 314.672 353.403 314.32C353.715 313.968 353.947 313.648 354.099 313.36C354.251 313.072 354.327 312.76 354.327 312.424C354.327 311.888 354.171 311.476 353.859 311.188C353.547 310.9 353.131 310.756 352.611 310.756C352.075 310.756 351.623 310.908 351.255 311.212C350.895 311.516 350.651 311.94 350.523 312.484L349.647 312.292C349.751 311.804 349.939 311.384 350.211 311.032C350.483 310.68 350.823 310.408 351.231 310.216C351.639 310.016 352.095 309.916 352.599 309.916C353.135 309.916 353.603 310.024 354.003 310.24C354.403 310.456 354.715 310.752 354.939 311.128C355.171 311.504 355.287 311.936 355.287 312.424C355.287 312.76 355.215 313.084 355.071 313.396C354.935 313.708 354.727 314.044 354.447 314.404C354.167 314.764 353.807 315.184 353.367 315.664L351.099 318.16H355.527V319H349.719ZM360.623 319.144C359.919 319.144 359.299 318.952 358.763 318.568C358.235 318.176 357.823 317.636 357.527 316.948C357.231 316.252 357.083 315.444 357.083 314.524C357.083 313.604 357.231 312.8 357.527 312.112C357.823 311.416 358.235 310.876 358.763 310.492C359.291 310.108 359.907 309.916 360.611 309.916C361.315 309.916 361.931 310.108 362.459 310.492C362.987 310.876 363.399 311.416 363.695 312.112C363.991 312.8 364.139 313.604 364.139 314.524C364.139 315.444 363.991 316.252 363.695 316.948C363.407 317.644 362.999 318.184 362.471 318.568C361.943 318.952 361.327 319.144 360.623 319.144ZM360.623 318.244C361.135 318.244 361.583 318.088 361.967 317.776C362.351 317.464 362.651 317.032 362.867 316.48C363.083 315.92 363.191 315.268 363.191 314.524C363.191 313.78 363.083 313.132 362.867 312.58C362.651 312.02 362.351 311.588 361.967 311.284C361.583 310.972 361.131 310.816 360.611 310.816C360.099 310.816 359.651 310.972 359.267 311.284C358.883 311.588 358.583 312.02 358.367 312.58C358.151 313.132 358.043 313.78 358.043 314.524C358.043 315.26 358.151 315.908 358.367 316.468C358.583 317.028 358.883 317.464 359.267 317.776C359.659 318.088 360.111 318.244 360.623 318.244ZM367.18 319V310.9H365.5V310.06H368.14V319H367.18ZM370.409 319L374.441 310.9H369.977V310.06H375.437V310.9L371.417 319H370.409Z" fill="#667085"/>
<path d="M401.71 319V318.4L404.206 315.652C404.694 315.116 405.09 314.672 405.394 314.32C405.706 313.968 405.938 313.648 406.09 313.36C406.242 313.072 406.318 312.76 406.318 312.424C406.318 311.888 406.162 311.476 405.85 311.188C405.538 310.9 405.122 310.756 404.602 310.756C404.066 310.756 403.614 310.908 403.246 311.212C402.886 311.516 402.642 311.94 402.514 312.484L401.638 312.292C401.742 311.804 401.93 311.384 402.202 311.032C402.474 310.68 402.814 310.408 403.222 310.216C403.63 310.016 404.086 309.916 404.59 309.916C405.126 309.916 405.594 310.024 405.994 310.24C406.394 310.456 406.706 310.752 406.93 311.128C407.162 311.504 407.278 311.936 407.278 312.424C407.278 312.76 407.206 313.084 407.062 313.396C406.926 313.708 406.718 314.044 406.438 314.404C406.158 314.764 405.798 315.184 405.358 315.664L403.09 318.16H407.518V319H401.71ZM412.613 319.144C411.909 319.144 411.289 318.952 410.753 318.568C410.225 318.176 409.813 317.636 409.517 316.948C409.221 316.252 409.073 315.444 409.073 314.524C409.073 313.604 409.221 312.8 409.517 312.112C409.813 311.416 410.225 310.876 410.753 310.492C411.281 310.108 411.897 309.916 412.601 309.916C413.305 309.916 413.921 310.108 414.449 310.492C414.977 310.876 415.389 311.416 415.685 312.112C415.981 312.8 416.129 313.604 416.129 314.524C416.129 315.444 415.981 316.252 415.685 316.948C415.397 317.644 414.989 318.184 414.461 318.568C413.933 318.952 413.317 319.144 412.613 319.144ZM412.613 318.244C413.125 318.244 413.573 318.088 413.957 317.776C414.341 317.464 414.641 317.032 414.857 316.48C415.073 315.92 415.181 315.268 415.181 314.524C415.181 313.78 415.073 313.132 414.857 312.58C414.641 312.02 414.341 311.588 413.957 311.284C413.573 310.972 413.121 310.816 412.601 310.816C412.089 310.816 411.641 310.972 411.257 311.284C410.873 311.588 410.573 312.02 410.357 312.58C410.141 313.132 410.033 313.78 410.033 314.524C410.033 315.26 410.141 315.908 410.357 316.468C410.573 317.028 410.873 317.464 411.257 317.776C411.649 318.088 412.101 318.244 412.613 318.244ZM419.17 319V310.9H417.49V310.06H420.13V319H419.17ZM425.219 319.144C424.643 319.144 424.127 319.028 423.671 318.796C423.223 318.556 422.867 318.232 422.603 317.824C422.347 317.408 422.219 316.94 422.219 316.42C422.219 315.852 422.379 315.344 422.699 314.896C423.027 314.448 423.467 314.136 424.019 313.96V314.212C423.595 314.028 423.267 313.756 423.035 313.396C422.803 313.028 422.687 312.636 422.687 312.22C422.687 311.78 422.799 311.388 423.023 311.044C423.247 310.7 423.547 310.428 423.923 310.228C424.307 310.02 424.739 309.916 425.219 309.916C425.707 309.916 426.139 310.016 426.515 310.216C426.891 310.408 427.187 310.68 427.403 311.032C427.627 311.376 427.739 311.772 427.739 312.22C427.739 312.668 427.619 313.068 427.379 313.42C427.139 313.764 426.823 314.028 426.431 314.212L426.419 313.96C426.971 314.136 427.407 314.448 427.727 314.896C428.055 315.344 428.219 315.852 428.219 316.42C428.219 316.94 428.087 317.408 427.823 317.824C427.567 318.232 427.211 318.556 426.755 318.796C426.307 319.028 425.795 319.144 425.219 319.144ZM425.219 318.304C425.627 318.304 425.983 318.228 426.287 318.076C426.591 317.916 426.827 317.696 426.995 317.416C427.171 317.128 427.259 316.796 427.259 316.42C427.259 316.044 427.171 315.716 426.995 315.436C426.827 315.148 426.591 314.928 426.287 314.776C425.983 314.616 425.627 314.536 425.219 314.536C424.811 314.536 424.451 314.616 424.139 314.776C423.835 314.928 423.599 315.148 423.431 315.436C423.263 315.716 423.179 316.044 423.179 316.42C423.179 316.796 423.263 317.128 423.431 317.416C423.599 317.696 423.835 317.916 424.139 318.076C424.451 318.228 424.811 318.304 425.219 318.304ZM425.219 313.696C425.515 313.696 425.779 313.636 426.011 313.516C426.243 313.388 426.427 313.216 426.563 313C426.707 312.776 426.779 312.516 426.779 312.22C426.779 311.924 426.707 311.668 426.563 311.452C426.427 311.236 426.243 311.068 426.011 310.948C425.779 310.82 425.515 310.756 425.219 310.756C424.923 310.756 424.655 310.82 424.415 310.948C424.183 311.068 423.995 311.236 423.851 311.452C423.715 311.668 423.647 311.924 423.647 312.22C423.647 312.516 423.715 312.776 423.851 313C423.995 313.216 424.183 313.388 424.415 313.516C424.655 313.636 424.923 313.696 425.219 313.696Z" fill="#667085"/>
<path d="M454.897 319V318.4L457.393 315.652C457.881 315.116 458.277 314.672 458.581 314.32C458.893 313.968 459.125 313.648 459.277 313.36C459.429 313.072 459.505 312.76 459.505 312.424C459.505 311.888 459.349 311.476 459.037 311.188C458.725 310.9 458.309 310.756 457.789 310.756C457.253 310.756 456.801 310.908 456.433 311.212C456.073 311.516 455.829 311.94 455.701 312.484L454.825 312.292C454.929 311.804 455.117 311.384 455.389 311.032C455.661 310.68 456.001 310.408 456.409 310.216C456.817 310.016 457.273 309.916 457.777 309.916C458.313 309.916 458.781 310.024 459.181 310.24C459.581 310.456 459.893 310.752 460.117 311.128C460.349 311.504 460.465 311.936 460.465 312.424C460.465 312.76 460.393 313.084 460.249 313.396C460.113 313.708 459.905 314.044 459.625 314.404C459.345 314.764 458.985 315.184 458.545 315.664L456.277 318.16H460.705V319H454.897ZM465.8 319.144C465.096 319.144 464.476 318.952 463.94 318.568C463.412 318.176 463 317.636 462.704 316.948C462.408 316.252 462.26 315.444 462.26 314.524C462.26 313.604 462.408 312.8 462.704 312.112C463 311.416 463.412 310.876 463.94 310.492C464.468 310.108 465.084 309.916 465.788 309.916C466.492 309.916 467.108 310.108 467.636 310.492C468.164 310.876 468.576 311.416 468.872 312.112C469.168 312.8 469.316 313.604 469.316 314.524C469.316 315.444 469.168 316.252 468.872 316.948C468.584 317.644 468.176 318.184 467.648 318.568C467.12 318.952 466.504 319.144 465.8 319.144ZM465.8 318.244C466.312 318.244 466.76 318.088 467.144 317.776C467.528 317.464 467.828 317.032 468.044 316.48C468.26 315.92 468.368 315.268 468.368 314.524C468.368 313.78 468.26 313.132 468.044 312.58C467.828 312.02 467.528 311.588 467.144 311.284C466.76 310.972 466.308 310.816 465.788 310.816C465.276 310.816 464.828 310.972 464.444 311.284C464.06 311.588 463.76 312.02 463.544 312.58C463.328 313.132 463.22 313.78 463.22 314.524C463.22 315.26 463.328 315.908 463.544 316.468C463.76 317.028 464.06 317.464 464.444 317.776C464.836 318.088 465.288 318.244 465.8 318.244ZM472.358 319V310.9H470.678V310.06H473.318V319H472.358ZM476.379 319L479.487 314.932L479.667 314.824C479.547 315.016 479.407 315.168 479.247 315.28C479.087 315.392 478.911 315.472 478.719 315.52C478.527 315.568 478.315 315.592 478.083 315.592C477.563 315.592 477.095 315.472 476.679 315.232C476.263 314.984 475.931 314.648 475.683 314.224C475.443 313.792 475.323 313.3 475.323 312.748C475.323 312.204 475.447 311.72 475.695 311.296C475.951 310.872 476.295 310.536 476.727 310.288C477.167 310.04 477.659 309.916 478.203 309.916C478.763 309.916 479.259 310.044 479.691 310.3C480.123 310.548 480.463 310.896 480.711 311.344C480.959 311.784 481.083 312.292 481.083 312.868C481.083 313.188 481.043 313.504 480.963 313.816C480.891 314.128 480.779 314.436 480.627 314.74C480.475 315.044 480.283 315.348 480.051 315.652L477.531 319H476.379ZM478.203 314.728C478.579 314.728 478.911 314.644 479.199 314.476C479.487 314.3 479.711 314.064 479.871 313.768C480.039 313.464 480.123 313.124 480.123 312.748C480.123 312.364 480.039 312.024 479.871 311.728C479.703 311.424 479.475 311.188 479.187 311.02C478.899 310.844 478.571 310.756 478.203 310.756C477.835 310.756 477.507 310.844 477.219 311.02C476.931 311.188 476.703 311.424 476.535 311.728C476.367 312.024 476.283 312.364 476.283 312.748C476.283 313.124 476.363 313.464 476.523 313.768C476.691 314.064 476.919 314.3 477.207 314.476C477.503 314.644 477.835 314.728 478.203 314.728Z" fill="#667085"/>
<path d="M507.712 319V318.4L510.208 315.652C510.696 315.116 511.092 314.672 511.396 314.32C511.708 313.968 511.94 313.648 512.092 313.36C512.244 313.072 512.32 312.76 512.32 312.424C512.32 311.888 512.164 311.476 511.852 311.188C511.54 310.9 511.124 310.756 510.604 310.756C510.068 310.756 509.616 310.908 509.248 311.212C508.888 311.516 508.644 311.94 508.516 312.484L507.64 312.292C507.744 311.804 507.932 311.384 508.204 311.032C508.476 310.68 508.816 310.408 509.224 310.216C509.632 310.016 510.088 309.916 510.592 309.916C511.128 309.916 511.596 310.024 511.996 310.24C512.396 310.456 512.708 310.752 512.932 311.128C513.164 311.504 513.28 311.936 513.28 312.424C513.28 312.76 513.208 313.084 513.064 313.396C512.928 313.708 512.72 314.044 512.44 314.404C512.16 314.764 511.8 315.184 511.36 315.664L509.092 318.16H513.52V319H507.712ZM518.615 319.144C517.911 319.144 517.291 318.952 516.755 318.568C516.227 318.176 515.815 317.636 515.519 316.948C515.223 316.252 515.075 315.444 515.075 314.524C515.075 313.604 515.223 312.8 515.519 312.112C515.815 311.416 516.227 310.876 516.755 310.492C517.283 310.108 517.899 309.916 518.603 309.916C519.307 309.916 519.923 310.108 520.451 310.492C520.979 310.876 521.391 311.416 521.687 312.112C521.983 312.8 522.131 313.604 522.131 314.524C522.131 315.444 521.983 316.252 521.687 316.948C521.399 317.644 520.991 318.184 520.463 318.568C519.935 318.952 519.319 319.144 518.615 319.144ZM518.615 318.244C519.127 318.244 519.575 318.088 519.959 317.776C520.343 317.464 520.643 317.032 520.859 316.48C521.075 315.92 521.183 315.268 521.183 314.524C521.183 313.78 521.075 313.132 520.859 312.58C520.643 312.02 520.343 311.588 519.959 311.284C519.575 310.972 519.123 310.816 518.603 310.816C518.091 310.816 517.643 310.972 517.259 311.284C516.875 311.588 516.575 312.02 516.359 312.58C516.143 313.132 516.035 313.78 516.035 314.524C516.035 315.26 516.143 315.908 516.359 316.468C516.575 317.028 516.875 317.464 517.259 317.776C517.651 318.088 518.103 318.244 518.615 318.244ZM523.696 319V318.4L526.192 315.652C526.68 315.116 527.076 314.672 527.38 314.32C527.692 313.968 527.924 313.648 528.076 313.36C528.228 313.072 528.304 312.76 528.304 312.424C528.304 311.888 528.148 311.476 527.836 311.188C527.524 310.9 527.108 310.756 526.588 310.756C526.052 310.756 525.6 310.908 525.232 311.212C524.872 311.516 524.628 311.94 524.5 312.484L523.624 312.292C523.728 311.804 523.916 311.384 524.188 311.032C524.46 310.68 524.8 310.408 525.208 310.216C525.616 310.016 526.072 309.916 526.576 309.916C527.112 309.916 527.58 310.024 527.98 310.24C528.38 310.456 528.692 310.752 528.916 311.128C529.148 311.504 529.264 311.936 529.264 312.424C529.264 312.76 529.192 313.084 529.048 313.396C528.912 313.708 528.704 314.044 528.424 314.404C528.144 314.764 527.784 315.184 527.344 315.664L525.076 318.16H529.504V319H523.696ZM534.599 319.144C533.895 319.144 533.275 318.952 532.739 318.568C532.211 318.176 531.799 317.636 531.503 316.948C531.207 316.252 531.059 315.444 531.059 314.524C531.059 313.604 531.207 312.8 531.503 312.112C531.799 311.416 532.211 310.876 532.739 310.492C533.267 310.108 533.883 309.916 534.587 309.916C535.291 309.916 535.907 310.108 536.435 310.492C536.963 310.876 537.375 311.416 537.671 312.112C537.967 312.8 538.115 313.604 538.115 314.524C538.115 315.444 537.967 316.252 537.671 316.948C537.383 317.644 536.975 318.184 536.447 318.568C535.919 318.952 535.303 319.144 534.599 319.144ZM534.599 318.244C535.111 318.244 535.559 318.088 535.943 317.776C536.327 317.464 536.627 317.032 536.843 316.48C537.059 315.92 537.167 315.268 537.167 314.524C537.167 313.78 537.059 313.132 536.843 312.58C536.627 312.02 536.327 311.588 535.943 311.284C535.559 310.972 535.107 310.816 534.587 310.816C534.075 310.816 533.627 310.972 533.243 311.284C532.859 311.588 532.559 312.02 532.343 312.58C532.127 313.132 532.019 313.78 532.019 314.524C532.019 315.26 532.127 315.908 532.343 316.468C532.559 317.028 532.859 317.464 533.243 317.776C533.635 318.088 534.087 318.244 534.599 318.244Z" fill="#667085"/>
<path d="M564.712 319V318.4L567.208 315.652C567.696 315.116 568.092 314.672 568.396 314.32C568.708 313.968 568.94 313.648 569.092 313.36C569.244 313.072 569.32 312.76 569.32 312.424C569.32 311.888 569.164 311.476 568.852 311.188C568.54 310.9 568.124 310.756 567.604 310.756C567.068 310.756 566.616 310.908 566.248 311.212C565.888 311.516 565.644 311.94 565.516 312.484L564.64 312.292C564.744 311.804 564.932 311.384 565.204 311.032C565.476 310.68 565.816 310.408 566.224 310.216C566.632 310.016 567.088 309.916 567.592 309.916C568.128 309.916 568.596 310.024 568.996 310.24C569.396 310.456 569.708 310.752 569.932 311.128C570.164 311.504 570.28 311.936 570.28 312.424C570.28 312.76 570.208 313.084 570.064 313.396C569.928 313.708 569.72 314.044 569.44 314.404C569.16 314.764 568.8 315.184 568.36 315.664L566.092 318.16H570.52V319H564.712ZM575.615 319.144C574.911 319.144 574.291 318.952 573.755 318.568C573.227 318.176 572.815 317.636 572.519 316.948C572.223 316.252 572.075 315.444 572.075 314.524C572.075 313.604 572.223 312.8 572.519 312.112C572.815 311.416 573.227 310.876 573.755 310.492C574.283 310.108 574.899 309.916 575.603 309.916C576.307 309.916 576.923 310.108 577.451 310.492C577.979 310.876 578.391 311.416 578.687 312.112C578.983 312.8 579.131 313.604 579.131 314.524C579.131 315.444 578.983 316.252 578.687 316.948C578.399 317.644 577.991 318.184 577.463 318.568C576.935 318.952 576.319 319.144 575.615 319.144ZM575.615 318.244C576.127 318.244 576.575 318.088 576.959 317.776C577.343 317.464 577.643 317.032 577.859 316.48C578.075 315.92 578.183 315.268 578.183 314.524C578.183 313.78 578.075 313.132 577.859 312.58C577.643 312.02 577.343 311.588 576.959 311.284C576.575 310.972 576.123 310.816 575.603 310.816C575.091 310.816 574.643 310.972 574.259 311.284C573.875 311.588 573.575 312.02 573.359 312.58C573.143 313.132 573.035 313.78 573.035 314.524C573.035 315.26 573.143 315.908 573.359 316.468C573.575 317.028 573.875 317.464 574.259 317.776C574.651 318.088 575.103 318.244 575.615 318.244ZM580.696 319V318.4L583.192 315.652C583.68 315.116 584.076 314.672 584.38 314.32C584.692 313.968 584.924 313.648 585.076 313.36C585.228 313.072 585.304 312.76 585.304 312.424C585.304 311.888 585.148 311.476 584.836 311.188C584.524 310.9 584.108 310.756 583.588 310.756C583.052 310.756 582.6 310.908 582.232 311.212C581.872 311.516 581.628 311.94 581.5 312.484L580.624 312.292C580.728 311.804 580.916 311.384 581.188 311.032C581.46 310.68 581.8 310.408 582.208 310.216C582.616 310.016 583.072 309.916 583.576 309.916C584.112 309.916 584.58 310.024 584.98 310.24C585.38 310.456 585.692 310.752 585.916 311.128C586.148 311.504 586.264 311.936 586.264 312.424C586.264 312.76 586.192 313.084 586.048 313.396C585.912 313.708 585.704 314.044 585.424 314.404C585.144 314.764 584.784 315.184 584.344 315.664L582.076 318.16H586.504V319H580.696ZM591.599 319.144C590.895 319.144 590.275 318.952 589.739 318.568C589.211 318.176 588.799 317.636 588.503 316.948C588.207 316.252 588.059 315.444 588.059 314.524C588.059 313.604 588.207 312.8 588.503 312.112C588.799 311.416 589.211 310.876 589.739 310.492C590.267 310.108 590.883 309.916 591.587 309.916C592.291 309.916 592.907 310.108 593.435 310.492C593.963 310.876 594.375 311.416 594.671 312.112C594.967 312.8 595.115 313.604 595.115 314.524C595.115 315.444 594.967 316.252 594.671 316.948C594.383 317.644 593.975 318.184 593.447 318.568C592.919 318.952 592.303 319.144 591.599 319.144ZM591.599 318.244C592.111 318.244 592.559 318.088 592.943 317.776C593.327 317.464 593.627 317.032 593.843 316.48C594.059 315.92 594.167 315.268 594.167 314.524C594.167 313.78 594.059 313.132 593.843 312.58C593.627 312.02 593.327 311.588 592.943 311.284C592.559 310.972 592.107 310.816 591.587 310.816C591.075 310.816 590.627 310.972 590.243 311.284C589.859 311.588 589.559 312.02 589.343 312.58C589.127 313.132 589.019 313.78 589.019 314.524C589.019 315.26 589.127 315.908 589.343 316.468C589.559 317.028 589.859 317.464 590.243 317.776C590.635 318.088 591.087 318.244 591.599 318.244Z" fill="#667085"/>
<path d="M621.88 319V318.4L624.376 315.652C624.864 315.116 625.26 314.672 625.564 314.32C625.876 313.968 626.108 313.648 626.26 313.36C626.412 313.072 626.488 312.76 626.488 312.424C626.488 311.888 626.332 311.476 626.02 311.188C625.708 310.9 625.292 310.756 624.772 310.756C624.236 310.756 623.784 310.908 623.416 311.212C623.056 311.516 622.812 311.94 622.684 312.484L621.808 312.292C621.912 311.804 622.1 311.384 622.372 311.032C622.644 310.68 622.984 310.408 623.392 310.216C623.8 310.016 624.256 309.916 624.76 309.916C625.296 309.916 625.764 310.024 626.164 310.24C626.564 310.456 626.876 310.752 627.1 311.128C627.332 311.504 627.448 311.936 627.448 312.424C627.448 312.76 627.376 313.084 627.232 313.396C627.096 313.708 626.888 314.044 626.608 314.404C626.328 314.764 625.968 315.184 625.528 315.664L623.26 318.16H627.688V319H621.88ZM632.783 319.144C632.079 319.144 631.459 318.952 630.923 318.568C630.395 318.176 629.983 317.636 629.687 316.948C629.391 316.252 629.243 315.444 629.243 314.524C629.243 313.604 629.391 312.8 629.687 312.112C629.983 311.416 630.395 310.876 630.923 310.492C631.451 310.108 632.067 309.916 632.771 309.916C633.475 309.916 634.091 310.108 634.619 310.492C635.147 310.876 635.559 311.416 635.855 312.112C636.151 312.8 636.299 313.604 636.299 314.524C636.299 315.444 636.151 316.252 635.855 316.948C635.567 317.644 635.159 318.184 634.631 318.568C634.103 318.952 633.487 319.144 632.783 319.144ZM632.783 318.244C633.295 318.244 633.743 318.088 634.127 317.776C634.511 317.464 634.811 317.032 635.027 316.48C635.243 315.92 635.351 315.268 635.351 314.524C635.351 313.78 635.243 313.132 635.027 312.58C634.811 312.02 634.511 311.588 634.127 311.284C633.743 310.972 633.291 310.816 632.771 310.816C632.259 310.816 631.811 310.972 631.427 311.284C631.043 311.588 630.743 312.02 630.527 312.58C630.311 313.132 630.203 313.78 630.203 314.524C630.203 315.26 630.311 315.908 630.527 316.468C630.743 317.028 631.043 317.464 631.427 317.776C631.819 318.088 632.271 318.244 632.783 318.244ZM637.864 319V318.4L640.36 315.652C640.848 315.116 641.244 314.672 641.548 314.32C641.86 313.968 642.092 313.648 642.244 313.36C642.396 313.072 642.472 312.76 642.472 312.424C642.472 311.888 642.316 311.476 642.004 311.188C641.692 310.9 641.276 310.756 640.756 310.756C640.22 310.756 639.768 310.908 639.4 311.212C639.04 311.516 638.796 311.94 638.668 312.484L637.792 312.292C637.896 311.804 638.084 311.384 638.356 311.032C638.628 310.68 638.968 310.408 639.376 310.216C639.784 310.016 640.24 309.916 640.744 309.916C641.28 309.916 641.748 310.024 642.148 310.24C642.548 310.456 642.86 310.752 643.084 311.128C643.316 311.504 643.432 311.936 643.432 312.424C643.432 312.76 643.36 313.084 643.216 313.396C643.08 313.708 642.872 314.044 642.592 314.404C642.312 314.764 641.952 315.184 641.512 315.664L639.244 318.16H643.672V319H637.864ZM646.535 319V310.9H644.855V310.06H647.495V319H646.535Z" fill="#667085"/>
<path d="M675.009 319V318.4L677.505 315.652C677.993 315.116 678.389 314.672 678.693 314.32C679.005 313.968 679.237 313.648 679.389 313.36C679.541 313.072 679.617 312.76 679.617 312.424C679.617 311.888 679.461 311.476 679.149 311.188C678.837 310.9 678.421 310.756 677.901 310.756C677.365 310.756 676.913 310.908 676.545 311.212C676.185 311.516 675.941 311.94 675.812 312.484L674.937 312.292C675.041 311.804 675.229 311.384 675.501 311.032C675.773 310.68 676.113 310.408 676.521 310.216C676.929 310.016 677.385 309.916 677.889 309.916C678.425 309.916 678.893 310.024 679.293 310.24C679.693 310.456 680.005 310.752 680.229 311.128C680.461 311.504 680.577 311.936 680.577 312.424C680.577 312.76 680.505 313.084 680.361 313.396C680.225 313.708 680.017 314.044 679.737 314.404C679.457 314.764 679.097 315.184 678.657 315.664L676.389 318.16H680.817V319H675.009ZM685.912 319.144C685.208 319.144 684.588 318.952 684.052 318.568C683.524 318.176 683.112 317.636 682.816 316.948C682.52 316.252 682.372 315.444 682.372 314.524C682.372 313.604 682.52 312.8 682.816 312.112C683.112 311.416 683.524 310.876 684.052 310.492C684.58 310.108 685.196 309.916 685.9 309.916C686.604 309.916 687.22 310.108 687.748 310.492C688.276 310.876 688.688 311.416 688.984 312.112C689.28 312.8 689.428 313.604 689.428 314.524C689.428 315.444 689.28 316.252 688.984 316.948C688.696 317.644 688.288 318.184 687.76 318.568C687.232 318.952 686.616 319.144 685.912 319.144ZM685.912 318.244C686.424 318.244 686.872 318.088 687.256 317.776C687.64 317.464 687.94 317.032 688.156 316.48C688.372 315.92 688.48 315.268 688.48 314.524C688.48 313.78 688.372 313.132 688.156 312.58C687.94 312.02 687.64 311.588 687.256 311.284C686.872 310.972 686.42 310.816 685.9 310.816C685.388 310.816 684.94 310.972 684.556 311.284C684.172 311.588 683.872 312.02 683.656 312.58C683.44 313.132 683.332 313.78 683.332 314.524C683.332 315.26 683.44 315.908 683.656 316.468C683.872 317.028 684.172 317.464 684.556 317.776C684.948 318.088 685.4 318.244 685.912 318.244ZM690.993 319V318.4L693.489 315.652C693.977 315.116 694.373 314.672 694.677 314.32C694.989 313.968 695.221 313.648 695.373 313.36C695.525 313.072 695.601 312.76 695.601 312.424C695.601 311.888 695.445 311.476 695.133 311.188C694.821 310.9 694.405 310.756 693.885 310.756C693.349 310.756 692.897 310.908 692.529 311.212C692.169 311.516 691.925 311.94 691.797 312.484L690.921 312.292C691.025 311.804 691.213 311.384 691.485 311.032C691.757 310.68 692.097 310.408 692.505 310.216C692.913 310.016 693.369 309.916 693.873 309.916C694.409 309.916 694.877 310.024 695.277 310.24C695.677 310.456 695.989 310.752 696.213 311.128C696.445 311.504 696.561 311.936 696.561 312.424C696.561 312.76 696.489 313.084 696.345 313.396C696.209 313.708 696.001 314.044 695.721 314.404C695.441 314.764 695.081 315.184 694.641 315.664L692.373 318.16H696.801V319H690.993ZM698.188 319V318.4L700.684 315.652C701.172 315.116 701.568 314.672 701.872 314.32C702.184 313.968 702.416 313.648 702.568 313.36C702.72 313.072 702.796 312.76 702.796 312.424C702.796 311.888 702.64 311.476 702.328 311.188C702.016 310.9 701.6 310.756 701.08 310.756C700.544 310.756 700.092 310.908 699.724 311.212C699.364 311.516 699.12 311.94 698.992 312.484L698.116 312.292C698.22 311.804 698.408 311.384 698.68 311.032C698.952 310.68 699.292 310.408 699.7 310.216C700.108 310.016 700.564 309.916 701.068 309.916C701.604 309.916 702.072 310.024 702.472 310.24C702.872 310.456 703.184 310.752 703.408 311.128C703.64 311.504 703.756 311.936 703.756 312.424C703.756 312.76 703.684 313.084 703.54 313.396C703.404 313.708 703.196 314.044 702.916 314.404C702.636 314.764 702.276 315.184 701.836 315.664L699.568 318.16H703.996V319H698.188Z" fill="#667085"/>
<path d="M355.886 343V335.14H353.462V334.06H359.462V335.14H357.074V343H355.886ZM361.645 343.144C361.221 343.144 360.845 343.068 360.517 342.916C360.197 342.756 359.945 342.54 359.761 342.268C359.577 341.988 359.485 341.668 359.485 341.308C359.485 340.964 359.557 340.656 359.701 340.384C359.853 340.104 360.085 339.868 360.397 339.676C360.717 339.484 361.117 339.348 361.597 339.268L363.997 338.872V339.808L361.849 340.168C361.433 340.24 361.129 340.372 360.937 340.564C360.753 340.756 360.661 340.992 360.661 341.272C360.661 341.536 360.765 341.756 360.973 341.932C361.189 342.108 361.457 342.196 361.777 342.196C362.185 342.196 362.537 342.112 362.833 341.944C363.137 341.768 363.373 341.532 363.541 341.236C363.717 340.94 363.805 340.612 363.805 340.252V338.608C363.805 338.256 363.673 337.972 363.409 337.756C363.153 337.532 362.813 337.42 362.389 337.42C362.021 337.42 361.693 337.516 361.405 337.708C361.125 337.892 360.917 338.14 360.781 338.452L359.809 337.948C359.929 337.652 360.121 337.388 360.385 337.156C360.649 336.916 360.957 336.728 361.309 336.592C361.661 336.456 362.029 336.388 362.413 336.388C362.909 336.388 363.345 336.484 363.721 336.676C364.097 336.86 364.389 337.12 364.597 337.456C364.813 337.784 364.921 338.168 364.921 338.608V343H363.829V341.776L364.033 341.848C363.897 342.104 363.713 342.328 363.481 342.52C363.249 342.712 362.977 342.864 362.665 342.976C362.353 343.088 362.013 343.144 361.645 343.144ZM366.651 343V333.916H367.767V337.792L367.563 337.684C367.723 337.276 367.979 336.96 368.331 336.736C368.691 336.504 369.111 336.388 369.591 336.388C370.055 336.388 370.467 336.492 370.827 336.7C371.195 336.908 371.483 337.196 371.691 337.564C371.907 337.932 372.015 338.348 372.015 338.812V343H370.887V339.172C370.887 338.812 370.819 338.508 370.683 338.26C370.555 338.012 370.375 337.82 370.143 337.684C369.911 337.54 369.643 337.468 369.339 337.468C369.043 337.468 368.775 337.54 368.535 337.684C368.295 337.82 368.107 338.016 367.971 338.272C367.835 338.52 367.767 338.82 367.767 339.172V343H366.651ZM375.904 343.144C375.44 343.144 375.02 343.036 374.644 342.82C374.276 342.604 373.988 342.304 373.78 341.92C373.58 341.528 373.48 341.08 373.48 340.576V336.532H374.596V340.456C374.596 340.776 374.66 341.056 374.788 341.296C374.924 341.536 375.108 341.724 375.34 341.86C375.58 341.996 375.852 342.064 376.156 342.064C376.46 342.064 376.728 341.996 376.96 341.86C377.2 341.724 377.384 341.528 377.512 341.272C377.648 341.016 377.716 340.712 377.716 340.36V336.532H378.844V343H377.752V341.74L377.932 341.848C377.78 342.256 377.52 342.576 377.152 342.808C376.792 343.032 376.376 343.144 375.904 343.144ZM380.573 343V336.532H381.665V337.792L381.485 337.684C381.645 337.276 381.901 336.96 382.253 336.736C382.613 336.504 383.033 336.388 383.513 336.388C383.977 336.388 384.389 336.492 384.749 336.7C385.117 336.908 385.405 337.196 385.613 337.564C385.829 337.932 385.937 338.348 385.937 338.812V343H384.809V339.172C384.809 338.812 384.745 338.508 384.617 338.26C384.489 338.012 384.305 337.82 384.065 337.684C383.833 337.54 383.565 337.468 383.261 337.468C382.957 337.468 382.685 337.54 382.445 337.684C382.213 337.82 382.029 338.016 381.893 338.272C381.757 338.52 381.689 338.82 381.689 339.172V343H380.573Z" fill="#667085"/>
<g clip-path="url(#clip1_516_19644)">
<path d="M80 102C80 98.6863 82.6863 96 86 96H106C109.314 96 112 98.6863 112 102V296H80V102Z" fill="#F39240"/>
<path d="M134 70C134 66.6863 136.686 64 140 64H160C163.314 64 166 66.6863 166 70V296H134V70Z" fill="#F08519"/>
<path d="M188 134C188 130.686 190.686 128 194 128H214C217.314 128 220 130.686 220 134V296H188V134Z" fill="#FCC49B"/>
<path d="M242 94C242 90.6863 244.686 88 248 88H268C271.314 88 274 90.6863 274 94V296H242V94Z" fill="#F39240"/>
<path d="M296 134C296 130.686 298.686 128 302 128H322C325.314 128 328 130.686 328 134V296H296V134Z" fill="#FCC49B"/>
<path d="M350 78C350 74.6863 352.686 72 356 72H376C379.314 72 382 74.6863 382 78V296H350V78Z" fill="#F39240"/>
<path d="M404 102C404 98.6863 406.686 96 410 96H430C433.314 96 436 98.6863 436 102V296H404V102Z" fill="#F39240"/>
<path d="M458 94C458 90.6863 460.686 88 464 88H484C487.314 88 490 90.6863 490 94V296H458V94Z" fill="#F39240"/>
<path d="M512 102C512 98.6863 514.686 96 518 96H538C541.314 96 544 98.6863 544 102V296H512V102Z" fill="#F39240"/>
<path d="M566 86C566 82.6863 568.686 80 572 80H592C595.314 80 598 82.6863 598 86V296H566V86Z" fill="#F39240"/>
<path d="M620 70C620 66.6863 622.686 64 626 64H646C649.314 64 652 66.6863 652 70V296H620V70Z" fill="#F08519"/>
<path d="M674 110C674 106.686 676.686 104 680 104H700C703.314 104 706 106.686 706 110V296H674V110Z" fill="#F39240"/>
</g>
</g>
<defs>
<clipPath id="clip0_516_19644">
<rect width="720" height="298" fill="white" transform="translate(0 48)"/>
</clipPath>
<clipPath id="clip1_516_19644">
<rect width="660" height="248" fill="white" transform="translate(60 48)"/>
</clipPath>
</defs>
</svg>
