<svg width="600" height="246" viewBox="0 0 600 246" fill="none" xmlns="http://www.w3.org/2000/svg">
<g clip-path="url(#clip0_593_33203)">
<path d="M127.081 38.1165H144.508M369.497 38.1165H386.924M413.573 99.3328H431M138.835 103.74H156.262M216.212 199.237H233.639M289.182 197.279H306.609M127.217 46.7622H156.037M369.633 46.7622H398.453M413.709 107.978H442.529M138.971 112.386H167.791M216.348 207.883H245.167M289.318 205.924H318.137" stroke="#E1E4E5" stroke-width="2.49365" stroke-linecap="round" stroke-linejoin="round"/>
<path fill-rule="evenodd" clip-rule="evenodd" d="M277.447 110.815C269.999 110.815 263.966 104.782 263.966 97.3335C263.966 89.8852 269.999 83.8521 277.447 83.8521C284.896 83.8521 290.928 89.8852 290.928 97.3335C290.928 104.782 284.896 110.815 277.447 110.815ZM324.632 110.815C317.184 110.815 311.151 104.782 311.151 97.3335C311.151 89.8852 317.184 83.8521 324.632 83.8521C332.081 83.8521 338.114 89.8852 338.114 97.3335C338.114 104.782 332.081 110.815 324.632 110.815ZM371.817 110.815C364.369 110.815 358.336 104.782 358.336 97.3335C358.336 89.8852 364.369 83.8521 371.817 83.8521C379.266 83.8521 385.299 89.8852 385.299 97.3335C385.299 104.782 379.266 110.815 371.817 110.815ZM277.447 158C269.999 158 263.966 151.967 263.966 144.519C263.966 137.07 269.999 131.037 277.447 131.037C284.896 131.037 290.928 137.07 290.928 144.519C290.928 151.967 284.896 158 277.447 158ZM324.632 158C317.184 158 311.151 151.967 311.151 144.519C311.151 137.07 317.184 131.037 324.632 131.037C332.081 131.037 338.114 137.07 338.114 144.519C338.114 151.967 332.081 158 324.632 158ZM371.817 158C364.369 158 358.336 151.967 358.336 144.519C358.336 137.07 364.369 131.037 371.817 131.037C379.266 131.037 385.299 137.07 385.299 144.519C385.299 151.967 379.266 158 371.817 158ZM277.447 63.63C269.999 63.63 263.966 57.597 263.966 50.1483C263.966 42.7 269.999 36.667 277.447 36.667C284.896 36.667 290.929 42.7 290.929 50.1483C290.929 57.597 284.896 63.63 277.447 63.63ZM324.632 63.63C317.184 63.63 311.151 57.597 311.151 50.1483C311.151 42.7 317.184 36.667 324.632 36.667C332.081 36.667 338.114 42.7 338.114 50.1483C338.114 57.597 332.081 63.63 324.632 63.63ZM371.817 63.63C364.369 63.63 358.336 57.597 358.336 50.1483C358.336 42.7 364.369 36.667 371.817 36.667C379.266 36.667 385.299 42.7 385.299 50.1483C385.299 57.597 379.266 63.63 371.817 63.63Z" fill="#FFE8D7"/>
<path fill-rule="evenodd" clip-rule="evenodd" d="M269.026 123.756C259.211 113.943 251.812 102.954 246.897 91.8058C245.856 89.4485 246.468 86.6891 248.289 84.8685L255.159 78.0068C260.788 72.3785 260.788 64.4181 255.873 59.5024L246.024 49.6546C239.473 43.1034 228.852 43.1034 222.3 49.6546L216.831 55.1235C210.615 61.3394 208.023 70.3065 209.701 79.1981C213.845 101.117 226.579 125.115 247.123 145.658C267.667 166.201 291.667 178.935 313.587 183.079C322.479 184.757 331.447 182.164 337.663 175.949L343.125 170.488C349.676 163.936 349.676 153.317 343.125 146.766L333.284 136.926C328.368 132.011 320.399 132.011 315.492 136.926L307.916 144.509C306.096 146.33 303.336 146.942 300.979 145.902C289.83 140.978 278.841 133.571 269.026 123.756Z" fill="#F08519"/>
<path fill-rule="evenodd" clip-rule="evenodd" d="M432.029 70.855H435.229C436.003 70.855 436.626 71.4844 436.626 72.2517V75.4524C436.626 75.8228 436.479 76.1779 436.217 76.4398C435.955 76.7017 435.6 76.8489 435.229 76.8491H432.029C431.659 76.8477 431.304 76.7 431.043 76.4384C430.781 76.1768 430.633 75.8224 430.632 75.4524V72.2517C430.632 72.0682 430.667 71.8864 430.737 71.7167C430.807 71.5471 430.91 71.3929 431.04 71.2631C431.17 71.1334 431.324 71.0305 431.494 70.9605C431.663 70.8904 431.845 70.8546 432.029 70.855ZM443.125 70.855H446.325C447.093 70.855 447.723 71.4844 447.723 72.2517V75.4524C447.722 75.8228 447.575 76.178 447.313 76.4398C447.051 76.7017 446.696 76.8489 446.325 76.8491H443.125C442.755 76.8477 442.401 76.7001 442.139 76.4385C441.877 76.1769 441.73 75.8224 441.728 75.4524V72.2517C441.728 71.4844 442.358 70.855 443.125 70.855ZM454.229 70.855H457.429C458.197 70.855 458.827 71.4844 458.827 72.2517V75.4524C458.826 75.8228 458.679 76.178 458.417 76.4398C458.155 76.7017 457.8 76.8489 457.429 76.8491H454.229C453.859 76.8477 453.504 76.7 453.243 76.4384C452.981 76.1768 452.833 75.8224 452.832 75.4524V72.2517C452.832 72.0682 452.867 71.8864 452.937 71.7167C453.007 71.5471 453.11 71.3929 453.24 71.2631C453.37 71.1334 453.524 71.0305 453.694 70.9605C453.863 70.8904 454.045 70.8546 454.229 70.855ZM465.325 70.855H468.526C469.293 70.855 469.923 71.4844 469.923 72.2517V75.4524C469.922 75.8228 469.775 76.1779 469.513 76.4398C469.251 76.7017 468.896 76.8489 468.526 76.8491H465.325C464.954 76.8491 464.598 76.7021 464.335 76.4404C464.072 76.1787 463.924 75.8234 463.922 75.4524V72.2517C463.926 71.8813 464.075 71.5273 464.338 71.266C464.6 71.0047 464.955 70.8571 465.325 70.855ZM476.423 70.855H479.623C480.397 70.855 481.027 71.4844 481.027 72.2517V75.4524C481.026 75.6363 480.99 75.8183 480.919 75.9881C480.848 76.1579 480.745 76.312 480.615 76.4418C480.484 76.5715 480.33 76.6742 480.16 76.7441C479.989 76.814 479.807 76.8497 479.623 76.8491H476.423C476.053 76.8477 475.698 76.7001 475.436 76.4385C475.175 76.1769 475.027 75.8224 475.025 75.4524V72.2517C475.025 71.4844 475.655 70.855 476.423 70.855ZM443.532 82.9551H446.733C447.5 82.9551 448.129 83.585 448.129 84.3524V87.559C448.128 87.9291 447.98 88.2836 447.719 88.5453C447.457 88.8071 447.103 88.9548 446.733 88.9564H443.532C443.162 88.956 442.806 88.8087 442.545 88.5467C442.283 88.2847 442.135 87.9295 442.135 87.559V84.3591C442.134 84.175 442.169 83.9925 442.239 83.8221C442.309 83.6517 442.412 83.4968 442.541 83.3663C442.671 83.2358 442.826 83.1323 442.996 83.0617C443.166 82.9911 443.348 82.9549 443.532 82.9551ZM454.629 82.9551H457.829C458.596 82.9551 459.226 83.585 459.226 84.3524V87.559C459.225 87.9292 459.077 88.2838 458.815 88.5456C458.553 88.8073 458.199 88.955 457.829 88.9564H454.629C454.258 88.955 453.904 88.8073 453.642 88.5456C453.38 88.2838 453.233 87.9292 453.231 87.559V84.3591C453.23 84.1749 453.266 83.9925 453.335 83.8221C453.405 83.6517 453.508 83.4968 453.638 83.3663C453.768 83.2358 453.922 83.1323 454.092 83.0617C454.262 82.9911 454.445 82.9549 454.629 82.9551ZM465.726 82.9551H468.926C469.7 82.9551 470.33 83.585 470.33 84.3524V87.559C470.328 87.9302 470.179 88.2855 469.916 88.5473C469.653 88.8092 469.297 88.9562 468.926 88.9564H465.726C465.356 88.955 465.001 88.8073 464.739 88.5456C464.478 88.2838 464.33 87.9292 464.329 87.559V84.3591C464.329 83.5851 464.959 82.9551 465.726 82.9551ZM454.229 57.8557H457.429C458.197 57.8557 458.827 58.4857 458.827 59.2531V62.4537C458.827 63.2271 458.197 63.8504 457.429 63.8504H454.229C453.859 63.849 453.504 63.7014 453.243 63.4398C452.981 63.1781 452.833 62.8237 452.832 62.4537V59.2531C452.831 59.0695 452.867 58.8876 452.937 58.7178C453.007 58.5481 453.11 58.3939 453.24 58.264C453.37 58.1342 453.524 58.0313 453.694 57.9612C453.863 57.8911 454.045 57.8553 454.229 57.8557ZM465.325 57.8557H468.526C469.293 57.8557 469.923 58.4857 469.923 59.2531V62.4537C469.923 63.2271 469.293 63.8504 468.526 63.8504H465.325C464.954 63.8504 464.598 63.7035 464.335 63.4417C464.072 63.18 463.924 62.8247 463.922 62.4537V59.2531C463.926 58.8826 464.075 58.5285 464.338 58.2671C464.6 58.0057 464.955 57.858 465.325 57.8557ZM89.9813 96.0584H93.1813C93.9553 96.0584 94.5787 96.6884 94.5787 97.4557V100.656C94.5783 101.026 94.431 101.381 94.169 101.643C93.907 101.905 93.5518 102.053 93.1813 102.053H89.9813C89.6112 102.052 89.2566 101.904 88.9948 101.642C88.7331 101.38 88.5854 101.026 88.584 100.656V97.4557C88.5836 97.2721 88.6195 97.0903 88.6896 96.9206C88.7597 96.7509 88.8627 96.5967 88.9925 96.4669C89.1223 96.3371 89.2765 96.2341 89.4462 96.164C89.6159 96.094 89.7977 96.058 89.9813 96.0584ZM101.077 96.0584H104.278C105.045 96.0584 105.675 96.6884 105.675 97.4557V100.656C105.674 101.026 105.527 101.381 105.265 101.643C105.004 101.905 104.648 102.053 104.278 102.053H101.077C100.707 102.051 100.353 101.904 100.091 101.642C99.8296 101.38 99.6821 101.026 99.6807 100.656V97.4557C99.6807 96.6884 100.31 96.0584 101.077 96.0584ZM112.181 96.0584H115.382C116.149 96.0584 116.779 96.6884 116.779 97.4557V100.656C116.778 101.026 116.631 101.381 116.369 101.643C116.108 101.905 115.752 102.053 115.382 102.053H112.181C111.811 102.051 111.457 101.904 111.195 101.642C110.934 101.38 110.786 101.026 110.785 100.656V97.4557C110.784 97.2721 110.82 97.0902 110.89 96.9205C110.96 96.7508 111.063 96.5966 111.193 96.4667C111.322 96.3369 111.476 96.2339 111.646 96.1639C111.816 96.0938 111.998 96.058 112.181 96.0584ZM123.278 96.0584H126.478C127.245 96.0584 127.875 96.6884 127.875 97.4557V100.656C127.875 101.026 127.728 101.381 127.466 101.643C127.204 101.905 126.848 102.053 126.478 102.053H123.278C122.907 102.053 122.551 101.906 122.288 101.644C122.025 101.382 121.876 101.027 121.874 100.656V97.4557C121.878 97.0852 122.027 96.7311 122.29 96.4698C122.553 96.2084 122.907 96.0606 123.278 96.0584ZM134.375 96.0584H137.575C138.349 96.0584 138.979 96.6877 138.979 97.4551V100.656C138.979 100.84 138.942 101.022 138.872 101.192C138.801 101.361 138.697 101.516 138.567 101.645C138.437 101.775 138.282 101.878 138.112 101.948C137.942 102.018 137.759 102.054 137.575 102.053H134.375C134.005 102.051 133.65 101.904 133.389 101.642C133.127 101.38 132.979 101.026 132.978 100.656V97.4551C132.978 96.6877 133.607 96.0584 134.375 96.0584ZM101.485 108.159H104.685C105.453 108.159 106.082 108.788 106.082 109.556V112.763C106.081 113.133 105.933 113.488 105.671 113.749C105.409 114.011 105.055 114.158 104.685 114.16H101.485C101.114 114.16 100.759 114.012 100.497 113.75C100.235 113.489 100.088 113.133 100.087 112.763V109.562C100.086 109.378 100.122 109.196 100.191 109.025C100.261 108.855 100.364 108.7 100.494 108.57C100.624 108.439 100.778 108.336 100.948 108.265C101.118 108.195 101.301 108.159 101.485 108.159ZM112.581 108.159H115.781C116.549 108.159 117.178 108.788 117.178 109.556V112.763C117.177 113.133 117.029 113.487 116.767 113.749C116.506 114.011 116.151 114.158 115.781 114.16H112.581C112.211 114.158 111.856 114.011 111.595 113.749C111.333 113.487 111.185 113.133 111.184 112.763V109.562C111.183 109.378 111.218 109.196 111.288 109.026C111.358 108.855 111.46 108.7 111.59 108.57C111.72 108.439 111.874 108.336 112.044 108.265C112.214 108.195 112.397 108.159 112.581 108.159ZM123.678 108.159H126.879C127.653 108.159 128.282 108.788 128.282 109.556V112.763C128.28 113.134 128.132 113.489 127.869 113.751C127.606 114.013 127.25 114.16 126.879 114.16H123.678C123.308 114.158 122.954 114.011 122.692 113.749C122.43 113.487 122.283 113.133 122.281 112.763V109.562C122.281 108.788 122.911 108.159 123.678 108.159ZM112.181 83.059H115.382C116.149 83.059 116.779 83.6891 116.779 84.4564V87.657C116.778 88.0274 116.631 88.3826 116.369 88.6445C116.107 88.9063 115.752 89.0535 115.382 89.0537H112.181C111.811 89.0523 111.457 88.9047 111.195 88.6431C110.934 88.3815 110.786 88.027 110.785 87.657V84.4564C110.784 84.2728 110.82 84.0909 110.89 83.9212C110.96 83.7515 111.063 83.5972 111.193 83.4674C111.322 83.3375 111.476 83.2346 111.646 83.1645C111.816 83.0945 111.998 83.0586 112.181 83.059ZM123.278 83.059H126.478C127.245 83.059 127.875 83.6891 127.875 84.4564V87.657C127.875 88.0275 127.728 88.3826 127.466 88.6445C127.204 88.9064 126.848 89.0535 126.478 89.0537H123.278C122.907 89.0537 122.551 88.9068 122.288 88.6451C122.025 88.3834 121.876 88.0281 121.874 87.657V84.4564C121.878 84.0859 122.027 83.7318 122.29 83.4704C122.553 83.209 122.907 83.0613 123.278 83.059Z" fill="#E1E4E5"/>
<path fill-rule="evenodd" clip-rule="evenodd" d="M128.541 97.1315H75.1172C70.7925 97.1315 68.9265 91.6568 72.4672 89.2275L72.6172 89.1255C77.6579 85.7388 84.2725 86.0461 84.2725 86.0461C84.2725 86.0461 85.2179 67.7268 103.015 67.7268C111.814 67.7268 118.925 82.4288 118.925 82.4288C118.925 82.4288 130.895 82.4288 132.876 91.6668C133.475 94.4648 131.467 97.1315 128.541 97.1315ZM460.507 105.773H407.083C402.759 105.773 400.893 100.298 404.434 97.8688C404.483 97.8348 404.533 97.8001 404.584 97.7668C409.624 94.3801 416.239 94.6875 416.239 94.6875C416.239 94.6875 417.184 76.3675 434.981 76.3675C443.78 76.3675 450.891 91.0701 450.891 91.0701C450.891 91.0701 462.861 91.0701 464.842 100.307C465.441 103.106 463.433 105.773 460.507 105.773ZM41.7539 207.883H142.562C152.025 207.883 151.59 200.106 148.499 197.395C145.331 194.618 139.071 195.745 139.071 195.745C139.071 195.745 137.208 190.513 131.074 187.966C125.648 185.713 119.963 186.785 119.963 186.785C119.963 186.785 119.963 183.195 116.489 180.221C113.015 177.248 108.383 177.537 108.383 177.537C108.383 177.537 105.199 157.739 83.9185 157.739C62.6392 157.739 60.1785 176.381 60.1785 176.381C60.1785 176.381 55.4012 176.381 51.9272 179.56C48.4525 182.739 48.0185 186.351 48.0185 186.351C48.0185 186.351 36.3999 184.789 32.9632 194.794C30.9159 200.757 35.1232 207.883 41.7539 207.883ZM428.448 195.642H529.255C538.718 195.642 538.284 187.864 535.193 185.154C532.025 182.376 525.765 183.503 525.765 183.503C525.765 183.503 523.902 178.271 517.767 175.725C512.342 173.472 506.657 174.544 506.657 174.544C506.657 174.544 506.657 170.953 503.183 167.98C499.709 165.006 495.077 165.295 495.077 165.295C495.077 165.295 491.892 145.497 470.613 145.497C449.333 145.497 446.873 164.139 446.873 164.139C446.873 164.139 442.095 164.139 438.621 167.318C435.147 170.497 434.713 174.11 434.713 174.11C434.713 174.11 423.094 172.547 419.657 182.553C417.61 188.516 421.817 195.642 428.448 195.642Z" fill="#F9FAFB"/>
</g>
<defs>
<clipPath id="clip0_593_33203">
<rect width="600" height="246" fill="white"/>
</clipPath>
</defs>
</svg>
