<svg width="460" height="307" viewBox="0 0 460 307" fill="none" xmlns="http://www.w3.org/2000/svg">
<g clip-path="url(#clip0_513_18285)">
<path d="M423.409 179.425C416.083 183.059 406.359 178.386 406.359 178.386C406.359 178.386 408.52 167.823 415.85 164.195C423.176 160.561 432.896 165.228 432.896 165.228C432.896 165.228 430.735 175.791 423.409 179.425Z" fill="url(#paint0_linear_513_18285)"/>
<path d="M51.5953 75.5321C62.6235 82.1418 78.446 76.032 78.446 76.032C78.446 76.032 76.377 59.2072 65.3421 52.6052C54.3139 45.9955 38.498 52.0982 38.498 52.0982C38.498 52.0982 40.567 68.9224 51.5953 75.5321Z" fill="url(#paint1_linear_513_18285)"/>
<path d="M59.682 106.877C54.9533 106.877 51.1199 110.71 51.1199 115.439C51.1199 120.168 54.9533 124.001 59.682 124.001C64.4107 124.001 68.2441 120.168 68.2441 115.439C68.2441 110.71 64.4107 106.877 59.682 106.877Z" fill="#F08519"/>
<path d="M102.317 269.842C96.9321 269.842 92.5664 265.477 92.5664 260.091C92.5664 254.706 96.9321 250.34 102.317 250.34C107.703 250.34 112.068 254.706 112.068 260.091C112.068 265.477 107.703 269.842 102.317 269.842Z" fill="#F08519"/>
<path d="M352.162 147.858C349.649 147.858 347.612 145.821 347.612 143.308C347.612 140.795 349.649 138.758 352.162 138.758C354.676 138.758 356.713 140.795 356.713 143.308C356.713 145.821 354.676 147.858 352.162 147.858Z" fill="#F08519"/>
<path d="M84.495 30.1091C81.2638 30.1091 78.6443 27.4897 78.6443 24.2584C78.6443 21.0272 81.2638 18.4078 84.495 18.4078C87.7263 18.4078 90.3457 21.0272 90.3457 24.2584C90.3457 27.4897 87.7263 30.1091 84.495 30.1091Z" fill="#E1E4E5"/>
<path d="M32.4731 179.57C27.8059 179.57 24.0224 175.786 24.0224 171.119C24.0224 166.452 27.8059 162.668 32.4731 162.668C37.1403 162.668 40.9238 166.452 40.9238 171.119C40.9238 175.786 37.1403 179.57 32.4731 179.57Z" fill="#E1E4E5"/>
<path d="M372.186 81.6469C369.811 81.6469 367.885 79.7215 367.885 77.3464C367.885 74.9713 369.811 73.0459 372.186 73.0459C374.561 73.0459 376.486 74.9713 376.486 77.3464C376.486 79.7215 374.561 81.6469 372.186 81.6469Z" fill="#E1E4E5"/>
<path d="M404.811 96.0961C404.811 99.6423 401.936 102.517 398.39 102.517C394.844 102.517 391.969 99.6423 391.969 96.0961C391.969 92.5498 394.844 89.675 398.39 89.675C401.936 89.675 404.811 92.5498 404.811 96.0961Z" fill="#E1E4E5"/>
<path d="M147.416 24.3079C145.041 24.3079 143.116 22.3825 143.116 20.0074C143.116 17.6323 145.041 15.7069 147.416 15.7069C149.791 15.7069 151.717 17.6323 151.717 20.0074C151.717 22.3825 149.791 24.3079 147.416 24.3079Z" fill="#E1E4E5"/>
<path d="M419.925 244.11C416.296 244.11 413.354 241.756 413.354 238.853C413.354 235.95 416.296 233.596 419.925 233.596C423.554 233.596 426.496 235.95 426.496 238.853C426.496 241.756 423.554 244.11 419.925 244.11Z" fill="#E1E4E5"/>
<path d="M111.479 157.089H111.652C112.669 171.512 123.395 171.734 123.395 171.734C123.395 171.734 111.568 171.965 111.568 188.63C111.568 171.965 99.7396 171.734 99.7396 171.734C99.7396 171.734 110.462 171.512 111.479 157.089ZM76.3874 205.707H76.4774C77.0094 213.538 82.6174 213.658 82.6174 213.658C82.6174 213.658 76.4334 213.784 76.4334 222.832C76.4334 213.784 70.25 213.658 70.25 213.658C70.25 213.658 75.8554 213.538 76.3874 205.707Z" fill="#E1E4E5"/>
<path d="M397.157 197.225H366.13C358.528 197.225 352.158 192.063 352.158 185.525C352.158 182.256 353.802 179.331 356.268 177.266C358.733 175.201 362.226 173.825 366.13 173.825H370.651C374.555 173.825 378.048 172.448 380.513 170.384C382.979 168.319 384.623 165.394 384.623 162.125C384.623 155.759 378.459 150.425 370.651 150.425H275.873C273.404 150.425 271.818 147.388 271.818 144.919C271.818 138.725 265.859 133.735 258.462 133.735H223.188C222.298 133.735 221.445 133.381 220.816 132.752C220.187 132.123 219.833 131.27 219.833 130.38C219.833 129.49 220.187 128.636 220.816 128.007C221.445 127.378 222.298 127.024 223.188 127.024H358.322C364.281 127.024 369.829 124.96 373.733 121.691C377.637 118.421 380.102 113.776 380.102 108.787C380.102 98.6348 370.24 90.548 358.322 90.548H288.519C277.575 90.548 266.735 82.1172 255.791 82.1172H216.801C211.099 82.1172 206.477 77.4953 206.477 71.7933C206.477 66.0919 211.099 61.4699 216.801 61.4699H304.077C308.187 61.4699 312.091 60.0935 314.762 57.8568C317.433 55.6197 319.077 52.5229 319.077 48.9093C319.077 42.0272 312.296 36.3493 304.077 36.3493H102.919C98.8088 36.3493 94.905 37.7257 92.2339 39.9628C89.5628 42.1995 87.9191 45.2963 87.9191 48.9093C87.9191 55.792 94.6995 61.4699 102.919 61.4699H108.055C114.836 61.4699 120.589 66.1154 120.589 71.9656C120.589 74.8906 119.151 77.4712 116.891 79.3639C114.63 81.2565 111.548 82.4612 108.055 82.4612H83.1929C78.8781 82.4612 74.7687 84.0099 71.8922 86.4188C69.0151 88.8276 67.1659 92.0967 67.1659 95.882C67.1659 103.28 74.3578 109.131 82.9874 109.131H108.261C116.48 109.131 123.26 114.808 123.26 121.691C123.26 125.132 121.617 128.229 118.946 130.466C116.275 132.702 112.576 134.079 108.466 134.079H85.8644C82.1655 134.079 78.8781 135.284 76.4125 137.348C73.9469 139.413 72.5086 142.166 72.5086 145.263C72.5086 151.457 78.4671 156.447 85.8644 156.447H104.151C114.63 156.447 123.055 163.501 123.055 172.276C123.055 176.578 121 180.707 117.507 183.46C114.014 186.385 109.288 188.106 104.151 188.106H78.6726C73.5359 188.106 68.8097 189.826 65.5222 192.751C62.0293 195.504 59.9746 199.462 59.9746 203.763C59.9746 212.366 68.3987 219.421 78.6726 219.421H157.352C166.038 219.421 174.572 224.238 183.259 224.238H197.611C203.075 224.238 207.505 228.668 207.505 234.132C207.505 239.596 203.075 244.025 197.611 244.025H162.712C158.191 244.025 154.287 245.574 151.41 247.983C148.534 250.391 146.685 253.833 146.685 257.446C146.685 264.845 153.876 270.867 162.712 270.867H376.404C380.924 270.867 384.829 269.318 387.705 266.909C390.582 264.5 392.431 261.059 392.431 257.446C392.431 250.047 385.24 244.025 376.404 244.025H370.035C363.459 244.025 358.322 239.552 358.322 234.218C358.322 231.465 359.555 229.056 361.815 227.335C363.87 225.615 366.952 224.411 370.24 224.411H397.157C401.677 224.411 405.581 222.862 408.458 220.453C411.334 218.044 413.184 214.603 413.184 210.99C413.184 203.247 405.992 197.225 397.157 197.225Z" fill="url(#paint2_linear_513_18285)"/>
<mask id="mask0_513_18285" style="mask-type:luminance" maskUnits="userSpaceOnUse" x="95" y="12" width="283" height="225">
<path d="M377.634 153.321C377.633 131.031 372.351 109.059 362.219 89.2045C352.087 69.3505 337.394 52.1801 319.345 39.101C296.723 22.7099 269.744 13.4048 241.828 12.3656C213.912 11.3265 186.316 18.5999 162.538 33.2639C138.761 47.9279 119.873 69.322 108.269 94.7337C96.6657 120.145 92.8691 148.43 97.3606 176.003C100.945 198.003 109.692 218.84 122.884 236.806L150.034 216.871C139.992 203.194 133.333 187.333 130.605 170.586C127.876 153.84 129.155 136.685 134.337 120.528C139.519 104.372 148.457 89.6729 160.416 77.6373C172.376 65.6017 187.018 56.5718 203.142 51.2878C219.265 46.0039 236.411 44.6163 253.175 47.2388C269.938 49.8614 285.842 56.4194 299.581 66.3753C313.321 76.3312 324.505 89.4014 332.217 104.515C339.93 119.628 343.951 136.354 343.951 153.321H377.634Z" fill="white"/>
</mask>
<g mask="url(#mask0_513_18285)">
<path d="M377.634 153.321C377.633 131.031 372.351 109.059 362.219 89.2045C352.087 69.3505 337.394 52.1801 319.345 39.101C296.723 22.7099 269.744 13.4048 241.828 12.3656C213.912 11.3265 186.316 18.5999 162.538 33.2639C138.761 47.9279 119.873 69.322 108.269 94.7337C96.6657 120.145 92.8691 148.43 97.3606 176.003C100.945 198.003 109.692 218.84 122.884 236.806L150.034 216.871C139.992 203.194 133.333 187.333 130.605 170.586C127.876 153.84 129.155 136.685 134.337 120.528C139.519 104.372 148.457 89.6729 160.416 77.6373C172.376 65.6017 187.018 56.5718 203.142 51.2878C219.265 46.0039 236.411 44.6163 253.175 47.2388C269.938 49.8614 285.842 56.4194 299.581 66.3753C313.321 76.3312 324.505 89.4014 332.217 104.515C339.93 119.628 343.951 136.354 343.951 153.321H377.634Z" fill="white" stroke="#E1E4E5" stroke-width="11.2444"/>
</g>
<path d="M236.579 264.666C298.073 264.666 347.923 214.815 347.923 153.321C347.923 91.8273 298.073 41.9766 236.579 41.9766C175.085 41.9766 125.234 91.8273 125.234 153.321C125.234 214.815 175.085 264.666 236.579 264.666Z" fill="white" stroke="#E1E4E5" stroke-width="5.62222"/>
<mask id="mask1_513_18285" style="mask-type:luminance" maskUnits="userSpaceOnUse" x="122" y="39" width="196" height="115">
<path d="M122.422 153.321C122.422 130.744 129.118 108.673 141.661 89.9005C154.205 71.128 172.034 56.4966 192.893 47.8565C213.752 39.2164 236.704 36.9557 258.848 41.3601C280.992 45.7645 301.333 56.6364 317.298 72.6009L236.578 153.321H122.422Z" fill="white"/>
</mask>
<g mask="url(#mask1_513_18285)">
<path d="M122.422 153.321C122.422 130.744 129.118 108.673 141.661 89.9005C154.205 71.128 172.034 56.4966 192.893 47.8565C213.752 39.2164 236.704 36.9557 258.848 41.3601C280.992 45.7645 301.333 56.6364 317.298 72.6009L236.578 153.321H122.422Z" fill="white" stroke="#E1E4E5" stroke-width="11.2444"/>
</g>
<mask id="mask2_513_18285" style="mask-type:luminance" maskUnits="userSpaceOnUse" x="141" y="153" width="159" height="115">
<path d="M299.972 248.256C274.793 265.069 243.967 271.191 214.275 265.277C184.582 259.361 158.456 241.893 141.643 216.715L236.578 153.321L299.972 248.256Z" fill="white"/>
</mask>
<g mask="url(#mask2_513_18285)">
<path d="M299.972 248.256C274.793 265.069 243.967 271.191 214.275 265.277C184.582 259.361 158.456 241.893 141.643 216.715L236.578 153.321L299.972 248.256Z" fill="white" stroke="#E1E4E5" stroke-width="11.2444"/>
</g>
<path d="M300.806 204.94C297.636 204.94 295.065 202.37 295.065 199.199C295.065 196.028 297.636 193.458 300.806 193.458C303.977 193.458 306.547 196.028 306.547 199.199C306.547 202.37 303.977 204.94 300.806 204.94Z" fill="#E1E4E5"/>
<path d="M371.607 250.731C371.607 252.352 372.921 253.667 374.543 253.667C376.164 253.667 377.479 252.352 377.479 250.731C377.479 249.109 376.164 247.795 374.543 247.795C372.921 247.795 371.607 249.109 371.607 250.731Z" fill="#E1E4E5"/>
<path d="M371.609 262.474C371.609 264.096 372.923 265.41 374.545 265.41C376.166 265.41 377.48 264.096 377.48 262.474C377.48 260.853 376.166 259.539 374.545 259.539C372.923 259.539 371.609 260.853 371.609 262.474Z" fill="#E1E4E5"/>
<path d="M371.609 274.218C371.609 275.84 372.923 277.154 374.545 277.154C376.166 277.154 377.48 275.84 377.48 274.218C377.48 272.597 376.166 271.283 374.545 271.283C372.923 271.283 371.609 272.597 371.609 274.218Z" fill="#E1E4E5"/>
<path d="M361.962 250.731C361.962 252.352 363.277 253.666 364.898 253.666C366.52 253.666 367.834 252.352 367.834 250.731C367.834 249.109 366.52 247.795 364.898 247.795C363.277 247.795 361.962 249.109 361.962 250.731Z" fill="#E1E4E5"/>
<path d="M361.962 262.474C361.962 264.096 363.277 265.41 364.898 265.41C366.52 265.41 367.834 264.096 367.834 262.474C367.834 260.853 366.52 259.539 364.898 259.539C363.277 259.539 361.962 260.853 361.962 262.474Z" fill="#E1E4E5"/>
<path d="M361.962 274.218C361.962 275.84 363.277 277.154 364.898 277.154C366.52 277.154 367.834 275.84 367.834 274.218C367.834 272.597 366.52 271.282 364.898 271.282C363.277 271.282 361.962 272.597 361.962 274.218Z" fill="#E1E4E5"/>
<path d="M352.314 250.731C352.314 252.352 353.628 253.666 355.25 253.666C356.871 253.666 358.186 252.352 358.186 250.731C358.186 249.109 356.871 247.795 355.25 247.795C353.628 247.795 352.314 249.109 352.314 250.731Z" fill="#E1E4E5"/>
<path d="M352.316 262.474C352.316 264.096 353.63 265.41 355.252 265.41C356.873 265.41 358.188 264.096 358.188 262.474C358.188 260.853 356.873 259.539 355.252 259.539C353.63 259.539 352.316 260.853 352.316 262.474Z" fill="#E1E4E5"/>
<path d="M352.316 274.218C352.316 275.84 353.63 277.154 355.252 277.154C356.873 277.154 358.188 275.84 358.188 274.218C358.188 272.597 356.873 271.283 355.252 271.283C353.63 271.283 352.316 272.597 352.316 274.218Z" fill="#E1E4E5"/>
<path d="M342.667 250.731C342.667 252.352 343.982 253.667 345.603 253.667C347.225 253.667 348.539 252.352 348.539 250.731C348.539 249.109 347.225 247.795 345.603 247.795C343.982 247.795 342.667 249.109 342.667 250.731Z" fill="#E1E4E5"/>
<path d="M342.667 262.474C342.667 264.096 343.982 265.41 345.603 265.41C347.225 265.41 348.539 264.096 348.539 262.474C348.539 260.853 347.225 259.539 345.603 259.539C343.982 259.539 342.667 260.853 342.667 262.474Z" fill="#E1E4E5"/>
<path d="M342.667 274.218C342.667 275.84 343.982 277.154 345.603 277.154C347.225 277.154 348.539 275.84 348.539 274.218C348.539 272.597 347.225 271.283 345.603 271.283C343.982 271.283 342.667 272.597 342.667 274.218Z" fill="#E1E4E5"/>
<path d="M333.021 250.731C333.021 252.352 334.335 253.667 335.957 253.667C337.578 253.667 338.893 252.352 338.893 250.731C338.893 249.109 337.578 247.795 335.957 247.795C334.335 247.795 333.021 249.109 333.021 250.731Z" fill="#E1E4E5"/>
<path d="M333.021 262.474C333.021 264.096 334.335 265.41 335.957 265.41C337.578 265.41 338.893 264.096 338.893 262.474C338.893 260.853 337.578 259.539 335.957 259.539C334.335 259.539 333.021 260.853 333.021 262.474Z" fill="#E1E4E5"/>
<path d="M333.021 274.218C333.021 275.84 334.335 277.154 335.957 277.154C337.578 277.154 338.893 275.84 338.893 274.218C338.893 272.597 337.578 271.283 335.957 271.283C334.335 271.283 333.021 272.597 333.021 274.218Z" fill="#E1E4E5"/>
<path d="M229.022 106.455C231.353 105.109 233.997 104.401 236.688 104.401C239.38 104.401 242.024 105.109 244.355 106.455L273.48 123.27C275.811 124.616 277.746 126.552 279.092 128.883C280.438 131.214 281.146 133.858 281.146 136.549V170.18C281.146 172.871 280.438 175.515 279.092 177.846C277.746 180.177 275.811 182.112 273.48 183.458L244.355 200.273C242.024 201.619 239.38 202.328 236.688 202.328C233.997 202.328 231.353 201.619 229.022 200.273L199.897 183.458C197.566 182.112 195.631 180.177 194.285 177.846C192.939 175.515 192.23 172.871 192.23 170.18V136.549C192.23 133.858 192.939 131.214 194.285 128.883C195.63 126.552 197.566 124.616 199.897 123.27L229.022 106.455Z" fill="#F08519"/>
<path d="M252.567 143.774L233.829 162.363L222.586 151.21" stroke="white" stroke-width="5.62222" stroke-linecap="round" stroke-linejoin="round"/>
<path fill-rule="evenodd" clip-rule="evenodd" d="M391.968 180.871V130.005C391.968 127.592 391.168 125.274 389.75 123.572L379.026 110.691C377.604 108.984 375.675 108.023 373.666 108.023H331.316C327.127 108.023 323.734 112.098 323.734 117.129V180.871C323.734 185.903 327.127 189.977 331.316 189.977H384.386C388.575 189.977 391.968 185.903 391.968 180.871Z" fill="#F08519" stroke="#F08519" stroke-width="6.06689" stroke-linecap="round" stroke-linejoin="round"/>
<path fill-rule="evenodd" clip-rule="evenodd" d="M369.635 169.819C369.635 166.049 372.736 162.989 376.556 162.989C380.377 162.989 383.478 166.049 383.478 169.819C383.478 173.589 380.377 176.648 376.556 176.648C372.736 176.648 369.635 173.589 369.635 169.819Z" fill="white"/>
<path d="M336.822 140.154H379.459M336.822 155.998H379.459M336.822 171.854H361.371M336.822 124.321H356.941" stroke="white" stroke-width="5.62222" stroke-linecap="round" stroke-linejoin="round"/>
<path fill-rule="evenodd" clip-rule="evenodd" d="M150.952 126.945H126.105C120.639 126.945 116.166 131.417 116.166 136.884V161.731C116.166 167.197 120.639 171.67 126.105 171.67H150.952C156.418 171.67 160.891 167.197 160.891 161.731V136.884C160.891 131.417 156.418 126.945 150.952 126.945Z" fill="#F08519" stroke="#F08519" stroke-width="4.63833" stroke-linecap="round" stroke-linejoin="round"/>
<path d="M135.051 141.854L143.002 149.308L135.051 156.762" stroke="white" stroke-width="5.62222" stroke-linecap="round" stroke-linejoin="round"/>
</g>
<defs>
<linearGradient id="paint0_linear_513_18285" x1="395.276" y1="190.761" x2="455.702" y2="142.964" gradientUnits="userSpaceOnUse">
<stop stop-color="white"/>
<stop offset="1" stop-color="#EEEEEE"/>
</linearGradient>
<linearGradient id="paint1_linear_513_18285" x1="94.2725" y1="96.8086" x2="5.53394" y2="14.3587" gradientUnits="userSpaceOnUse">
<stop stop-color="white"/>
<stop offset="1" stop-color="#EEEEEE"/>
</linearGradient>
<linearGradient id="paint2_linear_513_18285" x1="244.11" y1="402.35" x2="239.309" y2="-218.813" gradientUnits="userSpaceOnUse">
<stop stop-color="white"/>
<stop offset="1" stop-color="#EEEEEE"/>
</linearGradient>
<clipPath id="clip0_513_18285">
<rect width="460" height="306.667" fill="white"/>
</clipPath>
</defs>
</svg>
