<svg width="460" height="333" viewBox="0 0 460 333" fill="none" xmlns="http://www.w3.org/2000/svg">
<g clip-path="url(#clip0_513_17266)">
<path d="M40.4746 311.592H432.374" stroke="#E1E4E5" stroke-width="2.56983"/>
<path d="M223.261 102.818C220.538 107.089 213.425 112.067 208.38 111.998C191.193 111.684 185.534 99.9761 183.68 95.7134C184.029 95.6286 184.616 95.5605 185.033 95.5091C188.197 95.0498 191.431 91.9191 192.375 88.3881C193.592 83.7933 195.09 74.8085 194.911 69.0996L216.65 81.1303C216.616 82.7807 216.505 84.5848 216.352 86.4055C216.247 87.4901 216.131 88.5735 216.003 89.6557C215.888 90.6103 215.761 91.5634 215.62 92.5146C215.221 95.4924 216.548 98.4445 219.058 100.087L223.261 102.818Z" fill="#F8AE9D"/>
<path d="M225.132 56.0218C223.957 59.1017 224.451 62.5992 225.642 65.6702C226.484 67.8404 228.356 65.9259 230.688 65.9683C234.295 66.028 237.111 62.2754 239.29 52.3295C240.676 45.0293 241.025 41.3281 240.744 40.622C239.749 38.0946 236.465 36.7416 233.759 36.5039" fill="#5F4225"/>
<path d="M230.62 34.1467C236.303 40.9959 238.37 60.2677 233.572 73.6938C230.16 83.2401 226.195 89.4006 221.566 89.2047C214.538 88.9066 200.917 83.1296 196.484 78.3054C188.494 69.6181 190.817 52.5846 192.468 41.8639C193.966 32.1217 198.526 19.4697 210.769 21.8777C218.818 23.4517 225.523 27.9951 230.62 34.1467Z" fill="#F8AE9D"/>
<path d="M198.465 41.7123C199.725 43.3319 201.947 43.6891 203.778 44.0091C206.24 44.4395 207.457 45.3364 208.734 47.743C209.544 49.2798 210.353 50.9637 211.8 51.7963C212.976 52.476 212.932 50.7401 213.122 49.3948C213.139 49.2775 213.163 49.1612 213.194 49.0466C213.479 47.973 214.623 48.1574 214.96 49.2162C215.266 50.1677 215.922 50.9727 216.757 51.4211C216.893 51.4943 217.037 51.5586 217.182 51.531C217.378 51.504 217.531 51.3209 217.659 51.1558C217.927 50.8101 218.194 50.3713 218.469 49.9062C219.373 48.3803 221.078 48.929 222.087 50.3874C222.717 51.2932 223.467 52.2267 224.498 52.4368C224.83 52.5101 225.247 52.4555 225.4 52.1349C225.596 51.7417 225.289 51.3479 225.341 50.9457C225.383 50.5705 225.545 50.4054 225.723 50.0854C226.426 48.8403 228.029 48.796 229.017 49.8291C229.705 50.5473 230.421 51.2372 231.165 51.8972C231.48 52.1715 231.94 52.4465 232.255 52.1715C232.426 52.025 232.468 51.7783 232.502 51.5399C232.681 50.3784 232.851 49.2162 233.03 48.054C233.132 47.4044 233.482 46.5532 234.078 46.7177C234.367 46.8005 234.537 47.1025 234.699 47.3768C234.895 47.7244 238.395 51.6864 238.463 51.3845C239.008 49.1339 240.124 47.0839 240.669 44.8327C244.195 30.3472 228.551 18.6988 216.603 18.6345C213.947 18.6159 211.519 18.6589 208.939 19.2725C206.188 19.931 203.284 20.9769 200.789 22.4501C197.29 24.5092 194.641 28.2515 195.322 32.7172" fill="#5F4225"/>
<path d="M249.866 239.445C250.581 239.565 251.305 239.667 252.053 239.693C256.035 239.82 259.881 238.944 263.769 238.28C267.189 237.693 268.117 237.37 268.049 233.243C267.453 200.563 262.646 167.967 254.002 136.443C252.683 131.627 251.245 126.778 248.718 122.472C244.404 115.13 234.501 108.791 226.902 105.235C225.831 104.732 221.389 107.557 220.309 107.072C219.364 106.647 218.53 105.983 217.577 105.566C214.787 104.349 212.915 106.893 210.583 107.957C209.375 108.502 208.031 108.85 206.703 108.791C205.623 108.748 204.644 108.094 203.657 108.604C199.216 110.901 188.189 93.8503 188.189 93.8503L183.399 98.8274L169.42 113.47L134.485 161.603C134.485 161.603 128.145 201.048 123.79 226.905C123.032 231.363 120.037 241.003 119.441 244.381C119.569 243.649 149.264 243.453 150.863 243.453H211.383C214.778 243.453 223.908 244.891 226.29 242.398C229.225 239.335 232.62 225.279 232.799 221.34C233.386 208.092 232.475 194.947 232.297 181.623C232.373 187.043 233.93 191.943 234.594 197.253C235.453 204.085 236.678 210.909 237.785 217.707C238.669 223.169 239.52 228.648 240.201 234.145C240.508 236.621 240.116 238.093 242.209 239.063C243.97 239.871 247.808 239.097 249.866 239.445Z" fill="#F08519"/>
<path d="M200.419 213.989C200.419 213.989 206.631 217.511 206.077 224.998C205.524 232.486 203.278 241.165 193.902 240.254C184.526 239.352 200.419 213.989 200.419 213.989Z" fill="#5F4225"/>
<path d="M170.39 143.99C170.406 148.696 169.752 153.409 168.527 157.97C167.292 162.53 165.489 166.929 163.396 171.166C162.349 173.284 161.235 175.361 160.086 177.411C158.955 179.47 157.789 181.512 156.836 183.606C156.368 184.652 155.96 185.732 155.798 186.796C155.755 187.315 155.713 187.851 155.857 188.302C155.891 188.549 156.036 188.736 156.121 188.957C156.283 189.153 156.393 189.365 156.597 189.553C158.121 191.075 160.299 192.105 162.366 193.1C170.857 196.972 179.876 199.839 188.47 203.702C192.767 205.634 197.021 207.718 200.977 210.322L201.709 210.815C201.956 210.985 202.186 211.206 202.424 211.402C202.862 211.827 203.242 212.308 203.555 212.832C204.185 213.861 204.61 214.984 204.942 216.124C205.572 218.413 205.835 220.77 205.853 223.127C205.699 220.787 205.308 218.447 204.619 216.226C203.888 214.023 202.756 211.879 200.637 210.849C196.664 208.382 192.401 206.416 188.079 204.604C183.748 202.817 179.366 201.124 174.967 199.482C170.568 197.814 166.144 196.223 161.822 194.249C159.695 193.194 157.508 192.199 155.695 190.369C155.466 190.148 155.279 189.842 155.083 189.578C154.939 189.255 154.743 188.949 154.692 188.608C154.488 187.927 154.556 187.255 154.616 186.617C154.819 185.358 155.279 184.218 155.773 183.129C156.785 180.951 157.967 178.917 159.116 176.867C160.265 174.816 161.422 172.783 162.52 170.715C166.901 162.479 169.947 153.418 170.39 143.99Z" fill="white"/>
<path d="M234.634 203.241C234.611 202.825 234.664 202.413 234.65 201.996C234.632 201.546 234.582 201.105 234.548 200.655L234.301 198.078C234.143 196.324 233.984 194.568 233.851 192.812C233.588 189.332 233.408 185.84 233.314 182.351C233.134 175.374 233.235 168.38 233.704 161.417C233.833 159.466 233.996 157.523 234.176 155.578C234.274 154.584 234.379 153.582 234.485 152.587C234.593 151.609 234.751 150.638 234.763 149.648C234.771 149.034 233.849 148.992 233.71 149.563C233.302 151.256 233.243 153.075 233.068 154.806C232.901 156.546 232.752 158.287 232.62 160.029C232.366 163.545 232.198 167.067 232.115 170.591C231.964 177.604 232.215 184.621 232.813 191.618C232.983 193.585 233.178 195.542 233.416 197.497C233.541 198.496 233.665 199.486 233.815 200.484C233.882 200.923 233.94 201.362 234.025 201.792C234.129 202.298 234.318 202.764 234.423 203.27C234.481 203.386 234.648 203.342 234.634 203.241Z" fill="white"/>
<path d="M232.678 67.4485C232.737 67.4485 232.898 67.3553 232.763 67.3553C232.694 67.3553 232.542 67.4485 232.678 67.4485Z" fill="#CC6144"/>
<path d="M386.788 311.592H86.0638C77.0565 311.592 70.0293 305.166 70.0293 297.563V130.957C70.0293 123.354 77.0565 116.927 86.0638 116.927H386.788C395.795 116.927 402.823 123.354 402.823 130.957V297.563C402.823 305.166 395.795 311.592 386.788 311.592Z" fill="white" stroke="#E1E4E5" stroke-width="2.56983"/>
<path d="M403.13 137.996H70.0293V132.978C70.0293 124.115 77.2171 116.927 86.0798 116.927H387.08C395.943 116.927 403.13 124.115 403.13 132.978V137.996Z" fill="white" stroke="#E1E4E5" stroke-width="2.56983"/>
<path d="M86.1098 131.945C87.0972 131.945 88.0441 131.553 88.7423 130.854C89.4406 130.156 89.8328 129.209 89.8328 128.222C89.8328 127.234 89.4406 126.287 88.7423 125.589C88.0441 124.891 87.0972 124.499 86.1098 124.499C85.1223 124.499 84.1754 124.891 83.4772 125.589C82.779 126.287 82.3867 127.234 82.3867 128.222C82.3867 129.209 82.779 130.156 83.4772 130.854C84.1754 131.553 85.1223 131.945 86.1098 131.945ZM101.622 131.945C102.115 131.951 102.604 131.86 103.062 131.676C103.519 131.491 103.935 131.218 104.286 130.872C104.637 130.525 104.916 130.112 105.106 129.658C105.296 129.203 105.394 128.714 105.394 128.221C105.394 127.728 105.296 127.24 105.106 126.785C104.916 126.33 104.637 125.917 104.286 125.571C103.935 125.225 103.519 124.951 103.061 124.767C102.604 124.583 102.114 124.492 101.621 124.498C100.642 124.511 99.7077 124.909 99.02 125.606C98.3323 126.303 97.9467 127.243 97.9468 128.222C97.9469 129.201 98.3326 130.141 99.0204 130.837C99.7083 131.534 100.643 131.932 101.622 131.945ZM116.513 131.945C117.002 131.945 117.486 131.848 117.938 131.661C118.39 131.474 118.8 131.2 119.146 130.854C119.491 130.508 119.766 130.098 119.953 129.646C120.14 129.194 120.236 128.71 120.236 128.221C120.236 127.732 120.139 127.248 119.952 126.797C119.765 126.345 119.491 125.934 119.145 125.589C118.799 125.243 118.389 124.969 117.937 124.782C117.485 124.595 117.001 124.499 116.512 124.499C115.525 124.499 114.578 124.891 113.88 125.59C113.182 126.288 112.79 127.235 112.79 128.222C112.79 129.21 113.182 130.157 113.881 130.855C114.579 131.553 115.526 131.945 116.513 131.945Z" fill="#E1E4E5"/>
<path d="M145.837 159.33H110.502C104.115 159.33 98.9375 164.507 98.9375 170.894V205.587C98.9375 211.973 104.115 217.151 110.502 217.151H145.837C152.224 217.151 157.401 211.973 157.401 205.587V170.894C157.401 164.507 152.224 159.33 145.837 159.33Z" fill="white" stroke="#E1E4E5" stroke-width="2.56983"/>
<path d="M145.837 228.715H110.502C104.115 228.715 98.9375 233.893 98.9375 240.279V274.972C98.9375 281.359 104.115 286.536 110.502 286.536H145.837C152.224 286.536 157.401 281.359 157.401 274.972V240.279C157.401 233.893 152.224 228.715 145.837 228.715Z" fill="white" stroke="#E1E4E5" stroke-width="2.56983"/>
<path d="M215.866 159.33H180.531C174.144 159.33 168.967 164.507 168.967 170.894V205.587C168.967 211.973 174.144 217.151 180.531 217.151H215.866C222.253 217.151 227.43 211.973 227.43 205.587V170.894C227.43 164.507 222.253 159.33 215.866 159.33Z" fill="white" stroke="#E1E4E5" stroke-width="2.56983"/>
<path d="M215.866 228.715H180.531C174.144 228.715 168.967 233.893 168.967 240.279V274.972C168.967 281.359 174.144 286.536 180.531 286.536H215.866C222.253 286.536 227.43 281.359 227.43 274.972V240.279C227.43 233.893 222.253 228.715 215.866 228.715Z" fill="white" stroke="#E1E4E5" stroke-width="2.56983"/>
<path d="M285.251 159.33H249.916C243.529 159.33 238.352 164.507 238.352 170.894V205.587C238.352 211.973 243.529 217.151 249.916 217.151H285.251C291.638 217.151 296.815 211.973 296.815 205.587V170.894C296.815 164.507 291.638 159.33 285.251 159.33Z" fill="white" stroke="#E1E4E5" stroke-width="2.56983"/>
<path d="M354.638 159.33H319.303C312.916 159.33 307.738 164.507 307.738 170.894V205.587C307.738 211.973 312.916 217.151 319.303 217.151H354.638C361.024 217.151 366.202 211.973 366.202 205.587V170.894C366.202 164.507 361.024 159.33 354.638 159.33Z" fill="white" stroke="#E1E4E5" stroke-width="2.56983"/>
<path d="M285.251 227.43H249.916C242.819 227.43 237.066 233.183 237.066 240.279V274.972C237.066 282.069 242.819 287.821 249.916 287.821H285.251C292.347 287.821 298.1 282.069 298.1 274.972V240.279C298.1 233.183 292.347 227.43 285.251 227.43Z" fill="#B26110"/>
<path fill-rule="evenodd" clip-rule="evenodd" d="M267.904 266.425L274.07 269.638C275.271 270.265 276.673 269.252 276.444 267.926L275.267 261.112L280.257 256.291C281.228 255.352 280.691 253.716 279.351 253.521L272.455 252.528L269.372 246.325C268.773 245.117 267.034 245.117 266.436 246.325L263.353 252.528L256.456 253.526C255.116 253.716 254.579 255.356 255.551 256.296L260.541 261.116L259.364 267.929C259.134 269.256 260.536 270.269 261.737 269.642L267.904 266.425Z" fill="white"/>
<path d="M354.638 228.715H319.303C312.916 228.715 307.738 233.893 307.738 240.279V274.972C307.738 281.359 312.916 286.536 319.303 286.536H354.638C361.024 286.536 366.202 281.359 366.202 274.972V240.279C366.202 233.893 361.024 228.715 354.638 228.715Z" fill="white" stroke="#E1E4E5" stroke-width="2.56983"/>
<path d="M183.014 217.312C183.014 217.312 195.083 219.09 200.975 216.691C206.805 214.317 220.536 205.226 233.684 203.605C233.807 203.589 233.932 203.617 234.037 203.683C234.141 203.749 234.22 203.849 234.259 203.967C234.532 204.829 234.679 206.915 230.78 208.955C225.7 211.603 221.862 213.73 221.862 213.73C221.862 213.73 245.78 219.991 252.135 222.169C253.39 222.598 254.351 223.084 255.093 223.602C257.408 225.216 255.712 228.847 252.971 228.17L236.932 224.211C236.932 224.211 238.317 225.483 237.784 227.076C237.276 228.581 234.371 229.591 231.893 228.826C231.893 228.826 233.328 230.385 232.064 232.173C230.8 233.96 227.746 233.895 226.273 233.56C226.273 233.56 227.964 234.75 227.425 236.3C226.886 237.85 223.513 238.59 222.432 238.486C221.352 238.381 212.24 239.085 198.975 233.974L181.109 238.029C181.109 238.029 175.75 233.645 183.014 217.312Z" fill="#F8AE9D"/>
<path d="M195.412 239.514C172.933 247.316 142.856 239.862 123.788 226.905C111.843 218.805 104.219 208.518 105.504 198.469C108.831 172.366 129.344 112.535 147.093 103.805C159.158 97.8663 173.792 95.4076 181.952 94.4202C185.78 93.9525 188.172 93.842 188.172 93.842L185.211 102.197L170.389 143.99C169.836 168.792 152.087 183.52 155.618 189.297C159.149 195.057 187.031 201.277 201.674 211.138C205.724 213.878 210.863 233.694 195.412 239.514Z" fill="#F08519"/>
<path d="M405.095 131.928C396.177 134.041 386.744 126.478 386.744 126.478C386.744 126.478 391.778 115.493 400.699 113.386C409.618 111.274 419.047 118.83 419.047 118.83C419.047 118.83 414.013 129.816 405.095 131.928Z" fill="url(#paint0_linear_513_17266)"/>
<path d="M144.514 69.8487C153.903 76.3157 168.247 71.7947 168.247 71.7947C168.247 71.7947 167.359 56.7901 157.964 50.3296C148.574 43.8619 134.236 48.3765 134.236 48.3765C134.236 48.3765 135.124 63.3811 144.514 69.8487Z" fill="url(#paint1_linear_513_17266)"/>
<path d="M323.512 89.9865C333.691 100.346 352.726 98.1618 352.726 98.1618C352.726 98.1618 355.245 79.1804 345.056 68.8265C334.877 58.4669 315.852 60.6448 315.852 60.6448C315.852 60.6448 313.333 79.6263 323.512 89.9865Z" fill="url(#paint2_linear_513_17266)"/>
<path d="M382.117 214.581C377.94 214.581 374.553 217.821 374.553 221.817C374.553 225.813 377.94 229.053 382.117 229.053C386.295 229.053 389.682 225.813 389.682 221.817C389.682 217.821 386.295 214.581 382.117 214.581Z" fill="#F08519"/>
<path d="M100.138 249.916C94.5072 249.916 89.9424 254.334 89.9424 259.783C89.9424 265.232 94.5072 269.65 100.138 269.65C105.769 269.65 110.334 265.232 110.334 259.783C110.334 254.334 105.769 249.916 100.138 249.916Z" fill="#F08519"/>
<path d="M42.1636 174.917C40.1656 174.917 38.5459 173.297 38.5459 171.299C38.5459 169.301 40.1656 167.682 42.1636 167.682C44.1616 167.682 45.7812 169.301 45.7812 171.299C45.7812 173.297 44.1616 174.917 42.1636 174.917Z" fill="#F08519"/>
<path d="M381.46 88.9818C377.645 88.9818 374.553 85.8894 374.553 82.0747C374.553 78.2601 377.645 75.1677 381.46 75.1677C385.275 75.1677 388.367 78.2601 388.367 82.0747C388.367 85.8894 385.275 88.9818 381.46 88.9818Z" fill="#F08519"/>
<path d="M381.46 299.693C377.645 299.693 374.553 296.747 374.553 293.114C374.553 289.481 377.645 286.536 381.46 286.536C385.275 286.536 388.367 289.481 388.367 293.114C388.367 296.747 385.275 299.693 381.46 299.693Z" fill="#E1E4E5"/>
<path d="M86.0906 222.29C83.9616 222.29 82.2358 220.565 82.2358 218.436C82.2358 216.307 83.9616 214.581 86.0906 214.581C88.2195 214.581 89.9453 216.307 89.9453 218.436C89.9453 220.565 88.2195 222.29 86.0906 222.29Z" fill="#E1E4E5"/>
<path d="M165.486 301.421C164.215 301.421 163.184 300.39 163.184 299.118C163.184 297.847 164.215 296.816 165.486 296.816C166.758 296.816 167.789 297.847 167.789 299.118C167.789 300.39 166.758 301.421 165.486 301.421Z" fill="#E1E4E5"/>
<path d="M308.455 57.3317C306.639 57.3317 305.167 55.8593 305.167 54.043C305.167 52.2266 306.639 50.7542 308.455 50.7542C310.272 50.7542 311.744 52.2266 311.744 54.043C311.744 55.8593 310.272 57.3317 308.455 57.3317Z" fill="#E1E4E5"/>
<path d="M43.6624 247.239C44.1218 248.954 43.1043 250.716 41.3896 251.175C39.6749 251.635 37.9124 250.617 37.453 248.903C36.9935 247.188 38.0111 245.426 39.7258 244.966C41.4405 244.507 43.2029 245.524 43.6624 247.239Z" fill="#E1E4E5"/>
<path d="M97.4315 97.8528C95.0701 97.8528 93.1559 95.9386 93.1559 93.5773C93.1559 91.2159 95.0701 89.3017 97.4315 89.3017C99.7928 89.3017 101.707 91.2159 101.707 93.5773C101.707 95.9386 99.7928 97.8528 97.4315 97.8528Z" fill="#E1E4E5"/>
<path d="M384.266 163.306C382.45 163.306 380.977 162.129 380.977 160.676C380.977 159.223 382.45 158.045 384.266 158.045C386.082 158.045 387.555 159.223 387.555 160.676C387.555 162.129 386.082 163.306 384.266 163.306Z" fill="#E1E4E5"/>
<path d="M289.623 91.9072C290.579 95.4754 288.462 99.143 284.894 100.099C281.326 101.055 277.658 98.9377 276.702 95.3695C275.746 91.8014 277.863 88.1338 281.431 87.1777C285 86.2216 288.667 88.3391 289.623 91.9072Z" fill="#E1E4E5"/>
<path d="M419.557 171.67H419.643C420.153 178.889 425.522 179 425.522 179C425.522 179 419.601 179.115 419.601 187.457C419.601 179.115 413.681 179 413.681 179C413.681 179 419.048 178.889 419.557 171.67ZM54.4481 97.6536H54.5959C55.4735 110.287 64.7197 110.482 64.7197 110.482C64.7197 110.482 54.5239 110.683 54.5239 125.281C54.5239 110.683 44.3281 110.482 44.3281 110.482C44.3281 110.482 53.5705 110.287 54.4481 97.6536Z" fill="#E1E4E5"/>
<path d="M228.646 106.043C226.501 108.17 216.955 114.968 207.851 114.968C206.336 114.968 204.737 114.832 203.044 114.517C195.403 113.122 188.971 108.026 185.21 102.189C184.524 101.115 183.918 99.9911 183.398 98.8275C182.717 97.3646 182.232 95.867 181.951 94.4202C185.78 93.9525 189.439 92.9907 190.035 92.3104C190.681 96.769 196.186 104.818 204.524 106.332C205.571 106.528 206.558 106.613 207.502 106.63H207.519C211.433 106.698 214.436 105.447 216.487 104.188C216.504 104.188 220.477 101.057 220.494 101.04L228.646 106.043Z" fill="#5F4225"/>
<path d="M206.448 44.0849C206.286 41.4726 205.827 38.7075 204.091 36.7422L199.071 29.9778C197.31 28.9055 191.507 29.3398 189.627 30.1821C177.264 35.7123 184.207 61.2121 191.448 71.2268C192.426 72.5708 193.575 79.3944 194.656 77.9822C195.949 76.2977 195.881 69.0739 195.651 67.0913C195.464 65.543 194.383 63.9008 193.702 62.4373C192.562 60.0127 190.546 56.1155 193.983 52.9077C196.136 50.8917 200.918 52.1079 201.956 55.299C202.628 57.358 202.585 61.1781 202.84 61.2629C203.64 61.5353 204.023 56.6089 204.542 55.6138C206.363 52.1169 206.686 48.0244 206.448 44.0849Z" fill="#5F4225"/>
</g>
<defs>
<linearGradient id="paint0_linear_513_17266" x1="371.51" y1="137.182" x2="449.583" y2="100.297" gradientUnits="userSpaceOnUse">
<stop stop-color="white"/>
<stop offset="1" stop-color="#EEEEEE"/>
</linearGradient>
<linearGradient id="paint1_linear_513_17266" x1="181.089" y1="91.0685" x2="107.179" y2="13.1325" gradientUnits="userSpaceOnUse">
<stop stop-color="white"/>
<stop offset="1" stop-color="#EEEEEE"/>
</linearGradient>
<linearGradient id="paint2_linear_513_17266" x1="364.125" y1="125.374" x2="290.537" y2="10.0185" gradientUnits="userSpaceOnUse">
<stop stop-color="white"/>
<stop offset="1" stop-color="#EEEEEE"/>
</linearGradient>
<clipPath id="clip0_513_17266">
<rect width="460" height="332.793" fill="white"/>
</clipPath>
</defs>
</svg>
